G04 #@! TF.GenerationSoftware,KiCad,Pcbnew,9.0.6-9.0.6~ubuntu24.04.1*
G04 #@! TF.CreationDate,2025-12-16T19:59:53+01:00*
G04 #@! TF.ProjectId,odins-eye-pcb,6f64696e-732d-4657-9965-2d7063622e6b,0*
G04 #@! TF.SameCoordinates,Original*
G04 #@! TF.FileFunction,Copper,L1,Top*
G04 #@! TF.FilePolarity,Positive*
%FSLAX46Y46*%
G04 Gerber Fmt 4.6, Leading zero omitted, Abs format (unit mm)*
G04 Created by KiCad (PCBNEW 9.0.6-9.0.6~ubuntu24.04.1) date 2025-12-16 19:59:53*
%MOMM*%
%LPD*%
G01*
G04 APERTURE LIST*
G04 Aperture macros list*
%AMRoundRect*
0 Rectangle with rounded corners*
0 $1 Rounding radius*
0 $2 $3 $4 $5 $6 $7 $8 $9 X,Y pos of 4 corners*
0 Add a 4 corners polygon primitive as box body*
4,1,4,$2,$3,$4,$5,$6,$7,$8,$9,$2,$3,0*
0 Add four circle primitives for the rounded corners*
1,1,$1+$1,$2,$3*
1,1,$1+$1,$4,$5*
1,1,$1+$1,$6,$7*
1,1,$1+$1,$8,$9*
0 Add four rect primitives between the rounded corners*
20,1,$1+$1,$2,$3,$4,$5,0*
20,1,$1+$1,$4,$5,$6,$7,0*
20,1,$1+$1,$6,$7,$8,$9,0*
20,1,$1+$1,$8,$9,$2,$3,0*%
G04 Aperture macros list end*
G04 #@! TA.AperFunction,SMDPad,CuDef*
%ADD10RoundRect,0.150000X0.425000X-0.150000X0.425000X0.150000X-0.425000X0.150000X-0.425000X-0.150000X0*%
G04 #@! TD*
G04 #@! TA.AperFunction,SMDPad,CuDef*
%ADD11RoundRect,0.075000X0.500000X-0.075000X0.500000X0.075000X-0.500000X0.075000X-0.500000X-0.075000X0*%
G04 #@! TD*
G04 #@! TA.AperFunction,HeatsinkPad*
%ADD12O,2.100000X1.000000*%
G04 #@! TD*
G04 #@! TA.AperFunction,HeatsinkPad*
%ADD13O,1.800000X1.000000*%
G04 #@! TD*
G04 #@! TA.AperFunction,ComponentPad*
%ADD14C,1.600000*%
G04 #@! TD*
G04 #@! TA.AperFunction,ComponentPad*
%ADD15R,1.700000X1.700000*%
G04 #@! TD*
G04 #@! TA.AperFunction,ComponentPad*
%ADD16C,1.700000*%
G04 #@! TD*
G04 #@! TA.AperFunction,ComponentPad*
%ADD17RoundRect,0.200000X-0.200000X-0.450000X0.200000X-0.450000X0.200000X0.450000X-0.200000X0.450000X0*%
G04 #@! TD*
G04 #@! TA.AperFunction,ComponentPad*
%ADD18O,0.800000X1.300000*%
G04 #@! TD*
G04 #@! TA.AperFunction,ComponentPad*
%ADD19R,1.800000X1.800000*%
G04 #@! TD*
G04 #@! TA.AperFunction,ComponentPad*
%ADD20C,1.800000*%
G04 #@! TD*
G04 #@! TA.AperFunction,ViaPad*
%ADD21C,0.600000*%
G04 #@! TD*
G04 #@! TA.AperFunction,Conductor*
%ADD22C,0.200000*%
G04 #@! TD*
G04 #@! TA.AperFunction,Conductor*
%ADD23C,0.127000*%
G04 #@! TD*
G04 #@! TA.AperFunction,Conductor*
%ADD24C,0.400000*%
G04 #@! TD*
G04 APERTURE END LIST*
D10*
X191520000Y-97880000D03*
X191520000Y-97080000D03*
D11*
X191520000Y-95930000D03*
X191520000Y-94930000D03*
X191520000Y-94430000D03*
X191520000Y-93430000D03*
D10*
X191520000Y-92280000D03*
X191520000Y-91480000D03*
X191520000Y-91480000D03*
X191520000Y-92280000D03*
D11*
X191520000Y-92930000D03*
X191520000Y-93930000D03*
X191520000Y-95430000D03*
X191520000Y-96430000D03*
D10*
X191520000Y-97080000D03*
X191520000Y-97880000D03*
D12*
X192095000Y-99000000D03*
D13*
X196275000Y-99000000D03*
D12*
X192095000Y-90360000D03*
D13*
X196275000Y-90360000D03*
D14*
X172690000Y-80500000D03*
X180310000Y-80500000D03*
D15*
X157230000Y-96960000D03*
D16*
X157230000Y-99500000D03*
X154690000Y-96960000D03*
X154690000Y-99500000D03*
X152150000Y-96960000D03*
X152150000Y-99500000D03*
X149610000Y-96960000D03*
X149610000Y-99500000D03*
X147070000Y-96960000D03*
X147070000Y-99500000D03*
X144530000Y-96960000D03*
X144530000Y-99500000D03*
X141990000Y-96960000D03*
X141990000Y-99500000D03*
X139450000Y-96960000D03*
X139450000Y-99500000D03*
X136910000Y-96960000D03*
X136910000Y-99500000D03*
X134370000Y-96960000D03*
X134370000Y-99500000D03*
X131830000Y-96960000D03*
X131830000Y-99500000D03*
X129290000Y-96960000D03*
X129290000Y-99500000D03*
X126750000Y-96960000D03*
X126750000Y-99500000D03*
X124210000Y-96960000D03*
X124210000Y-99500000D03*
X121670000Y-96960000D03*
X121670000Y-99500000D03*
X119130000Y-96960000D03*
X119130000Y-99500000D03*
X116590000Y-96960000D03*
X116590000Y-99500000D03*
X114050000Y-96960000D03*
X114050000Y-99500000D03*
X111510000Y-96960000D03*
X111510000Y-99500000D03*
X108970000Y-96960000D03*
X108970000Y-99500000D03*
D14*
X186360000Y-80390000D03*
X193980000Y-80390000D03*
D17*
X142885000Y-111350000D03*
D18*
X144135000Y-111350000D03*
X145385000Y-111350000D03*
X146635000Y-111350000D03*
X147885000Y-111350000D03*
X149135000Y-111350000D03*
D15*
X161955000Y-75525000D03*
D16*
X161955000Y-78065000D03*
X161955000Y-80605000D03*
X161955000Y-83145000D03*
X161955000Y-85685000D03*
X161955000Y-88225000D03*
X161955000Y-90765000D03*
X161955000Y-93305000D03*
D14*
X180310000Y-104000000D03*
X172690000Y-104000000D03*
D19*
X177875000Y-94900000D03*
D20*
X175335000Y-94900000D03*
D15*
X111890000Y-110895000D03*
D16*
X114430000Y-110895000D03*
X116970000Y-110895000D03*
X119510000Y-110895000D03*
X122050000Y-110895000D03*
X124590000Y-110895000D03*
X127130000Y-110895000D03*
D21*
X130000000Y-104000000D03*
X128000000Y-107000000D03*
X147200000Y-105000000D03*
X118000000Y-106000000D03*
X127000000Y-107000000D03*
X131000000Y-102000000D03*
X153000000Y-98500000D03*
X153000000Y-102000000D03*
D22*
X175335000Y-94900000D02*
X175335000Y-101355000D01*
X175335000Y-101355000D02*
X172690000Y-104000000D01*
D23*
X146635000Y-111350000D02*
X147885000Y-111350000D01*
D22*
X123128000Y-109817000D02*
X126593000Y-109817000D01*
X122050000Y-110895000D02*
X123128000Y-109817000D01*
X126593000Y-109817000D02*
X136910000Y-99500000D01*
X129827000Y-100578000D02*
X132276523Y-100578000D01*
X132276523Y-100578000D02*
X133292000Y-99562523D01*
X119510000Y-110895000D02*
X129827000Y-100578000D01*
X133292000Y-98038000D02*
X134370000Y-96960000D01*
X133292000Y-99562523D02*
X133292000Y-98038000D01*
X128000000Y-106000000D02*
X130000000Y-104000000D01*
X128000000Y-107000000D02*
X128000000Y-106000000D01*
D24*
X114430000Y-109570000D02*
X118000000Y-106000000D01*
X114430000Y-110895000D02*
X114430000Y-109570000D01*
X147200000Y-105000000D02*
X151039944Y-105000000D01*
X151039944Y-105000000D02*
X156052000Y-99987944D01*
X156052000Y-98138000D02*
X157230000Y-96960000D01*
X157230000Y-80250000D02*
X157230000Y-96960000D01*
X161955000Y-75525000D02*
X157230000Y-80250000D01*
X156052000Y-99987944D02*
X156052000Y-98138000D01*
D22*
X127000000Y-106000000D02*
X131000000Y-102000000D01*
X127000000Y-107000000D02*
X127000000Y-106000000D01*
X127828000Y-100037000D02*
X127828000Y-98422000D01*
X116970000Y-110895000D02*
X127828000Y-100037000D01*
X127828000Y-98422000D02*
X129290000Y-96960000D01*
D23*
X151108500Y-98891500D02*
X151998500Y-98001500D01*
X153648500Y-98001500D02*
X154690000Y-96960000D01*
X144135000Y-107365000D02*
X151108500Y-100391500D01*
X151998500Y-98001500D02*
X153648500Y-98001500D01*
X151108500Y-100391500D02*
X151108500Y-98891500D01*
X144135000Y-111350000D02*
X144135000Y-107365000D01*
X153500000Y-99000000D02*
X153000000Y-98500000D01*
X153500000Y-101500000D02*
X153500000Y-99000000D01*
X153000000Y-102000000D02*
X153500000Y-101500000D01*
D24*
X187230000Y-97080000D02*
X191520000Y-97080000D01*
X192017008Y-92280000D02*
X191520000Y-92280000D01*
X179182000Y-105128000D02*
X180310000Y-104000000D01*
X191520000Y-97080000D02*
X192058281Y-97080000D01*
X157230000Y-99500000D02*
X162858000Y-105128000D01*
X192058281Y-97080000D02*
X192423000Y-96715281D01*
X192423000Y-96715281D02*
X192423000Y-92685992D01*
X192423000Y-92685992D02*
X192017008Y-92280000D01*
X180310000Y-104000000D02*
X187230000Y-97080000D01*
X162858000Y-105128000D02*
X179182000Y-105128000D01*
D22*
X188120000Y-95930000D02*
X191520000Y-95930000D01*
X172690000Y-80500000D02*
X188120000Y-95930000D01*
X186360000Y-88344999D02*
X190945001Y-92930000D01*
X190945001Y-92930000D02*
X191520000Y-92930000D01*
X186360000Y-80390000D02*
X186360000Y-88344999D01*
M02*
