G04 #@! TF.GenerationSoftware,KiCad,Pcbnew,9.0.6-9.0.6~ubuntu24.04.1*
G04 #@! TF.CreationDate,2025-12-16T20:00:51+01:00*
G04 #@! TF.ProjectId,odins-eye-pcb,6f64696e-732d-4657-9965-2d7063622e6b,0*
G04 #@! TF.SameCoordinates,Original*
G04 #@! TF.FileFunction,Copper,L4,Bot*
G04 #@! TF.FilePolarity,Positive*
%FSLAX46Y46*%
G04 Gerber Fmt 4.6, Leading zero omitted, Abs format (unit mm)*
G04 Created by KiCad (PCBNEW 9.0.6-9.0.6~ubuntu24.04.1) date 2025-12-16 20:00:51*
%MOMM*%
%LPD*%
G01*
G04 APERTURE LIST*
G04 Aperture macros list*
%AMRoundRect*
0 Rectangle with rounded corners*
0 $1 Rounding radius*
0 $2 $3 $4 $5 $6 $7 $8 $9 X,Y pos of 4 corners*
0 Add a 4 corners polygon primitive as box body*
4,1,4,$2,$3,$4,$5,$6,$7,$8,$9,$2,$3,0*
0 Add four circle primitives for the rounded corners*
1,1,$1+$1,$2,$3*
1,1,$1+$1,$4,$5*
1,1,$1+$1,$6,$7*
1,1,$1+$1,$8,$9*
0 Add four rect primitives between the rounded corners*
20,1,$1+$1,$2,$3,$4,$5,0*
20,1,$1+$1,$4,$5,$6,$7,0*
20,1,$1+$1,$6,$7,$8,$9,0*
20,1,$1+$1,$8,$9,$2,$3,0*%
G04 Aperture macros list end*
G04 #@! TA.AperFunction,HeatsinkPad*
%ADD10O,2.100000X1.000000*%
G04 #@! TD*
G04 #@! TA.AperFunction,HeatsinkPad*
%ADD11O,1.800000X1.000000*%
G04 #@! TD*
G04 #@! TA.AperFunction,ComponentPad*
%ADD12C,1.600000*%
G04 #@! TD*
G04 #@! TA.AperFunction,ComponentPad*
%ADD13R,1.700000X1.700000*%
G04 #@! TD*
G04 #@! TA.AperFunction,ComponentPad*
%ADD14C,1.700000*%
G04 #@! TD*
G04 #@! TA.AperFunction,ComponentPad*
%ADD15RoundRect,0.200000X-0.200000X-0.450000X0.200000X-0.450000X0.200000X0.450000X-0.200000X0.450000X0*%
G04 #@! TD*
G04 #@! TA.AperFunction,ComponentPad*
%ADD16O,0.800000X1.300000*%
G04 #@! TD*
G04 #@! TA.AperFunction,ComponentPad*
%ADD17R,1.800000X1.800000*%
G04 #@! TD*
G04 #@! TA.AperFunction,ComponentPad*
%ADD18C,1.800000*%
G04 #@! TD*
G04 #@! TA.AperFunction,ViaPad*
%ADD19C,0.600000*%
G04 #@! TD*
G04 #@! TA.AperFunction,Conductor*
%ADD20C,0.127000*%
G04 #@! TD*
G04 #@! TA.AperFunction,Conductor*
%ADD21C,0.200000*%
G04 #@! TD*
G04 #@! TA.AperFunction,Conductor*
%ADD22C,0.400000*%
G04 #@! TD*
G04 APERTURE END LIST*
D10*
X192095000Y-99000000D03*
D11*
X196275000Y-99000000D03*
D10*
X192095000Y-90360000D03*
D11*
X196275000Y-90360000D03*
D12*
X172690000Y-80500000D03*
X180310000Y-80500000D03*
D13*
X157230000Y-96960000D03*
D14*
X157230000Y-99500000D03*
X154690000Y-96960000D03*
X154690000Y-99500000D03*
X152150000Y-96960000D03*
X152150000Y-99500000D03*
X149610000Y-96960000D03*
X149610000Y-99500000D03*
X147070000Y-96960000D03*
X147070000Y-99500000D03*
X144530000Y-96960000D03*
X144530000Y-99500000D03*
X141990000Y-96960000D03*
X141990000Y-99500000D03*
X139450000Y-96960000D03*
X139450000Y-99500000D03*
X136910000Y-96960000D03*
X136910000Y-99500000D03*
X134370000Y-96960000D03*
X134370000Y-99500000D03*
X131830000Y-96960000D03*
X131830000Y-99500000D03*
X129290000Y-96960000D03*
X129290000Y-99500000D03*
X126750000Y-96960000D03*
X126750000Y-99500000D03*
X124210000Y-96960000D03*
X124210000Y-99500000D03*
X121670000Y-96960000D03*
X121670000Y-99500000D03*
X119130000Y-96960000D03*
X119130000Y-99500000D03*
X116590000Y-96960000D03*
X116590000Y-99500000D03*
X114050000Y-96960000D03*
X114050000Y-99500000D03*
X111510000Y-96960000D03*
X111510000Y-99500000D03*
X108970000Y-96960000D03*
X108970000Y-99500000D03*
D12*
X186360000Y-80390000D03*
X193980000Y-80390000D03*
D15*
X142885000Y-111350000D03*
D16*
X144135000Y-111350000D03*
X145385000Y-111350000D03*
X146635000Y-111350000D03*
X147885000Y-111350000D03*
X149135000Y-111350000D03*
D13*
X161955000Y-75525000D03*
D14*
X161955000Y-78065000D03*
X161955000Y-80605000D03*
X161955000Y-83145000D03*
X161955000Y-85685000D03*
X161955000Y-88225000D03*
X161955000Y-90765000D03*
X161955000Y-93305000D03*
D12*
X180310000Y-104000000D03*
X172690000Y-104000000D03*
D17*
X177875000Y-94900000D03*
D18*
X175335000Y-94900000D03*
D13*
X111890000Y-110895000D03*
D14*
X114430000Y-110895000D03*
X116970000Y-110895000D03*
X119510000Y-110895000D03*
X122050000Y-110895000D03*
X124590000Y-110895000D03*
X127130000Y-110895000D03*
D19*
X130000000Y-104000000D03*
X128000000Y-107000000D03*
X147200000Y-105000000D03*
X118000000Y-106000000D03*
X127000000Y-107000000D03*
X131000000Y-102000000D03*
X153000000Y-98500000D03*
X153000000Y-102000000D03*
D20*
X160752919Y-90765000D02*
X161955000Y-90765000D01*
X156188500Y-97311500D02*
X156188500Y-95329419D01*
X156188500Y-95329419D02*
X160752919Y-90765000D01*
X153217096Y-99500000D02*
X154715596Y-98001500D01*
X155498500Y-98001500D02*
X156188500Y-97311500D01*
X152150000Y-99500000D02*
X153217096Y-99500000D01*
X154715596Y-98001500D02*
X155498500Y-98001500D01*
D21*
X128000000Y-107000000D02*
X128000000Y-110025000D01*
X128000000Y-110025000D02*
X127130000Y-110895000D01*
X129290000Y-103290000D02*
X129290000Y-99500000D01*
X130000000Y-104000000D02*
X129290000Y-103290000D01*
D22*
X147200000Y-105000000D02*
X119000000Y-105000000D01*
X119000000Y-105000000D02*
X118000000Y-106000000D01*
D21*
X124590000Y-110895000D02*
X127000000Y-108485000D01*
X131000000Y-102000000D02*
X131830000Y-101170000D01*
X127000000Y-108485000D02*
X127000000Y-107000000D01*
X131830000Y-101170000D02*
X131830000Y-99500000D01*
X161955000Y-83145000D02*
X154690000Y-90410000D01*
X154690000Y-90410000D02*
X154690000Y-96960000D01*
D20*
X153000000Y-98500000D02*
X152150000Y-97650000D01*
X145385000Y-111350000D02*
X145385000Y-109615000D01*
D21*
X150688000Y-91872000D02*
X150688000Y-95498000D01*
X161955000Y-80605000D02*
X150688000Y-91872000D01*
X150688000Y-95498000D02*
X152150000Y-96960000D01*
D20*
X145385000Y-109615000D02*
X153000000Y-102000000D01*
X152150000Y-97650000D02*
X152150000Y-96960000D01*
D22*
X142885000Y-111115000D02*
X153322000Y-100678000D01*
X156052000Y-100678000D02*
X157230000Y-99500000D01*
X153322000Y-100678000D02*
X156052000Y-100678000D01*
X142885000Y-111350000D02*
X142885000Y-111115000D01*
G04 #@! TA.AperFunction,Conductor*
G36*
X151684075Y-99692993D02*
G01*
X151749901Y-99807007D01*
X151842993Y-99900099D01*
X151957007Y-99965925D01*
X152020589Y-99982962D01*
X151388282Y-100615269D01*
X151388282Y-100615270D01*
X151442449Y-100654624D01*
X151631782Y-100751095D01*
X151833866Y-100816756D01*
X151903170Y-100827732D01*
X151966306Y-100857661D01*
X152003237Y-100916972D01*
X152002241Y-100986835D01*
X151971455Y-101037887D01*
X148179087Y-104830255D01*
X148117764Y-104863740D01*
X148048072Y-104858756D01*
X147992139Y-104816884D01*
X147972182Y-104772129D01*
X147971506Y-104772335D01*
X147969870Y-104766942D01*
X147969787Y-104766757D01*
X147969737Y-104766503D01*
X147934575Y-104681613D01*
X147909397Y-104620827D01*
X147909390Y-104620814D01*
X147821789Y-104489711D01*
X147821786Y-104489707D01*
X147710292Y-104378213D01*
X147710288Y-104378210D01*
X147579185Y-104290609D01*
X147579172Y-104290602D01*
X147433501Y-104230264D01*
X147433489Y-104230261D01*
X147278845Y-104199500D01*
X147278842Y-104199500D01*
X147121158Y-104199500D01*
X147121155Y-104199500D01*
X146966510Y-104230261D01*
X146966498Y-104230264D01*
X146822136Y-104290061D01*
X146774684Y-104299500D01*
X130907703Y-104299500D01*
X130840664Y-104279815D01*
X130794909Y-104227011D01*
X130784965Y-104157853D01*
X130786086Y-104151309D01*
X130800499Y-104078846D01*
X130800500Y-104078844D01*
X130800500Y-103921155D01*
X130800499Y-103921153D01*
X130769737Y-103766503D01*
X130740313Y-103695466D01*
X130709397Y-103620827D01*
X130709390Y-103620814D01*
X130621789Y-103489711D01*
X130621786Y-103489707D01*
X130510292Y-103378213D01*
X130510288Y-103378210D01*
X130379185Y-103290609D01*
X130379172Y-103290602D01*
X130233501Y-103230264D01*
X130233491Y-103230261D01*
X130078151Y-103199362D01*
X130061394Y-103190596D01*
X130042916Y-103186577D01*
X130017874Y-103167831D01*
X130016241Y-103166977D01*
X130014661Y-103165426D01*
X129926818Y-103077582D01*
X129893334Y-103016258D01*
X129890500Y-102989901D01*
X129890500Y-100785718D01*
X129910185Y-100718679D01*
X129958207Y-100675233D01*
X129997815Y-100655052D01*
X129997815Y-100655051D01*
X129997816Y-100655051D01*
X130089193Y-100588661D01*
X130169786Y-100530109D01*
X130169788Y-100530106D01*
X130169792Y-100530104D01*
X130320104Y-100379792D01*
X130320106Y-100379788D01*
X130320109Y-100379786D01*
X130445048Y-100207820D01*
X130445047Y-100207820D01*
X130445051Y-100207816D01*
X130449514Y-100199054D01*
X130497488Y-100148259D01*
X130565308Y-100131463D01*
X130631444Y-100153999D01*
X130670486Y-100199056D01*
X130674951Y-100207820D01*
X130799890Y-100379786D01*
X130950213Y-100530109D01*
X131122184Y-100655051D01*
X131122184Y-100655052D01*
X131161793Y-100675233D01*
X131172856Y-100685681D01*
X131186703Y-100692005D01*
X131197744Y-100709185D01*
X131212590Y-100723206D01*
X131216831Y-100738886D01*
X131224477Y-100750783D01*
X131229500Y-100785718D01*
X131229500Y-100869903D01*
X131209815Y-100936942D01*
X131193181Y-100957584D01*
X130985339Y-101165425D01*
X130924016Y-101198910D01*
X130921850Y-101199361D01*
X130766508Y-101230261D01*
X130766498Y-101230264D01*
X130620827Y-101290602D01*
X130620814Y-101290609D01*
X130489711Y-101378210D01*
X130489707Y-101378213D01*
X130378213Y-101489707D01*
X130378210Y-101489711D01*
X130290609Y-101620814D01*
X130290602Y-101620827D01*
X130230264Y-101766498D01*
X130230261Y-101766510D01*
X130199500Y-101921153D01*
X130199500Y-102078846D01*
X130230261Y-102233489D01*
X130230264Y-102233501D01*
X130290602Y-102379172D01*
X130290609Y-102379185D01*
X130378210Y-102510288D01*
X130378213Y-102510292D01*
X130489707Y-102621786D01*
X130489711Y-102621789D01*
X130620814Y-102709390D01*
X130620827Y-102709397D01*
X130766498Y-102769735D01*
X130766503Y-102769737D01*
X130892402Y-102794780D01*
X130921153Y-102800499D01*
X130921156Y-102800500D01*
X130921158Y-102800500D01*
X131078844Y-102800500D01*
X131078845Y-102800499D01*
X131233497Y-102769737D01*
X131379179Y-102709394D01*
X131510289Y-102621789D01*
X131621789Y-102510289D01*
X131709394Y-102379179D01*
X131769737Y-102233497D01*
X131789113Y-102136085D01*
X131800638Y-102078150D01*
X131833023Y-102016239D01*
X131834523Y-102014711D01*
X132188506Y-101660727D01*
X132188511Y-101660724D01*
X132198714Y-101650520D01*
X132198716Y-101650520D01*
X132310520Y-101538716D01*
X132377019Y-101423535D01*
X132389577Y-101401785D01*
X132430500Y-101249058D01*
X132430500Y-101090943D01*
X132430500Y-100785718D01*
X132450185Y-100718679D01*
X132498207Y-100675233D01*
X132537815Y-100655052D01*
X132537815Y-100655051D01*
X132537816Y-100655051D01*
X132629193Y-100588661D01*
X132709786Y-100530109D01*
X132709788Y-100530106D01*
X132709792Y-100530104D01*
X132860104Y-100379792D01*
X132860106Y-100379788D01*
X132860109Y-100379786D01*
X132985048Y-100207820D01*
X132985047Y-100207820D01*
X132985051Y-100207816D01*
X132989514Y-100199054D01*
X133037488Y-100148259D01*
X133105308Y-100131463D01*
X133171444Y-100153999D01*
X133210486Y-100199056D01*
X133214951Y-100207820D01*
X133339890Y-100379786D01*
X133490213Y-100530109D01*
X133662179Y-100655048D01*
X133662181Y-100655049D01*
X133662184Y-100655051D01*
X133851588Y-100751557D01*
X134053757Y-100817246D01*
X134263713Y-100850500D01*
X134263714Y-100850500D01*
X134476286Y-100850500D01*
X134476287Y-100850500D01*
X134686243Y-100817246D01*
X134888412Y-100751557D01*
X135077816Y-100655051D01*
X135132572Y-100615269D01*
X135249786Y-100530109D01*
X135249788Y-100530106D01*
X135249792Y-100530104D01*
X135400104Y-100379792D01*
X135400106Y-100379788D01*
X135400109Y-100379786D01*
X135525048Y-100207820D01*
X135525047Y-100207820D01*
X135525051Y-100207816D01*
X135529514Y-100199054D01*
X135577488Y-100148259D01*
X135645308Y-100131463D01*
X135711444Y-100153999D01*
X135750486Y-100199056D01*
X135754951Y-100207820D01*
X135879890Y-100379786D01*
X136030213Y-100530109D01*
X136202179Y-100655048D01*
X136202181Y-100655049D01*
X136202184Y-100655051D01*
X136391588Y-100751557D01*
X136593757Y-100817246D01*
X136803713Y-100850500D01*
X136803714Y-100850500D01*
X137016286Y-100850500D01*
X137016287Y-100850500D01*
X137226243Y-100817246D01*
X137428412Y-100751557D01*
X137617816Y-100655051D01*
X137672572Y-100615269D01*
X137789786Y-100530109D01*
X137789788Y-100530106D01*
X137789792Y-100530104D01*
X137940104Y-100379792D01*
X137940106Y-100379788D01*
X137940109Y-100379786D01*
X138065048Y-100207820D01*
X138065047Y-100207820D01*
X138065051Y-100207816D01*
X138069514Y-100199054D01*
X138117488Y-100148259D01*
X138185308Y-100131463D01*
X138251444Y-100153999D01*
X138290486Y-100199056D01*
X138294951Y-100207820D01*
X138419890Y-100379786D01*
X138570213Y-100530109D01*
X138742179Y-100655048D01*
X138742181Y-100655049D01*
X138742184Y-100655051D01*
X138931588Y-100751557D01*
X139133757Y-100817246D01*
X139343713Y-100850500D01*
X139343714Y-100850500D01*
X139556286Y-100850500D01*
X139556287Y-100850500D01*
X139766243Y-100817246D01*
X139968412Y-100751557D01*
X140157816Y-100655051D01*
X140212572Y-100615269D01*
X140329786Y-100530109D01*
X140329788Y-100530106D01*
X140329792Y-100530104D01*
X140480104Y-100379792D01*
X140480106Y-100379788D01*
X140480109Y-100379786D01*
X140605048Y-100207820D01*
X140605047Y-100207820D01*
X140605051Y-100207816D01*
X140609514Y-100199054D01*
X140657488Y-100148259D01*
X140725308Y-100131463D01*
X140791444Y-100153999D01*
X140830486Y-100199056D01*
X140834951Y-100207820D01*
X140959890Y-100379786D01*
X141110213Y-100530109D01*
X141282179Y-100655048D01*
X141282181Y-100655049D01*
X141282184Y-100655051D01*
X141471588Y-100751557D01*
X141673757Y-100817246D01*
X141883713Y-100850500D01*
X141883714Y-100850500D01*
X142096286Y-100850500D01*
X142096287Y-100850500D01*
X142306243Y-100817246D01*
X142508412Y-100751557D01*
X142697816Y-100655051D01*
X142752572Y-100615269D01*
X142869786Y-100530109D01*
X142869788Y-100530106D01*
X142869792Y-100530104D01*
X143020104Y-100379792D01*
X143020106Y-100379788D01*
X143020109Y-100379786D01*
X143145048Y-100207820D01*
X143145047Y-100207820D01*
X143145051Y-100207816D01*
X143149514Y-100199054D01*
X143197488Y-100148259D01*
X143265308Y-100131463D01*
X143331444Y-100153999D01*
X143370486Y-100199056D01*
X143374951Y-100207820D01*
X143499890Y-100379786D01*
X143650213Y-100530109D01*
X143822179Y-100655048D01*
X143822181Y-100655049D01*
X143822184Y-100655051D01*
X144011588Y-100751557D01*
X144213757Y-100817246D01*
X144423713Y-100850500D01*
X144423714Y-100850500D01*
X144636286Y-100850500D01*
X144636287Y-100850500D01*
X144846243Y-100817246D01*
X145048412Y-100751557D01*
X145237816Y-100655051D01*
X145292572Y-100615269D01*
X145409786Y-100530109D01*
X145409788Y-100530106D01*
X145409792Y-100530104D01*
X145560104Y-100379792D01*
X145560106Y-100379788D01*
X145560109Y-100379786D01*
X145685048Y-100207820D01*
X145685047Y-100207820D01*
X145685051Y-100207816D01*
X145689514Y-100199054D01*
X145737488Y-100148259D01*
X145805308Y-100131463D01*
X145871444Y-100153999D01*
X145910486Y-100199056D01*
X145914951Y-100207820D01*
X146039890Y-100379786D01*
X146190213Y-100530109D01*
X146362179Y-100655048D01*
X146362181Y-100655049D01*
X146362184Y-100655051D01*
X146551588Y-100751557D01*
X146753757Y-100817246D01*
X146963713Y-100850500D01*
X146963714Y-100850500D01*
X147176286Y-100850500D01*
X147176287Y-100850500D01*
X147386243Y-100817246D01*
X147588412Y-100751557D01*
X147777816Y-100655051D01*
X147832572Y-100615269D01*
X147949786Y-100530109D01*
X147949788Y-100530106D01*
X147949792Y-100530104D01*
X148100104Y-100379792D01*
X148100106Y-100379788D01*
X148100109Y-100379786D01*
X148225048Y-100207820D01*
X148225047Y-100207820D01*
X148225051Y-100207816D01*
X148229514Y-100199054D01*
X148277488Y-100148259D01*
X148345308Y-100131463D01*
X148411444Y-100153999D01*
X148450486Y-100199056D01*
X148454951Y-100207820D01*
X148579890Y-100379786D01*
X148730213Y-100530109D01*
X148902179Y-100655048D01*
X148902181Y-100655049D01*
X148902184Y-100655051D01*
X149091588Y-100751557D01*
X149293757Y-100817246D01*
X149503713Y-100850500D01*
X149503714Y-100850500D01*
X149716286Y-100850500D01*
X149716287Y-100850500D01*
X149926243Y-100817246D01*
X150128412Y-100751557D01*
X150317816Y-100655051D01*
X150372572Y-100615269D01*
X150489786Y-100530109D01*
X150489788Y-100530106D01*
X150489792Y-100530104D01*
X150640104Y-100379792D01*
X150640106Y-100379788D01*
X150640109Y-100379786D01*
X150707515Y-100287007D01*
X150765051Y-100207816D01*
X150769793Y-100198508D01*
X150817763Y-100147711D01*
X150885583Y-100130911D01*
X150951719Y-100153445D01*
X150990763Y-100198500D01*
X150995373Y-100207547D01*
X151034728Y-100261716D01*
X151667036Y-99629407D01*
X151684075Y-99692993D01*
G37*
G04 #@! TD.AperFunction*
G04 #@! TA.AperFunction,Conductor*
G36*
X150951444Y-97613999D02*
G01*
X150990486Y-97659056D01*
X150994951Y-97667820D01*
X151119890Y-97839786D01*
X151270213Y-97990109D01*
X151442179Y-98115048D01*
X151442181Y-98115049D01*
X151442184Y-98115051D01*
X151451493Y-98119794D01*
X151502290Y-98167766D01*
X151519087Y-98235587D01*
X151496552Y-98301722D01*
X151451505Y-98340760D01*
X151442446Y-98345376D01*
X151442440Y-98345380D01*
X151388282Y-98384727D01*
X151388282Y-98384728D01*
X152020591Y-99017037D01*
X151957007Y-99034075D01*
X151842993Y-99099901D01*
X151749901Y-99192993D01*
X151684075Y-99307007D01*
X151667037Y-99370591D01*
X151034728Y-98738282D01*
X151034727Y-98738282D01*
X150995380Y-98792440D01*
X150995376Y-98792446D01*
X150990760Y-98801505D01*
X150942781Y-98852297D01*
X150874959Y-98869087D01*
X150808826Y-98846543D01*
X150769794Y-98801493D01*
X150765051Y-98792184D01*
X150765049Y-98792181D01*
X150765048Y-98792179D01*
X150640109Y-98620213D01*
X150489786Y-98469890D01*
X150317820Y-98344951D01*
X150317115Y-98344591D01*
X150309054Y-98340485D01*
X150258259Y-98292512D01*
X150241463Y-98224692D01*
X150263999Y-98158556D01*
X150309054Y-98119515D01*
X150317816Y-98115051D01*
X150404138Y-98052335D01*
X150489786Y-97990109D01*
X150489788Y-97990106D01*
X150489792Y-97990104D01*
X150640104Y-97839792D01*
X150640106Y-97839788D01*
X150640109Y-97839786D01*
X150765048Y-97667820D01*
X150765047Y-97667820D01*
X150765051Y-97667816D01*
X150769514Y-97659054D01*
X150817488Y-97608259D01*
X150885308Y-97591463D01*
X150951444Y-97613999D01*
G37*
G04 #@! TD.AperFunction*
G04 #@! TA.AperFunction,Conductor*
G36*
X155814341Y-97848068D02*
G01*
X155831857Y-97861181D01*
X155870274Y-97889939D01*
X155887189Y-97920917D01*
X155936202Y-98052328D01*
X155936206Y-98052335D01*
X156022452Y-98167544D01*
X156022455Y-98167547D01*
X156137664Y-98253793D01*
X156137671Y-98253797D01*
X156269082Y-98302810D01*
X156325016Y-98344681D01*
X156349433Y-98410145D01*
X156334582Y-98478418D01*
X156313431Y-98506673D01*
X156199889Y-98620215D01*
X156074949Y-98792182D01*
X156070484Y-98800946D01*
X156022509Y-98851742D01*
X155954688Y-98868536D01*
X155888553Y-98845998D01*
X155849516Y-98800946D01*
X155845050Y-98792182D01*
X155720109Y-98620213D01*
X155569786Y-98469890D01*
X155397820Y-98344951D01*
X155397115Y-98344591D01*
X155389054Y-98340485D01*
X155338259Y-98292512D01*
X155321463Y-98224692D01*
X155343999Y-98158556D01*
X155389054Y-98119515D01*
X155397816Y-98115051D01*
X155556171Y-98000000D01*
X155569784Y-97990110D01*
X155569784Y-97990109D01*
X155569792Y-97990104D01*
X155683329Y-97876566D01*
X155744648Y-97843084D01*
X155744649Y-97843084D01*
X155814341Y-97848068D01*
G37*
G04 #@! TD.AperFunction*
G04 #@! TA.AperFunction,Conductor*
G36*
X198817539Y-65045185D02*
G01*
X198863294Y-65097989D01*
X198874500Y-65149500D01*
X198874500Y-118900500D01*
X198854815Y-118967539D01*
X198802011Y-119013294D01*
X198750500Y-119024500D01*
X97999500Y-119024500D01*
X97932461Y-119004815D01*
X97886706Y-118952011D01*
X97875500Y-118900500D01*
X97875500Y-109997155D01*
X110540000Y-109997155D01*
X110540000Y-110645000D01*
X111456988Y-110645000D01*
X111424075Y-110702007D01*
X111390000Y-110829174D01*
X111390000Y-110960826D01*
X111424075Y-111087993D01*
X111456988Y-111145000D01*
X110540000Y-111145000D01*
X110540000Y-111792844D01*
X110546401Y-111852372D01*
X110546403Y-111852379D01*
X110596645Y-111987086D01*
X110596649Y-111987093D01*
X110682809Y-112102187D01*
X110682812Y-112102190D01*
X110797906Y-112188350D01*
X110797913Y-112188354D01*
X110932620Y-112238596D01*
X110932627Y-112238598D01*
X110992155Y-112244999D01*
X110992172Y-112245000D01*
X111640000Y-112245000D01*
X111640000Y-111328012D01*
X111697007Y-111360925D01*
X111824174Y-111395000D01*
X111955826Y-111395000D01*
X112082993Y-111360925D01*
X112140000Y-111328012D01*
X112140000Y-112245000D01*
X112787828Y-112245000D01*
X112787844Y-112244999D01*
X112847372Y-112238598D01*
X112847379Y-112238596D01*
X112982086Y-112188354D01*
X112982093Y-112188350D01*
X113097187Y-112102190D01*
X113097190Y-112102187D01*
X113183350Y-111987093D01*
X113183354Y-111987086D01*
X113232422Y-111855529D01*
X113274293Y-111799595D01*
X113339757Y-111775178D01*
X113408030Y-111790030D01*
X113436285Y-111811181D01*
X113550213Y-111925109D01*
X113722179Y-112050048D01*
X113722181Y-112050049D01*
X113722184Y-112050051D01*
X113911588Y-112146557D01*
X114113757Y-112212246D01*
X114323713Y-112245500D01*
X114323714Y-112245500D01*
X114536286Y-112245500D01*
X114536287Y-112245500D01*
X114746243Y-112212246D01*
X114948412Y-112146557D01*
X115137816Y-112050051D01*
X115159789Y-112034086D01*
X115309786Y-111925109D01*
X115309788Y-111925106D01*
X115309792Y-111925104D01*
X115460104Y-111774792D01*
X115460106Y-111774788D01*
X115460109Y-111774786D01*
X115585048Y-111602820D01*
X115585047Y-111602820D01*
X115585051Y-111602816D01*
X115589514Y-111594054D01*
X115637488Y-111543259D01*
X115705308Y-111526463D01*
X115771444Y-111548999D01*
X115810486Y-111594056D01*
X115814951Y-111602820D01*
X115939890Y-111774786D01*
X116090213Y-111925109D01*
X116262179Y-112050048D01*
X116262181Y-112050049D01*
X116262184Y-112050051D01*
X116451588Y-112146557D01*
X116653757Y-112212246D01*
X116863713Y-112245500D01*
X116863714Y-112245500D01*
X117076286Y-112245500D01*
X117076287Y-112245500D01*
X117286243Y-112212246D01*
X117488412Y-112146557D01*
X117677816Y-112050051D01*
X117699789Y-112034086D01*
X117849786Y-111925109D01*
X117849788Y-111925106D01*
X117849792Y-111925104D01*
X118000104Y-111774792D01*
X118000106Y-111774788D01*
X118000109Y-111774786D01*
X118125048Y-111602820D01*
X118125047Y-111602820D01*
X118125051Y-111602816D01*
X118129514Y-111594054D01*
X118177488Y-111543259D01*
X118245308Y-111526463D01*
X118311444Y-111548999D01*
X118350486Y-111594056D01*
X118354951Y-111602820D01*
X118479890Y-111774786D01*
X118630213Y-111925109D01*
X118802179Y-112050048D01*
X118802181Y-112050049D01*
X118802184Y-112050051D01*
X118991588Y-112146557D01*
X119193757Y-112212246D01*
X119403713Y-112245500D01*
X119403714Y-112245500D01*
X119616286Y-112245500D01*
X119616287Y-112245500D01*
X119826243Y-112212246D01*
X120028412Y-112146557D01*
X120217816Y-112050051D01*
X120239789Y-112034086D01*
X120389786Y-111925109D01*
X120389788Y-111925106D01*
X120389792Y-111925104D01*
X120540104Y-111774792D01*
X120540106Y-111774788D01*
X120540109Y-111774786D01*
X120665048Y-111602820D01*
X120665047Y-111602820D01*
X120665051Y-111602816D01*
X120669514Y-111594054D01*
X120717488Y-111543259D01*
X120785308Y-111526463D01*
X120851444Y-111548999D01*
X120890486Y-111594056D01*
X120894951Y-111602820D01*
X121019890Y-111774786D01*
X121170213Y-111925109D01*
X121342179Y-112050048D01*
X121342181Y-112050049D01*
X121342184Y-112050051D01*
X121531588Y-112146557D01*
X121733757Y-112212246D01*
X121943713Y-112245500D01*
X121943714Y-112245500D01*
X122156286Y-112245500D01*
X122156287Y-112245500D01*
X122366243Y-112212246D01*
X122568412Y-112146557D01*
X122757816Y-112050051D01*
X122779789Y-112034086D01*
X122929786Y-111925109D01*
X122929788Y-111925106D01*
X122929792Y-111925104D01*
X123080104Y-111774792D01*
X123080106Y-111774788D01*
X123080109Y-111774786D01*
X123205048Y-111602820D01*
X123205047Y-111602820D01*
X123205051Y-111602816D01*
X123209514Y-111594054D01*
X123257488Y-111543259D01*
X123325308Y-111526463D01*
X123391444Y-111548999D01*
X123430486Y-111594056D01*
X123434951Y-111602820D01*
X123559890Y-111774786D01*
X123710213Y-111925109D01*
X123882179Y-112050048D01*
X123882181Y-112050049D01*
X123882184Y-112050051D01*
X124071588Y-112146557D01*
X124273757Y-112212246D01*
X124483713Y-112245500D01*
X124483714Y-112245500D01*
X124696286Y-112245500D01*
X124696287Y-112245500D01*
X124906243Y-112212246D01*
X125108412Y-112146557D01*
X125297816Y-112050051D01*
X125319789Y-112034086D01*
X125469786Y-111925109D01*
X125469788Y-111925106D01*
X125469792Y-111925104D01*
X125620104Y-111774792D01*
X125620106Y-111774788D01*
X125620109Y-111774786D01*
X125745048Y-111602820D01*
X125745047Y-111602820D01*
X125745051Y-111602816D01*
X125749514Y-111594054D01*
X125797488Y-111543259D01*
X125865308Y-111526463D01*
X125931444Y-111548999D01*
X125970486Y-111594056D01*
X125974951Y-111602820D01*
X126099890Y-111774786D01*
X126250213Y-111925109D01*
X126422179Y-112050048D01*
X126422181Y-112050049D01*
X126422184Y-112050051D01*
X126611588Y-112146557D01*
X126813757Y-112212246D01*
X127023713Y-112245500D01*
X127023714Y-112245500D01*
X127236286Y-112245500D01*
X127236287Y-112245500D01*
X127446243Y-112212246D01*
X127648412Y-112146557D01*
X127837816Y-112050051D01*
X127859789Y-112034086D01*
X128009786Y-111925109D01*
X128009788Y-111925106D01*
X128009792Y-111925104D01*
X128160104Y-111774792D01*
X128160106Y-111774788D01*
X128160109Y-111774786D01*
X128285048Y-111602820D01*
X128285047Y-111602820D01*
X128285051Y-111602816D01*
X128381557Y-111413412D01*
X128447246Y-111211243D01*
X128480500Y-111001287D01*
X128480500Y-110788713D01*
X128447246Y-110578757D01*
X128433508Y-110536477D01*
X128431513Y-110466636D01*
X128463760Y-110410476D01*
X128466978Y-110407256D01*
X128480520Y-110393716D01*
X128559577Y-110256785D01*
X128600501Y-110104057D01*
X128600501Y-109945942D01*
X128600501Y-109938347D01*
X128600500Y-109938329D01*
X128600500Y-107579765D01*
X128620185Y-107512726D01*
X128621398Y-107510874D01*
X128709390Y-107379185D01*
X128709390Y-107379184D01*
X128709394Y-107379179D01*
X128769737Y-107233497D01*
X128800500Y-107078842D01*
X128800500Y-106921158D01*
X128800500Y-106921155D01*
X128800499Y-106921153D01*
X128769738Y-106766510D01*
X128769737Y-106766503D01*
X128709794Y-106621786D01*
X128709397Y-106620827D01*
X128709390Y-106620814D01*
X128621789Y-106489711D01*
X128621786Y-106489707D01*
X128510292Y-106378213D01*
X128510288Y-106378210D01*
X128379185Y-106290609D01*
X128379172Y-106290602D01*
X128233501Y-106230264D01*
X128233489Y-106230261D01*
X128078845Y-106199500D01*
X128078842Y-106199500D01*
X127921158Y-106199500D01*
X127921155Y-106199500D01*
X127766510Y-106230261D01*
X127766498Y-106230264D01*
X127620827Y-106290602D01*
X127620814Y-106290609D01*
X127568891Y-106325304D01*
X127502214Y-106346182D01*
X127434833Y-106327698D01*
X127431109Y-106325304D01*
X127379185Y-106290609D01*
X127379172Y-106290602D01*
X127233501Y-106230264D01*
X127233489Y-106230261D01*
X127078845Y-106199500D01*
X127078842Y-106199500D01*
X126921158Y-106199500D01*
X126921155Y-106199500D01*
X126766510Y-106230261D01*
X126766498Y-106230264D01*
X126620827Y-106290602D01*
X126620814Y-106290609D01*
X126489711Y-106378210D01*
X126489707Y-106378213D01*
X126378213Y-106489707D01*
X126378210Y-106489711D01*
X126290609Y-106620814D01*
X126290602Y-106620827D01*
X126230264Y-106766498D01*
X126230261Y-106766510D01*
X126199500Y-106921153D01*
X126199500Y-107078846D01*
X126230261Y-107233489D01*
X126230264Y-107233501D01*
X126290602Y-107379172D01*
X126290609Y-107379185D01*
X126378602Y-107510874D01*
X126399480Y-107577551D01*
X126399500Y-107579765D01*
X126399500Y-108184902D01*
X126379815Y-108251941D01*
X126363181Y-108272583D01*
X125074522Y-109561241D01*
X125013199Y-109594726D01*
X124948523Y-109591491D01*
X124906245Y-109577754D01*
X124766272Y-109555584D01*
X124696287Y-109544500D01*
X124483713Y-109544500D01*
X124435042Y-109552208D01*
X124273760Y-109577753D01*
X124071585Y-109643444D01*
X123882179Y-109739951D01*
X123710213Y-109864890D01*
X123559890Y-110015213D01*
X123434949Y-110187182D01*
X123430484Y-110195946D01*
X123382509Y-110246742D01*
X123314688Y-110263536D01*
X123248553Y-110240998D01*
X123209516Y-110195946D01*
X123205050Y-110187182D01*
X123080109Y-110015213D01*
X122929786Y-109864890D01*
X122757820Y-109739951D01*
X122568414Y-109643444D01*
X122568413Y-109643443D01*
X122568412Y-109643443D01*
X122366243Y-109577754D01*
X122366241Y-109577753D01*
X122366240Y-109577753D01*
X122204957Y-109552208D01*
X122156287Y-109544500D01*
X121943713Y-109544500D01*
X121895042Y-109552208D01*
X121733760Y-109577753D01*
X121531585Y-109643444D01*
X121342179Y-109739951D01*
X121170213Y-109864890D01*
X121019890Y-110015213D01*
X120894949Y-110187182D01*
X120890484Y-110195946D01*
X120842509Y-110246742D01*
X120774688Y-110263536D01*
X120708553Y-110240998D01*
X120669516Y-110195946D01*
X120665050Y-110187182D01*
X120540109Y-110015213D01*
X120389786Y-109864890D01*
X120217820Y-109739951D01*
X120028414Y-109643444D01*
X120028413Y-109643443D01*
X120028412Y-109643443D01*
X119826243Y-109577754D01*
X119826241Y-109577753D01*
X119826240Y-109577753D01*
X119664957Y-109552208D01*
X119616287Y-109544500D01*
X119403713Y-109544500D01*
X119355042Y-109552208D01*
X119193760Y-109577753D01*
X118991585Y-109643444D01*
X118802179Y-109739951D01*
X118630213Y-109864890D01*
X118479890Y-110015213D01*
X118354949Y-110187182D01*
X118350484Y-110195946D01*
X118302509Y-110246742D01*
X118234688Y-110263536D01*
X118168553Y-110240998D01*
X118129516Y-110195946D01*
X118125050Y-110187182D01*
X118000109Y-110015213D01*
X117849786Y-109864890D01*
X117677820Y-109739951D01*
X117488414Y-109643444D01*
X117488413Y-109643443D01*
X117488412Y-109643443D01*
X117286243Y-109577754D01*
X117286241Y-109577753D01*
X117286240Y-109577753D01*
X117124957Y-109552208D01*
X117076287Y-109544500D01*
X116863713Y-109544500D01*
X116815042Y-109552208D01*
X116653760Y-109577753D01*
X116451585Y-109643444D01*
X116262179Y-109739951D01*
X116090213Y-109864890D01*
X115939890Y-110015213D01*
X115814949Y-110187182D01*
X115810484Y-110195946D01*
X115762509Y-110246742D01*
X115694688Y-110263536D01*
X115628553Y-110240998D01*
X115589516Y-110195946D01*
X115585050Y-110187182D01*
X115460109Y-110015213D01*
X115309786Y-109864890D01*
X115137820Y-109739951D01*
X114948414Y-109643444D01*
X114948413Y-109643443D01*
X114948412Y-109643443D01*
X114746243Y-109577754D01*
X114746241Y-109577753D01*
X114746240Y-109577753D01*
X114584957Y-109552208D01*
X114536287Y-109544500D01*
X114323713Y-109544500D01*
X114275042Y-109552208D01*
X114113760Y-109577753D01*
X113911585Y-109643444D01*
X113722179Y-109739951D01*
X113550215Y-109864889D01*
X113436285Y-109978819D01*
X113374962Y-110012303D01*
X113305270Y-110007319D01*
X113249337Y-109965447D01*
X113232422Y-109934470D01*
X113183354Y-109802913D01*
X113183350Y-109802906D01*
X113097190Y-109687812D01*
X113097187Y-109687809D01*
X112982093Y-109601649D01*
X112982086Y-109601645D01*
X112847379Y-109551403D01*
X112847372Y-109551401D01*
X112787844Y-109545000D01*
X112140000Y-109545000D01*
X112140000Y-110461988D01*
X112082993Y-110429075D01*
X111955826Y-110395000D01*
X111824174Y-110395000D01*
X111697007Y-110429075D01*
X111640000Y-110461988D01*
X111640000Y-109545000D01*
X110992155Y-109545000D01*
X110932627Y-109551401D01*
X110932620Y-109551403D01*
X110797913Y-109601645D01*
X110797906Y-109601649D01*
X110682812Y-109687809D01*
X110682809Y-109687812D01*
X110596649Y-109802906D01*
X110596645Y-109802913D01*
X110546403Y-109937620D01*
X110546401Y-109937627D01*
X110540000Y-109997155D01*
X97875500Y-109997155D01*
X97875500Y-96853713D01*
X107619500Y-96853713D01*
X107619500Y-97066287D01*
X107652754Y-97276243D01*
X107682295Y-97367161D01*
X107718444Y-97478414D01*
X107814951Y-97667820D01*
X107939890Y-97839786D01*
X108090213Y-97990109D01*
X108262182Y-98115050D01*
X108270946Y-98119516D01*
X108321742Y-98167491D01*
X108338536Y-98235312D01*
X108315998Y-98301447D01*
X108270946Y-98340484D01*
X108262182Y-98344949D01*
X108090213Y-98469890D01*
X107939890Y-98620213D01*
X107814951Y-98792179D01*
X107718444Y-98981585D01*
X107652753Y-99183760D01*
X107619500Y-99393713D01*
X107619500Y-99606286D01*
X107646498Y-99776748D01*
X107652754Y-99816243D01*
X107712460Y-99999999D01*
X107718444Y-100018414D01*
X107814951Y-100207820D01*
X107939890Y-100379786D01*
X108090213Y-100530109D01*
X108262179Y-100655048D01*
X108262181Y-100655049D01*
X108262184Y-100655051D01*
X108451588Y-100751557D01*
X108653757Y-100817246D01*
X108863713Y-100850500D01*
X108863714Y-100850500D01*
X109076286Y-100850500D01*
X109076287Y-100850500D01*
X109286243Y-100817246D01*
X109488412Y-100751557D01*
X109677816Y-100655051D01*
X109732572Y-100615269D01*
X109849786Y-100530109D01*
X109849788Y-100530106D01*
X109849792Y-100530104D01*
X110000104Y-100379792D01*
X110000106Y-100379788D01*
X110000109Y-100379786D01*
X110125048Y-100207820D01*
X110125047Y-100207820D01*
X110125051Y-100207816D01*
X110129514Y-100199054D01*
X110177488Y-100148259D01*
X110245308Y-100131463D01*
X110311444Y-100153999D01*
X110350486Y-100199056D01*
X110354951Y-100207820D01*
X110479890Y-100379786D01*
X110630213Y-100530109D01*
X110802179Y-100655048D01*
X110802181Y-100655049D01*
X110802184Y-100655051D01*
X110991588Y-100751557D01*
X111193757Y-100817246D01*
X111403713Y-100850500D01*
X111403714Y-100850500D01*
X111616286Y-100850500D01*
X111616287Y-100850500D01*
X111826243Y-100817246D01*
X112028412Y-100751557D01*
X112217816Y-100655051D01*
X112272572Y-100615269D01*
X112389786Y-100530109D01*
X112389788Y-100530106D01*
X112389792Y-100530104D01*
X112540104Y-100379792D01*
X112540106Y-100379788D01*
X112540109Y-100379786D01*
X112665048Y-100207820D01*
X112665047Y-100207820D01*
X112665051Y-100207816D01*
X112669514Y-100199054D01*
X112717488Y-100148259D01*
X112785308Y-100131463D01*
X112851444Y-100153999D01*
X112890486Y-100199056D01*
X112894951Y-100207820D01*
X113019890Y-100379786D01*
X113170213Y-100530109D01*
X113342179Y-100655048D01*
X113342181Y-100655049D01*
X113342184Y-100655051D01*
X113531588Y-100751557D01*
X113733757Y-100817246D01*
X113943713Y-100850500D01*
X113943714Y-100850500D01*
X114156286Y-100850500D01*
X114156287Y-100850500D01*
X114366243Y-100817246D01*
X114568412Y-100751557D01*
X114757816Y-100655051D01*
X114812572Y-100615269D01*
X114929786Y-100530109D01*
X114929788Y-100530106D01*
X114929792Y-100530104D01*
X115080104Y-100379792D01*
X115080106Y-100379788D01*
X115080109Y-100379786D01*
X115205048Y-100207820D01*
X115205047Y-100207820D01*
X115205051Y-100207816D01*
X115209514Y-100199054D01*
X115257488Y-100148259D01*
X115325308Y-100131463D01*
X115391444Y-100153999D01*
X115430486Y-100199056D01*
X115434951Y-100207820D01*
X115559890Y-100379786D01*
X115710213Y-100530109D01*
X115882179Y-100655048D01*
X115882181Y-100655049D01*
X115882184Y-100655051D01*
X116071588Y-100751557D01*
X116273757Y-100817246D01*
X116483713Y-100850500D01*
X116483714Y-100850500D01*
X116696286Y-100850500D01*
X116696287Y-100850500D01*
X116906243Y-100817246D01*
X117108412Y-100751557D01*
X117297816Y-100655051D01*
X117352572Y-100615269D01*
X117469786Y-100530109D01*
X117469788Y-100530106D01*
X117469792Y-100530104D01*
X117620104Y-100379792D01*
X117620106Y-100379788D01*
X117620109Y-100379786D01*
X117745048Y-100207820D01*
X117745047Y-100207820D01*
X117745051Y-100207816D01*
X117749514Y-100199054D01*
X117797488Y-100148259D01*
X117865308Y-100131463D01*
X117931444Y-100153999D01*
X117970486Y-100199056D01*
X117974951Y-100207820D01*
X118099890Y-100379786D01*
X118250213Y-100530109D01*
X118422179Y-100655048D01*
X118422181Y-100655049D01*
X118422184Y-100655051D01*
X118611588Y-100751557D01*
X118813757Y-100817246D01*
X119023713Y-100850500D01*
X119023714Y-100850500D01*
X119236286Y-100850500D01*
X119236287Y-100850500D01*
X119446243Y-100817246D01*
X119648412Y-100751557D01*
X119837816Y-100655051D01*
X119892572Y-100615269D01*
X120009786Y-100530109D01*
X120009788Y-100530106D01*
X120009792Y-100530104D01*
X120160104Y-100379792D01*
X120160106Y-100379788D01*
X120160109Y-100379786D01*
X120285048Y-100207820D01*
X120285047Y-100207820D01*
X120285051Y-100207816D01*
X120289514Y-100199054D01*
X120337488Y-100148259D01*
X120405308Y-100131463D01*
X120471444Y-100153999D01*
X120510486Y-100199056D01*
X120514951Y-100207820D01*
X120639890Y-100379786D01*
X120790213Y-100530109D01*
X120962179Y-100655048D01*
X120962181Y-100655049D01*
X120962184Y-100655051D01*
X121151588Y-100751557D01*
X121353757Y-100817246D01*
X121563713Y-100850500D01*
X121563714Y-100850500D01*
X121776286Y-100850500D01*
X121776287Y-100850500D01*
X121986243Y-100817246D01*
X122188412Y-100751557D01*
X122377816Y-100655051D01*
X122432572Y-100615269D01*
X122549786Y-100530109D01*
X122549788Y-100530106D01*
X122549792Y-100530104D01*
X122700104Y-100379792D01*
X122700106Y-100379788D01*
X122700109Y-100379786D01*
X122825048Y-100207820D01*
X122825047Y-100207820D01*
X122825051Y-100207816D01*
X122829514Y-100199054D01*
X122877488Y-100148259D01*
X122945308Y-100131463D01*
X123011444Y-100153999D01*
X123050486Y-100199056D01*
X123054951Y-100207820D01*
X123179890Y-100379786D01*
X123330213Y-100530109D01*
X123502179Y-100655048D01*
X123502181Y-100655049D01*
X123502184Y-100655051D01*
X123691588Y-100751557D01*
X123893757Y-100817246D01*
X124103713Y-100850500D01*
X124103714Y-100850500D01*
X124316286Y-100850500D01*
X124316287Y-100850500D01*
X124526243Y-100817246D01*
X124728412Y-100751557D01*
X124917816Y-100655051D01*
X124972572Y-100615269D01*
X125089786Y-100530109D01*
X125089788Y-100530106D01*
X125089792Y-100530104D01*
X125240104Y-100379792D01*
X125240106Y-100379788D01*
X125240109Y-100379786D01*
X125365048Y-100207820D01*
X125365047Y-100207820D01*
X125365051Y-100207816D01*
X125369514Y-100199054D01*
X125417488Y-100148259D01*
X125485308Y-100131463D01*
X125551444Y-100153999D01*
X125590486Y-100199056D01*
X125594951Y-100207820D01*
X125719890Y-100379786D01*
X125870213Y-100530109D01*
X126042179Y-100655048D01*
X126042181Y-100655049D01*
X126042184Y-100655051D01*
X126231588Y-100751557D01*
X126433757Y-100817246D01*
X126643713Y-100850500D01*
X126643714Y-100850500D01*
X126856286Y-100850500D01*
X126856287Y-100850500D01*
X127066243Y-100817246D01*
X127268412Y-100751557D01*
X127457816Y-100655051D01*
X127512572Y-100615269D01*
X127629786Y-100530109D01*
X127629788Y-100530106D01*
X127629792Y-100530104D01*
X127780104Y-100379792D01*
X127780106Y-100379788D01*
X127780109Y-100379786D01*
X127905048Y-100207820D01*
X127905047Y-100207820D01*
X127905051Y-100207816D01*
X127909514Y-100199054D01*
X127957488Y-100148259D01*
X128025308Y-100131463D01*
X128091444Y-100153999D01*
X128130486Y-100199056D01*
X128134951Y-100207820D01*
X128259890Y-100379786D01*
X128410213Y-100530109D01*
X128582184Y-100655051D01*
X128582184Y-100655052D01*
X128621793Y-100675233D01*
X128672590Y-100723206D01*
X128689500Y-100785718D01*
X128689500Y-103203330D01*
X128689499Y-103203348D01*
X128689499Y-103369054D01*
X128689498Y-103369054D01*
X128730423Y-103521785D01*
X128759358Y-103571900D01*
X128759359Y-103571904D01*
X128759360Y-103571904D01*
X128809479Y-103658714D01*
X128809481Y-103658717D01*
X128928349Y-103777585D01*
X128928355Y-103777590D01*
X129165425Y-104014660D01*
X129174487Y-104031255D01*
X129187619Y-104044865D01*
X129198025Y-104074362D01*
X129198910Y-104075983D01*
X129199361Y-104078149D01*
X129213914Y-104151308D01*
X129207687Y-104220899D01*
X129164825Y-104276077D01*
X129098935Y-104299322D01*
X129092297Y-104299500D01*
X118931004Y-104299500D01*
X118795677Y-104326418D01*
X118795667Y-104326421D01*
X118668192Y-104379222D01*
X118553454Y-104455887D01*
X117805412Y-105203929D01*
X117765184Y-105230809D01*
X117620823Y-105290604D01*
X117620814Y-105290609D01*
X117489711Y-105378210D01*
X117489707Y-105378213D01*
X117378213Y-105489707D01*
X117378210Y-105489711D01*
X117290609Y-105620814D01*
X117290602Y-105620827D01*
X117230264Y-105766498D01*
X117230261Y-105766510D01*
X117199500Y-105921153D01*
X117199500Y-106078846D01*
X117230261Y-106233489D01*
X117230264Y-106233501D01*
X117290602Y-106379172D01*
X117290609Y-106379185D01*
X117378210Y-106510288D01*
X117378213Y-106510292D01*
X117489707Y-106621786D01*
X117489711Y-106621789D01*
X117620814Y-106709390D01*
X117620827Y-106709397D01*
X117758683Y-106766498D01*
X117766503Y-106769737D01*
X117921153Y-106800499D01*
X117921156Y-106800500D01*
X117921158Y-106800500D01*
X118078844Y-106800500D01*
X118078845Y-106800499D01*
X118233497Y-106769737D01*
X118379179Y-106709394D01*
X118510289Y-106621789D01*
X118621789Y-106510289D01*
X118709394Y-106379179D01*
X118709395Y-106379176D01*
X118709397Y-106379173D01*
X118769192Y-106234812D01*
X118796069Y-106194586D01*
X119253838Y-105736819D01*
X119315161Y-105703334D01*
X119341519Y-105700500D01*
X146774684Y-105700500D01*
X146781922Y-105701889D01*
X146786276Y-105701043D01*
X146816222Y-105708471D01*
X146820589Y-105709310D01*
X146821359Y-105709617D01*
X146966503Y-105769737D01*
X146977919Y-105772007D01*
X146988479Y-105776216D01*
X147007383Y-105791034D01*
X147028668Y-105802166D01*
X147034381Y-105812197D01*
X147043468Y-105819320D01*
X147051359Y-105842005D01*
X147063248Y-105862878D01*
X147062631Y-105874407D01*
X147066424Y-105885311D01*
X147060798Y-105908661D01*
X147059515Y-105932648D01*
X147052236Y-105944200D01*
X147050059Y-105953237D01*
X147041208Y-105961702D01*
X147030255Y-105979087D01*
X142846162Y-110163181D01*
X142784839Y-110196666D01*
X142758481Y-110199500D01*
X142628384Y-110199500D01*
X142609145Y-110201248D01*
X142557807Y-110205913D01*
X142395393Y-110256522D01*
X142249811Y-110344530D01*
X142129530Y-110464811D01*
X142041522Y-110610393D01*
X141990913Y-110772807D01*
X141984500Y-110843386D01*
X141984500Y-111856613D01*
X141990913Y-111927192D01*
X141990913Y-111927194D01*
X141990914Y-111927196D01*
X142029196Y-112050051D01*
X142041522Y-112089606D01*
X142129530Y-112235188D01*
X142249811Y-112355469D01*
X142249813Y-112355470D01*
X142249815Y-112355472D01*
X142395394Y-112443478D01*
X142557804Y-112494086D01*
X142628384Y-112500500D01*
X142628387Y-112500500D01*
X143141613Y-112500500D01*
X143141616Y-112500500D01*
X143212196Y-112494086D01*
X143374606Y-112443478D01*
X143518125Y-112356717D01*
X143585676Y-112338882D01*
X143651162Y-112359733D01*
X143708450Y-112398011D01*
X143708457Y-112398015D01*
X143817707Y-112443267D01*
X143872334Y-112465894D01*
X143872336Y-112465894D01*
X143872341Y-112465896D01*
X144046304Y-112500499D01*
X144046307Y-112500500D01*
X144046309Y-112500500D01*
X144223693Y-112500500D01*
X144223694Y-112500499D01*
X144281682Y-112488964D01*
X144397658Y-112465896D01*
X144397661Y-112465894D01*
X144397666Y-112465894D01*
X144561547Y-112398013D01*
X144691109Y-112311442D01*
X144757786Y-112290564D01*
X144825166Y-112309048D01*
X144828891Y-112311442D01*
X144958446Y-112398008D01*
X144958453Y-112398013D01*
X144958455Y-112398014D01*
X144958459Y-112398016D01*
X145068214Y-112443477D01*
X145122334Y-112465894D01*
X145122336Y-112465894D01*
X145122341Y-112465896D01*
X145296304Y-112500499D01*
X145296307Y-112500500D01*
X145296309Y-112500500D01*
X145473693Y-112500500D01*
X145473694Y-112500499D01*
X145531682Y-112488964D01*
X145647658Y-112465896D01*
X145647661Y-112465894D01*
X145647666Y-112465894D01*
X145811547Y-112398013D01*
X145811552Y-112398009D01*
X145811555Y-112398008D01*
X145900042Y-112338882D01*
X145941558Y-112311141D01*
X146008234Y-112290263D01*
X146075615Y-112308747D01*
X146079340Y-112311141D01*
X146208683Y-112397566D01*
X146208693Y-112397571D01*
X146372476Y-112465412D01*
X146372483Y-112465415D01*
X146385000Y-112467904D01*
X146385000Y-112467903D01*
X146885000Y-112467903D01*
X146897516Y-112465415D01*
X146897523Y-112465412D01*
X147061306Y-112397571D01*
X147061316Y-112397566D01*
X147191109Y-112310841D01*
X147257786Y-112289963D01*
X147325166Y-112308447D01*
X147328891Y-112310841D01*
X147458683Y-112397566D01*
X147458693Y-112397571D01*
X147622476Y-112465412D01*
X147622483Y-112465415D01*
X147635000Y-112467904D01*
X147635000Y-111600000D01*
X146885000Y-111600000D01*
X146885000Y-112467903D01*
X146385000Y-112467903D01*
X146385000Y-111399728D01*
X146423060Y-111491614D01*
X146493386Y-111561940D01*
X146585272Y-111600000D01*
X146684728Y-111600000D01*
X146776614Y-111561940D01*
X146846940Y-111491614D01*
X146885000Y-111399728D01*
X146885000Y-111300272D01*
X147635000Y-111300272D01*
X147635000Y-111399728D01*
X147673060Y-111491614D01*
X147743386Y-111561940D01*
X147835272Y-111600000D01*
X147934728Y-111600000D01*
X148026614Y-111561940D01*
X148096940Y-111491614D01*
X148135000Y-111399728D01*
X148135000Y-112467903D01*
X148147516Y-112465415D01*
X148147523Y-112465412D01*
X148311306Y-112397571D01*
X148311315Y-112397566D01*
X148440659Y-112311141D01*
X148507336Y-112290263D01*
X148574716Y-112308747D01*
X148578441Y-112311141D01*
X148707791Y-112397571D01*
X148708453Y-112398013D01*
X148708455Y-112398014D01*
X148708459Y-112398016D01*
X148818214Y-112443477D01*
X148872334Y-112465894D01*
X148872336Y-112465894D01*
X148872341Y-112465896D01*
X149046304Y-112500499D01*
X149046307Y-112500500D01*
X149046309Y-112500500D01*
X149223693Y-112500500D01*
X149223694Y-112500499D01*
X149281682Y-112488964D01*
X149397658Y-112465896D01*
X149397661Y-112465894D01*
X149397666Y-112465894D01*
X149561547Y-112398013D01*
X149562209Y-112397571D01*
X149563534Y-112396685D01*
X149709035Y-112299464D01*
X149834464Y-112174035D01*
X149933013Y-112026547D01*
X150000894Y-111862666D01*
X150002098Y-111856616D01*
X150035499Y-111688695D01*
X150035500Y-111688693D01*
X150035500Y-111011306D01*
X150035499Y-111011304D01*
X150000896Y-110837341D01*
X150000893Y-110837332D01*
X149933016Y-110673459D01*
X149933009Y-110673446D01*
X149834464Y-110525965D01*
X149834461Y-110525961D01*
X149709038Y-110400538D01*
X149709034Y-110400535D01*
X149561553Y-110301990D01*
X149561540Y-110301983D01*
X149397667Y-110234106D01*
X149397658Y-110234103D01*
X149223694Y-110199500D01*
X149223691Y-110199500D01*
X149046309Y-110199500D01*
X149046306Y-110199500D01*
X148872341Y-110234103D01*
X148872332Y-110234106D01*
X148708459Y-110301983D01*
X148708446Y-110301990D01*
X148578441Y-110388858D01*
X148511764Y-110409736D01*
X148444383Y-110391252D01*
X148440659Y-110388858D01*
X148311316Y-110302433D01*
X148311307Y-110302428D01*
X148147519Y-110234585D01*
X148135000Y-110232094D01*
X148135000Y-111300272D01*
X148096940Y-111208386D01*
X148026614Y-111138060D01*
X147934728Y-111100000D01*
X147835272Y-111100000D01*
X147743386Y-111138060D01*
X147673060Y-111208386D01*
X147635000Y-111300272D01*
X146885000Y-111300272D01*
X146846940Y-111208386D01*
X146776614Y-111138060D01*
X146684728Y-111100000D01*
X146585272Y-111100000D01*
X146493386Y-111138060D01*
X146423060Y-111208386D01*
X146385000Y-111300272D01*
X146385000Y-110232095D01*
X146384999Y-110232094D01*
X146885000Y-110232094D01*
X146885000Y-111100000D01*
X147635000Y-111100000D01*
X147635000Y-110232095D01*
X147634999Y-110232094D01*
X147622480Y-110234585D01*
X147458692Y-110302428D01*
X147458683Y-110302433D01*
X147328891Y-110389158D01*
X147262213Y-110410036D01*
X147194833Y-110391551D01*
X147191109Y-110389158D01*
X147061316Y-110302433D01*
X147061307Y-110302428D01*
X146897519Y-110234585D01*
X146885000Y-110232094D01*
X146384999Y-110232094D01*
X146372480Y-110234585D01*
X146208692Y-110302428D01*
X146208683Y-110302433D01*
X146141891Y-110347063D01*
X146075213Y-110367941D01*
X146007833Y-110349456D01*
X145961143Y-110297478D01*
X145949000Y-110243961D01*
X145949000Y-109899978D01*
X145968685Y-109832939D01*
X145985319Y-109812297D01*
X151899968Y-103897648D01*
X171389500Y-103897648D01*
X171389500Y-104102351D01*
X171421522Y-104304534D01*
X171484781Y-104499223D01*
X171577715Y-104681613D01*
X171698028Y-104847213D01*
X171842786Y-104991971D01*
X171997749Y-105104556D01*
X172008390Y-105112287D01*
X172124607Y-105171503D01*
X172190776Y-105205218D01*
X172190778Y-105205218D01*
X172190781Y-105205220D01*
X172269536Y-105230809D01*
X172385465Y-105268477D01*
X172486557Y-105284488D01*
X172587648Y-105300500D01*
X172587649Y-105300500D01*
X172792351Y-105300500D01*
X172792352Y-105300500D01*
X172994534Y-105268477D01*
X173189219Y-105205220D01*
X173371610Y-105112287D01*
X173513990Y-105008843D01*
X173537213Y-104991971D01*
X173537215Y-104991968D01*
X173537219Y-104991966D01*
X173681966Y-104847219D01*
X173681968Y-104847215D01*
X173681971Y-104847213D01*
X173740613Y-104766497D01*
X173802287Y-104681610D01*
X173895220Y-104499219D01*
X173958477Y-104304534D01*
X173990500Y-104102352D01*
X173990500Y-103897648D01*
X179009500Y-103897648D01*
X179009500Y-104102351D01*
X179041522Y-104304534D01*
X179104781Y-104499223D01*
X179197715Y-104681613D01*
X179318028Y-104847213D01*
X179462786Y-104991971D01*
X179617749Y-105104556D01*
X179628390Y-105112287D01*
X179744607Y-105171503D01*
X179810776Y-105205218D01*
X179810778Y-105205218D01*
X179810781Y-105205220D01*
X179889536Y-105230809D01*
X180005465Y-105268477D01*
X180106557Y-105284488D01*
X180207648Y-105300500D01*
X180207649Y-105300500D01*
X180412351Y-105300500D01*
X180412352Y-105300500D01*
X180614534Y-105268477D01*
X180809219Y-105205220D01*
X180991610Y-105112287D01*
X181133990Y-105008843D01*
X181157213Y-104991971D01*
X181157215Y-104991968D01*
X181157219Y-104991966D01*
X181301966Y-104847219D01*
X181301968Y-104847215D01*
X181301971Y-104847213D01*
X181360613Y-104766497D01*
X181422287Y-104681610D01*
X181515220Y-104499219D01*
X181578477Y-104304534D01*
X181610500Y-104102352D01*
X181610500Y-103897648D01*
X181590365Y-103770520D01*
X181578477Y-103695465D01*
X181538328Y-103571900D01*
X181515220Y-103500781D01*
X181515218Y-103500778D01*
X181515218Y-103500776D01*
X181452767Y-103378211D01*
X181422287Y-103318390D01*
X181402098Y-103290602D01*
X181301971Y-103152786D01*
X181157213Y-103008028D01*
X180991613Y-102887715D01*
X180991612Y-102887714D01*
X180991610Y-102887713D01*
X180934653Y-102858691D01*
X180809223Y-102794781D01*
X180614534Y-102731522D01*
X180439995Y-102703878D01*
X180412352Y-102699500D01*
X180207648Y-102699500D01*
X180183329Y-102703351D01*
X180005465Y-102731522D01*
X179810776Y-102794781D01*
X179628386Y-102887715D01*
X179462786Y-103008028D01*
X179318028Y-103152786D01*
X179197715Y-103318386D01*
X179104781Y-103500776D01*
X179041522Y-103695465D01*
X179009500Y-103897648D01*
X173990500Y-103897648D01*
X173970365Y-103770520D01*
X173958477Y-103695465D01*
X173918328Y-103571900D01*
X173895220Y-103500781D01*
X173895218Y-103500778D01*
X173895218Y-103500776D01*
X173832767Y-103378211D01*
X173802287Y-103318390D01*
X173782098Y-103290602D01*
X173681971Y-103152786D01*
X173537213Y-103008028D01*
X173371613Y-102887715D01*
X173371612Y-102887714D01*
X173371610Y-102887713D01*
X173314653Y-102858691D01*
X173189223Y-102794781D01*
X172994534Y-102731522D01*
X172819995Y-102703878D01*
X172792352Y-102699500D01*
X172587648Y-102699500D01*
X172563329Y-102703351D01*
X172385465Y-102731522D01*
X172190776Y-102794781D01*
X172008386Y-102887715D01*
X171842786Y-103008028D01*
X171698028Y-103152786D01*
X171577715Y-103318386D01*
X171484781Y-103500776D01*
X171421522Y-103695465D01*
X171389500Y-103897648D01*
X151899968Y-103897648D01*
X152960797Y-102836819D01*
X153022120Y-102803334D01*
X153048478Y-102800500D01*
X153078844Y-102800500D01*
X153078845Y-102800499D01*
X153233497Y-102769737D01*
X153379179Y-102709394D01*
X153510289Y-102621789D01*
X153621789Y-102510289D01*
X153709394Y-102379179D01*
X153769737Y-102233497D01*
X153800500Y-102078842D01*
X153800500Y-101921158D01*
X153800500Y-101921155D01*
X153800499Y-101921153D01*
X153769738Y-101766510D01*
X153769737Y-101766503D01*
X153725926Y-101660732D01*
X153709397Y-101620827D01*
X153709393Y-101620820D01*
X153709389Y-101620814D01*
X153676365Y-101571390D01*
X153655488Y-101504714D01*
X153673972Y-101437334D01*
X153725951Y-101390643D01*
X153779468Y-101378500D01*
X156120996Y-101378500D01*
X156212040Y-101360389D01*
X156256328Y-101351580D01*
X156320069Y-101325177D01*
X156383807Y-101298777D01*
X156383808Y-101298776D01*
X156383811Y-101298775D01*
X156498543Y-101222114D01*
X156860151Y-100860504D01*
X156921470Y-100827022D01*
X156967227Y-100825715D01*
X157035868Y-100836586D01*
X157123713Y-100850500D01*
X157123714Y-100850500D01*
X157336286Y-100850500D01*
X157336287Y-100850500D01*
X157546243Y-100817246D01*
X157748412Y-100751557D01*
X157937816Y-100655051D01*
X157992572Y-100615269D01*
X158109786Y-100530109D01*
X158109788Y-100530106D01*
X158109792Y-100530104D01*
X158260104Y-100379792D01*
X158260106Y-100379788D01*
X158260109Y-100379786D01*
X158385048Y-100207820D01*
X158385047Y-100207820D01*
X158385051Y-100207816D01*
X158481557Y-100018412D01*
X158547246Y-99816243D01*
X158580500Y-99606287D01*
X158580500Y-99393713D01*
X158547246Y-99183757D01*
X158481557Y-98981588D01*
X158385051Y-98792184D01*
X158354403Y-98750000D01*
X190575138Y-98750000D01*
X191378012Y-98750000D01*
X191360795Y-98759940D01*
X191304940Y-98815795D01*
X191265444Y-98884204D01*
X191245000Y-98960504D01*
X191245000Y-99039496D01*
X191265444Y-99115796D01*
X191304940Y-99184205D01*
X191360795Y-99240060D01*
X191378012Y-99250000D01*
X190575138Y-99250000D01*
X190583430Y-99291690D01*
X190583430Y-99291692D01*
X190658807Y-99473671D01*
X190658814Y-99473684D01*
X190768248Y-99637462D01*
X190768251Y-99637466D01*
X190907533Y-99776748D01*
X190907537Y-99776751D01*
X191071315Y-99886185D01*
X191071328Y-99886192D01*
X191253306Y-99961569D01*
X191253318Y-99961572D01*
X191446504Y-99999999D01*
X191446508Y-100000000D01*
X191845000Y-100000000D01*
X191845000Y-99300000D01*
X192345000Y-99300000D01*
X192345000Y-100000000D01*
X192743492Y-100000000D01*
X192743495Y-99999999D01*
X192936681Y-99961572D01*
X192936693Y-99961569D01*
X193118671Y-99886192D01*
X193118684Y-99886185D01*
X193282462Y-99776751D01*
X193282466Y-99776748D01*
X193421748Y-99637466D01*
X193421751Y-99637462D01*
X193531185Y-99473684D01*
X193531192Y-99473671D01*
X193606569Y-99291692D01*
X193606569Y-99291690D01*
X193614862Y-99250000D01*
X192811988Y-99250000D01*
X192829205Y-99240060D01*
X192885060Y-99184205D01*
X192924556Y-99115796D01*
X192945000Y-99039496D01*
X192945000Y-98960504D01*
X192924556Y-98884204D01*
X192885060Y-98815795D01*
X192829205Y-98759940D01*
X192811988Y-98750000D01*
X193614862Y-98750000D01*
X194905138Y-98750000D01*
X195708012Y-98750000D01*
X195690795Y-98759940D01*
X195634940Y-98815795D01*
X195595444Y-98884204D01*
X195575000Y-98960504D01*
X195575000Y-99039496D01*
X195595444Y-99115796D01*
X195634940Y-99184205D01*
X195690795Y-99240060D01*
X195708012Y-99250000D01*
X194905138Y-99250000D01*
X194913430Y-99291690D01*
X194913430Y-99291692D01*
X194988807Y-99473671D01*
X194988814Y-99473684D01*
X195098248Y-99637462D01*
X195098251Y-99637466D01*
X195237533Y-99776748D01*
X195237537Y-99776751D01*
X195401315Y-99886185D01*
X195401328Y-99886192D01*
X195583306Y-99961569D01*
X195583318Y-99961572D01*
X195776504Y-99999999D01*
X195776508Y-100000000D01*
X196025000Y-100000000D01*
X196025000Y-99300000D01*
X196525000Y-99300000D01*
X196525000Y-100000000D01*
X196773492Y-100000000D01*
X196773495Y-99999999D01*
X196966681Y-99961572D01*
X196966693Y-99961569D01*
X197148671Y-99886192D01*
X197148684Y-99886185D01*
X197312462Y-99776751D01*
X197312466Y-99776748D01*
X197451748Y-99637466D01*
X197451751Y-99637462D01*
X197561185Y-99473684D01*
X197561192Y-99473671D01*
X197636569Y-99291692D01*
X197636569Y-99291690D01*
X197644862Y-99250000D01*
X196841988Y-99250000D01*
X196859205Y-99240060D01*
X196915060Y-99184205D01*
X196954556Y-99115796D01*
X196975000Y-99039496D01*
X196975000Y-98960504D01*
X196954556Y-98884204D01*
X196915060Y-98815795D01*
X196859205Y-98759940D01*
X196841988Y-98750000D01*
X197644862Y-98750000D01*
X197636569Y-98708309D01*
X197636569Y-98708307D01*
X197561192Y-98526328D01*
X197561185Y-98526315D01*
X197451751Y-98362537D01*
X197451748Y-98362533D01*
X197312466Y-98223251D01*
X197312462Y-98223248D01*
X197148684Y-98113814D01*
X197148671Y-98113807D01*
X196966693Y-98038430D01*
X196966681Y-98038427D01*
X196773495Y-98000000D01*
X196525000Y-98000000D01*
X196525000Y-98700000D01*
X196025000Y-98700000D01*
X196025000Y-98000000D01*
X195776504Y-98000000D01*
X195583318Y-98038427D01*
X195583306Y-98038430D01*
X195401328Y-98113807D01*
X195401315Y-98113814D01*
X195237537Y-98223248D01*
X195237533Y-98223251D01*
X195098251Y-98362533D01*
X195098248Y-98362537D01*
X194988814Y-98526315D01*
X194988807Y-98526328D01*
X194913430Y-98708307D01*
X194913430Y-98708309D01*
X194905138Y-98750000D01*
X193614862Y-98750000D01*
X193606569Y-98708309D01*
X193606569Y-98708307D01*
X193531192Y-98526328D01*
X193531185Y-98526315D01*
X193421751Y-98362537D01*
X193421748Y-98362533D01*
X193282466Y-98223251D01*
X193282462Y-98223248D01*
X193118684Y-98113814D01*
X193118672Y-98113807D01*
X193060802Y-98089838D01*
X193006398Y-98045998D01*
X192984333Y-97979704D01*
X193001612Y-97912004D01*
X193011233Y-97899627D01*
X193010559Y-97899110D01*
X193015500Y-97892669D01*
X193015505Y-97892665D01*
X193084688Y-97772836D01*
X193120500Y-97639183D01*
X193120500Y-97500817D01*
X193084688Y-97367164D01*
X193015505Y-97247335D01*
X192917665Y-97149495D01*
X192917664Y-97149494D01*
X192917661Y-97149492D01*
X192797838Y-97080313D01*
X192797837Y-97080312D01*
X192797836Y-97080312D01*
X192664183Y-97044500D01*
X192525817Y-97044500D01*
X192392164Y-97080312D01*
X192392161Y-97080313D01*
X192272338Y-97149492D01*
X192272333Y-97149496D01*
X192174496Y-97247333D01*
X192174492Y-97247338D01*
X192105313Y-97367161D01*
X192105312Y-97367164D01*
X192069500Y-97500817D01*
X192069500Y-97639183D01*
X192096139Y-97738599D01*
X192105312Y-97772835D01*
X192105313Y-97772838D01*
X192174492Y-97892661D01*
X192174494Y-97892664D01*
X192174495Y-97892665D01*
X192272335Y-97990505D01*
X192272336Y-97990506D01*
X192272338Y-97990507D01*
X192282996Y-97996660D01*
X192331214Y-98047225D01*
X192345000Y-98104049D01*
X192345000Y-98700000D01*
X191845000Y-98700000D01*
X191845000Y-98000000D01*
X191446504Y-98000000D01*
X191253318Y-98038427D01*
X191253306Y-98038430D01*
X191071328Y-98113807D01*
X191071315Y-98113814D01*
X190907537Y-98223248D01*
X190907533Y-98223251D01*
X190768251Y-98362533D01*
X190768248Y-98362537D01*
X190658814Y-98526315D01*
X190658807Y-98526328D01*
X190583430Y-98708307D01*
X190583430Y-98708309D01*
X190575138Y-98750000D01*
X158354403Y-98750000D01*
X158260109Y-98620213D01*
X158146569Y-98506673D01*
X158113084Y-98445350D01*
X158118068Y-98375658D01*
X158159940Y-98319725D01*
X158190915Y-98302810D01*
X158322331Y-98253796D01*
X158437546Y-98167546D01*
X158523796Y-98052331D01*
X158574091Y-97917483D01*
X158580500Y-97857873D01*
X158580499Y-96853713D01*
X158580499Y-96062129D01*
X158580498Y-96062123D01*
X158578344Y-96042087D01*
X158574091Y-96002517D01*
X158572810Y-95999083D01*
X158523797Y-95867671D01*
X158523793Y-95867664D01*
X158437547Y-95752455D01*
X158437544Y-95752452D01*
X158322335Y-95666206D01*
X158322328Y-95666202D01*
X158187482Y-95615908D01*
X158187483Y-95615908D01*
X158127883Y-95609501D01*
X158127881Y-95609500D01*
X158127873Y-95609500D01*
X158127864Y-95609500D01*
X156332129Y-95609500D01*
X156332123Y-95609501D01*
X156272516Y-95615908D01*
X156137671Y-95666202D01*
X156137664Y-95666206D01*
X156022455Y-95752452D01*
X156022452Y-95752455D01*
X155936206Y-95867664D01*
X155936203Y-95867669D01*
X155887189Y-95999083D01*
X155845317Y-96055016D01*
X155779853Y-96079433D01*
X155711580Y-96064581D01*
X155683326Y-96043430D01*
X155569786Y-95929890D01*
X155397815Y-95804948D01*
X155397814Y-95804947D01*
X155358205Y-95784765D01*
X155307409Y-95736791D01*
X155290500Y-95674281D01*
X155290500Y-94789778D01*
X173934500Y-94789778D01*
X173934500Y-95010221D01*
X173968985Y-95227952D01*
X174037103Y-95437603D01*
X174037104Y-95437606D01*
X174081369Y-95524478D01*
X174133220Y-95626241D01*
X174137187Y-95634025D01*
X174266752Y-95812358D01*
X174266756Y-95812363D01*
X174422636Y-95968243D01*
X174422641Y-95968247D01*
X174526123Y-96043430D01*
X174600978Y-96097815D01*
X174717501Y-96157187D01*
X174797393Y-96197895D01*
X174797396Y-96197896D01*
X174902221Y-96231955D01*
X175007049Y-96266015D01*
X175224778Y-96300500D01*
X175224779Y-96300500D01*
X175445221Y-96300500D01*
X175445222Y-96300500D01*
X175662951Y-96266015D01*
X175872606Y-96197895D01*
X176069022Y-96097815D01*
X176247365Y-95968242D01*
X176297924Y-95917682D01*
X176359245Y-95884198D01*
X176428936Y-95889182D01*
X176484870Y-95931053D01*
X176501786Y-95962030D01*
X176531646Y-96042087D01*
X176531649Y-96042093D01*
X176617809Y-96157187D01*
X176617812Y-96157190D01*
X176732906Y-96243350D01*
X176732913Y-96243354D01*
X176867620Y-96293596D01*
X176867627Y-96293598D01*
X176927155Y-96299999D01*
X176927172Y-96300000D01*
X177625000Y-96300000D01*
X177625000Y-95275277D01*
X177701306Y-95319333D01*
X177815756Y-95350000D01*
X177934244Y-95350000D01*
X178048694Y-95319333D01*
X178125000Y-95275277D01*
X178125000Y-96300000D01*
X178822828Y-96300000D01*
X178822844Y-96299999D01*
X178882372Y-96293598D01*
X178882379Y-96293596D01*
X179017086Y-96243354D01*
X179017093Y-96243350D01*
X179132187Y-96157190D01*
X179132190Y-96157187D01*
X179218350Y-96042093D01*
X179218354Y-96042086D01*
X179268596Y-95907379D01*
X179268598Y-95907372D01*
X179274999Y-95847844D01*
X179275000Y-95847827D01*
X179275000Y-95150000D01*
X178250278Y-95150000D01*
X178294333Y-95073694D01*
X178325000Y-94959244D01*
X178325000Y-94840756D01*
X178294333Y-94726306D01*
X178250278Y-94650000D01*
X179275000Y-94650000D01*
X179275000Y-93952172D01*
X179274999Y-93952155D01*
X179268598Y-93892627D01*
X179268596Y-93892620D01*
X179218354Y-93757913D01*
X179218350Y-93757906D01*
X179132190Y-93642812D01*
X179132187Y-93642809D01*
X179017093Y-93556649D01*
X179017086Y-93556645D01*
X178882379Y-93506403D01*
X178882372Y-93506401D01*
X178822844Y-93500000D01*
X178125000Y-93500000D01*
X178125000Y-94524722D01*
X178048694Y-94480667D01*
X177934244Y-94450000D01*
X177815756Y-94450000D01*
X177701306Y-94480667D01*
X177625000Y-94524722D01*
X177625000Y-93500000D01*
X176927155Y-93500000D01*
X176867627Y-93506401D01*
X176867620Y-93506403D01*
X176732913Y-93556645D01*
X176732906Y-93556649D01*
X176617812Y-93642809D01*
X176617809Y-93642812D01*
X176531649Y-93757906D01*
X176531643Y-93757918D01*
X176501785Y-93837969D01*
X176459914Y-93893903D01*
X176394449Y-93918319D01*
X176326176Y-93903467D01*
X176297923Y-93882316D01*
X176247363Y-93831756D01*
X176247358Y-93831752D01*
X176069025Y-93702187D01*
X176069024Y-93702186D01*
X176069022Y-93702185D01*
X176006096Y-93670122D01*
X175872606Y-93602104D01*
X175872603Y-93602103D01*
X175662952Y-93533985D01*
X175554086Y-93516742D01*
X175445222Y-93499500D01*
X175224778Y-93499500D01*
X175152201Y-93510995D01*
X175007047Y-93533985D01*
X174797396Y-93602103D01*
X174797393Y-93602104D01*
X174600974Y-93702187D01*
X174422641Y-93831752D01*
X174422636Y-93831756D01*
X174266756Y-93987636D01*
X174266752Y-93987641D01*
X174137187Y-94165974D01*
X174037104Y-94362393D01*
X174037103Y-94362396D01*
X173968985Y-94572047D01*
X173934500Y-94789778D01*
X155290500Y-94789778D01*
X155290500Y-90710097D01*
X155299144Y-90680656D01*
X155305668Y-90650670D01*
X155309422Y-90645654D01*
X155310185Y-90643058D01*
X155326819Y-90622416D01*
X160392819Y-85556416D01*
X160454142Y-85522931D01*
X160523834Y-85527915D01*
X160579767Y-85569787D01*
X160604184Y-85635251D01*
X160604500Y-85644097D01*
X160604500Y-85791286D01*
X160637753Y-86001239D01*
X160637753Y-86001241D01*
X160637754Y-86001243D01*
X160662775Y-86078250D01*
X160703444Y-86203414D01*
X160799951Y-86392820D01*
X160924890Y-86564786D01*
X161075213Y-86715109D01*
X161247182Y-86840050D01*
X161255946Y-86844516D01*
X161306742Y-86892491D01*
X161323536Y-86960312D01*
X161300998Y-87026447D01*
X161255946Y-87065484D01*
X161247182Y-87069949D01*
X161075213Y-87194890D01*
X160924890Y-87345213D01*
X160799951Y-87517179D01*
X160703444Y-87706585D01*
X160637753Y-87908760D01*
X160604500Y-88118713D01*
X160604500Y-88331286D01*
X160637753Y-88541239D01*
X160703444Y-88743414D01*
X160799951Y-88932820D01*
X160924890Y-89104786D01*
X161075213Y-89255109D01*
X161247179Y-89380048D01*
X161247181Y-89380049D01*
X161247184Y-89380051D01*
X161256493Y-89384794D01*
X161307290Y-89432766D01*
X161324087Y-89500587D01*
X161301552Y-89566722D01*
X161256505Y-89605760D01*
X161247446Y-89610376D01*
X161247440Y-89610380D01*
X161193282Y-89649727D01*
X161193282Y-89649728D01*
X161825591Y-90282037D01*
X161762007Y-90299075D01*
X161647993Y-90364901D01*
X161554901Y-90457993D01*
X161489075Y-90572007D01*
X161472037Y-90635591D01*
X160839728Y-90003282D01*
X160839727Y-90003282D01*
X160800380Y-90057439D01*
X160703904Y-90246782D01*
X160638242Y-90448869D01*
X160638242Y-90448872D01*
X160605000Y-90658753D01*
X160605000Y-90871246D01*
X160638242Y-91081127D01*
X160638242Y-91081130D01*
X160703904Y-91283217D01*
X160800375Y-91472550D01*
X160839728Y-91526716D01*
X161472037Y-90894408D01*
X161489075Y-90957993D01*
X161554901Y-91072007D01*
X161647993Y-91165099D01*
X161762007Y-91230925D01*
X161825590Y-91247962D01*
X161193282Y-91880269D01*
X161193282Y-91880270D01*
X161247452Y-91919626D01*
X161247451Y-91919626D01*
X161256495Y-91924234D01*
X161307292Y-91972208D01*
X161324087Y-92040029D01*
X161301550Y-92106164D01*
X161256499Y-92145202D01*
X161247182Y-92149949D01*
X161075213Y-92274890D01*
X160924890Y-92425213D01*
X160799951Y-92597179D01*
X160703444Y-92786585D01*
X160637753Y-92988760D01*
X160604500Y-93198713D01*
X160604500Y-93411286D01*
X160634722Y-93602105D01*
X160637754Y-93621243D01*
X160664054Y-93702187D01*
X160703444Y-93823414D01*
X160799951Y-94012820D01*
X160924890Y-94184786D01*
X161075213Y-94335109D01*
X161247179Y-94460048D01*
X161247181Y-94460049D01*
X161247184Y-94460051D01*
X161436588Y-94556557D01*
X161638757Y-94622246D01*
X161848713Y-94655500D01*
X161848714Y-94655500D01*
X162061286Y-94655500D01*
X162061287Y-94655500D01*
X162271243Y-94622246D01*
X162473412Y-94556557D01*
X162662816Y-94460051D01*
X162797228Y-94362396D01*
X162834786Y-94335109D01*
X162834788Y-94335106D01*
X162834792Y-94335104D01*
X162985104Y-94184792D01*
X162985106Y-94184788D01*
X162985109Y-94184786D01*
X163110048Y-94012820D01*
X163110047Y-94012820D01*
X163110051Y-94012816D01*
X163206557Y-93823412D01*
X163272246Y-93621243D01*
X163305500Y-93411287D01*
X163305500Y-93198713D01*
X163272246Y-92988757D01*
X163206557Y-92786588D01*
X163110051Y-92597184D01*
X163110049Y-92597181D01*
X163110048Y-92597179D01*
X162985109Y-92425213D01*
X162834786Y-92274890D01*
X162662817Y-92149949D01*
X162653504Y-92145204D01*
X162602707Y-92097230D01*
X162585912Y-92029409D01*
X162608449Y-91963274D01*
X162653507Y-91924232D01*
X162662555Y-91919622D01*
X162716716Y-91880270D01*
X162716717Y-91880270D01*
X162636818Y-91800371D01*
X162084408Y-91247962D01*
X162147993Y-91230925D01*
X162262007Y-91165099D01*
X162355099Y-91072007D01*
X162420925Y-90957993D01*
X162437962Y-90894408D01*
X163070270Y-91526717D01*
X163070270Y-91526716D01*
X163109622Y-91472554D01*
X163206095Y-91283217D01*
X163271757Y-91081130D01*
X163271757Y-91081127D01*
X163305000Y-90871246D01*
X163305000Y-90658755D01*
X163295071Y-90596068D01*
X163295071Y-90596067D01*
X163271757Y-90448872D01*
X163271757Y-90448869D01*
X163206095Y-90246782D01*
X163182068Y-90199626D01*
X163136400Y-90110000D01*
X190575138Y-90110000D01*
X191378012Y-90110000D01*
X191360795Y-90119940D01*
X191304940Y-90175795D01*
X191265444Y-90244204D01*
X191245000Y-90320504D01*
X191245000Y-90399496D01*
X191265444Y-90475796D01*
X191304940Y-90544205D01*
X191360795Y-90600060D01*
X191378012Y-90610000D01*
X190575138Y-90610000D01*
X190583430Y-90651690D01*
X190583430Y-90651692D01*
X190658807Y-90833671D01*
X190658814Y-90833684D01*
X190768248Y-90997462D01*
X190768251Y-90997466D01*
X190907533Y-91136748D01*
X190907537Y-91136751D01*
X191071315Y-91246185D01*
X191071328Y-91246192D01*
X191253306Y-91321569D01*
X191253318Y-91321572D01*
X191446504Y-91359999D01*
X191446508Y-91360000D01*
X191845000Y-91360000D01*
X191845000Y-90660000D01*
X192345000Y-90660000D01*
X192345000Y-91255950D01*
X192325315Y-91322989D01*
X192283001Y-91363337D01*
X192272335Y-91369494D01*
X192174496Y-91467333D01*
X192174492Y-91467338D01*
X192105313Y-91587161D01*
X192105312Y-91587164D01*
X192069500Y-91720817D01*
X192069500Y-91859183D01*
X192103951Y-91987754D01*
X192105312Y-91992835D01*
X192105313Y-91992838D01*
X192174492Y-92112661D01*
X192174494Y-92112664D01*
X192174495Y-92112665D01*
X192272335Y-92210505D01*
X192392164Y-92279688D01*
X192525817Y-92315500D01*
X192525819Y-92315500D01*
X192664181Y-92315500D01*
X192664183Y-92315500D01*
X192797836Y-92279688D01*
X192917665Y-92210505D01*
X193015505Y-92112665D01*
X193084688Y-91992836D01*
X193120500Y-91859183D01*
X193120500Y-91720817D01*
X193084688Y-91587164D01*
X193015505Y-91467335D01*
X193015503Y-91467333D01*
X193010559Y-91460890D01*
X193013185Y-91458874D01*
X192987088Y-91411080D01*
X192992072Y-91341388D01*
X193033944Y-91285455D01*
X193060804Y-91270160D01*
X193118674Y-91246190D01*
X193118684Y-91246185D01*
X193282462Y-91136751D01*
X193282466Y-91136748D01*
X193421748Y-90997466D01*
X193421751Y-90997462D01*
X193531185Y-90833684D01*
X193531192Y-90833671D01*
X193606569Y-90651692D01*
X193606569Y-90651690D01*
X193614862Y-90610000D01*
X192811988Y-90610000D01*
X192829205Y-90600060D01*
X192885060Y-90544205D01*
X192924556Y-90475796D01*
X192945000Y-90399496D01*
X192945000Y-90320504D01*
X192924556Y-90244204D01*
X192885060Y-90175795D01*
X192829205Y-90119940D01*
X192811988Y-90110000D01*
X193614862Y-90110000D01*
X194905138Y-90110000D01*
X195708012Y-90110000D01*
X195690795Y-90119940D01*
X195634940Y-90175795D01*
X195595444Y-90244204D01*
X195575000Y-90320504D01*
X195575000Y-90399496D01*
X195595444Y-90475796D01*
X195634940Y-90544205D01*
X195690795Y-90600060D01*
X195708012Y-90610000D01*
X194905138Y-90610000D01*
X194913430Y-90651690D01*
X194913430Y-90651692D01*
X194988807Y-90833671D01*
X194988814Y-90833684D01*
X195098248Y-90997462D01*
X195098251Y-90997466D01*
X195237533Y-91136748D01*
X195237537Y-91136751D01*
X195401315Y-91246185D01*
X195401328Y-91246192D01*
X195583306Y-91321569D01*
X195583318Y-91321572D01*
X195776504Y-91359999D01*
X195776508Y-91360000D01*
X196025000Y-91360000D01*
X196025000Y-90660000D01*
X196525000Y-90660000D01*
X196525000Y-91360000D01*
X196773492Y-91360000D01*
X196773495Y-91359999D01*
X196966681Y-91321572D01*
X196966693Y-91321569D01*
X197148671Y-91246192D01*
X197148684Y-91246185D01*
X197312462Y-91136751D01*
X197312466Y-91136748D01*
X197451748Y-90997466D01*
X197451751Y-90997462D01*
X197561185Y-90833684D01*
X197561192Y-90833671D01*
X197636569Y-90651692D01*
X197636569Y-90651690D01*
X197644862Y-90610000D01*
X196841988Y-90610000D01*
X196859205Y-90600060D01*
X196915060Y-90544205D01*
X196954556Y-90475796D01*
X196975000Y-90399496D01*
X196975000Y-90320504D01*
X196954556Y-90244204D01*
X196915060Y-90175795D01*
X196859205Y-90119940D01*
X196841988Y-90110000D01*
X197644862Y-90110000D01*
X197636569Y-90068309D01*
X197636569Y-90068307D01*
X197561192Y-89886328D01*
X197561185Y-89886315D01*
X197451751Y-89722537D01*
X197451748Y-89722533D01*
X197312466Y-89583251D01*
X197312462Y-89583248D01*
X197148684Y-89473814D01*
X197148671Y-89473807D01*
X196966693Y-89398430D01*
X196966681Y-89398427D01*
X196773495Y-89360000D01*
X196525000Y-89360000D01*
X196525000Y-90060000D01*
X196025000Y-90060000D01*
X196025000Y-89360000D01*
X195776504Y-89360000D01*
X195583318Y-89398427D01*
X195583306Y-89398430D01*
X195401328Y-89473807D01*
X195401315Y-89473814D01*
X195237537Y-89583248D01*
X195237533Y-89583251D01*
X195098251Y-89722533D01*
X195098248Y-89722537D01*
X194988814Y-89886315D01*
X194988807Y-89886328D01*
X194913430Y-90068307D01*
X194913430Y-90068309D01*
X194905138Y-90110000D01*
X193614862Y-90110000D01*
X193606569Y-90068309D01*
X193606569Y-90068307D01*
X193531192Y-89886328D01*
X193531185Y-89886315D01*
X193421751Y-89722537D01*
X193421748Y-89722533D01*
X193282466Y-89583251D01*
X193282462Y-89583248D01*
X193118684Y-89473814D01*
X193118671Y-89473807D01*
X192936693Y-89398430D01*
X192936681Y-89398427D01*
X192743495Y-89360000D01*
X192345000Y-89360000D01*
X192345000Y-90060000D01*
X191845000Y-90060000D01*
X191845000Y-89360000D01*
X191446504Y-89360000D01*
X191253318Y-89398427D01*
X191253306Y-89398430D01*
X191071328Y-89473807D01*
X191071315Y-89473814D01*
X190907537Y-89583248D01*
X190907533Y-89583251D01*
X190768251Y-89722533D01*
X190768248Y-89722537D01*
X190658814Y-89886315D01*
X190658807Y-89886328D01*
X190583430Y-90068307D01*
X190583430Y-90068309D01*
X190575138Y-90110000D01*
X163136400Y-90110000D01*
X163109624Y-90057450D01*
X163070270Y-90003282D01*
X163070269Y-90003282D01*
X162437962Y-90635590D01*
X162420925Y-90572007D01*
X162355099Y-90457993D01*
X162262007Y-90364901D01*
X162147993Y-90299075D01*
X162084409Y-90282037D01*
X162716716Y-89649728D01*
X162662547Y-89610373D01*
X162662547Y-89610372D01*
X162653500Y-89605763D01*
X162602706Y-89557788D01*
X162585912Y-89489966D01*
X162608451Y-89423832D01*
X162653508Y-89384793D01*
X162662816Y-89380051D01*
X162742007Y-89322515D01*
X162834786Y-89255109D01*
X162834788Y-89255106D01*
X162834792Y-89255104D01*
X162985104Y-89104792D01*
X162985106Y-89104788D01*
X162985109Y-89104786D01*
X163110048Y-88932820D01*
X163110047Y-88932820D01*
X163110051Y-88932816D01*
X163206557Y-88743412D01*
X163272246Y-88541243D01*
X163305500Y-88331287D01*
X163305500Y-88118713D01*
X163272246Y-87908757D01*
X163206557Y-87706588D01*
X163110051Y-87517184D01*
X163110049Y-87517181D01*
X163110048Y-87517179D01*
X162985109Y-87345213D01*
X162834786Y-87194890D01*
X162662820Y-87069951D01*
X162662115Y-87069591D01*
X162654054Y-87065485D01*
X162603259Y-87017512D01*
X162586463Y-86949692D01*
X162608999Y-86883556D01*
X162654054Y-86844515D01*
X162662816Y-86840051D01*
X162684789Y-86824086D01*
X162834786Y-86715109D01*
X162834788Y-86715106D01*
X162834792Y-86715104D01*
X162985104Y-86564792D01*
X162985106Y-86564788D01*
X162985109Y-86564786D01*
X163110048Y-86392820D01*
X163110047Y-86392820D01*
X163110051Y-86392816D01*
X163206557Y-86203412D01*
X163272246Y-86001243D01*
X163292393Y-85874038D01*
X193499500Y-85874038D01*
X193499500Y-86125961D01*
X193538910Y-86374785D01*
X193616760Y-86614383D01*
X193731132Y-86838848D01*
X193879201Y-87042649D01*
X193879205Y-87042654D01*
X194057345Y-87220794D01*
X194057350Y-87220798D01*
X194228587Y-87345208D01*
X194261155Y-87368870D01*
X194404184Y-87441747D01*
X194485616Y-87483239D01*
X194485618Y-87483239D01*
X194485621Y-87483241D01*
X194725215Y-87561090D01*
X194974038Y-87600500D01*
X194974039Y-87600500D01*
X195225961Y-87600500D01*
X195225962Y-87600500D01*
X195474785Y-87561090D01*
X195714379Y-87483241D01*
X195938845Y-87368870D01*
X196142656Y-87220793D01*
X196320793Y-87042656D01*
X196468870Y-86838845D01*
X196583241Y-86614379D01*
X196661090Y-86374785D01*
X196700500Y-86125962D01*
X196700500Y-85874038D01*
X196661090Y-85625215D01*
X196583241Y-85385621D01*
X196583239Y-85385618D01*
X196583239Y-85385616D01*
X196531419Y-85283914D01*
X196468870Y-85161155D01*
X196335208Y-84977184D01*
X196320798Y-84957350D01*
X196320794Y-84957345D01*
X196142654Y-84779205D01*
X196142649Y-84779201D01*
X195938848Y-84631132D01*
X195938847Y-84631131D01*
X195938845Y-84631130D01*
X195868747Y-84595413D01*
X195714383Y-84516760D01*
X195474785Y-84438910D01*
X195290311Y-84409692D01*
X195225962Y-84399500D01*
X194974038Y-84399500D01*
X194909689Y-84409692D01*
X194725214Y-84438910D01*
X194485616Y-84516760D01*
X194261151Y-84631132D01*
X194057350Y-84779201D01*
X194057345Y-84779205D01*
X193879205Y-84957345D01*
X193879201Y-84957350D01*
X193731132Y-85161151D01*
X193616760Y-85385616D01*
X193538910Y-85625214D01*
X193499500Y-85874038D01*
X163292393Y-85874038D01*
X163305500Y-85791287D01*
X163305500Y-85578713D01*
X163272246Y-85368757D01*
X163206557Y-85166588D01*
X163110051Y-84977184D01*
X163110049Y-84977181D01*
X163110048Y-84977179D01*
X162985109Y-84805213D01*
X162834786Y-84654890D01*
X162662820Y-84529951D01*
X162662115Y-84529591D01*
X162654054Y-84525485D01*
X162603259Y-84477512D01*
X162586463Y-84409692D01*
X162608999Y-84343556D01*
X162654054Y-84304515D01*
X162662816Y-84300051D01*
X162684789Y-84284086D01*
X162834786Y-84175109D01*
X162834788Y-84175106D01*
X162834792Y-84175104D01*
X162985104Y-84024792D01*
X162985106Y-84024788D01*
X162985109Y-84024786D01*
X163110048Y-83852820D01*
X163110047Y-83852820D01*
X163110051Y-83852816D01*
X163206557Y-83663412D01*
X163272246Y-83461243D01*
X163305500Y-83251287D01*
X163305500Y-83038713D01*
X163272246Y-82828757D01*
X163206557Y-82626588D01*
X163110051Y-82437184D01*
X163110049Y-82437181D01*
X163110048Y-82437179D01*
X162985109Y-82265213D01*
X162834786Y-82114890D01*
X162662820Y-81989951D01*
X162662115Y-81989591D01*
X162654054Y-81985485D01*
X162603259Y-81937512D01*
X162586463Y-81869692D01*
X162608999Y-81803556D01*
X162654054Y-81764515D01*
X162662816Y-81760051D01*
X162738925Y-81704755D01*
X162834786Y-81635109D01*
X162834788Y-81635106D01*
X162834792Y-81635104D01*
X162985104Y-81484792D01*
X162985106Y-81484788D01*
X162985109Y-81484786D01*
X163110048Y-81312820D01*
X163110047Y-81312820D01*
X163110051Y-81312816D01*
X163206557Y-81123412D01*
X163272246Y-80921243D01*
X163305500Y-80711287D01*
X163305500Y-80498713D01*
X163289493Y-80397648D01*
X171389500Y-80397648D01*
X171389500Y-80602351D01*
X171421522Y-80804534D01*
X171484781Y-80999223D01*
X171544243Y-81115921D01*
X171577585Y-81181359D01*
X171577715Y-81181613D01*
X171698028Y-81347213D01*
X171842786Y-81491971D01*
X171963226Y-81579474D01*
X172008390Y-81612287D01*
X172098087Y-81657990D01*
X172190776Y-81705218D01*
X172190778Y-81705218D01*
X172190781Y-81705220D01*
X172295137Y-81739127D01*
X172385465Y-81768477D01*
X172486557Y-81784488D01*
X172587648Y-81800500D01*
X172587649Y-81800500D01*
X172792351Y-81800500D01*
X172792352Y-81800500D01*
X172994534Y-81768477D01*
X173189219Y-81705220D01*
X173371610Y-81612287D01*
X173464590Y-81544732D01*
X173537213Y-81491971D01*
X173537215Y-81491968D01*
X173537219Y-81491966D01*
X173681966Y-81347219D01*
X173681968Y-81347215D01*
X173681971Y-81347213D01*
X173761889Y-81237213D01*
X173802287Y-81181610D01*
X173895220Y-80999219D01*
X173958477Y-80804534D01*
X173990500Y-80602352D01*
X173990500Y-80397682D01*
X179010000Y-80397682D01*
X179010000Y-80602317D01*
X179042009Y-80804417D01*
X179105244Y-80999031D01*
X179198141Y-81181350D01*
X179198147Y-81181359D01*
X179230523Y-81225921D01*
X179230524Y-81225922D01*
X179910000Y-80546446D01*
X179910000Y-80552661D01*
X179937259Y-80654394D01*
X179989920Y-80745606D01*
X180064394Y-80820080D01*
X180155606Y-80872741D01*
X180257339Y-80900000D01*
X180263553Y-80900000D01*
X179584076Y-81579474D01*
X179628650Y-81611859D01*
X179810968Y-81704755D01*
X180005582Y-81767990D01*
X180207683Y-81800000D01*
X180412317Y-81800000D01*
X180614417Y-81767990D01*
X180809031Y-81704755D01*
X180991349Y-81611859D01*
X181035921Y-81579474D01*
X180356447Y-80900000D01*
X180362661Y-80900000D01*
X180464394Y-80872741D01*
X180555606Y-80820080D01*
X180630080Y-80745606D01*
X180682741Y-80654394D01*
X180710000Y-80552661D01*
X180710000Y-80546447D01*
X181389474Y-81225921D01*
X181421859Y-81181349D01*
X181514755Y-80999031D01*
X181577990Y-80804417D01*
X181610000Y-80602317D01*
X181610000Y-80397682D01*
X181594873Y-80302174D01*
X181592572Y-80287648D01*
X185059500Y-80287648D01*
X185059500Y-80492352D01*
X185060508Y-80498714D01*
X185091522Y-80694534D01*
X185154781Y-80889223D01*
X185210732Y-80999031D01*
X185247585Y-81071359D01*
X185247715Y-81071613D01*
X185368028Y-81237213D01*
X185512786Y-81381971D01*
X185633226Y-81469474D01*
X185678390Y-81502287D01*
X185794607Y-81561503D01*
X185860776Y-81595218D01*
X185860778Y-81595218D01*
X185860781Y-81595220D01*
X185911991Y-81611859D01*
X186055465Y-81658477D01*
X186156557Y-81674488D01*
X186257648Y-81690500D01*
X186257649Y-81690500D01*
X186462351Y-81690500D01*
X186462352Y-81690500D01*
X186664534Y-81658477D01*
X186859219Y-81595220D01*
X187041610Y-81502287D01*
X187134590Y-81434732D01*
X187207213Y-81381971D01*
X187207215Y-81381968D01*
X187207219Y-81381966D01*
X187351966Y-81237219D01*
X187351968Y-81237215D01*
X187351971Y-81237213D01*
X187434651Y-81123412D01*
X187472287Y-81071610D01*
X187565220Y-80889219D01*
X187628477Y-80694534D01*
X187660500Y-80492352D01*
X187660500Y-80287682D01*
X192680000Y-80287682D01*
X192680000Y-80492317D01*
X192712009Y-80694417D01*
X192775244Y-80889031D01*
X192868141Y-81071350D01*
X192868147Y-81071359D01*
X192900523Y-81115921D01*
X192900524Y-81115922D01*
X193580000Y-80436446D01*
X193580000Y-80442661D01*
X193607259Y-80544394D01*
X193659920Y-80635606D01*
X193734394Y-80710080D01*
X193825606Y-80762741D01*
X193927339Y-80790000D01*
X193933553Y-80790000D01*
X193254076Y-81469474D01*
X193298650Y-81501859D01*
X193480968Y-81594755D01*
X193675582Y-81657990D01*
X193877683Y-81690000D01*
X194082317Y-81690000D01*
X194284417Y-81657990D01*
X194479031Y-81594755D01*
X194661349Y-81501859D01*
X194705921Y-81469474D01*
X194026447Y-80790000D01*
X194032661Y-80790000D01*
X194134394Y-80762741D01*
X194225606Y-80710080D01*
X194300080Y-80635606D01*
X194352741Y-80544394D01*
X194380000Y-80442661D01*
X194380000Y-80436447D01*
X195059474Y-81115921D01*
X195091859Y-81071349D01*
X195184755Y-80889031D01*
X195247990Y-80694417D01*
X195280000Y-80492317D01*
X195280000Y-80287682D01*
X195247990Y-80085582D01*
X195184755Y-79890968D01*
X195091859Y-79708650D01*
X195059474Y-79664077D01*
X195059474Y-79664076D01*
X194380000Y-80343551D01*
X194380000Y-80337339D01*
X194352741Y-80235606D01*
X194300080Y-80144394D01*
X194225606Y-80069920D01*
X194134394Y-80017259D01*
X194032661Y-79990000D01*
X194026446Y-79990000D01*
X194705922Y-79310524D01*
X194705921Y-79310523D01*
X194661359Y-79278147D01*
X194661350Y-79278141D01*
X194479031Y-79185244D01*
X194284417Y-79122009D01*
X194082317Y-79090000D01*
X193877683Y-79090000D01*
X193675582Y-79122009D01*
X193480968Y-79185244D01*
X193298644Y-79278143D01*
X193254077Y-79310523D01*
X193254077Y-79310524D01*
X193933554Y-79990000D01*
X193927339Y-79990000D01*
X193825606Y-80017259D01*
X193734394Y-80069920D01*
X193659920Y-80144394D01*
X193607259Y-80235606D01*
X193580000Y-80337339D01*
X193580000Y-80343553D01*
X192900524Y-79664077D01*
X192900523Y-79664077D01*
X192868143Y-79708644D01*
X192775244Y-79890968D01*
X192712009Y-80085582D01*
X192680000Y-80287682D01*
X187660500Y-80287682D01*
X187660500Y-80287648D01*
X187643437Y-80179920D01*
X187628477Y-80085465D01*
X187567300Y-79897184D01*
X187565220Y-79890781D01*
X187565218Y-79890778D01*
X187565218Y-79890776D01*
X187505756Y-79774077D01*
X187472287Y-79708390D01*
X187440092Y-79664077D01*
X187351971Y-79542786D01*
X187207213Y-79398028D01*
X187041613Y-79277715D01*
X187041612Y-79277714D01*
X187041610Y-79277713D01*
X186984653Y-79248691D01*
X186859223Y-79184781D01*
X186664534Y-79121522D01*
X186489995Y-79093878D01*
X186462352Y-79089500D01*
X186257648Y-79089500D01*
X186233329Y-79093351D01*
X186055465Y-79121522D01*
X185860776Y-79184781D01*
X185678386Y-79277715D01*
X185512786Y-79398028D01*
X185368028Y-79542786D01*
X185247715Y-79708386D01*
X185154781Y-79890776D01*
X185091522Y-80085465D01*
X185064767Y-80254394D01*
X185059500Y-80287648D01*
X181592572Y-80287648D01*
X181577990Y-80195582D01*
X181514755Y-80000968D01*
X181421859Y-79818650D01*
X181389474Y-79774077D01*
X181389474Y-79774076D01*
X180710000Y-80453551D01*
X180710000Y-80447339D01*
X180682741Y-80345606D01*
X180630080Y-80254394D01*
X180555606Y-80179920D01*
X180464394Y-80127259D01*
X180362661Y-80100000D01*
X180356446Y-80100000D01*
X181035922Y-79420524D01*
X181035921Y-79420523D01*
X180991359Y-79388147D01*
X180991350Y-79388141D01*
X180809031Y-79295244D01*
X180614417Y-79232009D01*
X180412317Y-79200000D01*
X180207683Y-79200000D01*
X180005582Y-79232009D01*
X179810968Y-79295244D01*
X179628644Y-79388143D01*
X179584077Y-79420523D01*
X179584077Y-79420524D01*
X180263554Y-80100000D01*
X180257339Y-80100000D01*
X180155606Y-80127259D01*
X180064394Y-80179920D01*
X179989920Y-80254394D01*
X179937259Y-80345606D01*
X179910000Y-80447339D01*
X179910000Y-80453553D01*
X179230524Y-79774077D01*
X179230523Y-79774077D01*
X179198143Y-79818644D01*
X179105244Y-80000968D01*
X179042009Y-80195582D01*
X179010000Y-80397682D01*
X173990500Y-80397682D01*
X173990500Y-80397648D01*
X173989289Y-80390000D01*
X173958477Y-80195465D01*
X173923099Y-80086585D01*
X173895220Y-80000781D01*
X173895218Y-80000778D01*
X173895218Y-80000776D01*
X173861503Y-79934607D01*
X173802287Y-79818390D01*
X173770092Y-79774077D01*
X173681971Y-79652786D01*
X173537213Y-79508028D01*
X173371613Y-79387715D01*
X173371612Y-79387714D01*
X173371610Y-79387713D01*
X173314653Y-79358691D01*
X173189223Y-79294781D01*
X172994534Y-79231522D01*
X172819995Y-79203878D01*
X172792352Y-79199500D01*
X172587648Y-79199500D01*
X172563329Y-79203351D01*
X172385465Y-79231522D01*
X172190776Y-79294781D01*
X172008386Y-79387715D01*
X171842786Y-79508028D01*
X171698028Y-79652786D01*
X171577715Y-79818386D01*
X171484781Y-80000776D01*
X171421522Y-80195465D01*
X171389500Y-80397648D01*
X163289493Y-80397648D01*
X163272246Y-80288757D01*
X163206557Y-80086588D01*
X163110051Y-79897184D01*
X163110049Y-79897181D01*
X163110048Y-79897179D01*
X162985109Y-79725213D01*
X162834786Y-79574890D01*
X162662817Y-79449949D01*
X162653504Y-79445204D01*
X162602707Y-79397230D01*
X162585912Y-79329409D01*
X162608449Y-79263274D01*
X162653507Y-79224232D01*
X162662555Y-79219622D01*
X162716716Y-79180270D01*
X162716717Y-79180270D01*
X162084408Y-78547962D01*
X162147993Y-78530925D01*
X162262007Y-78465099D01*
X162355099Y-78372007D01*
X162420925Y-78257993D01*
X162437962Y-78194408D01*
X163070270Y-78826717D01*
X163070270Y-78826716D01*
X163109622Y-78772554D01*
X163206095Y-78583217D01*
X163271757Y-78381130D01*
X163271757Y-78381127D01*
X163305000Y-78171246D01*
X163305000Y-77958753D01*
X163271757Y-77748872D01*
X163271757Y-77748869D01*
X163206095Y-77546782D01*
X163109624Y-77357449D01*
X163070270Y-77303282D01*
X163070269Y-77303282D01*
X162437962Y-77935590D01*
X162420925Y-77872007D01*
X162355099Y-77757993D01*
X162262007Y-77664901D01*
X162147993Y-77599075D01*
X162084409Y-77582037D01*
X162754627Y-76911818D01*
X162815950Y-76878333D01*
X162842307Y-76875499D01*
X162852872Y-76875499D01*
X162912483Y-76869091D01*
X163047331Y-76818796D01*
X163162546Y-76732546D01*
X163248796Y-76617331D01*
X163299091Y-76482483D01*
X163305500Y-76422873D01*
X163305499Y-74627128D01*
X163299091Y-74567517D01*
X163289818Y-74542656D01*
X163248797Y-74432671D01*
X163248793Y-74432664D01*
X163162547Y-74317455D01*
X163162544Y-74317452D01*
X163047335Y-74231206D01*
X163047328Y-74231202D01*
X162912482Y-74180908D01*
X162912483Y-74180908D01*
X162852883Y-74174501D01*
X162852881Y-74174500D01*
X162852873Y-74174500D01*
X162852864Y-74174500D01*
X161057129Y-74174500D01*
X161057123Y-74174501D01*
X160997516Y-74180908D01*
X160862671Y-74231202D01*
X160862664Y-74231206D01*
X160747455Y-74317452D01*
X160747452Y-74317455D01*
X160661206Y-74432664D01*
X160661202Y-74432671D01*
X160610908Y-74567517D01*
X160604501Y-74627116D01*
X160604501Y-74627123D01*
X160604500Y-74627135D01*
X160604500Y-76422870D01*
X160604501Y-76422876D01*
X160610908Y-76482483D01*
X160661202Y-76617328D01*
X160661206Y-76617335D01*
X160747452Y-76732544D01*
X160747455Y-76732547D01*
X160862664Y-76818793D01*
X160862671Y-76818797D01*
X160907618Y-76835561D01*
X160997517Y-76869091D01*
X161057127Y-76875500D01*
X161067685Y-76875499D01*
X161134723Y-76895179D01*
X161155372Y-76911818D01*
X161825591Y-77582037D01*
X161762007Y-77599075D01*
X161647993Y-77664901D01*
X161554901Y-77757993D01*
X161489075Y-77872007D01*
X161472037Y-77935591D01*
X160839728Y-77303282D01*
X160839727Y-77303282D01*
X160800380Y-77357439D01*
X160703904Y-77546782D01*
X160638242Y-77748869D01*
X160638242Y-77748872D01*
X160605000Y-77958753D01*
X160605000Y-78171246D01*
X160638242Y-78381127D01*
X160638242Y-78381130D01*
X160703904Y-78583217D01*
X160800375Y-78772550D01*
X160839728Y-78826716D01*
X161472037Y-78194408D01*
X161489075Y-78257993D01*
X161554901Y-78372007D01*
X161647993Y-78465099D01*
X161762007Y-78530925D01*
X161825590Y-78547962D01*
X161193282Y-79180269D01*
X161193282Y-79180270D01*
X161247452Y-79219626D01*
X161247451Y-79219626D01*
X161256495Y-79224234D01*
X161307292Y-79272208D01*
X161324087Y-79340029D01*
X161301550Y-79406164D01*
X161256499Y-79445202D01*
X161247182Y-79449949D01*
X161075213Y-79574890D01*
X160924890Y-79725213D01*
X160799951Y-79897179D01*
X160703444Y-80086585D01*
X160637753Y-80288760D01*
X160613378Y-80442661D01*
X160604500Y-80498713D01*
X160604500Y-80711287D01*
X160609936Y-80745606D01*
X160637754Y-80921244D01*
X160637754Y-80921247D01*
X160651491Y-80963523D01*
X160653486Y-81033364D01*
X160621241Y-81089522D01*
X150319286Y-91391478D01*
X150207481Y-91503282D01*
X150207477Y-91503287D01*
X150159054Y-91587161D01*
X150159052Y-91587164D01*
X150128423Y-91640215D01*
X150087499Y-91792943D01*
X150087499Y-91792945D01*
X150087499Y-91961046D01*
X150087500Y-91961059D01*
X150087500Y-95418939D01*
X150087499Y-95418943D01*
X150087499Y-95524478D01*
X150067814Y-95591517D01*
X150015009Y-95637272D01*
X149955795Y-95645785D01*
X149945852Y-95647215D01*
X149945851Y-95647214D01*
X149945851Y-95647215D01*
X149945849Y-95647214D01*
X149931016Y-95643766D01*
X149930986Y-95643892D01*
X149926246Y-95642754D01*
X149768776Y-95617813D01*
X149716287Y-95609500D01*
X149503713Y-95609500D01*
X149455042Y-95617208D01*
X149293760Y-95642753D01*
X149091585Y-95708444D01*
X148902179Y-95804951D01*
X148730213Y-95929890D01*
X148579890Y-96080213D01*
X148454949Y-96252182D01*
X148450484Y-96260946D01*
X148402509Y-96311742D01*
X148334688Y-96328536D01*
X148268553Y-96305998D01*
X148229516Y-96260946D01*
X148225050Y-96252182D01*
X148100109Y-96080213D01*
X147949786Y-95929890D01*
X147777820Y-95804951D01*
X147588414Y-95708444D01*
X147588413Y-95708443D01*
X147588412Y-95708443D01*
X147386243Y-95642754D01*
X147386241Y-95642753D01*
X147386240Y-95642753D01*
X147224957Y-95617208D01*
X147176287Y-95609500D01*
X146963713Y-95609500D01*
X146915042Y-95617208D01*
X146753760Y-95642753D01*
X146551585Y-95708444D01*
X146362179Y-95804951D01*
X146190213Y-95929890D01*
X146039890Y-96080213D01*
X145914949Y-96252182D01*
X145910484Y-96260946D01*
X145862509Y-96311742D01*
X145794688Y-96328536D01*
X145728553Y-96305998D01*
X145689516Y-96260946D01*
X145685050Y-96252182D01*
X145560109Y-96080213D01*
X145409786Y-95929890D01*
X145237820Y-95804951D01*
X145048414Y-95708444D01*
X145048413Y-95708443D01*
X145048412Y-95708443D01*
X144846243Y-95642754D01*
X144846241Y-95642753D01*
X144846240Y-95642753D01*
X144684957Y-95617208D01*
X144636287Y-95609500D01*
X144423713Y-95609500D01*
X144375042Y-95617208D01*
X144213760Y-95642753D01*
X144011585Y-95708444D01*
X143822179Y-95804951D01*
X143650213Y-95929890D01*
X143499890Y-96080213D01*
X143374949Y-96252182D01*
X143370484Y-96260946D01*
X143322509Y-96311742D01*
X143254688Y-96328536D01*
X143188553Y-96305998D01*
X143149516Y-96260946D01*
X143145050Y-96252182D01*
X143020109Y-96080213D01*
X142869786Y-95929890D01*
X142697820Y-95804951D01*
X142508414Y-95708444D01*
X142508413Y-95708443D01*
X142508412Y-95708443D01*
X142306243Y-95642754D01*
X142306241Y-95642753D01*
X142306240Y-95642753D01*
X142144957Y-95617208D01*
X142096287Y-95609500D01*
X141883713Y-95609500D01*
X141835042Y-95617208D01*
X141673760Y-95642753D01*
X141471585Y-95708444D01*
X141282179Y-95804951D01*
X141110213Y-95929890D01*
X140959890Y-96080213D01*
X140834949Y-96252182D01*
X140830484Y-96260946D01*
X140782509Y-96311742D01*
X140714688Y-96328536D01*
X140648553Y-96305998D01*
X140609516Y-96260946D01*
X140605050Y-96252182D01*
X140480109Y-96080213D01*
X140329786Y-95929890D01*
X140157820Y-95804951D01*
X139968414Y-95708444D01*
X139968413Y-95708443D01*
X139968412Y-95708443D01*
X139766243Y-95642754D01*
X139766241Y-95642753D01*
X139766240Y-95642753D01*
X139604957Y-95617208D01*
X139556287Y-95609500D01*
X139343713Y-95609500D01*
X139295042Y-95617208D01*
X139133760Y-95642753D01*
X138931585Y-95708444D01*
X138742179Y-95804951D01*
X138570213Y-95929890D01*
X138419890Y-96080213D01*
X138294949Y-96252182D01*
X138290484Y-96260946D01*
X138242509Y-96311742D01*
X138174688Y-96328536D01*
X138108553Y-96305998D01*
X138069516Y-96260946D01*
X138065050Y-96252182D01*
X137940109Y-96080213D01*
X137789786Y-95929890D01*
X137617820Y-95804951D01*
X137428414Y-95708444D01*
X137428413Y-95708443D01*
X137428412Y-95708443D01*
X137226243Y-95642754D01*
X137226241Y-95642753D01*
X137226240Y-95642753D01*
X137064957Y-95617208D01*
X137016287Y-95609500D01*
X136803713Y-95609500D01*
X136755042Y-95617208D01*
X136593760Y-95642753D01*
X136391585Y-95708444D01*
X136202179Y-95804951D01*
X136030213Y-95929890D01*
X135879890Y-96080213D01*
X135754949Y-96252182D01*
X135750484Y-96260946D01*
X135702509Y-96311742D01*
X135634688Y-96328536D01*
X135568553Y-96305998D01*
X135529516Y-96260946D01*
X135525050Y-96252182D01*
X135400109Y-96080213D01*
X135249786Y-95929890D01*
X135077820Y-95804951D01*
X134888414Y-95708444D01*
X134888413Y-95708443D01*
X134888412Y-95708443D01*
X134686243Y-95642754D01*
X134686241Y-95642753D01*
X134686240Y-95642753D01*
X134524957Y-95617208D01*
X134476287Y-95609500D01*
X134263713Y-95609500D01*
X134215042Y-95617208D01*
X134053760Y-95642753D01*
X133851585Y-95708444D01*
X133662179Y-95804951D01*
X133490213Y-95929890D01*
X133339890Y-96080213D01*
X133214949Y-96252182D01*
X133210484Y-96260946D01*
X133162509Y-96311742D01*
X133094688Y-96328536D01*
X133028553Y-96305998D01*
X132989516Y-96260946D01*
X132985050Y-96252182D01*
X132860109Y-96080213D01*
X132709786Y-95929890D01*
X132537820Y-95804951D01*
X132348414Y-95708444D01*
X132348413Y-95708443D01*
X132348412Y-95708443D01*
X132146243Y-95642754D01*
X132146241Y-95642753D01*
X132146240Y-95642753D01*
X131984957Y-95617208D01*
X131936287Y-95609500D01*
X131723713Y-95609500D01*
X131675042Y-95617208D01*
X131513760Y-95642753D01*
X131311585Y-95708444D01*
X131122179Y-95804951D01*
X130950213Y-95929890D01*
X130799890Y-96080213D01*
X130674949Y-96252182D01*
X130670484Y-96260946D01*
X130622509Y-96311742D01*
X130554688Y-96328536D01*
X130488553Y-96305998D01*
X130449516Y-96260946D01*
X130445050Y-96252182D01*
X130320109Y-96080213D01*
X130169786Y-95929890D01*
X129997820Y-95804951D01*
X129808414Y-95708444D01*
X129808413Y-95708443D01*
X129808412Y-95708443D01*
X129606243Y-95642754D01*
X129606241Y-95642753D01*
X129606240Y-95642753D01*
X129444957Y-95617208D01*
X129396287Y-95609500D01*
X129183713Y-95609500D01*
X129135042Y-95617208D01*
X128973760Y-95642753D01*
X128771585Y-95708444D01*
X128582179Y-95804951D01*
X128410213Y-95929890D01*
X128259890Y-96080213D01*
X128134949Y-96252182D01*
X128130484Y-96260946D01*
X128082509Y-96311742D01*
X128014688Y-96328536D01*
X127948553Y-96305998D01*
X127909516Y-96260946D01*
X127905050Y-96252182D01*
X127780109Y-96080213D01*
X127629786Y-95929890D01*
X127457820Y-95804951D01*
X127268414Y-95708444D01*
X127268413Y-95708443D01*
X127268412Y-95708443D01*
X127066243Y-95642754D01*
X127066241Y-95642753D01*
X127066240Y-95642753D01*
X126904957Y-95617208D01*
X126856287Y-95609500D01*
X126643713Y-95609500D01*
X126595042Y-95617208D01*
X126433760Y-95642753D01*
X126231585Y-95708444D01*
X126042179Y-95804951D01*
X125870213Y-95929890D01*
X125719890Y-96080213D01*
X125594949Y-96252182D01*
X125590484Y-96260946D01*
X125542509Y-96311742D01*
X125474688Y-96328536D01*
X125408553Y-96305998D01*
X125369516Y-96260946D01*
X125365050Y-96252182D01*
X125240109Y-96080213D01*
X125089786Y-95929890D01*
X124917820Y-95804951D01*
X124728414Y-95708444D01*
X124728413Y-95708443D01*
X124728412Y-95708443D01*
X124526243Y-95642754D01*
X124526241Y-95642753D01*
X124526240Y-95642753D01*
X124364957Y-95617208D01*
X124316287Y-95609500D01*
X124103713Y-95609500D01*
X124055042Y-95617208D01*
X123893760Y-95642753D01*
X123691585Y-95708444D01*
X123502179Y-95804951D01*
X123330213Y-95929890D01*
X123179890Y-96080213D01*
X123054949Y-96252182D01*
X123050484Y-96260946D01*
X123002509Y-96311742D01*
X122934688Y-96328536D01*
X122868553Y-96305998D01*
X122829516Y-96260946D01*
X122825050Y-96252182D01*
X122700109Y-96080213D01*
X122549786Y-95929890D01*
X122377820Y-95804951D01*
X122188414Y-95708444D01*
X122188413Y-95708443D01*
X122188412Y-95708443D01*
X121986243Y-95642754D01*
X121986241Y-95642753D01*
X121986240Y-95642753D01*
X121824957Y-95617208D01*
X121776287Y-95609500D01*
X121563713Y-95609500D01*
X121515042Y-95617208D01*
X121353760Y-95642753D01*
X121151585Y-95708444D01*
X120962179Y-95804951D01*
X120790213Y-95929890D01*
X120639890Y-96080213D01*
X120514949Y-96252182D01*
X120510484Y-96260946D01*
X120462509Y-96311742D01*
X120394688Y-96328536D01*
X120328553Y-96305998D01*
X120289516Y-96260946D01*
X120285050Y-96252182D01*
X120160109Y-96080213D01*
X120009786Y-95929890D01*
X119837820Y-95804951D01*
X119648414Y-95708444D01*
X119648413Y-95708443D01*
X119648412Y-95708443D01*
X119446243Y-95642754D01*
X119446241Y-95642753D01*
X119446240Y-95642753D01*
X119284957Y-95617208D01*
X119236287Y-95609500D01*
X119023713Y-95609500D01*
X118975042Y-95617208D01*
X118813760Y-95642753D01*
X118611585Y-95708444D01*
X118422179Y-95804951D01*
X118250213Y-95929890D01*
X118099890Y-96080213D01*
X117974949Y-96252182D01*
X117970484Y-96260946D01*
X117922509Y-96311742D01*
X117854688Y-96328536D01*
X117788553Y-96305998D01*
X117749516Y-96260946D01*
X117745050Y-96252182D01*
X117620109Y-96080213D01*
X117469786Y-95929890D01*
X117297820Y-95804951D01*
X117108414Y-95708444D01*
X117108413Y-95708443D01*
X117108412Y-95708443D01*
X116906243Y-95642754D01*
X116906241Y-95642753D01*
X116906240Y-95642753D01*
X116744957Y-95617208D01*
X116696287Y-95609500D01*
X116483713Y-95609500D01*
X116435042Y-95617208D01*
X116273760Y-95642753D01*
X116071585Y-95708444D01*
X115882179Y-95804951D01*
X115710213Y-95929890D01*
X115559890Y-96080213D01*
X115434949Y-96252182D01*
X115430484Y-96260946D01*
X115382509Y-96311742D01*
X115314688Y-96328536D01*
X115248553Y-96305998D01*
X115209516Y-96260946D01*
X115205050Y-96252182D01*
X115080109Y-96080213D01*
X114929786Y-95929890D01*
X114757820Y-95804951D01*
X114568414Y-95708444D01*
X114568413Y-95708443D01*
X114568412Y-95708443D01*
X114366243Y-95642754D01*
X114366241Y-95642753D01*
X114366240Y-95642753D01*
X114204957Y-95617208D01*
X114156287Y-95609500D01*
X113943713Y-95609500D01*
X113895042Y-95617208D01*
X113733760Y-95642753D01*
X113531585Y-95708444D01*
X113342179Y-95804951D01*
X113170213Y-95929890D01*
X113019890Y-96080213D01*
X112894949Y-96252182D01*
X112890484Y-96260946D01*
X112842509Y-96311742D01*
X112774688Y-96328536D01*
X112708553Y-96305998D01*
X112669516Y-96260946D01*
X112665050Y-96252182D01*
X112540109Y-96080213D01*
X112389786Y-95929890D01*
X112217820Y-95804951D01*
X112028414Y-95708444D01*
X112028413Y-95708443D01*
X112028412Y-95708443D01*
X111826243Y-95642754D01*
X111826241Y-95642753D01*
X111826240Y-95642753D01*
X111664957Y-95617208D01*
X111616287Y-95609500D01*
X111403713Y-95609500D01*
X111355042Y-95617208D01*
X111193760Y-95642753D01*
X110991585Y-95708444D01*
X110802179Y-95804951D01*
X110630213Y-95929890D01*
X110479890Y-96080213D01*
X110354949Y-96252182D01*
X110350484Y-96260946D01*
X110302509Y-96311742D01*
X110234688Y-96328536D01*
X110168553Y-96305998D01*
X110129516Y-96260946D01*
X110125050Y-96252182D01*
X110000109Y-96080213D01*
X109849786Y-95929890D01*
X109677820Y-95804951D01*
X109488414Y-95708444D01*
X109488413Y-95708443D01*
X109488412Y-95708443D01*
X109286243Y-95642754D01*
X109286241Y-95642753D01*
X109286240Y-95642753D01*
X109124957Y-95617208D01*
X109076287Y-95609500D01*
X108863713Y-95609500D01*
X108815042Y-95617208D01*
X108653760Y-95642753D01*
X108451585Y-95708444D01*
X108262179Y-95804951D01*
X108090213Y-95929890D01*
X107939890Y-96080213D01*
X107814951Y-96252179D01*
X107718444Y-96441585D01*
X107652753Y-96643760D01*
X107619500Y-96853713D01*
X97875500Y-96853713D01*
X97875500Y-73374038D01*
X193499500Y-73374038D01*
X193499500Y-73625961D01*
X193538910Y-73874785D01*
X193616760Y-74114383D01*
X193676283Y-74231202D01*
X193720231Y-74317455D01*
X193731132Y-74338848D01*
X193879201Y-74542649D01*
X193879205Y-74542654D01*
X194057345Y-74720794D01*
X194057350Y-74720798D01*
X194235117Y-74849952D01*
X194261155Y-74868870D01*
X194404184Y-74941747D01*
X194485616Y-74983239D01*
X194485618Y-74983239D01*
X194485621Y-74983241D01*
X194725215Y-75061090D01*
X194974038Y-75100500D01*
X194974039Y-75100500D01*
X195225961Y-75100500D01*
X195225962Y-75100500D01*
X195474785Y-75061090D01*
X195714379Y-74983241D01*
X195938845Y-74868870D01*
X196142656Y-74720793D01*
X196320793Y-74542656D01*
X196468870Y-74338845D01*
X196583241Y-74114379D01*
X196661090Y-73874785D01*
X196700500Y-73625962D01*
X196700500Y-73374038D01*
X196661090Y-73125215D01*
X196583241Y-72885621D01*
X196583239Y-72885618D01*
X196583239Y-72885616D01*
X196541747Y-72804184D01*
X196468870Y-72661155D01*
X196449952Y-72635117D01*
X196320798Y-72457350D01*
X196320794Y-72457345D01*
X196142654Y-72279205D01*
X196142649Y-72279201D01*
X195938848Y-72131132D01*
X195938847Y-72131131D01*
X195938845Y-72131130D01*
X195868747Y-72095413D01*
X195714383Y-72016760D01*
X195474785Y-71938910D01*
X195225962Y-71899500D01*
X194974038Y-71899500D01*
X194849626Y-71919205D01*
X194725214Y-71938910D01*
X194485616Y-72016760D01*
X194261151Y-72131132D01*
X194057350Y-72279201D01*
X194057345Y-72279205D01*
X193879205Y-72457345D01*
X193879201Y-72457350D01*
X193731132Y-72661151D01*
X193616760Y-72885616D01*
X193538910Y-73125214D01*
X193499500Y-73374038D01*
X97875500Y-73374038D01*
X97875500Y-65149500D01*
X97895185Y-65082461D01*
X97947989Y-65036706D01*
X97999500Y-65025500D01*
X198750500Y-65025500D01*
X198817539Y-65045185D01*
G37*
G04 #@! TD.AperFunction*
M02*
