%TF.GenerationSoftware,KiCad,Pcbnew,9.0.6-9.0.6~ubuntu24.04.1*%
%TF.CreationDate,2025-11-23T16:10:12+01:00*%
%TF.ProjectId,odins-eye-pcb,6f64696e-732d-4657-9965-2d7063622e6b,0*%
%TF.SameCoordinates,Original*%
%TF.FileFunction,Drillmap*%
%TF.FilePolarity,Positive*%
%FSLAX45Y45*%
G04 Gerber Fmt 4.5, Leading zero omitted, Abs format (unit mm)*
G04 Created by KiCad (PCBNEW 9.0.6-9.0.6~ubuntu24.04.1) date 2025-11-23 16:10:12*
%MOMM*%
%LPD*%
G01*
G04 APERTURE LIST*
%ADD10C,0.038100*%
%ADD11C,0.200000*%
%ADD12C,0.100000*%
G04 APERTURE END LIST*
D10*
X19925000Y-11950000D02*
X9725000Y-11950000D01*
X19950000Y-6950000D02*
X19925000Y-11950000D01*
X9725000Y-6950000D02*
X19950000Y-6950000D01*
X9725000Y-11950000D02*
X9725000Y-6950000D01*
D11*
D12*
X11785000Y-10585000D02*
X11815000Y-10615000D01*
X11815000Y-10585000D02*
X11785000Y-10615000D01*
X12685000Y-10685000D02*
X12715000Y-10715000D01*
X12715000Y-10685000D02*
X12685000Y-10715000D01*
X12785000Y-10685000D02*
X12815000Y-10715000D01*
X12815000Y-10685000D02*
X12785000Y-10715000D01*
X12985000Y-10385000D02*
X13015000Y-10415000D01*
X13015000Y-10385000D02*
X12985000Y-10415000D01*
X13085000Y-10185000D02*
X13115000Y-10215000D01*
X13115000Y-10185000D02*
X13085000Y-10215000D01*
X14704367Y-10485000D02*
X14734367Y-10515000D01*
X14734367Y-10485000D02*
X14704367Y-10515000D01*
X15285000Y-9835000D02*
X15315000Y-9865000D01*
X15315000Y-9835000D02*
X15285000Y-9865000D01*
X15285000Y-10185000D02*
X15315000Y-10215000D01*
X15315000Y-10185000D02*
X15285000Y-10215000D01*
X14313500Y-11135000D02*
G75*
G02*
X14263500Y-11135000I-25000J0D01*
G01*
X14263500Y-11135000D02*
G75*
G02*
X14313500Y-11135000I25000J0D01*
G01*
X14438500Y-11135000D02*
G75*
G02*
X14388500Y-11135000I-25000J0D01*
G01*
X14388500Y-11135000D02*
G75*
G02*
X14438500Y-11135000I25000J0D01*
G01*
X14563500Y-11135000D02*
G75*
G02*
X14513500Y-11135000I-25000J0D01*
G01*
X14513500Y-11135000D02*
G75*
G02*
X14563500Y-11135000I25000J0D01*
G01*
X14688500Y-11135000D02*
G75*
G02*
X14638500Y-11135000I-25000J0D01*
G01*
X14638500Y-11135000D02*
G75*
G02*
X14688500Y-11135000I25000J0D01*
G01*
X14813500Y-11135000D02*
G75*
G02*
X14763500Y-11135000I-25000J0D01*
G01*
X14763500Y-11135000D02*
G75*
G02*
X14813500Y-11135000I25000J0D01*
G01*
X14938500Y-11135000D02*
G75*
G02*
X14888500Y-11135000I-25000J0D01*
G01*
X14888500Y-11135000D02*
G75*
G02*
X14938500Y-11135000I25000J0D01*
G01*
X19209500Y-9006000D02*
X19209500Y-9066000D01*
X19179500Y-9036000D02*
X19239500Y-9036000D01*
X19154500Y-9066000D02*
X19264500Y-9066000D01*
X19264500Y-9006000D02*
G75*
G02*
X19264500Y-9066000I0J-30000D01*
G01*
X19264500Y-9006000D02*
X19154500Y-9006000D01*
X19154500Y-9006000D02*
G75*
G03*
X19154500Y-9066000I0J-30000D01*
G01*
X19209500Y-9870000D02*
X19209500Y-9930000D01*
X19179500Y-9900000D02*
X19239500Y-9900000D01*
X19154500Y-9930000D02*
X19264500Y-9930000D01*
X19264500Y-9870000D02*
G75*
G02*
X19264500Y-9930000I0J-30000D01*
G01*
X19264500Y-9870000D02*
X19154500Y-9870000D01*
X19154500Y-9870000D02*
G75*
G03*
X19154500Y-9930000I0J-30000D01*
G01*
X19627500Y-9006000D02*
X19627500Y-9066000D01*
X19597500Y-9036000D02*
X19657500Y-9036000D01*
X19587500Y-9066000D02*
X19667500Y-9066000D01*
X19667500Y-9006000D02*
G75*
G02*
X19667500Y-9066000I0J-30000D01*
G01*
X19667500Y-9006000D02*
X19587500Y-9006000D01*
X19587500Y-9006000D02*
G75*
G03*
X19587500Y-9066000I0J-30000D01*
G01*
X19627500Y-9870000D02*
X19627500Y-9930000D01*
X19597500Y-9900000D02*
X19657500Y-9900000D01*
X19587500Y-9930000D02*
X19667500Y-9930000D01*
X19667500Y-9870000D02*
G75*
G02*
X19667500Y-9930000I0J-30000D01*
G01*
X19667500Y-9870000D02*
X19587500Y-9870000D01*
X19587500Y-9870000D02*
G75*
G03*
X19587500Y-9930000I0J-30000D01*
G01*
X17297285Y-8078284D02*
X17297285Y-8021715D01*
X17240716Y-8021715D01*
X17240716Y-8078284D01*
X17297285Y-8078284D01*
X17297285Y-10428285D02*
X17297285Y-10371716D01*
X17240716Y-10371716D01*
X17240716Y-10428285D01*
X17297285Y-10428285D01*
X18059285Y-8078284D02*
X18059285Y-8021715D01*
X18002716Y-8021715D01*
X18002716Y-8078284D01*
X18059285Y-8078284D01*
X18059285Y-10428285D02*
X18059285Y-10371716D01*
X18002716Y-10371716D01*
X18002716Y-10428285D01*
X18059285Y-10428285D01*
X18664285Y-8067284D02*
X18664285Y-8010715D01*
X18607716Y-8010715D01*
X18607716Y-8067284D01*
X18664285Y-8067284D01*
X19426285Y-8067284D02*
X19426285Y-8010715D01*
X19369716Y-8010715D01*
X19369716Y-8067284D01*
X19426285Y-8067284D01*
X17533500Y-9535000D02*
X17578500Y-9490000D01*
X17533500Y-9445000D01*
X17488500Y-9490000D01*
X17533500Y-9535000D01*
X17787500Y-9535000D02*
X17832500Y-9490000D01*
X17787500Y-9445000D01*
X17742500Y-9490000D01*
X17787500Y-9535000D01*
X10847000Y-9646000D02*
X10947000Y-9746000D01*
X10947000Y-9646000D02*
X10847000Y-9746000D01*
X10947000Y-9696000D02*
G75*
G02*
X10847000Y-9696000I-50000J0D01*
G01*
X10847000Y-9696000D02*
G75*
G02*
X10947000Y-9696000I50000J0D01*
G01*
X10847000Y-9900000D02*
X10947000Y-10000000D01*
X10947000Y-9900000D02*
X10847000Y-10000000D01*
X10947000Y-9950000D02*
G75*
G02*
X10847000Y-9950000I-50000J0D01*
G01*
X10847000Y-9950000D02*
G75*
G02*
X10947000Y-9950000I50000J0D01*
G01*
X11101000Y-9646000D02*
X11201000Y-9746000D01*
X11201000Y-9646000D02*
X11101000Y-9746000D01*
X11201000Y-9696000D02*
G75*
G02*
X11101000Y-9696000I-50000J0D01*
G01*
X11101000Y-9696000D02*
G75*
G02*
X11201000Y-9696000I50000J0D01*
G01*
X11101000Y-9900000D02*
X11201000Y-10000000D01*
X11201000Y-9900000D02*
X11101000Y-10000000D01*
X11201000Y-9950000D02*
G75*
G02*
X11101000Y-9950000I-50000J0D01*
G01*
X11101000Y-9950000D02*
G75*
G02*
X11201000Y-9950000I50000J0D01*
G01*
X11139000Y-11039500D02*
X11239000Y-11139500D01*
X11239000Y-11039500D02*
X11139000Y-11139500D01*
X11239000Y-11089500D02*
G75*
G02*
X11139000Y-11089500I-50000J0D01*
G01*
X11139000Y-11089500D02*
G75*
G02*
X11239000Y-11089500I50000J0D01*
G01*
X11355000Y-9646000D02*
X11455000Y-9746000D01*
X11455000Y-9646000D02*
X11355000Y-9746000D01*
X11455000Y-9696000D02*
G75*
G02*
X11355000Y-9696000I-50000J0D01*
G01*
X11355000Y-9696000D02*
G75*
G02*
X11455000Y-9696000I50000J0D01*
G01*
X11355000Y-9900000D02*
X11455000Y-10000000D01*
X11455000Y-9900000D02*
X11355000Y-10000000D01*
X11455000Y-9950000D02*
G75*
G02*
X11355000Y-9950000I-50000J0D01*
G01*
X11355000Y-9950000D02*
G75*
G02*
X11455000Y-9950000I50000J0D01*
G01*
X11393000Y-11039500D02*
X11493000Y-11139500D01*
X11493000Y-11039500D02*
X11393000Y-11139500D01*
X11493000Y-11089500D02*
G75*
G02*
X11393000Y-11089500I-50000J0D01*
G01*
X11393000Y-11089500D02*
G75*
G02*
X11493000Y-11089500I50000J0D01*
G01*
X11609000Y-9646000D02*
X11709000Y-9746000D01*
X11709000Y-9646000D02*
X11609000Y-9746000D01*
X11709000Y-9696000D02*
G75*
G02*
X11609000Y-9696000I-50000J0D01*
G01*
X11609000Y-9696000D02*
G75*
G02*
X11709000Y-9696000I50000J0D01*
G01*
X11609000Y-9900000D02*
X11709000Y-10000000D01*
X11709000Y-9900000D02*
X11609000Y-10000000D01*
X11709000Y-9950000D02*
G75*
G02*
X11609000Y-9950000I-50000J0D01*
G01*
X11609000Y-9950000D02*
G75*
G02*
X11709000Y-9950000I50000J0D01*
G01*
X11647000Y-11039500D02*
X11747000Y-11139500D01*
X11747000Y-11039500D02*
X11647000Y-11139500D01*
X11747000Y-11089500D02*
G75*
G02*
X11647000Y-11089500I-50000J0D01*
G01*
X11647000Y-11089500D02*
G75*
G02*
X11747000Y-11089500I50000J0D01*
G01*
X11863000Y-9646000D02*
X11963000Y-9746000D01*
X11963000Y-9646000D02*
X11863000Y-9746000D01*
X11963000Y-9696000D02*
G75*
G02*
X11863000Y-9696000I-50000J0D01*
G01*
X11863000Y-9696000D02*
G75*
G02*
X11963000Y-9696000I50000J0D01*
G01*
X11863000Y-9900000D02*
X11963000Y-10000000D01*
X11963000Y-9900000D02*
X11863000Y-10000000D01*
X11963000Y-9950000D02*
G75*
G02*
X11863000Y-9950000I-50000J0D01*
G01*
X11863000Y-9950000D02*
G75*
G02*
X11963000Y-9950000I50000J0D01*
G01*
X11901000Y-11039500D02*
X12001000Y-11139500D01*
X12001000Y-11039500D02*
X11901000Y-11139500D01*
X12001000Y-11089500D02*
G75*
G02*
X11901000Y-11089500I-50000J0D01*
G01*
X11901000Y-11089500D02*
G75*
G02*
X12001000Y-11089500I50000J0D01*
G01*
X12117000Y-9646000D02*
X12217000Y-9746000D01*
X12217000Y-9646000D02*
X12117000Y-9746000D01*
X12217000Y-9696000D02*
G75*
G02*
X12117000Y-9696000I-50000J0D01*
G01*
X12117000Y-9696000D02*
G75*
G02*
X12217000Y-9696000I50000J0D01*
G01*
X12117000Y-9900000D02*
X12217000Y-10000000D01*
X12217000Y-9900000D02*
X12117000Y-10000000D01*
X12217000Y-9950000D02*
G75*
G02*
X12117000Y-9950000I-50000J0D01*
G01*
X12117000Y-9950000D02*
G75*
G02*
X12217000Y-9950000I50000J0D01*
G01*
X12155000Y-11039500D02*
X12255000Y-11139500D01*
X12255000Y-11039500D02*
X12155000Y-11139500D01*
X12255000Y-11089500D02*
G75*
G02*
X12155000Y-11089500I-50000J0D01*
G01*
X12155000Y-11089500D02*
G75*
G02*
X12255000Y-11089500I50000J0D01*
G01*
X12371000Y-9646000D02*
X12471000Y-9746000D01*
X12471000Y-9646000D02*
X12371000Y-9746000D01*
X12471000Y-9696000D02*
G75*
G02*
X12371000Y-9696000I-50000J0D01*
G01*
X12371000Y-9696000D02*
G75*
G02*
X12471000Y-9696000I50000J0D01*
G01*
X12371000Y-9900000D02*
X12471000Y-10000000D01*
X12471000Y-9900000D02*
X12371000Y-10000000D01*
X12471000Y-9950000D02*
G75*
G02*
X12371000Y-9950000I-50000J0D01*
G01*
X12371000Y-9950000D02*
G75*
G02*
X12471000Y-9950000I50000J0D01*
G01*
X12409000Y-11039500D02*
X12509000Y-11139500D01*
X12509000Y-11039500D02*
X12409000Y-11139500D01*
X12509000Y-11089500D02*
G75*
G02*
X12409000Y-11089500I-50000J0D01*
G01*
X12409000Y-11089500D02*
G75*
G02*
X12509000Y-11089500I50000J0D01*
G01*
X12625000Y-9646000D02*
X12725000Y-9746000D01*
X12725000Y-9646000D02*
X12625000Y-9746000D01*
X12725000Y-9696000D02*
G75*
G02*
X12625000Y-9696000I-50000J0D01*
G01*
X12625000Y-9696000D02*
G75*
G02*
X12725000Y-9696000I50000J0D01*
G01*
X12625000Y-9900000D02*
X12725000Y-10000000D01*
X12725000Y-9900000D02*
X12625000Y-10000000D01*
X12725000Y-9950000D02*
G75*
G02*
X12625000Y-9950000I-50000J0D01*
G01*
X12625000Y-9950000D02*
G75*
G02*
X12725000Y-9950000I50000J0D01*
G01*
X12663000Y-11039500D02*
X12763000Y-11139500D01*
X12763000Y-11039500D02*
X12663000Y-11139500D01*
X12763000Y-11089500D02*
G75*
G02*
X12663000Y-11089500I-50000J0D01*
G01*
X12663000Y-11089500D02*
G75*
G02*
X12763000Y-11089500I50000J0D01*
G01*
X12879000Y-9646000D02*
X12979000Y-9746000D01*
X12979000Y-9646000D02*
X12879000Y-9746000D01*
X12979000Y-9696000D02*
G75*
G02*
X12879000Y-9696000I-50000J0D01*
G01*
X12879000Y-9696000D02*
G75*
G02*
X12979000Y-9696000I50000J0D01*
G01*
X12879000Y-9900000D02*
X12979000Y-10000000D01*
X12979000Y-9900000D02*
X12879000Y-10000000D01*
X12979000Y-9950000D02*
G75*
G02*
X12879000Y-9950000I-50000J0D01*
G01*
X12879000Y-9950000D02*
G75*
G02*
X12979000Y-9950000I50000J0D01*
G01*
X13133000Y-9646000D02*
X13233000Y-9746000D01*
X13233000Y-9646000D02*
X13133000Y-9746000D01*
X13233000Y-9696000D02*
G75*
G02*
X13133000Y-9696000I-50000J0D01*
G01*
X13133000Y-9696000D02*
G75*
G02*
X13233000Y-9696000I50000J0D01*
G01*
X13133000Y-9900000D02*
X13233000Y-10000000D01*
X13233000Y-9900000D02*
X13133000Y-10000000D01*
X13233000Y-9950000D02*
G75*
G02*
X13133000Y-9950000I-50000J0D01*
G01*
X13133000Y-9950000D02*
G75*
G02*
X13233000Y-9950000I50000J0D01*
G01*
X13387000Y-9646000D02*
X13487000Y-9746000D01*
X13487000Y-9646000D02*
X13387000Y-9746000D01*
X13487000Y-9696000D02*
G75*
G02*
X13387000Y-9696000I-50000J0D01*
G01*
X13387000Y-9696000D02*
G75*
G02*
X13487000Y-9696000I50000J0D01*
G01*
X13387000Y-9900000D02*
X13487000Y-10000000D01*
X13487000Y-9900000D02*
X13387000Y-10000000D01*
X13487000Y-9950000D02*
G75*
G02*
X13387000Y-9950000I-50000J0D01*
G01*
X13387000Y-9950000D02*
G75*
G02*
X13487000Y-9950000I50000J0D01*
G01*
X13641000Y-9646000D02*
X13741000Y-9746000D01*
X13741000Y-9646000D02*
X13641000Y-9746000D01*
X13741000Y-9696000D02*
G75*
G02*
X13641000Y-9696000I-50000J0D01*
G01*
X13641000Y-9696000D02*
G75*
G02*
X13741000Y-9696000I50000J0D01*
G01*
X13641000Y-9900000D02*
X13741000Y-10000000D01*
X13741000Y-9900000D02*
X13641000Y-10000000D01*
X13741000Y-9950000D02*
G75*
G02*
X13641000Y-9950000I-50000J0D01*
G01*
X13641000Y-9950000D02*
G75*
G02*
X13741000Y-9950000I50000J0D01*
G01*
X13895000Y-9646000D02*
X13995000Y-9746000D01*
X13995000Y-9646000D02*
X13895000Y-9746000D01*
X13995000Y-9696000D02*
G75*
G02*
X13895000Y-9696000I-50000J0D01*
G01*
X13895000Y-9696000D02*
G75*
G02*
X13995000Y-9696000I50000J0D01*
G01*
X13895000Y-9900000D02*
X13995000Y-10000000D01*
X13995000Y-9900000D02*
X13895000Y-10000000D01*
X13995000Y-9950000D02*
G75*
G02*
X13895000Y-9950000I-50000J0D01*
G01*
X13895000Y-9950000D02*
G75*
G02*
X13995000Y-9950000I50000J0D01*
G01*
X14149000Y-9646000D02*
X14249000Y-9746000D01*
X14249000Y-9646000D02*
X14149000Y-9746000D01*
X14249000Y-9696000D02*
G75*
G02*
X14149000Y-9696000I-50000J0D01*
G01*
X14149000Y-9696000D02*
G75*
G02*
X14249000Y-9696000I50000J0D01*
G01*
X14149000Y-9900000D02*
X14249000Y-10000000D01*
X14249000Y-9900000D02*
X14149000Y-10000000D01*
X14249000Y-9950000D02*
G75*
G02*
X14149000Y-9950000I-50000J0D01*
G01*
X14149000Y-9950000D02*
G75*
G02*
X14249000Y-9950000I50000J0D01*
G01*
X14403000Y-9646000D02*
X14503000Y-9746000D01*
X14503000Y-9646000D02*
X14403000Y-9746000D01*
X14503000Y-9696000D02*
G75*
G02*
X14403000Y-9696000I-50000J0D01*
G01*
X14403000Y-9696000D02*
G75*
G02*
X14503000Y-9696000I50000J0D01*
G01*
X14403000Y-9900000D02*
X14503000Y-10000000D01*
X14503000Y-9900000D02*
X14403000Y-10000000D01*
X14503000Y-9950000D02*
G75*
G02*
X14403000Y-9950000I-50000J0D01*
G01*
X14403000Y-9950000D02*
G75*
G02*
X14503000Y-9950000I50000J0D01*
G01*
X14657000Y-9646000D02*
X14757000Y-9746000D01*
X14757000Y-9646000D02*
X14657000Y-9746000D01*
X14757000Y-9696000D02*
G75*
G02*
X14657000Y-9696000I-50000J0D01*
G01*
X14657000Y-9696000D02*
G75*
G02*
X14757000Y-9696000I50000J0D01*
G01*
X14657000Y-9900000D02*
X14757000Y-10000000D01*
X14757000Y-9900000D02*
X14657000Y-10000000D01*
X14757000Y-9950000D02*
G75*
G02*
X14657000Y-9950000I-50000J0D01*
G01*
X14657000Y-9950000D02*
G75*
G02*
X14757000Y-9950000I50000J0D01*
G01*
X14911000Y-9646000D02*
X15011000Y-9746000D01*
X15011000Y-9646000D02*
X14911000Y-9746000D01*
X15011000Y-9696000D02*
G75*
G02*
X14911000Y-9696000I-50000J0D01*
G01*
X14911000Y-9696000D02*
G75*
G02*
X15011000Y-9696000I50000J0D01*
G01*
X14911000Y-9900000D02*
X15011000Y-10000000D01*
X15011000Y-9900000D02*
X14911000Y-10000000D01*
X15011000Y-9950000D02*
G75*
G02*
X14911000Y-9950000I-50000J0D01*
G01*
X14911000Y-9950000D02*
G75*
G02*
X15011000Y-9950000I50000J0D01*
G01*
X15165000Y-9646000D02*
X15265000Y-9746000D01*
X15265000Y-9646000D02*
X15165000Y-9746000D01*
X15265000Y-9696000D02*
G75*
G02*
X15165000Y-9696000I-50000J0D01*
G01*
X15165000Y-9696000D02*
G75*
G02*
X15265000Y-9696000I50000J0D01*
G01*
X15165000Y-9900000D02*
X15265000Y-10000000D01*
X15265000Y-9900000D02*
X15165000Y-10000000D01*
X15265000Y-9950000D02*
G75*
G02*
X15165000Y-9950000I-50000J0D01*
G01*
X15165000Y-9950000D02*
G75*
G02*
X15265000Y-9950000I50000J0D01*
G01*
X15419000Y-9646000D02*
X15519000Y-9746000D01*
X15519000Y-9646000D02*
X15419000Y-9746000D01*
X15519000Y-9696000D02*
G75*
G02*
X15419000Y-9696000I-50000J0D01*
G01*
X15419000Y-9696000D02*
G75*
G02*
X15519000Y-9696000I50000J0D01*
G01*
X15419000Y-9900000D02*
X15519000Y-10000000D01*
X15519000Y-9900000D02*
X15419000Y-10000000D01*
X15519000Y-9950000D02*
G75*
G02*
X15419000Y-9950000I-50000J0D01*
G01*
X15419000Y-9950000D02*
G75*
G02*
X15519000Y-9950000I50000J0D01*
G01*
X15673000Y-9646000D02*
X15773000Y-9746000D01*
X15773000Y-9646000D02*
X15673000Y-9746000D01*
X15773000Y-9696000D02*
G75*
G02*
X15673000Y-9696000I-50000J0D01*
G01*
X15673000Y-9696000D02*
G75*
G02*
X15773000Y-9696000I50000J0D01*
G01*
X15673000Y-9900000D02*
X15773000Y-10000000D01*
X15773000Y-9900000D02*
X15673000Y-10000000D01*
X15773000Y-9950000D02*
G75*
G02*
X15673000Y-9950000I-50000J0D01*
G01*
X15673000Y-9950000D02*
G75*
G02*
X15773000Y-9950000I50000J0D01*
G01*
D11*
X9983872Y-12263389D02*
X9983872Y-12063389D01*
X9983872Y-12063389D02*
X10031491Y-12063389D01*
X10031491Y-12063389D02*
X10060062Y-12072913D01*
X10060062Y-12072913D02*
X10079110Y-12091960D01*
X10079110Y-12091960D02*
X10088634Y-12111008D01*
X10088634Y-12111008D02*
X10098158Y-12149103D01*
X10098158Y-12149103D02*
X10098158Y-12177674D01*
X10098158Y-12177674D02*
X10088634Y-12215770D01*
X10088634Y-12215770D02*
X10079110Y-12234817D01*
X10079110Y-12234817D02*
X10060062Y-12253865D01*
X10060062Y-12253865D02*
X10031491Y-12263389D01*
X10031491Y-12263389D02*
X9983872Y-12263389D01*
X10183872Y-12263389D02*
X10183872Y-12130055D01*
X10183872Y-12168151D02*
X10193396Y-12149103D01*
X10193396Y-12149103D02*
X10202919Y-12139579D01*
X10202919Y-12139579D02*
X10221967Y-12130055D01*
X10221967Y-12130055D02*
X10241015Y-12130055D01*
X10307681Y-12263389D02*
X10307681Y-12130055D01*
X10307681Y-12063389D02*
X10298158Y-12072913D01*
X10298158Y-12072913D02*
X10307681Y-12082436D01*
X10307681Y-12082436D02*
X10317205Y-12072913D01*
X10317205Y-12072913D02*
X10307681Y-12063389D01*
X10307681Y-12063389D02*
X10307681Y-12082436D01*
X10431491Y-12263389D02*
X10412443Y-12253865D01*
X10412443Y-12253865D02*
X10402919Y-12234817D01*
X10402919Y-12234817D02*
X10402919Y-12063389D01*
X10536253Y-12263389D02*
X10517205Y-12253865D01*
X10517205Y-12253865D02*
X10507681Y-12234817D01*
X10507681Y-12234817D02*
X10507681Y-12063389D01*
X10764824Y-12263389D02*
X10764824Y-12063389D01*
X10764824Y-12063389D02*
X10831491Y-12206246D01*
X10831491Y-12206246D02*
X10898158Y-12063389D01*
X10898158Y-12063389D02*
X10898158Y-12263389D01*
X11079110Y-12263389D02*
X11079110Y-12158627D01*
X11079110Y-12158627D02*
X11069586Y-12139579D01*
X11069586Y-12139579D02*
X11050539Y-12130055D01*
X11050539Y-12130055D02*
X11012443Y-12130055D01*
X11012443Y-12130055D02*
X10993396Y-12139579D01*
X11079110Y-12253865D02*
X11060062Y-12263389D01*
X11060062Y-12263389D02*
X11012443Y-12263389D01*
X11012443Y-12263389D02*
X10993396Y-12253865D01*
X10993396Y-12253865D02*
X10983872Y-12234817D01*
X10983872Y-12234817D02*
X10983872Y-12215770D01*
X10983872Y-12215770D02*
X10993396Y-12196722D01*
X10993396Y-12196722D02*
X11012443Y-12187198D01*
X11012443Y-12187198D02*
X11060062Y-12187198D01*
X11060062Y-12187198D02*
X11079110Y-12177674D01*
X11174348Y-12130055D02*
X11174348Y-12330055D01*
X11174348Y-12139579D02*
X11193396Y-12130055D01*
X11193396Y-12130055D02*
X11231491Y-12130055D01*
X11231491Y-12130055D02*
X11250538Y-12139579D01*
X11250538Y-12139579D02*
X11260062Y-12149103D01*
X11260062Y-12149103D02*
X11269586Y-12168151D01*
X11269586Y-12168151D02*
X11269586Y-12225293D01*
X11269586Y-12225293D02*
X11260062Y-12244341D01*
X11260062Y-12244341D02*
X11250538Y-12253865D01*
X11250538Y-12253865D02*
X11231491Y-12263389D01*
X11231491Y-12263389D02*
X11193396Y-12263389D01*
X11193396Y-12263389D02*
X11174348Y-12253865D01*
X11355300Y-12244341D02*
X11364824Y-12253865D01*
X11364824Y-12253865D02*
X11355300Y-12263389D01*
X11355300Y-12263389D02*
X11345777Y-12253865D01*
X11345777Y-12253865D02*
X11355300Y-12244341D01*
X11355300Y-12244341D02*
X11355300Y-12263389D01*
X11355300Y-12139579D02*
X11364824Y-12149103D01*
X11364824Y-12149103D02*
X11355300Y-12158627D01*
X11355300Y-12158627D02*
X11345777Y-12149103D01*
X11345777Y-12149103D02*
X11355300Y-12139579D01*
X11355300Y-12139579D02*
X11355300Y-12158627D01*
D12*
X9693095Y-12576905D02*
X9723095Y-12606905D01*
X9723095Y-12576905D02*
X9693095Y-12606905D01*
D11*
X10021967Y-12483389D02*
X10041015Y-12483389D01*
X10041015Y-12483389D02*
X10060062Y-12492913D01*
X10060062Y-12492913D02*
X10069586Y-12502436D01*
X10069586Y-12502436D02*
X10079110Y-12521484D01*
X10079110Y-12521484D02*
X10088634Y-12559579D01*
X10088634Y-12559579D02*
X10088634Y-12607198D01*
X10088634Y-12607198D02*
X10079110Y-12645293D01*
X10079110Y-12645293D02*
X10069586Y-12664341D01*
X10069586Y-12664341D02*
X10060062Y-12673865D01*
X10060062Y-12673865D02*
X10041015Y-12683389D01*
X10041015Y-12683389D02*
X10021967Y-12683389D01*
X10021967Y-12683389D02*
X10002919Y-12673865D01*
X10002919Y-12673865D02*
X9993396Y-12664341D01*
X9993396Y-12664341D02*
X9983872Y-12645293D01*
X9983872Y-12645293D02*
X9974348Y-12607198D01*
X9974348Y-12607198D02*
X9974348Y-12559579D01*
X9974348Y-12559579D02*
X9983872Y-12521484D01*
X9983872Y-12521484D02*
X9993396Y-12502436D01*
X9993396Y-12502436D02*
X10002919Y-12492913D01*
X10002919Y-12492913D02*
X10021967Y-12483389D01*
X10174348Y-12664341D02*
X10183872Y-12673865D01*
X10183872Y-12673865D02*
X10174348Y-12683389D01*
X10174348Y-12683389D02*
X10164824Y-12673865D01*
X10164824Y-12673865D02*
X10174348Y-12664341D01*
X10174348Y-12664341D02*
X10174348Y-12683389D01*
X10250539Y-12483389D02*
X10374348Y-12483389D01*
X10374348Y-12483389D02*
X10307681Y-12559579D01*
X10307681Y-12559579D02*
X10336253Y-12559579D01*
X10336253Y-12559579D02*
X10355300Y-12569103D01*
X10355300Y-12569103D02*
X10364824Y-12578627D01*
X10364824Y-12578627D02*
X10374348Y-12597674D01*
X10374348Y-12597674D02*
X10374348Y-12645293D01*
X10374348Y-12645293D02*
X10364824Y-12664341D01*
X10364824Y-12664341D02*
X10355300Y-12673865D01*
X10355300Y-12673865D02*
X10336253Y-12683389D01*
X10336253Y-12683389D02*
X10279110Y-12683389D01*
X10279110Y-12683389D02*
X10260062Y-12673865D01*
X10260062Y-12673865D02*
X10250539Y-12664341D01*
X10498158Y-12483389D02*
X10517205Y-12483389D01*
X10517205Y-12483389D02*
X10536253Y-12492913D01*
X10536253Y-12492913D02*
X10545777Y-12502436D01*
X10545777Y-12502436D02*
X10555300Y-12521484D01*
X10555300Y-12521484D02*
X10564824Y-12559579D01*
X10564824Y-12559579D02*
X10564824Y-12607198D01*
X10564824Y-12607198D02*
X10555300Y-12645293D01*
X10555300Y-12645293D02*
X10545777Y-12664341D01*
X10545777Y-12664341D02*
X10536253Y-12673865D01*
X10536253Y-12673865D02*
X10517205Y-12683389D01*
X10517205Y-12683389D02*
X10498158Y-12683389D01*
X10498158Y-12683389D02*
X10479110Y-12673865D01*
X10479110Y-12673865D02*
X10469586Y-12664341D01*
X10469586Y-12664341D02*
X10460062Y-12645293D01*
X10460062Y-12645293D02*
X10450539Y-12607198D01*
X10450539Y-12607198D02*
X10450539Y-12559579D01*
X10450539Y-12559579D02*
X10460062Y-12521484D01*
X10460062Y-12521484D02*
X10469586Y-12502436D01*
X10469586Y-12502436D02*
X10479110Y-12492913D01*
X10479110Y-12492913D02*
X10498158Y-12483389D01*
X10688634Y-12483389D02*
X10707681Y-12483389D01*
X10707681Y-12483389D02*
X10726729Y-12492913D01*
X10726729Y-12492913D02*
X10736253Y-12502436D01*
X10736253Y-12502436D02*
X10745777Y-12521484D01*
X10745777Y-12521484D02*
X10755300Y-12559579D01*
X10755300Y-12559579D02*
X10755300Y-12607198D01*
X10755300Y-12607198D02*
X10745777Y-12645293D01*
X10745777Y-12645293D02*
X10736253Y-12664341D01*
X10736253Y-12664341D02*
X10726729Y-12673865D01*
X10726729Y-12673865D02*
X10707681Y-12683389D01*
X10707681Y-12683389D02*
X10688634Y-12683389D01*
X10688634Y-12683389D02*
X10669586Y-12673865D01*
X10669586Y-12673865D02*
X10660062Y-12664341D01*
X10660062Y-12664341D02*
X10650539Y-12645293D01*
X10650539Y-12645293D02*
X10641015Y-12607198D01*
X10641015Y-12607198D02*
X10641015Y-12559579D01*
X10641015Y-12559579D02*
X10650539Y-12521484D01*
X10650539Y-12521484D02*
X10660062Y-12502436D01*
X10660062Y-12502436D02*
X10669586Y-12492913D01*
X10669586Y-12492913D02*
X10688634Y-12483389D01*
X10841015Y-12683389D02*
X10841015Y-12550055D01*
X10841015Y-12569103D02*
X10850539Y-12559579D01*
X10850539Y-12559579D02*
X10869586Y-12550055D01*
X10869586Y-12550055D02*
X10898158Y-12550055D01*
X10898158Y-12550055D02*
X10917205Y-12559579D01*
X10917205Y-12559579D02*
X10926729Y-12578627D01*
X10926729Y-12578627D02*
X10926729Y-12683389D01*
X10926729Y-12578627D02*
X10936253Y-12559579D01*
X10936253Y-12559579D02*
X10955300Y-12550055D01*
X10955300Y-12550055D02*
X10983872Y-12550055D01*
X10983872Y-12550055D02*
X11002920Y-12559579D01*
X11002920Y-12559579D02*
X11012443Y-12578627D01*
X11012443Y-12578627D02*
X11012443Y-12683389D01*
X11107681Y-12683389D02*
X11107681Y-12550055D01*
X11107681Y-12569103D02*
X11117205Y-12559579D01*
X11117205Y-12559579D02*
X11136253Y-12550055D01*
X11136253Y-12550055D02*
X11164824Y-12550055D01*
X11164824Y-12550055D02*
X11183872Y-12559579D01*
X11183872Y-12559579D02*
X11193396Y-12578627D01*
X11193396Y-12578627D02*
X11193396Y-12683389D01*
X11193396Y-12578627D02*
X11202919Y-12559579D01*
X11202919Y-12559579D02*
X11221967Y-12550055D01*
X11221967Y-12550055D02*
X11250538Y-12550055D01*
X11250538Y-12550055D02*
X11269586Y-12559579D01*
X11269586Y-12559579D02*
X11279110Y-12578627D01*
X11279110Y-12578627D02*
X11279110Y-12683389D01*
X11669586Y-12473865D02*
X11498158Y-12731008D01*
X11926729Y-12483389D02*
X11945777Y-12483389D01*
X11945777Y-12483389D02*
X11964824Y-12492913D01*
X11964824Y-12492913D02*
X11974348Y-12502436D01*
X11974348Y-12502436D02*
X11983872Y-12521484D01*
X11983872Y-12521484D02*
X11993396Y-12559579D01*
X11993396Y-12559579D02*
X11993396Y-12607198D01*
X11993396Y-12607198D02*
X11983872Y-12645293D01*
X11983872Y-12645293D02*
X11974348Y-12664341D01*
X11974348Y-12664341D02*
X11964824Y-12673865D01*
X11964824Y-12673865D02*
X11945777Y-12683389D01*
X11945777Y-12683389D02*
X11926729Y-12683389D01*
X11926729Y-12683389D02*
X11907681Y-12673865D01*
X11907681Y-12673865D02*
X11898158Y-12664341D01*
X11898158Y-12664341D02*
X11888634Y-12645293D01*
X11888634Y-12645293D02*
X11879110Y-12607198D01*
X11879110Y-12607198D02*
X11879110Y-12559579D01*
X11879110Y-12559579D02*
X11888634Y-12521484D01*
X11888634Y-12521484D02*
X11898158Y-12502436D01*
X11898158Y-12502436D02*
X11907681Y-12492913D01*
X11907681Y-12492913D02*
X11926729Y-12483389D01*
X12079110Y-12664341D02*
X12088634Y-12673865D01*
X12088634Y-12673865D02*
X12079110Y-12683389D01*
X12079110Y-12683389D02*
X12069586Y-12673865D01*
X12069586Y-12673865D02*
X12079110Y-12664341D01*
X12079110Y-12664341D02*
X12079110Y-12683389D01*
X12212443Y-12483389D02*
X12231491Y-12483389D01*
X12231491Y-12483389D02*
X12250539Y-12492913D01*
X12250539Y-12492913D02*
X12260062Y-12502436D01*
X12260062Y-12502436D02*
X12269586Y-12521484D01*
X12269586Y-12521484D02*
X12279110Y-12559579D01*
X12279110Y-12559579D02*
X12279110Y-12607198D01*
X12279110Y-12607198D02*
X12269586Y-12645293D01*
X12269586Y-12645293D02*
X12260062Y-12664341D01*
X12260062Y-12664341D02*
X12250539Y-12673865D01*
X12250539Y-12673865D02*
X12231491Y-12683389D01*
X12231491Y-12683389D02*
X12212443Y-12683389D01*
X12212443Y-12683389D02*
X12193396Y-12673865D01*
X12193396Y-12673865D02*
X12183872Y-12664341D01*
X12183872Y-12664341D02*
X12174348Y-12645293D01*
X12174348Y-12645293D02*
X12164824Y-12607198D01*
X12164824Y-12607198D02*
X12164824Y-12559579D01*
X12164824Y-12559579D02*
X12174348Y-12521484D01*
X12174348Y-12521484D02*
X12183872Y-12502436D01*
X12183872Y-12502436D02*
X12193396Y-12492913D01*
X12193396Y-12492913D02*
X12212443Y-12483389D01*
X12469586Y-12683389D02*
X12355301Y-12683389D01*
X12412443Y-12683389D02*
X12412443Y-12483389D01*
X12412443Y-12483389D02*
X12393396Y-12511960D01*
X12393396Y-12511960D02*
X12374348Y-12531008D01*
X12374348Y-12531008D02*
X12355301Y-12540532D01*
X12660062Y-12683389D02*
X12545777Y-12683389D01*
X12602920Y-12683389D02*
X12602920Y-12483389D01*
X12602920Y-12483389D02*
X12583872Y-12511960D01*
X12583872Y-12511960D02*
X12564824Y-12531008D01*
X12564824Y-12531008D02*
X12545777Y-12540532D01*
X12774348Y-12569103D02*
X12755301Y-12559579D01*
X12755301Y-12559579D02*
X12745777Y-12550055D01*
X12745777Y-12550055D02*
X12736253Y-12531008D01*
X12736253Y-12531008D02*
X12736253Y-12521484D01*
X12736253Y-12521484D02*
X12745777Y-12502436D01*
X12745777Y-12502436D02*
X12755301Y-12492913D01*
X12755301Y-12492913D02*
X12774348Y-12483389D01*
X12774348Y-12483389D02*
X12812443Y-12483389D01*
X12812443Y-12483389D02*
X12831491Y-12492913D01*
X12831491Y-12492913D02*
X12841015Y-12502436D01*
X12841015Y-12502436D02*
X12850539Y-12521484D01*
X12850539Y-12521484D02*
X12850539Y-12531008D01*
X12850539Y-12531008D02*
X12841015Y-12550055D01*
X12841015Y-12550055D02*
X12831491Y-12559579D01*
X12831491Y-12559579D02*
X12812443Y-12569103D01*
X12812443Y-12569103D02*
X12774348Y-12569103D01*
X12774348Y-12569103D02*
X12755301Y-12578627D01*
X12755301Y-12578627D02*
X12745777Y-12588151D01*
X12745777Y-12588151D02*
X12736253Y-12607198D01*
X12736253Y-12607198D02*
X12736253Y-12645293D01*
X12736253Y-12645293D02*
X12745777Y-12664341D01*
X12745777Y-12664341D02*
X12755301Y-12673865D01*
X12755301Y-12673865D02*
X12774348Y-12683389D01*
X12774348Y-12683389D02*
X12812443Y-12683389D01*
X12812443Y-12683389D02*
X12831491Y-12673865D01*
X12831491Y-12673865D02*
X12841015Y-12664341D01*
X12841015Y-12664341D02*
X12850539Y-12645293D01*
X12850539Y-12645293D02*
X12850539Y-12607198D01*
X12850539Y-12607198D02*
X12841015Y-12588151D01*
X12841015Y-12588151D02*
X12831491Y-12578627D01*
X12831491Y-12578627D02*
X12812443Y-12569103D01*
X12926729Y-12483389D02*
X12926729Y-12521484D01*
X13002920Y-12483389D02*
X13002920Y-12521484D01*
X13298158Y-12759579D02*
X13288634Y-12750055D01*
X13288634Y-12750055D02*
X13269586Y-12721484D01*
X13269586Y-12721484D02*
X13260063Y-12702436D01*
X13260063Y-12702436D02*
X13250539Y-12673865D01*
X13250539Y-12673865D02*
X13241015Y-12626246D01*
X13241015Y-12626246D02*
X13241015Y-12588151D01*
X13241015Y-12588151D02*
X13250539Y-12540532D01*
X13250539Y-12540532D02*
X13260063Y-12511960D01*
X13260063Y-12511960D02*
X13269586Y-12492913D01*
X13269586Y-12492913D02*
X13288634Y-12464341D01*
X13288634Y-12464341D02*
X13298158Y-12454817D01*
X13402920Y-12569103D02*
X13383872Y-12559579D01*
X13383872Y-12559579D02*
X13374348Y-12550055D01*
X13374348Y-12550055D02*
X13364824Y-12531008D01*
X13364824Y-12531008D02*
X13364824Y-12521484D01*
X13364824Y-12521484D02*
X13374348Y-12502436D01*
X13374348Y-12502436D02*
X13383872Y-12492913D01*
X13383872Y-12492913D02*
X13402920Y-12483389D01*
X13402920Y-12483389D02*
X13441015Y-12483389D01*
X13441015Y-12483389D02*
X13460063Y-12492913D01*
X13460063Y-12492913D02*
X13469586Y-12502436D01*
X13469586Y-12502436D02*
X13479110Y-12521484D01*
X13479110Y-12521484D02*
X13479110Y-12531008D01*
X13479110Y-12531008D02*
X13469586Y-12550055D01*
X13469586Y-12550055D02*
X13460063Y-12559579D01*
X13460063Y-12559579D02*
X13441015Y-12569103D01*
X13441015Y-12569103D02*
X13402920Y-12569103D01*
X13402920Y-12569103D02*
X13383872Y-12578627D01*
X13383872Y-12578627D02*
X13374348Y-12588151D01*
X13374348Y-12588151D02*
X13364824Y-12607198D01*
X13364824Y-12607198D02*
X13364824Y-12645293D01*
X13364824Y-12645293D02*
X13374348Y-12664341D01*
X13374348Y-12664341D02*
X13383872Y-12673865D01*
X13383872Y-12673865D02*
X13402920Y-12683389D01*
X13402920Y-12683389D02*
X13441015Y-12683389D01*
X13441015Y-12683389D02*
X13460063Y-12673865D01*
X13460063Y-12673865D02*
X13469586Y-12664341D01*
X13469586Y-12664341D02*
X13479110Y-12645293D01*
X13479110Y-12645293D02*
X13479110Y-12607198D01*
X13479110Y-12607198D02*
X13469586Y-12588151D01*
X13469586Y-12588151D02*
X13460063Y-12578627D01*
X13460063Y-12578627D02*
X13441015Y-12569103D01*
X13717205Y-12683389D02*
X13717205Y-12483389D01*
X13802920Y-12683389D02*
X13802920Y-12578627D01*
X13802920Y-12578627D02*
X13793396Y-12559579D01*
X13793396Y-12559579D02*
X13774348Y-12550055D01*
X13774348Y-12550055D02*
X13745777Y-12550055D01*
X13745777Y-12550055D02*
X13726729Y-12559579D01*
X13726729Y-12559579D02*
X13717205Y-12569103D01*
X13926729Y-12683389D02*
X13907682Y-12673865D01*
X13907682Y-12673865D02*
X13898158Y-12664341D01*
X13898158Y-12664341D02*
X13888634Y-12645293D01*
X13888634Y-12645293D02*
X13888634Y-12588151D01*
X13888634Y-12588151D02*
X13898158Y-12569103D01*
X13898158Y-12569103D02*
X13907682Y-12559579D01*
X13907682Y-12559579D02*
X13926729Y-12550055D01*
X13926729Y-12550055D02*
X13955301Y-12550055D01*
X13955301Y-12550055D02*
X13974348Y-12559579D01*
X13974348Y-12559579D02*
X13983872Y-12569103D01*
X13983872Y-12569103D02*
X13993396Y-12588151D01*
X13993396Y-12588151D02*
X13993396Y-12645293D01*
X13993396Y-12645293D02*
X13983872Y-12664341D01*
X13983872Y-12664341D02*
X13974348Y-12673865D01*
X13974348Y-12673865D02*
X13955301Y-12683389D01*
X13955301Y-12683389D02*
X13926729Y-12683389D01*
X14107682Y-12683389D02*
X14088634Y-12673865D01*
X14088634Y-12673865D02*
X14079110Y-12654817D01*
X14079110Y-12654817D02*
X14079110Y-12483389D01*
X14260063Y-12673865D02*
X14241015Y-12683389D01*
X14241015Y-12683389D02*
X14202920Y-12683389D01*
X14202920Y-12683389D02*
X14183872Y-12673865D01*
X14183872Y-12673865D02*
X14174348Y-12654817D01*
X14174348Y-12654817D02*
X14174348Y-12578627D01*
X14174348Y-12578627D02*
X14183872Y-12559579D01*
X14183872Y-12559579D02*
X14202920Y-12550055D01*
X14202920Y-12550055D02*
X14241015Y-12550055D01*
X14241015Y-12550055D02*
X14260063Y-12559579D01*
X14260063Y-12559579D02*
X14269586Y-12578627D01*
X14269586Y-12578627D02*
X14269586Y-12597674D01*
X14269586Y-12597674D02*
X14174348Y-12616722D01*
X14345777Y-12673865D02*
X14364825Y-12683389D01*
X14364825Y-12683389D02*
X14402920Y-12683389D01*
X14402920Y-12683389D02*
X14421967Y-12673865D01*
X14421967Y-12673865D02*
X14431491Y-12654817D01*
X14431491Y-12654817D02*
X14431491Y-12645293D01*
X14431491Y-12645293D02*
X14421967Y-12626246D01*
X14421967Y-12626246D02*
X14402920Y-12616722D01*
X14402920Y-12616722D02*
X14374348Y-12616722D01*
X14374348Y-12616722D02*
X14355301Y-12607198D01*
X14355301Y-12607198D02*
X14345777Y-12588151D01*
X14345777Y-12588151D02*
X14345777Y-12578627D01*
X14345777Y-12578627D02*
X14355301Y-12559579D01*
X14355301Y-12559579D02*
X14374348Y-12550055D01*
X14374348Y-12550055D02*
X14402920Y-12550055D01*
X14402920Y-12550055D02*
X14421967Y-12559579D01*
X14498158Y-12759579D02*
X14507682Y-12750055D01*
X14507682Y-12750055D02*
X14526729Y-12721484D01*
X14526729Y-12721484D02*
X14536253Y-12702436D01*
X14536253Y-12702436D02*
X14545777Y-12673865D01*
X14545777Y-12673865D02*
X14555301Y-12626246D01*
X14555301Y-12626246D02*
X14555301Y-12588151D01*
X14555301Y-12588151D02*
X14545777Y-12540532D01*
X14545777Y-12540532D02*
X14536253Y-12511960D01*
X14536253Y-12511960D02*
X14526729Y-12492913D01*
X14526729Y-12492913D02*
X14507682Y-12464341D01*
X14507682Y-12464341D02*
X14498158Y-12454817D01*
D12*
X9723095Y-12855905D02*
G75*
G02*
X9673095Y-12855905I-25000J0D01*
G01*
X9673095Y-12855905D02*
G75*
G02*
X9723095Y-12855905I25000J0D01*
G01*
D11*
X10021967Y-12747389D02*
X10041015Y-12747389D01*
X10041015Y-12747389D02*
X10060062Y-12756913D01*
X10060062Y-12756913D02*
X10069586Y-12766436D01*
X10069586Y-12766436D02*
X10079110Y-12785484D01*
X10079110Y-12785484D02*
X10088634Y-12823579D01*
X10088634Y-12823579D02*
X10088634Y-12871198D01*
X10088634Y-12871198D02*
X10079110Y-12909293D01*
X10079110Y-12909293D02*
X10069586Y-12928341D01*
X10069586Y-12928341D02*
X10060062Y-12937865D01*
X10060062Y-12937865D02*
X10041015Y-12947389D01*
X10041015Y-12947389D02*
X10021967Y-12947389D01*
X10021967Y-12947389D02*
X10002919Y-12937865D01*
X10002919Y-12937865D02*
X9993396Y-12928341D01*
X9993396Y-12928341D02*
X9983872Y-12909293D01*
X9983872Y-12909293D02*
X9974348Y-12871198D01*
X9974348Y-12871198D02*
X9974348Y-12823579D01*
X9974348Y-12823579D02*
X9983872Y-12785484D01*
X9983872Y-12785484D02*
X9993396Y-12766436D01*
X9993396Y-12766436D02*
X10002919Y-12756913D01*
X10002919Y-12756913D02*
X10021967Y-12747389D01*
X10174348Y-12928341D02*
X10183872Y-12937865D01*
X10183872Y-12937865D02*
X10174348Y-12947389D01*
X10174348Y-12947389D02*
X10164824Y-12937865D01*
X10164824Y-12937865D02*
X10174348Y-12928341D01*
X10174348Y-12928341D02*
X10174348Y-12947389D01*
X10364824Y-12747389D02*
X10269586Y-12747389D01*
X10269586Y-12747389D02*
X10260062Y-12842627D01*
X10260062Y-12842627D02*
X10269586Y-12833103D01*
X10269586Y-12833103D02*
X10288634Y-12823579D01*
X10288634Y-12823579D02*
X10336253Y-12823579D01*
X10336253Y-12823579D02*
X10355300Y-12833103D01*
X10355300Y-12833103D02*
X10364824Y-12842627D01*
X10364824Y-12842627D02*
X10374348Y-12861674D01*
X10374348Y-12861674D02*
X10374348Y-12909293D01*
X10374348Y-12909293D02*
X10364824Y-12928341D01*
X10364824Y-12928341D02*
X10355300Y-12937865D01*
X10355300Y-12937865D02*
X10336253Y-12947389D01*
X10336253Y-12947389D02*
X10288634Y-12947389D01*
X10288634Y-12947389D02*
X10269586Y-12937865D01*
X10269586Y-12937865D02*
X10260062Y-12928341D01*
X10498158Y-12747389D02*
X10517205Y-12747389D01*
X10517205Y-12747389D02*
X10536253Y-12756913D01*
X10536253Y-12756913D02*
X10545777Y-12766436D01*
X10545777Y-12766436D02*
X10555300Y-12785484D01*
X10555300Y-12785484D02*
X10564824Y-12823579D01*
X10564824Y-12823579D02*
X10564824Y-12871198D01*
X10564824Y-12871198D02*
X10555300Y-12909293D01*
X10555300Y-12909293D02*
X10545777Y-12928341D01*
X10545777Y-12928341D02*
X10536253Y-12937865D01*
X10536253Y-12937865D02*
X10517205Y-12947389D01*
X10517205Y-12947389D02*
X10498158Y-12947389D01*
X10498158Y-12947389D02*
X10479110Y-12937865D01*
X10479110Y-12937865D02*
X10469586Y-12928341D01*
X10469586Y-12928341D02*
X10460062Y-12909293D01*
X10460062Y-12909293D02*
X10450539Y-12871198D01*
X10450539Y-12871198D02*
X10450539Y-12823579D01*
X10450539Y-12823579D02*
X10460062Y-12785484D01*
X10460062Y-12785484D02*
X10469586Y-12766436D01*
X10469586Y-12766436D02*
X10479110Y-12756913D01*
X10479110Y-12756913D02*
X10498158Y-12747389D01*
X10688634Y-12747389D02*
X10707681Y-12747389D01*
X10707681Y-12747389D02*
X10726729Y-12756913D01*
X10726729Y-12756913D02*
X10736253Y-12766436D01*
X10736253Y-12766436D02*
X10745777Y-12785484D01*
X10745777Y-12785484D02*
X10755300Y-12823579D01*
X10755300Y-12823579D02*
X10755300Y-12871198D01*
X10755300Y-12871198D02*
X10745777Y-12909293D01*
X10745777Y-12909293D02*
X10736253Y-12928341D01*
X10736253Y-12928341D02*
X10726729Y-12937865D01*
X10726729Y-12937865D02*
X10707681Y-12947389D01*
X10707681Y-12947389D02*
X10688634Y-12947389D01*
X10688634Y-12947389D02*
X10669586Y-12937865D01*
X10669586Y-12937865D02*
X10660062Y-12928341D01*
X10660062Y-12928341D02*
X10650539Y-12909293D01*
X10650539Y-12909293D02*
X10641015Y-12871198D01*
X10641015Y-12871198D02*
X10641015Y-12823579D01*
X10641015Y-12823579D02*
X10650539Y-12785484D01*
X10650539Y-12785484D02*
X10660062Y-12766436D01*
X10660062Y-12766436D02*
X10669586Y-12756913D01*
X10669586Y-12756913D02*
X10688634Y-12747389D01*
X10841015Y-12947389D02*
X10841015Y-12814055D01*
X10841015Y-12833103D02*
X10850539Y-12823579D01*
X10850539Y-12823579D02*
X10869586Y-12814055D01*
X10869586Y-12814055D02*
X10898158Y-12814055D01*
X10898158Y-12814055D02*
X10917205Y-12823579D01*
X10917205Y-12823579D02*
X10926729Y-12842627D01*
X10926729Y-12842627D02*
X10926729Y-12947389D01*
X10926729Y-12842627D02*
X10936253Y-12823579D01*
X10936253Y-12823579D02*
X10955300Y-12814055D01*
X10955300Y-12814055D02*
X10983872Y-12814055D01*
X10983872Y-12814055D02*
X11002920Y-12823579D01*
X11002920Y-12823579D02*
X11012443Y-12842627D01*
X11012443Y-12842627D02*
X11012443Y-12947389D01*
X11107681Y-12947389D02*
X11107681Y-12814055D01*
X11107681Y-12833103D02*
X11117205Y-12823579D01*
X11117205Y-12823579D02*
X11136253Y-12814055D01*
X11136253Y-12814055D02*
X11164824Y-12814055D01*
X11164824Y-12814055D02*
X11183872Y-12823579D01*
X11183872Y-12823579D02*
X11193396Y-12842627D01*
X11193396Y-12842627D02*
X11193396Y-12947389D01*
X11193396Y-12842627D02*
X11202919Y-12823579D01*
X11202919Y-12823579D02*
X11221967Y-12814055D01*
X11221967Y-12814055D02*
X11250538Y-12814055D01*
X11250538Y-12814055D02*
X11269586Y-12823579D01*
X11269586Y-12823579D02*
X11279110Y-12842627D01*
X11279110Y-12842627D02*
X11279110Y-12947389D01*
X11669586Y-12737865D02*
X11498158Y-12995008D01*
X11926729Y-12747389D02*
X11945777Y-12747389D01*
X11945777Y-12747389D02*
X11964824Y-12756913D01*
X11964824Y-12756913D02*
X11974348Y-12766436D01*
X11974348Y-12766436D02*
X11983872Y-12785484D01*
X11983872Y-12785484D02*
X11993396Y-12823579D01*
X11993396Y-12823579D02*
X11993396Y-12871198D01*
X11993396Y-12871198D02*
X11983872Y-12909293D01*
X11983872Y-12909293D02*
X11974348Y-12928341D01*
X11974348Y-12928341D02*
X11964824Y-12937865D01*
X11964824Y-12937865D02*
X11945777Y-12947389D01*
X11945777Y-12947389D02*
X11926729Y-12947389D01*
X11926729Y-12947389D02*
X11907681Y-12937865D01*
X11907681Y-12937865D02*
X11898158Y-12928341D01*
X11898158Y-12928341D02*
X11888634Y-12909293D01*
X11888634Y-12909293D02*
X11879110Y-12871198D01*
X11879110Y-12871198D02*
X11879110Y-12823579D01*
X11879110Y-12823579D02*
X11888634Y-12785484D01*
X11888634Y-12785484D02*
X11898158Y-12766436D01*
X11898158Y-12766436D02*
X11907681Y-12756913D01*
X11907681Y-12756913D02*
X11926729Y-12747389D01*
X12079110Y-12928341D02*
X12088634Y-12937865D01*
X12088634Y-12937865D02*
X12079110Y-12947389D01*
X12079110Y-12947389D02*
X12069586Y-12937865D01*
X12069586Y-12937865D02*
X12079110Y-12928341D01*
X12079110Y-12928341D02*
X12079110Y-12947389D01*
X12212443Y-12747389D02*
X12231491Y-12747389D01*
X12231491Y-12747389D02*
X12250539Y-12756913D01*
X12250539Y-12756913D02*
X12260062Y-12766436D01*
X12260062Y-12766436D02*
X12269586Y-12785484D01*
X12269586Y-12785484D02*
X12279110Y-12823579D01*
X12279110Y-12823579D02*
X12279110Y-12871198D01*
X12279110Y-12871198D02*
X12269586Y-12909293D01*
X12269586Y-12909293D02*
X12260062Y-12928341D01*
X12260062Y-12928341D02*
X12250539Y-12937865D01*
X12250539Y-12937865D02*
X12231491Y-12947389D01*
X12231491Y-12947389D02*
X12212443Y-12947389D01*
X12212443Y-12947389D02*
X12193396Y-12937865D01*
X12193396Y-12937865D02*
X12183872Y-12928341D01*
X12183872Y-12928341D02*
X12174348Y-12909293D01*
X12174348Y-12909293D02*
X12164824Y-12871198D01*
X12164824Y-12871198D02*
X12164824Y-12823579D01*
X12164824Y-12823579D02*
X12174348Y-12785484D01*
X12174348Y-12785484D02*
X12183872Y-12766436D01*
X12183872Y-12766436D02*
X12193396Y-12756913D01*
X12193396Y-12756913D02*
X12212443Y-12747389D01*
X12469586Y-12947389D02*
X12355301Y-12947389D01*
X12412443Y-12947389D02*
X12412443Y-12747389D01*
X12412443Y-12747389D02*
X12393396Y-12775960D01*
X12393396Y-12775960D02*
X12374348Y-12795008D01*
X12374348Y-12795008D02*
X12355301Y-12804532D01*
X12564824Y-12947389D02*
X12602920Y-12947389D01*
X12602920Y-12947389D02*
X12621967Y-12937865D01*
X12621967Y-12937865D02*
X12631491Y-12928341D01*
X12631491Y-12928341D02*
X12650539Y-12899770D01*
X12650539Y-12899770D02*
X12660062Y-12861674D01*
X12660062Y-12861674D02*
X12660062Y-12785484D01*
X12660062Y-12785484D02*
X12650539Y-12766436D01*
X12650539Y-12766436D02*
X12641015Y-12756913D01*
X12641015Y-12756913D02*
X12621967Y-12747389D01*
X12621967Y-12747389D02*
X12583872Y-12747389D01*
X12583872Y-12747389D02*
X12564824Y-12756913D01*
X12564824Y-12756913D02*
X12555301Y-12766436D01*
X12555301Y-12766436D02*
X12545777Y-12785484D01*
X12545777Y-12785484D02*
X12545777Y-12833103D01*
X12545777Y-12833103D02*
X12555301Y-12852151D01*
X12555301Y-12852151D02*
X12564824Y-12861674D01*
X12564824Y-12861674D02*
X12583872Y-12871198D01*
X12583872Y-12871198D02*
X12621967Y-12871198D01*
X12621967Y-12871198D02*
X12641015Y-12861674D01*
X12641015Y-12861674D02*
X12650539Y-12852151D01*
X12650539Y-12852151D02*
X12660062Y-12833103D01*
X12726729Y-12747389D02*
X12860062Y-12747389D01*
X12860062Y-12747389D02*
X12774348Y-12947389D01*
X12926729Y-12747389D02*
X12926729Y-12785484D01*
X13002920Y-12747389D02*
X13002920Y-12785484D01*
X13298158Y-13023579D02*
X13288634Y-13014055D01*
X13288634Y-13014055D02*
X13269586Y-12985484D01*
X13269586Y-12985484D02*
X13260063Y-12966436D01*
X13260063Y-12966436D02*
X13250539Y-12937865D01*
X13250539Y-12937865D02*
X13241015Y-12890246D01*
X13241015Y-12890246D02*
X13241015Y-12852151D01*
X13241015Y-12852151D02*
X13250539Y-12804532D01*
X13250539Y-12804532D02*
X13260063Y-12775960D01*
X13260063Y-12775960D02*
X13269586Y-12756913D01*
X13269586Y-12756913D02*
X13288634Y-12728341D01*
X13288634Y-12728341D02*
X13298158Y-12718817D01*
X13460063Y-12747389D02*
X13421967Y-12747389D01*
X13421967Y-12747389D02*
X13402920Y-12756913D01*
X13402920Y-12756913D02*
X13393396Y-12766436D01*
X13393396Y-12766436D02*
X13374348Y-12795008D01*
X13374348Y-12795008D02*
X13364824Y-12833103D01*
X13364824Y-12833103D02*
X13364824Y-12909293D01*
X13364824Y-12909293D02*
X13374348Y-12928341D01*
X13374348Y-12928341D02*
X13383872Y-12937865D01*
X13383872Y-12937865D02*
X13402920Y-12947389D01*
X13402920Y-12947389D02*
X13441015Y-12947389D01*
X13441015Y-12947389D02*
X13460063Y-12937865D01*
X13460063Y-12937865D02*
X13469586Y-12928341D01*
X13469586Y-12928341D02*
X13479110Y-12909293D01*
X13479110Y-12909293D02*
X13479110Y-12861674D01*
X13479110Y-12861674D02*
X13469586Y-12842627D01*
X13469586Y-12842627D02*
X13460063Y-12833103D01*
X13460063Y-12833103D02*
X13441015Y-12823579D01*
X13441015Y-12823579D02*
X13402920Y-12823579D01*
X13402920Y-12823579D02*
X13383872Y-12833103D01*
X13383872Y-12833103D02*
X13374348Y-12842627D01*
X13374348Y-12842627D02*
X13364824Y-12861674D01*
X13717205Y-12947389D02*
X13717205Y-12747389D01*
X13802920Y-12947389D02*
X13802920Y-12842627D01*
X13802920Y-12842627D02*
X13793396Y-12823579D01*
X13793396Y-12823579D02*
X13774348Y-12814055D01*
X13774348Y-12814055D02*
X13745777Y-12814055D01*
X13745777Y-12814055D02*
X13726729Y-12823579D01*
X13726729Y-12823579D02*
X13717205Y-12833103D01*
X13926729Y-12947389D02*
X13907682Y-12937865D01*
X13907682Y-12937865D02*
X13898158Y-12928341D01*
X13898158Y-12928341D02*
X13888634Y-12909293D01*
X13888634Y-12909293D02*
X13888634Y-12852151D01*
X13888634Y-12852151D02*
X13898158Y-12833103D01*
X13898158Y-12833103D02*
X13907682Y-12823579D01*
X13907682Y-12823579D02*
X13926729Y-12814055D01*
X13926729Y-12814055D02*
X13955301Y-12814055D01*
X13955301Y-12814055D02*
X13974348Y-12823579D01*
X13974348Y-12823579D02*
X13983872Y-12833103D01*
X13983872Y-12833103D02*
X13993396Y-12852151D01*
X13993396Y-12852151D02*
X13993396Y-12909293D01*
X13993396Y-12909293D02*
X13983872Y-12928341D01*
X13983872Y-12928341D02*
X13974348Y-12937865D01*
X13974348Y-12937865D02*
X13955301Y-12947389D01*
X13955301Y-12947389D02*
X13926729Y-12947389D01*
X14107682Y-12947389D02*
X14088634Y-12937865D01*
X14088634Y-12937865D02*
X14079110Y-12918817D01*
X14079110Y-12918817D02*
X14079110Y-12747389D01*
X14260063Y-12937865D02*
X14241015Y-12947389D01*
X14241015Y-12947389D02*
X14202920Y-12947389D01*
X14202920Y-12947389D02*
X14183872Y-12937865D01*
X14183872Y-12937865D02*
X14174348Y-12918817D01*
X14174348Y-12918817D02*
X14174348Y-12842627D01*
X14174348Y-12842627D02*
X14183872Y-12823579D01*
X14183872Y-12823579D02*
X14202920Y-12814055D01*
X14202920Y-12814055D02*
X14241015Y-12814055D01*
X14241015Y-12814055D02*
X14260063Y-12823579D01*
X14260063Y-12823579D02*
X14269586Y-12842627D01*
X14269586Y-12842627D02*
X14269586Y-12861674D01*
X14269586Y-12861674D02*
X14174348Y-12880722D01*
X14345777Y-12937865D02*
X14364825Y-12947389D01*
X14364825Y-12947389D02*
X14402920Y-12947389D01*
X14402920Y-12947389D02*
X14421967Y-12937865D01*
X14421967Y-12937865D02*
X14431491Y-12918817D01*
X14431491Y-12918817D02*
X14431491Y-12909293D01*
X14431491Y-12909293D02*
X14421967Y-12890246D01*
X14421967Y-12890246D02*
X14402920Y-12880722D01*
X14402920Y-12880722D02*
X14374348Y-12880722D01*
X14374348Y-12880722D02*
X14355301Y-12871198D01*
X14355301Y-12871198D02*
X14345777Y-12852151D01*
X14345777Y-12852151D02*
X14345777Y-12842627D01*
X14345777Y-12842627D02*
X14355301Y-12823579D01*
X14355301Y-12823579D02*
X14374348Y-12814055D01*
X14374348Y-12814055D02*
X14402920Y-12814055D01*
X14402920Y-12814055D02*
X14421967Y-12823579D01*
X14498158Y-13023579D02*
X14507682Y-13014055D01*
X14507682Y-13014055D02*
X14526729Y-12985484D01*
X14526729Y-12985484D02*
X14536253Y-12966436D01*
X14536253Y-12966436D02*
X14545777Y-12937865D01*
X14545777Y-12937865D02*
X14555301Y-12890246D01*
X14555301Y-12890246D02*
X14555301Y-12852151D01*
X14555301Y-12852151D02*
X14545777Y-12804532D01*
X14545777Y-12804532D02*
X14536253Y-12775960D01*
X14536253Y-12775960D02*
X14526729Y-12756913D01*
X14526729Y-12756913D02*
X14507682Y-12728341D01*
X14507682Y-12728341D02*
X14498158Y-12718817D01*
D12*
X9693095Y-13089905D02*
X9693095Y-13149905D01*
X9663095Y-13119905D02*
X9723095Y-13119905D01*
D11*
X10021967Y-13011389D02*
X10041015Y-13011389D01*
X10041015Y-13011389D02*
X10060062Y-13020913D01*
X10060062Y-13020913D02*
X10069586Y-13030436D01*
X10069586Y-13030436D02*
X10079110Y-13049484D01*
X10079110Y-13049484D02*
X10088634Y-13087579D01*
X10088634Y-13087579D02*
X10088634Y-13135198D01*
X10088634Y-13135198D02*
X10079110Y-13173293D01*
X10079110Y-13173293D02*
X10069586Y-13192341D01*
X10069586Y-13192341D02*
X10060062Y-13201865D01*
X10060062Y-13201865D02*
X10041015Y-13211389D01*
X10041015Y-13211389D02*
X10021967Y-13211389D01*
X10021967Y-13211389D02*
X10002919Y-13201865D01*
X10002919Y-13201865D02*
X9993396Y-13192341D01*
X9993396Y-13192341D02*
X9983872Y-13173293D01*
X9983872Y-13173293D02*
X9974348Y-13135198D01*
X9974348Y-13135198D02*
X9974348Y-13087579D01*
X9974348Y-13087579D02*
X9983872Y-13049484D01*
X9983872Y-13049484D02*
X9993396Y-13030436D01*
X9993396Y-13030436D02*
X10002919Y-13020913D01*
X10002919Y-13020913D02*
X10021967Y-13011389D01*
X10174348Y-13192341D02*
X10183872Y-13201865D01*
X10183872Y-13201865D02*
X10174348Y-13211389D01*
X10174348Y-13211389D02*
X10164824Y-13201865D01*
X10164824Y-13201865D02*
X10174348Y-13192341D01*
X10174348Y-13192341D02*
X10174348Y-13211389D01*
X10355300Y-13011389D02*
X10317205Y-13011389D01*
X10317205Y-13011389D02*
X10298158Y-13020913D01*
X10298158Y-13020913D02*
X10288634Y-13030436D01*
X10288634Y-13030436D02*
X10269586Y-13059008D01*
X10269586Y-13059008D02*
X10260062Y-13097103D01*
X10260062Y-13097103D02*
X10260062Y-13173293D01*
X10260062Y-13173293D02*
X10269586Y-13192341D01*
X10269586Y-13192341D02*
X10279110Y-13201865D01*
X10279110Y-13201865D02*
X10298158Y-13211389D01*
X10298158Y-13211389D02*
X10336253Y-13211389D01*
X10336253Y-13211389D02*
X10355300Y-13201865D01*
X10355300Y-13201865D02*
X10364824Y-13192341D01*
X10364824Y-13192341D02*
X10374348Y-13173293D01*
X10374348Y-13173293D02*
X10374348Y-13125674D01*
X10374348Y-13125674D02*
X10364824Y-13106627D01*
X10364824Y-13106627D02*
X10355300Y-13097103D01*
X10355300Y-13097103D02*
X10336253Y-13087579D01*
X10336253Y-13087579D02*
X10298158Y-13087579D01*
X10298158Y-13087579D02*
X10279110Y-13097103D01*
X10279110Y-13097103D02*
X10269586Y-13106627D01*
X10269586Y-13106627D02*
X10260062Y-13125674D01*
X10498158Y-13011389D02*
X10517205Y-13011389D01*
X10517205Y-13011389D02*
X10536253Y-13020913D01*
X10536253Y-13020913D02*
X10545777Y-13030436D01*
X10545777Y-13030436D02*
X10555300Y-13049484D01*
X10555300Y-13049484D02*
X10564824Y-13087579D01*
X10564824Y-13087579D02*
X10564824Y-13135198D01*
X10564824Y-13135198D02*
X10555300Y-13173293D01*
X10555300Y-13173293D02*
X10545777Y-13192341D01*
X10545777Y-13192341D02*
X10536253Y-13201865D01*
X10536253Y-13201865D02*
X10517205Y-13211389D01*
X10517205Y-13211389D02*
X10498158Y-13211389D01*
X10498158Y-13211389D02*
X10479110Y-13201865D01*
X10479110Y-13201865D02*
X10469586Y-13192341D01*
X10469586Y-13192341D02*
X10460062Y-13173293D01*
X10460062Y-13173293D02*
X10450539Y-13135198D01*
X10450539Y-13135198D02*
X10450539Y-13087579D01*
X10450539Y-13087579D02*
X10460062Y-13049484D01*
X10460062Y-13049484D02*
X10469586Y-13030436D01*
X10469586Y-13030436D02*
X10479110Y-13020913D01*
X10479110Y-13020913D02*
X10498158Y-13011389D01*
X10688634Y-13011389D02*
X10707681Y-13011389D01*
X10707681Y-13011389D02*
X10726729Y-13020913D01*
X10726729Y-13020913D02*
X10736253Y-13030436D01*
X10736253Y-13030436D02*
X10745777Y-13049484D01*
X10745777Y-13049484D02*
X10755300Y-13087579D01*
X10755300Y-13087579D02*
X10755300Y-13135198D01*
X10755300Y-13135198D02*
X10745777Y-13173293D01*
X10745777Y-13173293D02*
X10736253Y-13192341D01*
X10736253Y-13192341D02*
X10726729Y-13201865D01*
X10726729Y-13201865D02*
X10707681Y-13211389D01*
X10707681Y-13211389D02*
X10688634Y-13211389D01*
X10688634Y-13211389D02*
X10669586Y-13201865D01*
X10669586Y-13201865D02*
X10660062Y-13192341D01*
X10660062Y-13192341D02*
X10650539Y-13173293D01*
X10650539Y-13173293D02*
X10641015Y-13135198D01*
X10641015Y-13135198D02*
X10641015Y-13087579D01*
X10641015Y-13087579D02*
X10650539Y-13049484D01*
X10650539Y-13049484D02*
X10660062Y-13030436D01*
X10660062Y-13030436D02*
X10669586Y-13020913D01*
X10669586Y-13020913D02*
X10688634Y-13011389D01*
X10841015Y-13211389D02*
X10841015Y-13078055D01*
X10841015Y-13097103D02*
X10850539Y-13087579D01*
X10850539Y-13087579D02*
X10869586Y-13078055D01*
X10869586Y-13078055D02*
X10898158Y-13078055D01*
X10898158Y-13078055D02*
X10917205Y-13087579D01*
X10917205Y-13087579D02*
X10926729Y-13106627D01*
X10926729Y-13106627D02*
X10926729Y-13211389D01*
X10926729Y-13106627D02*
X10936253Y-13087579D01*
X10936253Y-13087579D02*
X10955300Y-13078055D01*
X10955300Y-13078055D02*
X10983872Y-13078055D01*
X10983872Y-13078055D02*
X11002920Y-13087579D01*
X11002920Y-13087579D02*
X11012443Y-13106627D01*
X11012443Y-13106627D02*
X11012443Y-13211389D01*
X11107681Y-13211389D02*
X11107681Y-13078055D01*
X11107681Y-13097103D02*
X11117205Y-13087579D01*
X11117205Y-13087579D02*
X11136253Y-13078055D01*
X11136253Y-13078055D02*
X11164824Y-13078055D01*
X11164824Y-13078055D02*
X11183872Y-13087579D01*
X11183872Y-13087579D02*
X11193396Y-13106627D01*
X11193396Y-13106627D02*
X11193396Y-13211389D01*
X11193396Y-13106627D02*
X11202919Y-13087579D01*
X11202919Y-13087579D02*
X11221967Y-13078055D01*
X11221967Y-13078055D02*
X11250538Y-13078055D01*
X11250538Y-13078055D02*
X11269586Y-13087579D01*
X11269586Y-13087579D02*
X11279110Y-13106627D01*
X11279110Y-13106627D02*
X11279110Y-13211389D01*
X11669586Y-13001865D02*
X11498158Y-13259008D01*
X11926729Y-13011389D02*
X11945777Y-13011389D01*
X11945777Y-13011389D02*
X11964824Y-13020913D01*
X11964824Y-13020913D02*
X11974348Y-13030436D01*
X11974348Y-13030436D02*
X11983872Y-13049484D01*
X11983872Y-13049484D02*
X11993396Y-13087579D01*
X11993396Y-13087579D02*
X11993396Y-13135198D01*
X11993396Y-13135198D02*
X11983872Y-13173293D01*
X11983872Y-13173293D02*
X11974348Y-13192341D01*
X11974348Y-13192341D02*
X11964824Y-13201865D01*
X11964824Y-13201865D02*
X11945777Y-13211389D01*
X11945777Y-13211389D02*
X11926729Y-13211389D01*
X11926729Y-13211389D02*
X11907681Y-13201865D01*
X11907681Y-13201865D02*
X11898158Y-13192341D01*
X11898158Y-13192341D02*
X11888634Y-13173293D01*
X11888634Y-13173293D02*
X11879110Y-13135198D01*
X11879110Y-13135198D02*
X11879110Y-13087579D01*
X11879110Y-13087579D02*
X11888634Y-13049484D01*
X11888634Y-13049484D02*
X11898158Y-13030436D01*
X11898158Y-13030436D02*
X11907681Y-13020913D01*
X11907681Y-13020913D02*
X11926729Y-13011389D01*
X12079110Y-13192341D02*
X12088634Y-13201865D01*
X12088634Y-13201865D02*
X12079110Y-13211389D01*
X12079110Y-13211389D02*
X12069586Y-13201865D01*
X12069586Y-13201865D02*
X12079110Y-13192341D01*
X12079110Y-13192341D02*
X12079110Y-13211389D01*
X12212443Y-13011389D02*
X12231491Y-13011389D01*
X12231491Y-13011389D02*
X12250539Y-13020913D01*
X12250539Y-13020913D02*
X12260062Y-13030436D01*
X12260062Y-13030436D02*
X12269586Y-13049484D01*
X12269586Y-13049484D02*
X12279110Y-13087579D01*
X12279110Y-13087579D02*
X12279110Y-13135198D01*
X12279110Y-13135198D02*
X12269586Y-13173293D01*
X12269586Y-13173293D02*
X12260062Y-13192341D01*
X12260062Y-13192341D02*
X12250539Y-13201865D01*
X12250539Y-13201865D02*
X12231491Y-13211389D01*
X12231491Y-13211389D02*
X12212443Y-13211389D01*
X12212443Y-13211389D02*
X12193396Y-13201865D01*
X12193396Y-13201865D02*
X12183872Y-13192341D01*
X12183872Y-13192341D02*
X12174348Y-13173293D01*
X12174348Y-13173293D02*
X12164824Y-13135198D01*
X12164824Y-13135198D02*
X12164824Y-13087579D01*
X12164824Y-13087579D02*
X12174348Y-13049484D01*
X12174348Y-13049484D02*
X12183872Y-13030436D01*
X12183872Y-13030436D02*
X12193396Y-13020913D01*
X12193396Y-13020913D02*
X12212443Y-13011389D01*
X12355301Y-13030436D02*
X12364824Y-13020913D01*
X12364824Y-13020913D02*
X12383872Y-13011389D01*
X12383872Y-13011389D02*
X12431491Y-13011389D01*
X12431491Y-13011389D02*
X12450539Y-13020913D01*
X12450539Y-13020913D02*
X12460062Y-13030436D01*
X12460062Y-13030436D02*
X12469586Y-13049484D01*
X12469586Y-13049484D02*
X12469586Y-13068532D01*
X12469586Y-13068532D02*
X12460062Y-13097103D01*
X12460062Y-13097103D02*
X12345777Y-13211389D01*
X12345777Y-13211389D02*
X12469586Y-13211389D01*
X12536253Y-13011389D02*
X12660062Y-13011389D01*
X12660062Y-13011389D02*
X12593396Y-13087579D01*
X12593396Y-13087579D02*
X12621967Y-13087579D01*
X12621967Y-13087579D02*
X12641015Y-13097103D01*
X12641015Y-13097103D02*
X12650539Y-13106627D01*
X12650539Y-13106627D02*
X12660062Y-13125674D01*
X12660062Y-13125674D02*
X12660062Y-13173293D01*
X12660062Y-13173293D02*
X12650539Y-13192341D01*
X12650539Y-13192341D02*
X12641015Y-13201865D01*
X12641015Y-13201865D02*
X12621967Y-13211389D01*
X12621967Y-13211389D02*
X12564824Y-13211389D01*
X12564824Y-13211389D02*
X12545777Y-13201865D01*
X12545777Y-13201865D02*
X12536253Y-13192341D01*
X12831491Y-13011389D02*
X12793396Y-13011389D01*
X12793396Y-13011389D02*
X12774348Y-13020913D01*
X12774348Y-13020913D02*
X12764824Y-13030436D01*
X12764824Y-13030436D02*
X12745777Y-13059008D01*
X12745777Y-13059008D02*
X12736253Y-13097103D01*
X12736253Y-13097103D02*
X12736253Y-13173293D01*
X12736253Y-13173293D02*
X12745777Y-13192341D01*
X12745777Y-13192341D02*
X12755301Y-13201865D01*
X12755301Y-13201865D02*
X12774348Y-13211389D01*
X12774348Y-13211389D02*
X12812443Y-13211389D01*
X12812443Y-13211389D02*
X12831491Y-13201865D01*
X12831491Y-13201865D02*
X12841015Y-13192341D01*
X12841015Y-13192341D02*
X12850539Y-13173293D01*
X12850539Y-13173293D02*
X12850539Y-13125674D01*
X12850539Y-13125674D02*
X12841015Y-13106627D01*
X12841015Y-13106627D02*
X12831491Y-13097103D01*
X12831491Y-13097103D02*
X12812443Y-13087579D01*
X12812443Y-13087579D02*
X12774348Y-13087579D01*
X12774348Y-13087579D02*
X12755301Y-13097103D01*
X12755301Y-13097103D02*
X12745777Y-13106627D01*
X12745777Y-13106627D02*
X12736253Y-13125674D01*
X12926729Y-13011389D02*
X12926729Y-13049484D01*
X13002920Y-13011389D02*
X13002920Y-13049484D01*
X13298158Y-13287579D02*
X13288634Y-13278055D01*
X13288634Y-13278055D02*
X13269586Y-13249484D01*
X13269586Y-13249484D02*
X13260063Y-13230436D01*
X13260063Y-13230436D02*
X13250539Y-13201865D01*
X13250539Y-13201865D02*
X13241015Y-13154246D01*
X13241015Y-13154246D02*
X13241015Y-13116151D01*
X13241015Y-13116151D02*
X13250539Y-13068532D01*
X13250539Y-13068532D02*
X13260063Y-13039960D01*
X13260063Y-13039960D02*
X13269586Y-13020913D01*
X13269586Y-13020913D02*
X13288634Y-12992341D01*
X13288634Y-12992341D02*
X13298158Y-12982817D01*
X13412443Y-13011389D02*
X13431491Y-13011389D01*
X13431491Y-13011389D02*
X13450539Y-13020913D01*
X13450539Y-13020913D02*
X13460063Y-13030436D01*
X13460063Y-13030436D02*
X13469586Y-13049484D01*
X13469586Y-13049484D02*
X13479110Y-13087579D01*
X13479110Y-13087579D02*
X13479110Y-13135198D01*
X13479110Y-13135198D02*
X13469586Y-13173293D01*
X13469586Y-13173293D02*
X13460063Y-13192341D01*
X13460063Y-13192341D02*
X13450539Y-13201865D01*
X13450539Y-13201865D02*
X13431491Y-13211389D01*
X13431491Y-13211389D02*
X13412443Y-13211389D01*
X13412443Y-13211389D02*
X13393396Y-13201865D01*
X13393396Y-13201865D02*
X13383872Y-13192341D01*
X13383872Y-13192341D02*
X13374348Y-13173293D01*
X13374348Y-13173293D02*
X13364824Y-13135198D01*
X13364824Y-13135198D02*
X13364824Y-13087579D01*
X13364824Y-13087579D02*
X13374348Y-13049484D01*
X13374348Y-13049484D02*
X13383872Y-13030436D01*
X13383872Y-13030436D02*
X13393396Y-13020913D01*
X13393396Y-13020913D02*
X13412443Y-13011389D01*
X13717205Y-13211389D02*
X13717205Y-13011389D01*
X13802920Y-13211389D02*
X13802920Y-13106627D01*
X13802920Y-13106627D02*
X13793396Y-13087579D01*
X13793396Y-13087579D02*
X13774348Y-13078055D01*
X13774348Y-13078055D02*
X13745777Y-13078055D01*
X13745777Y-13078055D02*
X13726729Y-13087579D01*
X13726729Y-13087579D02*
X13717205Y-13097103D01*
X13926729Y-13211389D02*
X13907682Y-13201865D01*
X13907682Y-13201865D02*
X13898158Y-13192341D01*
X13898158Y-13192341D02*
X13888634Y-13173293D01*
X13888634Y-13173293D02*
X13888634Y-13116151D01*
X13888634Y-13116151D02*
X13898158Y-13097103D01*
X13898158Y-13097103D02*
X13907682Y-13087579D01*
X13907682Y-13087579D02*
X13926729Y-13078055D01*
X13926729Y-13078055D02*
X13955301Y-13078055D01*
X13955301Y-13078055D02*
X13974348Y-13087579D01*
X13974348Y-13087579D02*
X13983872Y-13097103D01*
X13983872Y-13097103D02*
X13993396Y-13116151D01*
X13993396Y-13116151D02*
X13993396Y-13173293D01*
X13993396Y-13173293D02*
X13983872Y-13192341D01*
X13983872Y-13192341D02*
X13974348Y-13201865D01*
X13974348Y-13201865D02*
X13955301Y-13211389D01*
X13955301Y-13211389D02*
X13926729Y-13211389D01*
X14107682Y-13211389D02*
X14088634Y-13201865D01*
X14088634Y-13201865D02*
X14079110Y-13182817D01*
X14079110Y-13182817D02*
X14079110Y-13011389D01*
X14260063Y-13201865D02*
X14241015Y-13211389D01*
X14241015Y-13211389D02*
X14202920Y-13211389D01*
X14202920Y-13211389D02*
X14183872Y-13201865D01*
X14183872Y-13201865D02*
X14174348Y-13182817D01*
X14174348Y-13182817D02*
X14174348Y-13106627D01*
X14174348Y-13106627D02*
X14183872Y-13087579D01*
X14183872Y-13087579D02*
X14202920Y-13078055D01*
X14202920Y-13078055D02*
X14241015Y-13078055D01*
X14241015Y-13078055D02*
X14260063Y-13087579D01*
X14260063Y-13087579D02*
X14269586Y-13106627D01*
X14269586Y-13106627D02*
X14269586Y-13125674D01*
X14269586Y-13125674D02*
X14174348Y-13144722D01*
X14345777Y-13201865D02*
X14364825Y-13211389D01*
X14364825Y-13211389D02*
X14402920Y-13211389D01*
X14402920Y-13211389D02*
X14421967Y-13201865D01*
X14421967Y-13201865D02*
X14431491Y-13182817D01*
X14431491Y-13182817D02*
X14431491Y-13173293D01*
X14431491Y-13173293D02*
X14421967Y-13154246D01*
X14421967Y-13154246D02*
X14402920Y-13144722D01*
X14402920Y-13144722D02*
X14374348Y-13144722D01*
X14374348Y-13144722D02*
X14355301Y-13135198D01*
X14355301Y-13135198D02*
X14345777Y-13116151D01*
X14345777Y-13116151D02*
X14345777Y-13106627D01*
X14345777Y-13106627D02*
X14355301Y-13087579D01*
X14355301Y-13087579D02*
X14374348Y-13078055D01*
X14374348Y-13078055D02*
X14402920Y-13078055D01*
X14402920Y-13078055D02*
X14421967Y-13087579D01*
X14669587Y-13135198D02*
X14821968Y-13135198D01*
X14745777Y-13211389D02*
X14745777Y-13059008D01*
X15155301Y-13078055D02*
X15155301Y-13211389D01*
X15107682Y-13001865D02*
X15060063Y-13144722D01*
X15060063Y-13144722D02*
X15183872Y-13144722D01*
X15402920Y-13201865D02*
X15421968Y-13211389D01*
X15421968Y-13211389D02*
X15460063Y-13211389D01*
X15460063Y-13211389D02*
X15479110Y-13201865D01*
X15479110Y-13201865D02*
X15488634Y-13182817D01*
X15488634Y-13182817D02*
X15488634Y-13173293D01*
X15488634Y-13173293D02*
X15479110Y-13154246D01*
X15479110Y-13154246D02*
X15460063Y-13144722D01*
X15460063Y-13144722D02*
X15431491Y-13144722D01*
X15431491Y-13144722D02*
X15412444Y-13135198D01*
X15412444Y-13135198D02*
X15402920Y-13116151D01*
X15402920Y-13116151D02*
X15402920Y-13106627D01*
X15402920Y-13106627D02*
X15412444Y-13087579D01*
X15412444Y-13087579D02*
X15431491Y-13078055D01*
X15431491Y-13078055D02*
X15460063Y-13078055D01*
X15460063Y-13078055D02*
X15479110Y-13087579D01*
X15602920Y-13211389D02*
X15583872Y-13201865D01*
X15583872Y-13201865D02*
X15574349Y-13182817D01*
X15574349Y-13182817D02*
X15574349Y-13011389D01*
X15707682Y-13211389D02*
X15688634Y-13201865D01*
X15688634Y-13201865D02*
X15679110Y-13192341D01*
X15679110Y-13192341D02*
X15669587Y-13173293D01*
X15669587Y-13173293D02*
X15669587Y-13116151D01*
X15669587Y-13116151D02*
X15679110Y-13097103D01*
X15679110Y-13097103D02*
X15688634Y-13087579D01*
X15688634Y-13087579D02*
X15707682Y-13078055D01*
X15707682Y-13078055D02*
X15736253Y-13078055D01*
X15736253Y-13078055D02*
X15755301Y-13087579D01*
X15755301Y-13087579D02*
X15764825Y-13097103D01*
X15764825Y-13097103D02*
X15774349Y-13116151D01*
X15774349Y-13116151D02*
X15774349Y-13173293D01*
X15774349Y-13173293D02*
X15764825Y-13192341D01*
X15764825Y-13192341D02*
X15755301Y-13201865D01*
X15755301Y-13201865D02*
X15736253Y-13211389D01*
X15736253Y-13211389D02*
X15707682Y-13211389D01*
X15831491Y-13078055D02*
X15907682Y-13078055D01*
X15860063Y-13011389D02*
X15860063Y-13182817D01*
X15860063Y-13182817D02*
X15869587Y-13201865D01*
X15869587Y-13201865D02*
X15888634Y-13211389D01*
X15888634Y-13211389D02*
X15907682Y-13211389D01*
X15964825Y-13201865D02*
X15983872Y-13211389D01*
X15983872Y-13211389D02*
X16021968Y-13211389D01*
X16021968Y-13211389D02*
X16041015Y-13201865D01*
X16041015Y-13201865D02*
X16050539Y-13182817D01*
X16050539Y-13182817D02*
X16050539Y-13173293D01*
X16050539Y-13173293D02*
X16041015Y-13154246D01*
X16041015Y-13154246D02*
X16021968Y-13144722D01*
X16021968Y-13144722D02*
X15993396Y-13144722D01*
X15993396Y-13144722D02*
X15974349Y-13135198D01*
X15974349Y-13135198D02*
X15964825Y-13116151D01*
X15964825Y-13116151D02*
X15964825Y-13106627D01*
X15964825Y-13106627D02*
X15974349Y-13087579D01*
X15974349Y-13087579D02*
X15993396Y-13078055D01*
X15993396Y-13078055D02*
X16021968Y-13078055D01*
X16021968Y-13078055D02*
X16041015Y-13087579D01*
X16117206Y-13287579D02*
X16126730Y-13278055D01*
X16126730Y-13278055D02*
X16145777Y-13249484D01*
X16145777Y-13249484D02*
X16155301Y-13230436D01*
X16155301Y-13230436D02*
X16164825Y-13201865D01*
X16164825Y-13201865D02*
X16174349Y-13154246D01*
X16174349Y-13154246D02*
X16174349Y-13116151D01*
X16174349Y-13116151D02*
X16164825Y-13068532D01*
X16164825Y-13068532D02*
X16155301Y-13039960D01*
X16155301Y-13039960D02*
X16145777Y-13020913D01*
X16145777Y-13020913D02*
X16126730Y-12992341D01*
X16126730Y-12992341D02*
X16117206Y-12982817D01*
D12*
X9711380Y-13412189D02*
X9711380Y-13355620D01*
X9654811Y-13355620D01*
X9654811Y-13412189D01*
X9711380Y-13412189D01*
D11*
X10021967Y-13275389D02*
X10041015Y-13275389D01*
X10041015Y-13275389D02*
X10060062Y-13284913D01*
X10060062Y-13284913D02*
X10069586Y-13294436D01*
X10069586Y-13294436D02*
X10079110Y-13313484D01*
X10079110Y-13313484D02*
X10088634Y-13351579D01*
X10088634Y-13351579D02*
X10088634Y-13399198D01*
X10088634Y-13399198D02*
X10079110Y-13437293D01*
X10079110Y-13437293D02*
X10069586Y-13456341D01*
X10069586Y-13456341D02*
X10060062Y-13465865D01*
X10060062Y-13465865D02*
X10041015Y-13475389D01*
X10041015Y-13475389D02*
X10021967Y-13475389D01*
X10021967Y-13475389D02*
X10002919Y-13465865D01*
X10002919Y-13465865D02*
X9993396Y-13456341D01*
X9993396Y-13456341D02*
X9983872Y-13437293D01*
X9983872Y-13437293D02*
X9974348Y-13399198D01*
X9974348Y-13399198D02*
X9974348Y-13351579D01*
X9974348Y-13351579D02*
X9983872Y-13313484D01*
X9983872Y-13313484D02*
X9993396Y-13294436D01*
X9993396Y-13294436D02*
X10002919Y-13284913D01*
X10002919Y-13284913D02*
X10021967Y-13275389D01*
X10174348Y-13456341D02*
X10183872Y-13465865D01*
X10183872Y-13465865D02*
X10174348Y-13475389D01*
X10174348Y-13475389D02*
X10164824Y-13465865D01*
X10164824Y-13465865D02*
X10174348Y-13456341D01*
X10174348Y-13456341D02*
X10174348Y-13475389D01*
X10298158Y-13361103D02*
X10279110Y-13351579D01*
X10279110Y-13351579D02*
X10269586Y-13342055D01*
X10269586Y-13342055D02*
X10260062Y-13323008D01*
X10260062Y-13323008D02*
X10260062Y-13313484D01*
X10260062Y-13313484D02*
X10269586Y-13294436D01*
X10269586Y-13294436D02*
X10279110Y-13284913D01*
X10279110Y-13284913D02*
X10298158Y-13275389D01*
X10298158Y-13275389D02*
X10336253Y-13275389D01*
X10336253Y-13275389D02*
X10355300Y-13284913D01*
X10355300Y-13284913D02*
X10364824Y-13294436D01*
X10364824Y-13294436D02*
X10374348Y-13313484D01*
X10374348Y-13313484D02*
X10374348Y-13323008D01*
X10374348Y-13323008D02*
X10364824Y-13342055D01*
X10364824Y-13342055D02*
X10355300Y-13351579D01*
X10355300Y-13351579D02*
X10336253Y-13361103D01*
X10336253Y-13361103D02*
X10298158Y-13361103D01*
X10298158Y-13361103D02*
X10279110Y-13370627D01*
X10279110Y-13370627D02*
X10269586Y-13380151D01*
X10269586Y-13380151D02*
X10260062Y-13399198D01*
X10260062Y-13399198D02*
X10260062Y-13437293D01*
X10260062Y-13437293D02*
X10269586Y-13456341D01*
X10269586Y-13456341D02*
X10279110Y-13465865D01*
X10279110Y-13465865D02*
X10298158Y-13475389D01*
X10298158Y-13475389D02*
X10336253Y-13475389D01*
X10336253Y-13475389D02*
X10355300Y-13465865D01*
X10355300Y-13465865D02*
X10364824Y-13456341D01*
X10364824Y-13456341D02*
X10374348Y-13437293D01*
X10374348Y-13437293D02*
X10374348Y-13399198D01*
X10374348Y-13399198D02*
X10364824Y-13380151D01*
X10364824Y-13380151D02*
X10355300Y-13370627D01*
X10355300Y-13370627D02*
X10336253Y-13361103D01*
X10498158Y-13275389D02*
X10517205Y-13275389D01*
X10517205Y-13275389D02*
X10536253Y-13284913D01*
X10536253Y-13284913D02*
X10545777Y-13294436D01*
X10545777Y-13294436D02*
X10555300Y-13313484D01*
X10555300Y-13313484D02*
X10564824Y-13351579D01*
X10564824Y-13351579D02*
X10564824Y-13399198D01*
X10564824Y-13399198D02*
X10555300Y-13437293D01*
X10555300Y-13437293D02*
X10545777Y-13456341D01*
X10545777Y-13456341D02*
X10536253Y-13465865D01*
X10536253Y-13465865D02*
X10517205Y-13475389D01*
X10517205Y-13475389D02*
X10498158Y-13475389D01*
X10498158Y-13475389D02*
X10479110Y-13465865D01*
X10479110Y-13465865D02*
X10469586Y-13456341D01*
X10469586Y-13456341D02*
X10460062Y-13437293D01*
X10460062Y-13437293D02*
X10450539Y-13399198D01*
X10450539Y-13399198D02*
X10450539Y-13351579D01*
X10450539Y-13351579D02*
X10460062Y-13313484D01*
X10460062Y-13313484D02*
X10469586Y-13294436D01*
X10469586Y-13294436D02*
X10479110Y-13284913D01*
X10479110Y-13284913D02*
X10498158Y-13275389D01*
X10688634Y-13275389D02*
X10707681Y-13275389D01*
X10707681Y-13275389D02*
X10726729Y-13284913D01*
X10726729Y-13284913D02*
X10736253Y-13294436D01*
X10736253Y-13294436D02*
X10745777Y-13313484D01*
X10745777Y-13313484D02*
X10755300Y-13351579D01*
X10755300Y-13351579D02*
X10755300Y-13399198D01*
X10755300Y-13399198D02*
X10745777Y-13437293D01*
X10745777Y-13437293D02*
X10736253Y-13456341D01*
X10736253Y-13456341D02*
X10726729Y-13465865D01*
X10726729Y-13465865D02*
X10707681Y-13475389D01*
X10707681Y-13475389D02*
X10688634Y-13475389D01*
X10688634Y-13475389D02*
X10669586Y-13465865D01*
X10669586Y-13465865D02*
X10660062Y-13456341D01*
X10660062Y-13456341D02*
X10650539Y-13437293D01*
X10650539Y-13437293D02*
X10641015Y-13399198D01*
X10641015Y-13399198D02*
X10641015Y-13351579D01*
X10641015Y-13351579D02*
X10650539Y-13313484D01*
X10650539Y-13313484D02*
X10660062Y-13294436D01*
X10660062Y-13294436D02*
X10669586Y-13284913D01*
X10669586Y-13284913D02*
X10688634Y-13275389D01*
X10841015Y-13475389D02*
X10841015Y-13342055D01*
X10841015Y-13361103D02*
X10850539Y-13351579D01*
X10850539Y-13351579D02*
X10869586Y-13342055D01*
X10869586Y-13342055D02*
X10898158Y-13342055D01*
X10898158Y-13342055D02*
X10917205Y-13351579D01*
X10917205Y-13351579D02*
X10926729Y-13370627D01*
X10926729Y-13370627D02*
X10926729Y-13475389D01*
X10926729Y-13370627D02*
X10936253Y-13351579D01*
X10936253Y-13351579D02*
X10955300Y-13342055D01*
X10955300Y-13342055D02*
X10983872Y-13342055D01*
X10983872Y-13342055D02*
X11002920Y-13351579D01*
X11002920Y-13351579D02*
X11012443Y-13370627D01*
X11012443Y-13370627D02*
X11012443Y-13475389D01*
X11107681Y-13475389D02*
X11107681Y-13342055D01*
X11107681Y-13361103D02*
X11117205Y-13351579D01*
X11117205Y-13351579D02*
X11136253Y-13342055D01*
X11136253Y-13342055D02*
X11164824Y-13342055D01*
X11164824Y-13342055D02*
X11183872Y-13351579D01*
X11183872Y-13351579D02*
X11193396Y-13370627D01*
X11193396Y-13370627D02*
X11193396Y-13475389D01*
X11193396Y-13370627D02*
X11202919Y-13351579D01*
X11202919Y-13351579D02*
X11221967Y-13342055D01*
X11221967Y-13342055D02*
X11250538Y-13342055D01*
X11250538Y-13342055D02*
X11269586Y-13351579D01*
X11269586Y-13351579D02*
X11279110Y-13370627D01*
X11279110Y-13370627D02*
X11279110Y-13475389D01*
X11669586Y-13265865D02*
X11498158Y-13523008D01*
X11926729Y-13275389D02*
X11945777Y-13275389D01*
X11945777Y-13275389D02*
X11964824Y-13284913D01*
X11964824Y-13284913D02*
X11974348Y-13294436D01*
X11974348Y-13294436D02*
X11983872Y-13313484D01*
X11983872Y-13313484D02*
X11993396Y-13351579D01*
X11993396Y-13351579D02*
X11993396Y-13399198D01*
X11993396Y-13399198D02*
X11983872Y-13437293D01*
X11983872Y-13437293D02*
X11974348Y-13456341D01*
X11974348Y-13456341D02*
X11964824Y-13465865D01*
X11964824Y-13465865D02*
X11945777Y-13475389D01*
X11945777Y-13475389D02*
X11926729Y-13475389D01*
X11926729Y-13475389D02*
X11907681Y-13465865D01*
X11907681Y-13465865D02*
X11898158Y-13456341D01*
X11898158Y-13456341D02*
X11888634Y-13437293D01*
X11888634Y-13437293D02*
X11879110Y-13399198D01*
X11879110Y-13399198D02*
X11879110Y-13351579D01*
X11879110Y-13351579D02*
X11888634Y-13313484D01*
X11888634Y-13313484D02*
X11898158Y-13294436D01*
X11898158Y-13294436D02*
X11907681Y-13284913D01*
X11907681Y-13284913D02*
X11926729Y-13275389D01*
X12079110Y-13456341D02*
X12088634Y-13465865D01*
X12088634Y-13465865D02*
X12079110Y-13475389D01*
X12079110Y-13475389D02*
X12069586Y-13465865D01*
X12069586Y-13465865D02*
X12079110Y-13456341D01*
X12079110Y-13456341D02*
X12079110Y-13475389D01*
X12212443Y-13275389D02*
X12231491Y-13275389D01*
X12231491Y-13275389D02*
X12250539Y-13284913D01*
X12250539Y-13284913D02*
X12260062Y-13294436D01*
X12260062Y-13294436D02*
X12269586Y-13313484D01*
X12269586Y-13313484D02*
X12279110Y-13351579D01*
X12279110Y-13351579D02*
X12279110Y-13399198D01*
X12279110Y-13399198D02*
X12269586Y-13437293D01*
X12269586Y-13437293D02*
X12260062Y-13456341D01*
X12260062Y-13456341D02*
X12250539Y-13465865D01*
X12250539Y-13465865D02*
X12231491Y-13475389D01*
X12231491Y-13475389D02*
X12212443Y-13475389D01*
X12212443Y-13475389D02*
X12193396Y-13465865D01*
X12193396Y-13465865D02*
X12183872Y-13456341D01*
X12183872Y-13456341D02*
X12174348Y-13437293D01*
X12174348Y-13437293D02*
X12164824Y-13399198D01*
X12164824Y-13399198D02*
X12164824Y-13351579D01*
X12164824Y-13351579D02*
X12174348Y-13313484D01*
X12174348Y-13313484D02*
X12183872Y-13294436D01*
X12183872Y-13294436D02*
X12193396Y-13284913D01*
X12193396Y-13284913D02*
X12212443Y-13275389D01*
X12345777Y-13275389D02*
X12469586Y-13275389D01*
X12469586Y-13275389D02*
X12402920Y-13351579D01*
X12402920Y-13351579D02*
X12431491Y-13351579D01*
X12431491Y-13351579D02*
X12450539Y-13361103D01*
X12450539Y-13361103D02*
X12460062Y-13370627D01*
X12460062Y-13370627D02*
X12469586Y-13389674D01*
X12469586Y-13389674D02*
X12469586Y-13437293D01*
X12469586Y-13437293D02*
X12460062Y-13456341D01*
X12460062Y-13456341D02*
X12450539Y-13465865D01*
X12450539Y-13465865D02*
X12431491Y-13475389D01*
X12431491Y-13475389D02*
X12374348Y-13475389D01*
X12374348Y-13475389D02*
X12355301Y-13465865D01*
X12355301Y-13465865D02*
X12345777Y-13456341D01*
X12660062Y-13475389D02*
X12545777Y-13475389D01*
X12602920Y-13475389D02*
X12602920Y-13275389D01*
X12602920Y-13275389D02*
X12583872Y-13303960D01*
X12583872Y-13303960D02*
X12564824Y-13323008D01*
X12564824Y-13323008D02*
X12545777Y-13332532D01*
X12841015Y-13275389D02*
X12745777Y-13275389D01*
X12745777Y-13275389D02*
X12736253Y-13370627D01*
X12736253Y-13370627D02*
X12745777Y-13361103D01*
X12745777Y-13361103D02*
X12764824Y-13351579D01*
X12764824Y-13351579D02*
X12812443Y-13351579D01*
X12812443Y-13351579D02*
X12831491Y-13361103D01*
X12831491Y-13361103D02*
X12841015Y-13370627D01*
X12841015Y-13370627D02*
X12850539Y-13389674D01*
X12850539Y-13389674D02*
X12850539Y-13437293D01*
X12850539Y-13437293D02*
X12841015Y-13456341D01*
X12841015Y-13456341D02*
X12831491Y-13465865D01*
X12831491Y-13465865D02*
X12812443Y-13475389D01*
X12812443Y-13475389D02*
X12764824Y-13475389D01*
X12764824Y-13475389D02*
X12745777Y-13465865D01*
X12745777Y-13465865D02*
X12736253Y-13456341D01*
X12926729Y-13275389D02*
X12926729Y-13313484D01*
X13002920Y-13275389D02*
X13002920Y-13313484D01*
X13298158Y-13551579D02*
X13288634Y-13542055D01*
X13288634Y-13542055D02*
X13269586Y-13513484D01*
X13269586Y-13513484D02*
X13260063Y-13494436D01*
X13260063Y-13494436D02*
X13250539Y-13465865D01*
X13250539Y-13465865D02*
X13241015Y-13418246D01*
X13241015Y-13418246D02*
X13241015Y-13380151D01*
X13241015Y-13380151D02*
X13250539Y-13332532D01*
X13250539Y-13332532D02*
X13260063Y-13303960D01*
X13260063Y-13303960D02*
X13269586Y-13284913D01*
X13269586Y-13284913D02*
X13288634Y-13256341D01*
X13288634Y-13256341D02*
X13298158Y-13246817D01*
X13460063Y-13275389D02*
X13421967Y-13275389D01*
X13421967Y-13275389D02*
X13402920Y-13284913D01*
X13402920Y-13284913D02*
X13393396Y-13294436D01*
X13393396Y-13294436D02*
X13374348Y-13323008D01*
X13374348Y-13323008D02*
X13364824Y-13361103D01*
X13364824Y-13361103D02*
X13364824Y-13437293D01*
X13364824Y-13437293D02*
X13374348Y-13456341D01*
X13374348Y-13456341D02*
X13383872Y-13465865D01*
X13383872Y-13465865D02*
X13402920Y-13475389D01*
X13402920Y-13475389D02*
X13441015Y-13475389D01*
X13441015Y-13475389D02*
X13460063Y-13465865D01*
X13460063Y-13465865D02*
X13469586Y-13456341D01*
X13469586Y-13456341D02*
X13479110Y-13437293D01*
X13479110Y-13437293D02*
X13479110Y-13389674D01*
X13479110Y-13389674D02*
X13469586Y-13370627D01*
X13469586Y-13370627D02*
X13460063Y-13361103D01*
X13460063Y-13361103D02*
X13441015Y-13351579D01*
X13441015Y-13351579D02*
X13402920Y-13351579D01*
X13402920Y-13351579D02*
X13383872Y-13361103D01*
X13383872Y-13361103D02*
X13374348Y-13370627D01*
X13374348Y-13370627D02*
X13364824Y-13389674D01*
X13717205Y-13475389D02*
X13717205Y-13275389D01*
X13802920Y-13475389D02*
X13802920Y-13370627D01*
X13802920Y-13370627D02*
X13793396Y-13351579D01*
X13793396Y-13351579D02*
X13774348Y-13342055D01*
X13774348Y-13342055D02*
X13745777Y-13342055D01*
X13745777Y-13342055D02*
X13726729Y-13351579D01*
X13726729Y-13351579D02*
X13717205Y-13361103D01*
X13926729Y-13475389D02*
X13907682Y-13465865D01*
X13907682Y-13465865D02*
X13898158Y-13456341D01*
X13898158Y-13456341D02*
X13888634Y-13437293D01*
X13888634Y-13437293D02*
X13888634Y-13380151D01*
X13888634Y-13380151D02*
X13898158Y-13361103D01*
X13898158Y-13361103D02*
X13907682Y-13351579D01*
X13907682Y-13351579D02*
X13926729Y-13342055D01*
X13926729Y-13342055D02*
X13955301Y-13342055D01*
X13955301Y-13342055D02*
X13974348Y-13351579D01*
X13974348Y-13351579D02*
X13983872Y-13361103D01*
X13983872Y-13361103D02*
X13993396Y-13380151D01*
X13993396Y-13380151D02*
X13993396Y-13437293D01*
X13993396Y-13437293D02*
X13983872Y-13456341D01*
X13983872Y-13456341D02*
X13974348Y-13465865D01*
X13974348Y-13465865D02*
X13955301Y-13475389D01*
X13955301Y-13475389D02*
X13926729Y-13475389D01*
X14107682Y-13475389D02*
X14088634Y-13465865D01*
X14088634Y-13465865D02*
X14079110Y-13446817D01*
X14079110Y-13446817D02*
X14079110Y-13275389D01*
X14260063Y-13465865D02*
X14241015Y-13475389D01*
X14241015Y-13475389D02*
X14202920Y-13475389D01*
X14202920Y-13475389D02*
X14183872Y-13465865D01*
X14183872Y-13465865D02*
X14174348Y-13446817D01*
X14174348Y-13446817D02*
X14174348Y-13370627D01*
X14174348Y-13370627D02*
X14183872Y-13351579D01*
X14183872Y-13351579D02*
X14202920Y-13342055D01*
X14202920Y-13342055D02*
X14241015Y-13342055D01*
X14241015Y-13342055D02*
X14260063Y-13351579D01*
X14260063Y-13351579D02*
X14269586Y-13370627D01*
X14269586Y-13370627D02*
X14269586Y-13389674D01*
X14269586Y-13389674D02*
X14174348Y-13408722D01*
X14345777Y-13465865D02*
X14364825Y-13475389D01*
X14364825Y-13475389D02*
X14402920Y-13475389D01*
X14402920Y-13475389D02*
X14421967Y-13465865D01*
X14421967Y-13465865D02*
X14431491Y-13446817D01*
X14431491Y-13446817D02*
X14431491Y-13437293D01*
X14431491Y-13437293D02*
X14421967Y-13418246D01*
X14421967Y-13418246D02*
X14402920Y-13408722D01*
X14402920Y-13408722D02*
X14374348Y-13408722D01*
X14374348Y-13408722D02*
X14355301Y-13399198D01*
X14355301Y-13399198D02*
X14345777Y-13380151D01*
X14345777Y-13380151D02*
X14345777Y-13370627D01*
X14345777Y-13370627D02*
X14355301Y-13351579D01*
X14355301Y-13351579D02*
X14374348Y-13342055D01*
X14374348Y-13342055D02*
X14402920Y-13342055D01*
X14402920Y-13342055D02*
X14421967Y-13351579D01*
X14498158Y-13551579D02*
X14507682Y-13542055D01*
X14507682Y-13542055D02*
X14526729Y-13513484D01*
X14526729Y-13513484D02*
X14536253Y-13494436D01*
X14536253Y-13494436D02*
X14545777Y-13465865D01*
X14545777Y-13465865D02*
X14555301Y-13418246D01*
X14555301Y-13418246D02*
X14555301Y-13380151D01*
X14555301Y-13380151D02*
X14545777Y-13332532D01*
X14545777Y-13332532D02*
X14536253Y-13303960D01*
X14536253Y-13303960D02*
X14526729Y-13284913D01*
X14526729Y-13284913D02*
X14507682Y-13256341D01*
X14507682Y-13256341D02*
X14498158Y-13246817D01*
D12*
X9678095Y-13692905D02*
X9723095Y-13647905D01*
X9678095Y-13602905D01*
X9633095Y-13647905D01*
X9678095Y-13692905D01*
D11*
X10021967Y-13539389D02*
X10041015Y-13539389D01*
X10041015Y-13539389D02*
X10060062Y-13548913D01*
X10060062Y-13548913D02*
X10069586Y-13558436D01*
X10069586Y-13558436D02*
X10079110Y-13577484D01*
X10079110Y-13577484D02*
X10088634Y-13615579D01*
X10088634Y-13615579D02*
X10088634Y-13663198D01*
X10088634Y-13663198D02*
X10079110Y-13701293D01*
X10079110Y-13701293D02*
X10069586Y-13720341D01*
X10069586Y-13720341D02*
X10060062Y-13729865D01*
X10060062Y-13729865D02*
X10041015Y-13739389D01*
X10041015Y-13739389D02*
X10021967Y-13739389D01*
X10021967Y-13739389D02*
X10002919Y-13729865D01*
X10002919Y-13729865D02*
X9993396Y-13720341D01*
X9993396Y-13720341D02*
X9983872Y-13701293D01*
X9983872Y-13701293D02*
X9974348Y-13663198D01*
X9974348Y-13663198D02*
X9974348Y-13615579D01*
X9974348Y-13615579D02*
X9983872Y-13577484D01*
X9983872Y-13577484D02*
X9993396Y-13558436D01*
X9993396Y-13558436D02*
X10002919Y-13548913D01*
X10002919Y-13548913D02*
X10021967Y-13539389D01*
X10174348Y-13720341D02*
X10183872Y-13729865D01*
X10183872Y-13729865D02*
X10174348Y-13739389D01*
X10174348Y-13739389D02*
X10164824Y-13729865D01*
X10164824Y-13729865D02*
X10174348Y-13720341D01*
X10174348Y-13720341D02*
X10174348Y-13739389D01*
X10279110Y-13739389D02*
X10317205Y-13739389D01*
X10317205Y-13739389D02*
X10336253Y-13729865D01*
X10336253Y-13729865D02*
X10345777Y-13720341D01*
X10345777Y-13720341D02*
X10364824Y-13691770D01*
X10364824Y-13691770D02*
X10374348Y-13653674D01*
X10374348Y-13653674D02*
X10374348Y-13577484D01*
X10374348Y-13577484D02*
X10364824Y-13558436D01*
X10364824Y-13558436D02*
X10355300Y-13548913D01*
X10355300Y-13548913D02*
X10336253Y-13539389D01*
X10336253Y-13539389D02*
X10298158Y-13539389D01*
X10298158Y-13539389D02*
X10279110Y-13548913D01*
X10279110Y-13548913D02*
X10269586Y-13558436D01*
X10269586Y-13558436D02*
X10260062Y-13577484D01*
X10260062Y-13577484D02*
X10260062Y-13625103D01*
X10260062Y-13625103D02*
X10269586Y-13644151D01*
X10269586Y-13644151D02*
X10279110Y-13653674D01*
X10279110Y-13653674D02*
X10298158Y-13663198D01*
X10298158Y-13663198D02*
X10336253Y-13663198D01*
X10336253Y-13663198D02*
X10355300Y-13653674D01*
X10355300Y-13653674D02*
X10364824Y-13644151D01*
X10364824Y-13644151D02*
X10374348Y-13625103D01*
X10498158Y-13539389D02*
X10517205Y-13539389D01*
X10517205Y-13539389D02*
X10536253Y-13548913D01*
X10536253Y-13548913D02*
X10545777Y-13558436D01*
X10545777Y-13558436D02*
X10555300Y-13577484D01*
X10555300Y-13577484D02*
X10564824Y-13615579D01*
X10564824Y-13615579D02*
X10564824Y-13663198D01*
X10564824Y-13663198D02*
X10555300Y-13701293D01*
X10555300Y-13701293D02*
X10545777Y-13720341D01*
X10545777Y-13720341D02*
X10536253Y-13729865D01*
X10536253Y-13729865D02*
X10517205Y-13739389D01*
X10517205Y-13739389D02*
X10498158Y-13739389D01*
X10498158Y-13739389D02*
X10479110Y-13729865D01*
X10479110Y-13729865D02*
X10469586Y-13720341D01*
X10469586Y-13720341D02*
X10460062Y-13701293D01*
X10460062Y-13701293D02*
X10450539Y-13663198D01*
X10450539Y-13663198D02*
X10450539Y-13615579D01*
X10450539Y-13615579D02*
X10460062Y-13577484D01*
X10460062Y-13577484D02*
X10469586Y-13558436D01*
X10469586Y-13558436D02*
X10479110Y-13548913D01*
X10479110Y-13548913D02*
X10498158Y-13539389D01*
X10688634Y-13539389D02*
X10707681Y-13539389D01*
X10707681Y-13539389D02*
X10726729Y-13548913D01*
X10726729Y-13548913D02*
X10736253Y-13558436D01*
X10736253Y-13558436D02*
X10745777Y-13577484D01*
X10745777Y-13577484D02*
X10755300Y-13615579D01*
X10755300Y-13615579D02*
X10755300Y-13663198D01*
X10755300Y-13663198D02*
X10745777Y-13701293D01*
X10745777Y-13701293D02*
X10736253Y-13720341D01*
X10736253Y-13720341D02*
X10726729Y-13729865D01*
X10726729Y-13729865D02*
X10707681Y-13739389D01*
X10707681Y-13739389D02*
X10688634Y-13739389D01*
X10688634Y-13739389D02*
X10669586Y-13729865D01*
X10669586Y-13729865D02*
X10660062Y-13720341D01*
X10660062Y-13720341D02*
X10650539Y-13701293D01*
X10650539Y-13701293D02*
X10641015Y-13663198D01*
X10641015Y-13663198D02*
X10641015Y-13615579D01*
X10641015Y-13615579D02*
X10650539Y-13577484D01*
X10650539Y-13577484D02*
X10660062Y-13558436D01*
X10660062Y-13558436D02*
X10669586Y-13548913D01*
X10669586Y-13548913D02*
X10688634Y-13539389D01*
X10841015Y-13739389D02*
X10841015Y-13606055D01*
X10841015Y-13625103D02*
X10850539Y-13615579D01*
X10850539Y-13615579D02*
X10869586Y-13606055D01*
X10869586Y-13606055D02*
X10898158Y-13606055D01*
X10898158Y-13606055D02*
X10917205Y-13615579D01*
X10917205Y-13615579D02*
X10926729Y-13634627D01*
X10926729Y-13634627D02*
X10926729Y-13739389D01*
X10926729Y-13634627D02*
X10936253Y-13615579D01*
X10936253Y-13615579D02*
X10955300Y-13606055D01*
X10955300Y-13606055D02*
X10983872Y-13606055D01*
X10983872Y-13606055D02*
X11002920Y-13615579D01*
X11002920Y-13615579D02*
X11012443Y-13634627D01*
X11012443Y-13634627D02*
X11012443Y-13739389D01*
X11107681Y-13739389D02*
X11107681Y-13606055D01*
X11107681Y-13625103D02*
X11117205Y-13615579D01*
X11117205Y-13615579D02*
X11136253Y-13606055D01*
X11136253Y-13606055D02*
X11164824Y-13606055D01*
X11164824Y-13606055D02*
X11183872Y-13615579D01*
X11183872Y-13615579D02*
X11193396Y-13634627D01*
X11193396Y-13634627D02*
X11193396Y-13739389D01*
X11193396Y-13634627D02*
X11202919Y-13615579D01*
X11202919Y-13615579D02*
X11221967Y-13606055D01*
X11221967Y-13606055D02*
X11250538Y-13606055D01*
X11250538Y-13606055D02*
X11269586Y-13615579D01*
X11269586Y-13615579D02*
X11279110Y-13634627D01*
X11279110Y-13634627D02*
X11279110Y-13739389D01*
X11669586Y-13529865D02*
X11498158Y-13787008D01*
X11926729Y-13539389D02*
X11945777Y-13539389D01*
X11945777Y-13539389D02*
X11964824Y-13548913D01*
X11964824Y-13548913D02*
X11974348Y-13558436D01*
X11974348Y-13558436D02*
X11983872Y-13577484D01*
X11983872Y-13577484D02*
X11993396Y-13615579D01*
X11993396Y-13615579D02*
X11993396Y-13663198D01*
X11993396Y-13663198D02*
X11983872Y-13701293D01*
X11983872Y-13701293D02*
X11974348Y-13720341D01*
X11974348Y-13720341D02*
X11964824Y-13729865D01*
X11964824Y-13729865D02*
X11945777Y-13739389D01*
X11945777Y-13739389D02*
X11926729Y-13739389D01*
X11926729Y-13739389D02*
X11907681Y-13729865D01*
X11907681Y-13729865D02*
X11898158Y-13720341D01*
X11898158Y-13720341D02*
X11888634Y-13701293D01*
X11888634Y-13701293D02*
X11879110Y-13663198D01*
X11879110Y-13663198D02*
X11879110Y-13615579D01*
X11879110Y-13615579D02*
X11888634Y-13577484D01*
X11888634Y-13577484D02*
X11898158Y-13558436D01*
X11898158Y-13558436D02*
X11907681Y-13548913D01*
X11907681Y-13548913D02*
X11926729Y-13539389D01*
X12079110Y-13720341D02*
X12088634Y-13729865D01*
X12088634Y-13729865D02*
X12079110Y-13739389D01*
X12079110Y-13739389D02*
X12069586Y-13729865D01*
X12069586Y-13729865D02*
X12079110Y-13720341D01*
X12079110Y-13720341D02*
X12079110Y-13739389D01*
X12212443Y-13539389D02*
X12231491Y-13539389D01*
X12231491Y-13539389D02*
X12250539Y-13548913D01*
X12250539Y-13548913D02*
X12260062Y-13558436D01*
X12260062Y-13558436D02*
X12269586Y-13577484D01*
X12269586Y-13577484D02*
X12279110Y-13615579D01*
X12279110Y-13615579D02*
X12279110Y-13663198D01*
X12279110Y-13663198D02*
X12269586Y-13701293D01*
X12269586Y-13701293D02*
X12260062Y-13720341D01*
X12260062Y-13720341D02*
X12250539Y-13729865D01*
X12250539Y-13729865D02*
X12231491Y-13739389D01*
X12231491Y-13739389D02*
X12212443Y-13739389D01*
X12212443Y-13739389D02*
X12193396Y-13729865D01*
X12193396Y-13729865D02*
X12183872Y-13720341D01*
X12183872Y-13720341D02*
X12174348Y-13701293D01*
X12174348Y-13701293D02*
X12164824Y-13663198D01*
X12164824Y-13663198D02*
X12164824Y-13615579D01*
X12164824Y-13615579D02*
X12174348Y-13577484D01*
X12174348Y-13577484D02*
X12183872Y-13558436D01*
X12183872Y-13558436D02*
X12193396Y-13548913D01*
X12193396Y-13548913D02*
X12212443Y-13539389D01*
X12345777Y-13539389D02*
X12469586Y-13539389D01*
X12469586Y-13539389D02*
X12402920Y-13615579D01*
X12402920Y-13615579D02*
X12431491Y-13615579D01*
X12431491Y-13615579D02*
X12450539Y-13625103D01*
X12450539Y-13625103D02*
X12460062Y-13634627D01*
X12460062Y-13634627D02*
X12469586Y-13653674D01*
X12469586Y-13653674D02*
X12469586Y-13701293D01*
X12469586Y-13701293D02*
X12460062Y-13720341D01*
X12460062Y-13720341D02*
X12450539Y-13729865D01*
X12450539Y-13729865D02*
X12431491Y-13739389D01*
X12431491Y-13739389D02*
X12374348Y-13739389D01*
X12374348Y-13739389D02*
X12355301Y-13729865D01*
X12355301Y-13729865D02*
X12345777Y-13720341D01*
X12650539Y-13539389D02*
X12555301Y-13539389D01*
X12555301Y-13539389D02*
X12545777Y-13634627D01*
X12545777Y-13634627D02*
X12555301Y-13625103D01*
X12555301Y-13625103D02*
X12574348Y-13615579D01*
X12574348Y-13615579D02*
X12621967Y-13615579D01*
X12621967Y-13615579D02*
X12641015Y-13625103D01*
X12641015Y-13625103D02*
X12650539Y-13634627D01*
X12650539Y-13634627D02*
X12660062Y-13653674D01*
X12660062Y-13653674D02*
X12660062Y-13701293D01*
X12660062Y-13701293D02*
X12650539Y-13720341D01*
X12650539Y-13720341D02*
X12641015Y-13729865D01*
X12641015Y-13729865D02*
X12621967Y-13739389D01*
X12621967Y-13739389D02*
X12574348Y-13739389D01*
X12574348Y-13739389D02*
X12555301Y-13729865D01*
X12555301Y-13729865D02*
X12545777Y-13720341D01*
X12831491Y-13606055D02*
X12831491Y-13739389D01*
X12783872Y-13529865D02*
X12736253Y-13672722D01*
X12736253Y-13672722D02*
X12860062Y-13672722D01*
X12926729Y-13539389D02*
X12926729Y-13577484D01*
X13002920Y-13539389D02*
X13002920Y-13577484D01*
X13298158Y-13815579D02*
X13288634Y-13806055D01*
X13288634Y-13806055D02*
X13269586Y-13777484D01*
X13269586Y-13777484D02*
X13260063Y-13758436D01*
X13260063Y-13758436D02*
X13250539Y-13729865D01*
X13250539Y-13729865D02*
X13241015Y-13682246D01*
X13241015Y-13682246D02*
X13241015Y-13644151D01*
X13241015Y-13644151D02*
X13250539Y-13596532D01*
X13250539Y-13596532D02*
X13260063Y-13567960D01*
X13260063Y-13567960D02*
X13269586Y-13548913D01*
X13269586Y-13548913D02*
X13288634Y-13520341D01*
X13288634Y-13520341D02*
X13298158Y-13510817D01*
X13364824Y-13558436D02*
X13374348Y-13548913D01*
X13374348Y-13548913D02*
X13393396Y-13539389D01*
X13393396Y-13539389D02*
X13441015Y-13539389D01*
X13441015Y-13539389D02*
X13460063Y-13548913D01*
X13460063Y-13548913D02*
X13469586Y-13558436D01*
X13469586Y-13558436D02*
X13479110Y-13577484D01*
X13479110Y-13577484D02*
X13479110Y-13596532D01*
X13479110Y-13596532D02*
X13469586Y-13625103D01*
X13469586Y-13625103D02*
X13355301Y-13739389D01*
X13355301Y-13739389D02*
X13479110Y-13739389D01*
X13717205Y-13739389D02*
X13717205Y-13539389D01*
X13802920Y-13739389D02*
X13802920Y-13634627D01*
X13802920Y-13634627D02*
X13793396Y-13615579D01*
X13793396Y-13615579D02*
X13774348Y-13606055D01*
X13774348Y-13606055D02*
X13745777Y-13606055D01*
X13745777Y-13606055D02*
X13726729Y-13615579D01*
X13726729Y-13615579D02*
X13717205Y-13625103D01*
X13926729Y-13739389D02*
X13907682Y-13729865D01*
X13907682Y-13729865D02*
X13898158Y-13720341D01*
X13898158Y-13720341D02*
X13888634Y-13701293D01*
X13888634Y-13701293D02*
X13888634Y-13644151D01*
X13888634Y-13644151D02*
X13898158Y-13625103D01*
X13898158Y-13625103D02*
X13907682Y-13615579D01*
X13907682Y-13615579D02*
X13926729Y-13606055D01*
X13926729Y-13606055D02*
X13955301Y-13606055D01*
X13955301Y-13606055D02*
X13974348Y-13615579D01*
X13974348Y-13615579D02*
X13983872Y-13625103D01*
X13983872Y-13625103D02*
X13993396Y-13644151D01*
X13993396Y-13644151D02*
X13993396Y-13701293D01*
X13993396Y-13701293D02*
X13983872Y-13720341D01*
X13983872Y-13720341D02*
X13974348Y-13729865D01*
X13974348Y-13729865D02*
X13955301Y-13739389D01*
X13955301Y-13739389D02*
X13926729Y-13739389D01*
X14107682Y-13739389D02*
X14088634Y-13729865D01*
X14088634Y-13729865D02*
X14079110Y-13710817D01*
X14079110Y-13710817D02*
X14079110Y-13539389D01*
X14260063Y-13729865D02*
X14241015Y-13739389D01*
X14241015Y-13739389D02*
X14202920Y-13739389D01*
X14202920Y-13739389D02*
X14183872Y-13729865D01*
X14183872Y-13729865D02*
X14174348Y-13710817D01*
X14174348Y-13710817D02*
X14174348Y-13634627D01*
X14174348Y-13634627D02*
X14183872Y-13615579D01*
X14183872Y-13615579D02*
X14202920Y-13606055D01*
X14202920Y-13606055D02*
X14241015Y-13606055D01*
X14241015Y-13606055D02*
X14260063Y-13615579D01*
X14260063Y-13615579D02*
X14269586Y-13634627D01*
X14269586Y-13634627D02*
X14269586Y-13653674D01*
X14269586Y-13653674D02*
X14174348Y-13672722D01*
X14345777Y-13729865D02*
X14364825Y-13739389D01*
X14364825Y-13739389D02*
X14402920Y-13739389D01*
X14402920Y-13739389D02*
X14421967Y-13729865D01*
X14421967Y-13729865D02*
X14431491Y-13710817D01*
X14431491Y-13710817D02*
X14431491Y-13701293D01*
X14431491Y-13701293D02*
X14421967Y-13682246D01*
X14421967Y-13682246D02*
X14402920Y-13672722D01*
X14402920Y-13672722D02*
X14374348Y-13672722D01*
X14374348Y-13672722D02*
X14355301Y-13663198D01*
X14355301Y-13663198D02*
X14345777Y-13644151D01*
X14345777Y-13644151D02*
X14345777Y-13634627D01*
X14345777Y-13634627D02*
X14355301Y-13615579D01*
X14355301Y-13615579D02*
X14374348Y-13606055D01*
X14374348Y-13606055D02*
X14402920Y-13606055D01*
X14402920Y-13606055D02*
X14421967Y-13615579D01*
X14498158Y-13815579D02*
X14507682Y-13806055D01*
X14507682Y-13806055D02*
X14526729Y-13777484D01*
X14526729Y-13777484D02*
X14536253Y-13758436D01*
X14536253Y-13758436D02*
X14545777Y-13729865D01*
X14545777Y-13729865D02*
X14555301Y-13682246D01*
X14555301Y-13682246D02*
X14555301Y-13644151D01*
X14555301Y-13644151D02*
X14545777Y-13596532D01*
X14545777Y-13596532D02*
X14536253Y-13567960D01*
X14536253Y-13567960D02*
X14526729Y-13548913D01*
X14526729Y-13548913D02*
X14507682Y-13520341D01*
X14507682Y-13520341D02*
X14498158Y-13510817D01*
D12*
X9623095Y-13861905D02*
X9723095Y-13961905D01*
X9723095Y-13861905D02*
X9623095Y-13961905D01*
X9723095Y-13911905D02*
G75*
G02*
X9623095Y-13911905I-50000J0D01*
G01*
X9623095Y-13911905D02*
G75*
G02*
X9723095Y-13911905I50000J0D01*
G01*
D11*
X10088634Y-14003389D02*
X9974348Y-14003389D01*
X10031491Y-14003389D02*
X10031491Y-13803389D01*
X10031491Y-13803389D02*
X10012443Y-13831960D01*
X10012443Y-13831960D02*
X9993396Y-13851008D01*
X9993396Y-13851008D02*
X9974348Y-13860532D01*
X10174348Y-13984341D02*
X10183872Y-13993865D01*
X10183872Y-13993865D02*
X10174348Y-14003389D01*
X10174348Y-14003389D02*
X10164824Y-13993865D01*
X10164824Y-13993865D02*
X10174348Y-13984341D01*
X10174348Y-13984341D02*
X10174348Y-14003389D01*
X10307681Y-13803389D02*
X10326729Y-13803389D01*
X10326729Y-13803389D02*
X10345777Y-13812913D01*
X10345777Y-13812913D02*
X10355300Y-13822436D01*
X10355300Y-13822436D02*
X10364824Y-13841484D01*
X10364824Y-13841484D02*
X10374348Y-13879579D01*
X10374348Y-13879579D02*
X10374348Y-13927198D01*
X10374348Y-13927198D02*
X10364824Y-13965293D01*
X10364824Y-13965293D02*
X10355300Y-13984341D01*
X10355300Y-13984341D02*
X10345777Y-13993865D01*
X10345777Y-13993865D02*
X10326729Y-14003389D01*
X10326729Y-14003389D02*
X10307681Y-14003389D01*
X10307681Y-14003389D02*
X10288634Y-13993865D01*
X10288634Y-13993865D02*
X10279110Y-13984341D01*
X10279110Y-13984341D02*
X10269586Y-13965293D01*
X10269586Y-13965293D02*
X10260062Y-13927198D01*
X10260062Y-13927198D02*
X10260062Y-13879579D01*
X10260062Y-13879579D02*
X10269586Y-13841484D01*
X10269586Y-13841484D02*
X10279110Y-13822436D01*
X10279110Y-13822436D02*
X10288634Y-13812913D01*
X10288634Y-13812913D02*
X10307681Y-13803389D01*
X10498158Y-13803389D02*
X10517205Y-13803389D01*
X10517205Y-13803389D02*
X10536253Y-13812913D01*
X10536253Y-13812913D02*
X10545777Y-13822436D01*
X10545777Y-13822436D02*
X10555300Y-13841484D01*
X10555300Y-13841484D02*
X10564824Y-13879579D01*
X10564824Y-13879579D02*
X10564824Y-13927198D01*
X10564824Y-13927198D02*
X10555300Y-13965293D01*
X10555300Y-13965293D02*
X10545777Y-13984341D01*
X10545777Y-13984341D02*
X10536253Y-13993865D01*
X10536253Y-13993865D02*
X10517205Y-14003389D01*
X10517205Y-14003389D02*
X10498158Y-14003389D01*
X10498158Y-14003389D02*
X10479110Y-13993865D01*
X10479110Y-13993865D02*
X10469586Y-13984341D01*
X10469586Y-13984341D02*
X10460062Y-13965293D01*
X10460062Y-13965293D02*
X10450539Y-13927198D01*
X10450539Y-13927198D02*
X10450539Y-13879579D01*
X10450539Y-13879579D02*
X10460062Y-13841484D01*
X10460062Y-13841484D02*
X10469586Y-13822436D01*
X10469586Y-13822436D02*
X10479110Y-13812913D01*
X10479110Y-13812913D02*
X10498158Y-13803389D01*
X10688634Y-13803389D02*
X10707681Y-13803389D01*
X10707681Y-13803389D02*
X10726729Y-13812913D01*
X10726729Y-13812913D02*
X10736253Y-13822436D01*
X10736253Y-13822436D02*
X10745777Y-13841484D01*
X10745777Y-13841484D02*
X10755300Y-13879579D01*
X10755300Y-13879579D02*
X10755300Y-13927198D01*
X10755300Y-13927198D02*
X10745777Y-13965293D01*
X10745777Y-13965293D02*
X10736253Y-13984341D01*
X10736253Y-13984341D02*
X10726729Y-13993865D01*
X10726729Y-13993865D02*
X10707681Y-14003389D01*
X10707681Y-14003389D02*
X10688634Y-14003389D01*
X10688634Y-14003389D02*
X10669586Y-13993865D01*
X10669586Y-13993865D02*
X10660062Y-13984341D01*
X10660062Y-13984341D02*
X10650539Y-13965293D01*
X10650539Y-13965293D02*
X10641015Y-13927198D01*
X10641015Y-13927198D02*
X10641015Y-13879579D01*
X10641015Y-13879579D02*
X10650539Y-13841484D01*
X10650539Y-13841484D02*
X10660062Y-13822436D01*
X10660062Y-13822436D02*
X10669586Y-13812913D01*
X10669586Y-13812913D02*
X10688634Y-13803389D01*
X10841015Y-14003389D02*
X10841015Y-13870055D01*
X10841015Y-13889103D02*
X10850539Y-13879579D01*
X10850539Y-13879579D02*
X10869586Y-13870055D01*
X10869586Y-13870055D02*
X10898158Y-13870055D01*
X10898158Y-13870055D02*
X10917205Y-13879579D01*
X10917205Y-13879579D02*
X10926729Y-13898627D01*
X10926729Y-13898627D02*
X10926729Y-14003389D01*
X10926729Y-13898627D02*
X10936253Y-13879579D01*
X10936253Y-13879579D02*
X10955300Y-13870055D01*
X10955300Y-13870055D02*
X10983872Y-13870055D01*
X10983872Y-13870055D02*
X11002920Y-13879579D01*
X11002920Y-13879579D02*
X11012443Y-13898627D01*
X11012443Y-13898627D02*
X11012443Y-14003389D01*
X11107681Y-14003389D02*
X11107681Y-13870055D01*
X11107681Y-13889103D02*
X11117205Y-13879579D01*
X11117205Y-13879579D02*
X11136253Y-13870055D01*
X11136253Y-13870055D02*
X11164824Y-13870055D01*
X11164824Y-13870055D02*
X11183872Y-13879579D01*
X11183872Y-13879579D02*
X11193396Y-13898627D01*
X11193396Y-13898627D02*
X11193396Y-14003389D01*
X11193396Y-13898627D02*
X11202919Y-13879579D01*
X11202919Y-13879579D02*
X11221967Y-13870055D01*
X11221967Y-13870055D02*
X11250538Y-13870055D01*
X11250538Y-13870055D02*
X11269586Y-13879579D01*
X11269586Y-13879579D02*
X11279110Y-13898627D01*
X11279110Y-13898627D02*
X11279110Y-14003389D01*
X11669586Y-13793865D02*
X11498158Y-14051008D01*
X11926729Y-13803389D02*
X11945777Y-13803389D01*
X11945777Y-13803389D02*
X11964824Y-13812913D01*
X11964824Y-13812913D02*
X11974348Y-13822436D01*
X11974348Y-13822436D02*
X11983872Y-13841484D01*
X11983872Y-13841484D02*
X11993396Y-13879579D01*
X11993396Y-13879579D02*
X11993396Y-13927198D01*
X11993396Y-13927198D02*
X11983872Y-13965293D01*
X11983872Y-13965293D02*
X11974348Y-13984341D01*
X11974348Y-13984341D02*
X11964824Y-13993865D01*
X11964824Y-13993865D02*
X11945777Y-14003389D01*
X11945777Y-14003389D02*
X11926729Y-14003389D01*
X11926729Y-14003389D02*
X11907681Y-13993865D01*
X11907681Y-13993865D02*
X11898158Y-13984341D01*
X11898158Y-13984341D02*
X11888634Y-13965293D01*
X11888634Y-13965293D02*
X11879110Y-13927198D01*
X11879110Y-13927198D02*
X11879110Y-13879579D01*
X11879110Y-13879579D02*
X11888634Y-13841484D01*
X11888634Y-13841484D02*
X11898158Y-13822436D01*
X11898158Y-13822436D02*
X11907681Y-13812913D01*
X11907681Y-13812913D02*
X11926729Y-13803389D01*
X12079110Y-13984341D02*
X12088634Y-13993865D01*
X12088634Y-13993865D02*
X12079110Y-14003389D01*
X12079110Y-14003389D02*
X12069586Y-13993865D01*
X12069586Y-13993865D02*
X12079110Y-13984341D01*
X12079110Y-13984341D02*
X12079110Y-14003389D01*
X12212443Y-13803389D02*
X12231491Y-13803389D01*
X12231491Y-13803389D02*
X12250539Y-13812913D01*
X12250539Y-13812913D02*
X12260062Y-13822436D01*
X12260062Y-13822436D02*
X12269586Y-13841484D01*
X12269586Y-13841484D02*
X12279110Y-13879579D01*
X12279110Y-13879579D02*
X12279110Y-13927198D01*
X12279110Y-13927198D02*
X12269586Y-13965293D01*
X12269586Y-13965293D02*
X12260062Y-13984341D01*
X12260062Y-13984341D02*
X12250539Y-13993865D01*
X12250539Y-13993865D02*
X12231491Y-14003389D01*
X12231491Y-14003389D02*
X12212443Y-14003389D01*
X12212443Y-14003389D02*
X12193396Y-13993865D01*
X12193396Y-13993865D02*
X12183872Y-13984341D01*
X12183872Y-13984341D02*
X12174348Y-13965293D01*
X12174348Y-13965293D02*
X12164824Y-13927198D01*
X12164824Y-13927198D02*
X12164824Y-13879579D01*
X12164824Y-13879579D02*
X12174348Y-13841484D01*
X12174348Y-13841484D02*
X12183872Y-13822436D01*
X12183872Y-13822436D02*
X12193396Y-13812913D01*
X12193396Y-13812913D02*
X12212443Y-13803389D01*
X12345777Y-13803389D02*
X12469586Y-13803389D01*
X12469586Y-13803389D02*
X12402920Y-13879579D01*
X12402920Y-13879579D02*
X12431491Y-13879579D01*
X12431491Y-13879579D02*
X12450539Y-13889103D01*
X12450539Y-13889103D02*
X12460062Y-13898627D01*
X12460062Y-13898627D02*
X12469586Y-13917674D01*
X12469586Y-13917674D02*
X12469586Y-13965293D01*
X12469586Y-13965293D02*
X12460062Y-13984341D01*
X12460062Y-13984341D02*
X12450539Y-13993865D01*
X12450539Y-13993865D02*
X12431491Y-14003389D01*
X12431491Y-14003389D02*
X12374348Y-14003389D01*
X12374348Y-14003389D02*
X12355301Y-13993865D01*
X12355301Y-13993865D02*
X12345777Y-13984341D01*
X12564824Y-14003389D02*
X12602920Y-14003389D01*
X12602920Y-14003389D02*
X12621967Y-13993865D01*
X12621967Y-13993865D02*
X12631491Y-13984341D01*
X12631491Y-13984341D02*
X12650539Y-13955770D01*
X12650539Y-13955770D02*
X12660062Y-13917674D01*
X12660062Y-13917674D02*
X12660062Y-13841484D01*
X12660062Y-13841484D02*
X12650539Y-13822436D01*
X12650539Y-13822436D02*
X12641015Y-13812913D01*
X12641015Y-13812913D02*
X12621967Y-13803389D01*
X12621967Y-13803389D02*
X12583872Y-13803389D01*
X12583872Y-13803389D02*
X12564824Y-13812913D01*
X12564824Y-13812913D02*
X12555301Y-13822436D01*
X12555301Y-13822436D02*
X12545777Y-13841484D01*
X12545777Y-13841484D02*
X12545777Y-13889103D01*
X12545777Y-13889103D02*
X12555301Y-13908151D01*
X12555301Y-13908151D02*
X12564824Y-13917674D01*
X12564824Y-13917674D02*
X12583872Y-13927198D01*
X12583872Y-13927198D02*
X12621967Y-13927198D01*
X12621967Y-13927198D02*
X12641015Y-13917674D01*
X12641015Y-13917674D02*
X12650539Y-13908151D01*
X12650539Y-13908151D02*
X12660062Y-13889103D01*
X12831491Y-13870055D02*
X12831491Y-14003389D01*
X12783872Y-13793865D02*
X12736253Y-13936722D01*
X12736253Y-13936722D02*
X12860062Y-13936722D01*
X12926729Y-13803389D02*
X12926729Y-13841484D01*
X13002920Y-13803389D02*
X13002920Y-13841484D01*
X13298158Y-14079579D02*
X13288634Y-14070055D01*
X13288634Y-14070055D02*
X13269586Y-14041484D01*
X13269586Y-14041484D02*
X13260063Y-14022436D01*
X13260063Y-14022436D02*
X13250539Y-13993865D01*
X13250539Y-13993865D02*
X13241015Y-13946246D01*
X13241015Y-13946246D02*
X13241015Y-13908151D01*
X13241015Y-13908151D02*
X13250539Y-13860532D01*
X13250539Y-13860532D02*
X13260063Y-13831960D01*
X13260063Y-13831960D02*
X13269586Y-13812913D01*
X13269586Y-13812913D02*
X13288634Y-13784341D01*
X13288634Y-13784341D02*
X13298158Y-13774817D01*
X13460063Y-13870055D02*
X13460063Y-14003389D01*
X13412443Y-13793865D02*
X13364824Y-13936722D01*
X13364824Y-13936722D02*
X13488634Y-13936722D01*
X13545777Y-13803389D02*
X13679110Y-13803389D01*
X13679110Y-13803389D02*
X13593396Y-14003389D01*
X13907682Y-14003389D02*
X13907682Y-13803389D01*
X13993396Y-14003389D02*
X13993396Y-13898627D01*
X13993396Y-13898627D02*
X13983872Y-13879579D01*
X13983872Y-13879579D02*
X13964825Y-13870055D01*
X13964825Y-13870055D02*
X13936253Y-13870055D01*
X13936253Y-13870055D02*
X13917205Y-13879579D01*
X13917205Y-13879579D02*
X13907682Y-13889103D01*
X14117205Y-14003389D02*
X14098158Y-13993865D01*
X14098158Y-13993865D02*
X14088634Y-13984341D01*
X14088634Y-13984341D02*
X14079110Y-13965293D01*
X14079110Y-13965293D02*
X14079110Y-13908151D01*
X14079110Y-13908151D02*
X14088634Y-13889103D01*
X14088634Y-13889103D02*
X14098158Y-13879579D01*
X14098158Y-13879579D02*
X14117205Y-13870055D01*
X14117205Y-13870055D02*
X14145777Y-13870055D01*
X14145777Y-13870055D02*
X14164825Y-13879579D01*
X14164825Y-13879579D02*
X14174348Y-13889103D01*
X14174348Y-13889103D02*
X14183872Y-13908151D01*
X14183872Y-13908151D02*
X14183872Y-13965293D01*
X14183872Y-13965293D02*
X14174348Y-13984341D01*
X14174348Y-13984341D02*
X14164825Y-13993865D01*
X14164825Y-13993865D02*
X14145777Y-14003389D01*
X14145777Y-14003389D02*
X14117205Y-14003389D01*
X14298158Y-14003389D02*
X14279110Y-13993865D01*
X14279110Y-13993865D02*
X14269586Y-13974817D01*
X14269586Y-13974817D02*
X14269586Y-13803389D01*
X14450539Y-13993865D02*
X14431491Y-14003389D01*
X14431491Y-14003389D02*
X14393396Y-14003389D01*
X14393396Y-14003389D02*
X14374348Y-13993865D01*
X14374348Y-13993865D02*
X14364825Y-13974817D01*
X14364825Y-13974817D02*
X14364825Y-13898627D01*
X14364825Y-13898627D02*
X14374348Y-13879579D01*
X14374348Y-13879579D02*
X14393396Y-13870055D01*
X14393396Y-13870055D02*
X14431491Y-13870055D01*
X14431491Y-13870055D02*
X14450539Y-13879579D01*
X14450539Y-13879579D02*
X14460063Y-13898627D01*
X14460063Y-13898627D02*
X14460063Y-13917674D01*
X14460063Y-13917674D02*
X14364825Y-13936722D01*
X14536253Y-13993865D02*
X14555301Y-14003389D01*
X14555301Y-14003389D02*
X14593396Y-14003389D01*
X14593396Y-14003389D02*
X14612444Y-13993865D01*
X14612444Y-13993865D02*
X14621967Y-13974817D01*
X14621967Y-13974817D02*
X14621967Y-13965293D01*
X14621967Y-13965293D02*
X14612444Y-13946246D01*
X14612444Y-13946246D02*
X14593396Y-13936722D01*
X14593396Y-13936722D02*
X14564825Y-13936722D01*
X14564825Y-13936722D02*
X14545777Y-13927198D01*
X14545777Y-13927198D02*
X14536253Y-13908151D01*
X14536253Y-13908151D02*
X14536253Y-13898627D01*
X14536253Y-13898627D02*
X14545777Y-13879579D01*
X14545777Y-13879579D02*
X14564825Y-13870055D01*
X14564825Y-13870055D02*
X14593396Y-13870055D01*
X14593396Y-13870055D02*
X14612444Y-13879579D01*
X14688634Y-14079579D02*
X14698158Y-14070055D01*
X14698158Y-14070055D02*
X14717206Y-14041484D01*
X14717206Y-14041484D02*
X14726729Y-14022436D01*
X14726729Y-14022436D02*
X14736253Y-13993865D01*
X14736253Y-13993865D02*
X14745777Y-13946246D01*
X14745777Y-13946246D02*
X14745777Y-13908151D01*
X14745777Y-13908151D02*
X14736253Y-13860532D01*
X14736253Y-13860532D02*
X14726729Y-13831960D01*
X14726729Y-13831960D02*
X14717206Y-13812913D01*
X14717206Y-13812913D02*
X14698158Y-13784341D01*
X14698158Y-13784341D02*
X14688634Y-13774817D01*
M02*
