G04 #@! TF.GenerationSoftware,KiCad,Pcbnew,9.0.6-9.0.6~ubuntu24.04.1*
G04 #@! TF.CreationDate,2025-11-23T16:11:27+01:00*
G04 #@! TF.ProjectId,odins-eye-pcb,6f64696e-732d-4657-9965-2d7063622e6b,0*
G04 #@! TF.SameCoordinates,Original*
G04 #@! TF.FileFunction,Soldermask,Top*
G04 #@! TF.FilePolarity,Negative*
%FSLAX46Y46*%
G04 Gerber Fmt 4.6, Leading zero omitted, Abs format (unit mm)*
G04 Created by KiCad (PCBNEW 9.0.6-9.0.6~ubuntu24.04.1) date 2025-11-23 16:11:27*
%MOMM*%
%LPD*%
G01*
G04 APERTURE LIST*
G04 APERTURE END LIST*
G36*
X143161537Y-110715224D02*
G01*
X143226421Y-110758579D01*
X143269776Y-110823463D01*
X143285000Y-110900000D01*
X143285000Y-111800000D01*
X143269776Y-111876537D01*
X143226421Y-111941421D01*
X143161537Y-111984776D01*
X143085000Y-112000000D01*
X142685000Y-112000000D01*
X142608463Y-111984776D01*
X142543579Y-111941421D01*
X142500224Y-111876537D01*
X142485000Y-111800000D01*
X142485000Y-110900000D01*
X142500224Y-110823463D01*
X142543579Y-110758579D01*
X142608463Y-110715224D01*
X142685000Y-110700000D01*
X143085000Y-110700000D01*
X143161537Y-110715224D01*
G37*
G36*
X144288073Y-110730448D02*
G01*
X144378505Y-110782659D01*
X144452341Y-110856495D01*
X144504552Y-110946927D01*
X144531578Y-111047790D01*
X144535000Y-111100000D01*
X144535000Y-111600000D01*
X144531578Y-111652210D01*
X144504552Y-111753073D01*
X144452341Y-111843505D01*
X144378505Y-111917341D01*
X144288073Y-111969552D01*
X144187210Y-111996578D01*
X144082790Y-111996578D01*
X143981927Y-111969552D01*
X143891495Y-111917341D01*
X143817659Y-111843505D01*
X143765448Y-111753073D01*
X143738422Y-111652210D01*
X143735000Y-111600000D01*
X143735000Y-111100000D01*
X143738422Y-111047790D01*
X143765448Y-110946927D01*
X143817659Y-110856495D01*
X143891495Y-110782659D01*
X143981927Y-110730448D01*
X144082790Y-110703422D01*
X144187210Y-110703422D01*
X144288073Y-110730448D01*
G37*
G36*
X145538073Y-110730448D02*
G01*
X145628505Y-110782659D01*
X145702341Y-110856495D01*
X145754552Y-110946927D01*
X145781578Y-111047790D01*
X145785000Y-111100000D01*
X145785000Y-111600000D01*
X145781578Y-111652210D01*
X145754552Y-111753073D01*
X145702341Y-111843505D01*
X145628505Y-111917341D01*
X145538073Y-111969552D01*
X145437210Y-111996578D01*
X145332790Y-111996578D01*
X145231927Y-111969552D01*
X145141495Y-111917341D01*
X145067659Y-111843505D01*
X145015448Y-111753073D01*
X144988422Y-111652210D01*
X144985000Y-111600000D01*
X144985000Y-111100000D01*
X144988422Y-111047790D01*
X145015448Y-110946927D01*
X145067659Y-110856495D01*
X145141495Y-110782659D01*
X145231927Y-110730448D01*
X145332790Y-110703422D01*
X145437210Y-110703422D01*
X145538073Y-110730448D01*
G37*
G36*
X146788073Y-110730448D02*
G01*
X146878505Y-110782659D01*
X146952341Y-110856495D01*
X147004552Y-110946927D01*
X147031578Y-111047790D01*
X147035000Y-111100000D01*
X147035000Y-111600000D01*
X147031578Y-111652210D01*
X147004552Y-111753073D01*
X146952341Y-111843505D01*
X146878505Y-111917341D01*
X146788073Y-111969552D01*
X146687210Y-111996578D01*
X146582790Y-111996578D01*
X146481927Y-111969552D01*
X146391495Y-111917341D01*
X146317659Y-111843505D01*
X146265448Y-111753073D01*
X146238422Y-111652210D01*
X146235000Y-111600000D01*
X146235000Y-111100000D01*
X146238422Y-111047790D01*
X146265448Y-110946927D01*
X146317659Y-110856495D01*
X146391495Y-110782659D01*
X146481927Y-110730448D01*
X146582790Y-110703422D01*
X146687210Y-110703422D01*
X146788073Y-110730448D01*
G37*
G36*
X148038073Y-110730448D02*
G01*
X148128505Y-110782659D01*
X148202341Y-110856495D01*
X148254552Y-110946927D01*
X148281578Y-111047790D01*
X148285000Y-111100000D01*
X148285000Y-111600000D01*
X148281578Y-111652210D01*
X148254552Y-111753073D01*
X148202341Y-111843505D01*
X148128505Y-111917341D01*
X148038073Y-111969552D01*
X147937210Y-111996578D01*
X147832790Y-111996578D01*
X147731927Y-111969552D01*
X147641495Y-111917341D01*
X147567659Y-111843505D01*
X147515448Y-111753073D01*
X147488422Y-111652210D01*
X147485000Y-111600000D01*
X147485000Y-111100000D01*
X147488422Y-111047790D01*
X147515448Y-110946927D01*
X147567659Y-110856495D01*
X147641495Y-110782659D01*
X147731927Y-110730448D01*
X147832790Y-110703422D01*
X147937210Y-110703422D01*
X148038073Y-110730448D01*
G37*
G36*
X149288073Y-110730448D02*
G01*
X149378505Y-110782659D01*
X149452341Y-110856495D01*
X149504552Y-110946927D01*
X149531578Y-111047790D01*
X149535000Y-111100000D01*
X149535000Y-111600000D01*
X149531578Y-111652210D01*
X149504552Y-111753073D01*
X149452341Y-111843505D01*
X149378505Y-111917341D01*
X149288073Y-111969552D01*
X149187210Y-111996578D01*
X149082790Y-111996578D01*
X148981927Y-111969552D01*
X148891495Y-111917341D01*
X148817659Y-111843505D01*
X148765448Y-111753073D01*
X148738422Y-111652210D01*
X148735000Y-111600000D01*
X148735000Y-111100000D01*
X148738422Y-111047790D01*
X148765448Y-110946927D01*
X148817659Y-110856495D01*
X148891495Y-110782659D01*
X148981927Y-110730448D01*
X149082790Y-110703422D01*
X149187210Y-110703422D01*
X149288073Y-110730448D01*
G37*
G36*
X112740000Y-111745000D02*
G01*
X111040000Y-111745000D01*
X111040000Y-110045000D01*
X112740000Y-110045000D01*
X112740000Y-111745000D01*
G37*
G36*
X114676742Y-110081601D02*
G01*
X114830687Y-110145367D01*
X114969234Y-110237941D01*
X115087059Y-110355766D01*
X115179633Y-110494313D01*
X115243399Y-110648258D01*
X115275907Y-110811685D01*
X115275907Y-110978315D01*
X115243399Y-111141742D01*
X115179633Y-111295687D01*
X115087059Y-111434234D01*
X114969234Y-111552059D01*
X114830687Y-111644633D01*
X114676742Y-111708399D01*
X114513315Y-111740907D01*
X114346685Y-111740907D01*
X114183258Y-111708399D01*
X114029313Y-111644633D01*
X113890766Y-111552059D01*
X113772941Y-111434234D01*
X113680367Y-111295687D01*
X113616601Y-111141742D01*
X113584093Y-110978315D01*
X113584093Y-110811685D01*
X113616601Y-110648258D01*
X113680367Y-110494313D01*
X113772941Y-110355766D01*
X113890766Y-110237941D01*
X114029313Y-110145367D01*
X114183258Y-110081601D01*
X114346685Y-110049093D01*
X114513315Y-110049093D01*
X114676742Y-110081601D01*
G37*
G36*
X117216742Y-110081601D02*
G01*
X117370687Y-110145367D01*
X117509234Y-110237941D01*
X117627059Y-110355766D01*
X117719633Y-110494313D01*
X117783399Y-110648258D01*
X117815907Y-110811685D01*
X117815907Y-110978315D01*
X117783399Y-111141742D01*
X117719633Y-111295687D01*
X117627059Y-111434234D01*
X117509234Y-111552059D01*
X117370687Y-111644633D01*
X117216742Y-111708399D01*
X117053315Y-111740907D01*
X116886685Y-111740907D01*
X116723258Y-111708399D01*
X116569313Y-111644633D01*
X116430766Y-111552059D01*
X116312941Y-111434234D01*
X116220367Y-111295687D01*
X116156601Y-111141742D01*
X116124093Y-110978315D01*
X116124093Y-110811685D01*
X116156601Y-110648258D01*
X116220367Y-110494313D01*
X116312941Y-110355766D01*
X116430766Y-110237941D01*
X116569313Y-110145367D01*
X116723258Y-110081601D01*
X116886685Y-110049093D01*
X117053315Y-110049093D01*
X117216742Y-110081601D01*
G37*
G36*
X119756742Y-110081601D02*
G01*
X119910687Y-110145367D01*
X120049234Y-110237941D01*
X120167059Y-110355766D01*
X120259633Y-110494313D01*
X120323399Y-110648258D01*
X120355907Y-110811685D01*
X120355907Y-110978315D01*
X120323399Y-111141742D01*
X120259633Y-111295687D01*
X120167059Y-111434234D01*
X120049234Y-111552059D01*
X119910687Y-111644633D01*
X119756742Y-111708399D01*
X119593315Y-111740907D01*
X119426685Y-111740907D01*
X119263258Y-111708399D01*
X119109313Y-111644633D01*
X118970766Y-111552059D01*
X118852941Y-111434234D01*
X118760367Y-111295687D01*
X118696601Y-111141742D01*
X118664093Y-110978315D01*
X118664093Y-110811685D01*
X118696601Y-110648258D01*
X118760367Y-110494313D01*
X118852941Y-110355766D01*
X118970766Y-110237941D01*
X119109313Y-110145367D01*
X119263258Y-110081601D01*
X119426685Y-110049093D01*
X119593315Y-110049093D01*
X119756742Y-110081601D01*
G37*
G36*
X122296742Y-110081601D02*
G01*
X122450687Y-110145367D01*
X122589234Y-110237941D01*
X122707059Y-110355766D01*
X122799633Y-110494313D01*
X122863399Y-110648258D01*
X122895907Y-110811685D01*
X122895907Y-110978315D01*
X122863399Y-111141742D01*
X122799633Y-111295687D01*
X122707059Y-111434234D01*
X122589234Y-111552059D01*
X122450687Y-111644633D01*
X122296742Y-111708399D01*
X122133315Y-111740907D01*
X121966685Y-111740907D01*
X121803258Y-111708399D01*
X121649313Y-111644633D01*
X121510766Y-111552059D01*
X121392941Y-111434234D01*
X121300367Y-111295687D01*
X121236601Y-111141742D01*
X121204093Y-110978315D01*
X121204093Y-110811685D01*
X121236601Y-110648258D01*
X121300367Y-110494313D01*
X121392941Y-110355766D01*
X121510766Y-110237941D01*
X121649313Y-110145367D01*
X121803258Y-110081601D01*
X121966685Y-110049093D01*
X122133315Y-110049093D01*
X122296742Y-110081601D01*
G37*
G36*
X124836742Y-110081601D02*
G01*
X124990687Y-110145367D01*
X125129234Y-110237941D01*
X125247059Y-110355766D01*
X125339633Y-110494313D01*
X125403399Y-110648258D01*
X125435907Y-110811685D01*
X125435907Y-110978315D01*
X125403399Y-111141742D01*
X125339633Y-111295687D01*
X125247059Y-111434234D01*
X125129234Y-111552059D01*
X124990687Y-111644633D01*
X124836742Y-111708399D01*
X124673315Y-111740907D01*
X124506685Y-111740907D01*
X124343258Y-111708399D01*
X124189313Y-111644633D01*
X124050766Y-111552059D01*
X123932941Y-111434234D01*
X123840367Y-111295687D01*
X123776601Y-111141742D01*
X123744093Y-110978315D01*
X123744093Y-110811685D01*
X123776601Y-110648258D01*
X123840367Y-110494313D01*
X123932941Y-110355766D01*
X124050766Y-110237941D01*
X124189313Y-110145367D01*
X124343258Y-110081601D01*
X124506685Y-110049093D01*
X124673315Y-110049093D01*
X124836742Y-110081601D01*
G37*
G36*
X127376742Y-110081601D02*
G01*
X127530687Y-110145367D01*
X127669234Y-110237941D01*
X127787059Y-110355766D01*
X127879633Y-110494313D01*
X127943399Y-110648258D01*
X127975907Y-110811685D01*
X127975907Y-110978315D01*
X127943399Y-111141742D01*
X127879633Y-111295687D01*
X127787059Y-111434234D01*
X127669234Y-111552059D01*
X127530687Y-111644633D01*
X127376742Y-111708399D01*
X127213315Y-111740907D01*
X127046685Y-111740907D01*
X126883258Y-111708399D01*
X126729313Y-111644633D01*
X126590766Y-111552059D01*
X126472941Y-111434234D01*
X126380367Y-111295687D01*
X126316601Y-111141742D01*
X126284093Y-110978315D01*
X126284093Y-110811685D01*
X126316601Y-110648258D01*
X126380367Y-110494313D01*
X126472941Y-110355766D01*
X126590766Y-110237941D01*
X126729313Y-110145367D01*
X126883258Y-110081601D01*
X127046685Y-110049093D01*
X127213315Y-110049093D01*
X127376742Y-110081601D01*
G37*
G36*
X172922228Y-103234448D02*
G01*
X173067117Y-103294463D01*
X173197515Y-103381592D01*
X173308408Y-103492485D01*
X173395537Y-103622883D01*
X173455552Y-103767772D01*
X173486148Y-103921586D01*
X173486148Y-104078414D01*
X173455552Y-104232228D01*
X173395537Y-104377117D01*
X173308408Y-104507515D01*
X173197515Y-104618408D01*
X173067117Y-104705537D01*
X172922228Y-104765552D01*
X172768414Y-104796148D01*
X172611586Y-104796148D01*
X172457772Y-104765552D01*
X172312883Y-104705537D01*
X172182485Y-104618408D01*
X172071592Y-104507515D01*
X171984463Y-104377117D01*
X171924448Y-104232228D01*
X171893852Y-104078414D01*
X171893852Y-103921586D01*
X171924448Y-103767772D01*
X171984463Y-103622883D01*
X172071592Y-103492485D01*
X172182485Y-103381592D01*
X172312883Y-103294463D01*
X172457772Y-103234448D01*
X172611586Y-103203852D01*
X172768414Y-103203852D01*
X172922228Y-103234448D01*
G37*
G36*
X180542228Y-103234448D02*
G01*
X180687117Y-103294463D01*
X180817515Y-103381592D01*
X180928408Y-103492485D01*
X181015537Y-103622883D01*
X181075552Y-103767772D01*
X181106148Y-103921586D01*
X181106148Y-104078414D01*
X181075552Y-104232228D01*
X181015537Y-104377117D01*
X180928408Y-104507515D01*
X180817515Y-104618408D01*
X180687117Y-104705537D01*
X180542228Y-104765552D01*
X180388414Y-104796148D01*
X180231586Y-104796148D01*
X180077772Y-104765552D01*
X179932883Y-104705537D01*
X179802485Y-104618408D01*
X179691592Y-104507515D01*
X179604463Y-104377117D01*
X179544448Y-104232228D01*
X179513852Y-104078414D01*
X179513852Y-103921586D01*
X179544448Y-103767772D01*
X179604463Y-103622883D01*
X179691592Y-103492485D01*
X179802485Y-103381592D01*
X179932883Y-103294463D01*
X180077772Y-103234448D01*
X180231586Y-103203852D01*
X180388414Y-103203852D01*
X180542228Y-103234448D01*
G37*
G36*
X109216742Y-98686601D02*
G01*
X109370687Y-98750367D01*
X109509234Y-98842941D01*
X109627059Y-98960766D01*
X109719633Y-99099313D01*
X109783399Y-99253258D01*
X109815907Y-99416685D01*
X109815907Y-99583315D01*
X109783399Y-99746742D01*
X109719633Y-99900687D01*
X109627059Y-100039234D01*
X109509234Y-100157059D01*
X109370687Y-100249633D01*
X109216742Y-100313399D01*
X109053315Y-100345907D01*
X108886685Y-100345907D01*
X108723258Y-100313399D01*
X108569313Y-100249633D01*
X108430766Y-100157059D01*
X108312941Y-100039234D01*
X108220367Y-99900687D01*
X108156601Y-99746742D01*
X108124093Y-99583315D01*
X108124093Y-99416685D01*
X108156601Y-99253258D01*
X108220367Y-99099313D01*
X108312941Y-98960766D01*
X108430766Y-98842941D01*
X108569313Y-98750367D01*
X108723258Y-98686601D01*
X108886685Y-98654093D01*
X109053315Y-98654093D01*
X109216742Y-98686601D01*
G37*
G36*
X111756742Y-98686601D02*
G01*
X111910687Y-98750367D01*
X112049234Y-98842941D01*
X112167059Y-98960766D01*
X112259633Y-99099313D01*
X112323399Y-99253258D01*
X112355907Y-99416685D01*
X112355907Y-99583315D01*
X112323399Y-99746742D01*
X112259633Y-99900687D01*
X112167059Y-100039234D01*
X112049234Y-100157059D01*
X111910687Y-100249633D01*
X111756742Y-100313399D01*
X111593315Y-100345907D01*
X111426685Y-100345907D01*
X111263258Y-100313399D01*
X111109313Y-100249633D01*
X110970766Y-100157059D01*
X110852941Y-100039234D01*
X110760367Y-99900687D01*
X110696601Y-99746742D01*
X110664093Y-99583315D01*
X110664093Y-99416685D01*
X110696601Y-99253258D01*
X110760367Y-99099313D01*
X110852941Y-98960766D01*
X110970766Y-98842941D01*
X111109313Y-98750367D01*
X111263258Y-98686601D01*
X111426685Y-98654093D01*
X111593315Y-98654093D01*
X111756742Y-98686601D01*
G37*
G36*
X114296742Y-98686601D02*
G01*
X114450687Y-98750367D01*
X114589234Y-98842941D01*
X114707059Y-98960766D01*
X114799633Y-99099313D01*
X114863399Y-99253258D01*
X114895907Y-99416685D01*
X114895907Y-99583315D01*
X114863399Y-99746742D01*
X114799633Y-99900687D01*
X114707059Y-100039234D01*
X114589234Y-100157059D01*
X114450687Y-100249633D01*
X114296742Y-100313399D01*
X114133315Y-100345907D01*
X113966685Y-100345907D01*
X113803258Y-100313399D01*
X113649313Y-100249633D01*
X113510766Y-100157059D01*
X113392941Y-100039234D01*
X113300367Y-99900687D01*
X113236601Y-99746742D01*
X113204093Y-99583315D01*
X113204093Y-99416685D01*
X113236601Y-99253258D01*
X113300367Y-99099313D01*
X113392941Y-98960766D01*
X113510766Y-98842941D01*
X113649313Y-98750367D01*
X113803258Y-98686601D01*
X113966685Y-98654093D01*
X114133315Y-98654093D01*
X114296742Y-98686601D01*
G37*
G36*
X116836742Y-98686601D02*
G01*
X116990687Y-98750367D01*
X117129234Y-98842941D01*
X117247059Y-98960766D01*
X117339633Y-99099313D01*
X117403399Y-99253258D01*
X117435907Y-99416685D01*
X117435907Y-99583315D01*
X117403399Y-99746742D01*
X117339633Y-99900687D01*
X117247059Y-100039234D01*
X117129234Y-100157059D01*
X116990687Y-100249633D01*
X116836742Y-100313399D01*
X116673315Y-100345907D01*
X116506685Y-100345907D01*
X116343258Y-100313399D01*
X116189313Y-100249633D01*
X116050766Y-100157059D01*
X115932941Y-100039234D01*
X115840367Y-99900687D01*
X115776601Y-99746742D01*
X115744093Y-99583315D01*
X115744093Y-99416685D01*
X115776601Y-99253258D01*
X115840367Y-99099313D01*
X115932941Y-98960766D01*
X116050766Y-98842941D01*
X116189313Y-98750367D01*
X116343258Y-98686601D01*
X116506685Y-98654093D01*
X116673315Y-98654093D01*
X116836742Y-98686601D01*
G37*
G36*
X119376742Y-98686601D02*
G01*
X119530687Y-98750367D01*
X119669234Y-98842941D01*
X119787059Y-98960766D01*
X119879633Y-99099313D01*
X119943399Y-99253258D01*
X119975907Y-99416685D01*
X119975907Y-99583315D01*
X119943399Y-99746742D01*
X119879633Y-99900687D01*
X119787059Y-100039234D01*
X119669234Y-100157059D01*
X119530687Y-100249633D01*
X119376742Y-100313399D01*
X119213315Y-100345907D01*
X119046685Y-100345907D01*
X118883258Y-100313399D01*
X118729313Y-100249633D01*
X118590766Y-100157059D01*
X118472941Y-100039234D01*
X118380367Y-99900687D01*
X118316601Y-99746742D01*
X118284093Y-99583315D01*
X118284093Y-99416685D01*
X118316601Y-99253258D01*
X118380367Y-99099313D01*
X118472941Y-98960766D01*
X118590766Y-98842941D01*
X118729313Y-98750367D01*
X118883258Y-98686601D01*
X119046685Y-98654093D01*
X119213315Y-98654093D01*
X119376742Y-98686601D01*
G37*
G36*
X121916742Y-98686601D02*
G01*
X122070687Y-98750367D01*
X122209234Y-98842941D01*
X122327059Y-98960766D01*
X122419633Y-99099313D01*
X122483399Y-99253258D01*
X122515907Y-99416685D01*
X122515907Y-99583315D01*
X122483399Y-99746742D01*
X122419633Y-99900687D01*
X122327059Y-100039234D01*
X122209234Y-100157059D01*
X122070687Y-100249633D01*
X121916742Y-100313399D01*
X121753315Y-100345907D01*
X121586685Y-100345907D01*
X121423258Y-100313399D01*
X121269313Y-100249633D01*
X121130766Y-100157059D01*
X121012941Y-100039234D01*
X120920367Y-99900687D01*
X120856601Y-99746742D01*
X120824093Y-99583315D01*
X120824093Y-99416685D01*
X120856601Y-99253258D01*
X120920367Y-99099313D01*
X121012941Y-98960766D01*
X121130766Y-98842941D01*
X121269313Y-98750367D01*
X121423258Y-98686601D01*
X121586685Y-98654093D01*
X121753315Y-98654093D01*
X121916742Y-98686601D01*
G37*
G36*
X124456742Y-98686601D02*
G01*
X124610687Y-98750367D01*
X124749234Y-98842941D01*
X124867059Y-98960766D01*
X124959633Y-99099313D01*
X125023399Y-99253258D01*
X125055907Y-99416685D01*
X125055907Y-99583315D01*
X125023399Y-99746742D01*
X124959633Y-99900687D01*
X124867059Y-100039234D01*
X124749234Y-100157059D01*
X124610687Y-100249633D01*
X124456742Y-100313399D01*
X124293315Y-100345907D01*
X124126685Y-100345907D01*
X123963258Y-100313399D01*
X123809313Y-100249633D01*
X123670766Y-100157059D01*
X123552941Y-100039234D01*
X123460367Y-99900687D01*
X123396601Y-99746742D01*
X123364093Y-99583315D01*
X123364093Y-99416685D01*
X123396601Y-99253258D01*
X123460367Y-99099313D01*
X123552941Y-98960766D01*
X123670766Y-98842941D01*
X123809313Y-98750367D01*
X123963258Y-98686601D01*
X124126685Y-98654093D01*
X124293315Y-98654093D01*
X124456742Y-98686601D01*
G37*
G36*
X126996742Y-98686601D02*
G01*
X127150687Y-98750367D01*
X127289234Y-98842941D01*
X127407059Y-98960766D01*
X127499633Y-99099313D01*
X127563399Y-99253258D01*
X127595907Y-99416685D01*
X127595907Y-99583315D01*
X127563399Y-99746742D01*
X127499633Y-99900687D01*
X127407059Y-100039234D01*
X127289234Y-100157059D01*
X127150687Y-100249633D01*
X126996742Y-100313399D01*
X126833315Y-100345907D01*
X126666685Y-100345907D01*
X126503258Y-100313399D01*
X126349313Y-100249633D01*
X126210766Y-100157059D01*
X126092941Y-100039234D01*
X126000367Y-99900687D01*
X125936601Y-99746742D01*
X125904093Y-99583315D01*
X125904093Y-99416685D01*
X125936601Y-99253258D01*
X126000367Y-99099313D01*
X126092941Y-98960766D01*
X126210766Y-98842941D01*
X126349313Y-98750367D01*
X126503258Y-98686601D01*
X126666685Y-98654093D01*
X126833315Y-98654093D01*
X126996742Y-98686601D01*
G37*
G36*
X129536742Y-98686601D02*
G01*
X129690687Y-98750367D01*
X129829234Y-98842941D01*
X129947059Y-98960766D01*
X130039633Y-99099313D01*
X130103399Y-99253258D01*
X130135907Y-99416685D01*
X130135907Y-99583315D01*
X130103399Y-99746742D01*
X130039633Y-99900687D01*
X129947059Y-100039234D01*
X129829234Y-100157059D01*
X129690687Y-100249633D01*
X129536742Y-100313399D01*
X129373315Y-100345907D01*
X129206685Y-100345907D01*
X129043258Y-100313399D01*
X128889313Y-100249633D01*
X128750766Y-100157059D01*
X128632941Y-100039234D01*
X128540367Y-99900687D01*
X128476601Y-99746742D01*
X128444093Y-99583315D01*
X128444093Y-99416685D01*
X128476601Y-99253258D01*
X128540367Y-99099313D01*
X128632941Y-98960766D01*
X128750766Y-98842941D01*
X128889313Y-98750367D01*
X129043258Y-98686601D01*
X129206685Y-98654093D01*
X129373315Y-98654093D01*
X129536742Y-98686601D01*
G37*
G36*
X132076742Y-98686601D02*
G01*
X132230687Y-98750367D01*
X132369234Y-98842941D01*
X132487059Y-98960766D01*
X132579633Y-99099313D01*
X132643399Y-99253258D01*
X132675907Y-99416685D01*
X132675907Y-99583315D01*
X132643399Y-99746742D01*
X132579633Y-99900687D01*
X132487059Y-100039234D01*
X132369234Y-100157059D01*
X132230687Y-100249633D01*
X132076742Y-100313399D01*
X131913315Y-100345907D01*
X131746685Y-100345907D01*
X131583258Y-100313399D01*
X131429313Y-100249633D01*
X131290766Y-100157059D01*
X131172941Y-100039234D01*
X131080367Y-99900687D01*
X131016601Y-99746742D01*
X130984093Y-99583315D01*
X130984093Y-99416685D01*
X131016601Y-99253258D01*
X131080367Y-99099313D01*
X131172941Y-98960766D01*
X131290766Y-98842941D01*
X131429313Y-98750367D01*
X131583258Y-98686601D01*
X131746685Y-98654093D01*
X131913315Y-98654093D01*
X132076742Y-98686601D01*
G37*
G36*
X134616742Y-98686601D02*
G01*
X134770687Y-98750367D01*
X134909234Y-98842941D01*
X135027059Y-98960766D01*
X135119633Y-99099313D01*
X135183399Y-99253258D01*
X135215907Y-99416685D01*
X135215907Y-99583315D01*
X135183399Y-99746742D01*
X135119633Y-99900687D01*
X135027059Y-100039234D01*
X134909234Y-100157059D01*
X134770687Y-100249633D01*
X134616742Y-100313399D01*
X134453315Y-100345907D01*
X134286685Y-100345907D01*
X134123258Y-100313399D01*
X133969313Y-100249633D01*
X133830766Y-100157059D01*
X133712941Y-100039234D01*
X133620367Y-99900687D01*
X133556601Y-99746742D01*
X133524093Y-99583315D01*
X133524093Y-99416685D01*
X133556601Y-99253258D01*
X133620367Y-99099313D01*
X133712941Y-98960766D01*
X133830766Y-98842941D01*
X133969313Y-98750367D01*
X134123258Y-98686601D01*
X134286685Y-98654093D01*
X134453315Y-98654093D01*
X134616742Y-98686601D01*
G37*
G36*
X137156742Y-98686601D02*
G01*
X137310687Y-98750367D01*
X137449234Y-98842941D01*
X137567059Y-98960766D01*
X137659633Y-99099313D01*
X137723399Y-99253258D01*
X137755907Y-99416685D01*
X137755907Y-99583315D01*
X137723399Y-99746742D01*
X137659633Y-99900687D01*
X137567059Y-100039234D01*
X137449234Y-100157059D01*
X137310687Y-100249633D01*
X137156742Y-100313399D01*
X136993315Y-100345907D01*
X136826685Y-100345907D01*
X136663258Y-100313399D01*
X136509313Y-100249633D01*
X136370766Y-100157059D01*
X136252941Y-100039234D01*
X136160367Y-99900687D01*
X136096601Y-99746742D01*
X136064093Y-99583315D01*
X136064093Y-99416685D01*
X136096601Y-99253258D01*
X136160367Y-99099313D01*
X136252941Y-98960766D01*
X136370766Y-98842941D01*
X136509313Y-98750367D01*
X136663258Y-98686601D01*
X136826685Y-98654093D01*
X136993315Y-98654093D01*
X137156742Y-98686601D01*
G37*
G36*
X139696742Y-98686601D02*
G01*
X139850687Y-98750367D01*
X139989234Y-98842941D01*
X140107059Y-98960766D01*
X140199633Y-99099313D01*
X140263399Y-99253258D01*
X140295907Y-99416685D01*
X140295907Y-99583315D01*
X140263399Y-99746742D01*
X140199633Y-99900687D01*
X140107059Y-100039234D01*
X139989234Y-100157059D01*
X139850687Y-100249633D01*
X139696742Y-100313399D01*
X139533315Y-100345907D01*
X139366685Y-100345907D01*
X139203258Y-100313399D01*
X139049313Y-100249633D01*
X138910766Y-100157059D01*
X138792941Y-100039234D01*
X138700367Y-99900687D01*
X138636601Y-99746742D01*
X138604093Y-99583315D01*
X138604093Y-99416685D01*
X138636601Y-99253258D01*
X138700367Y-99099313D01*
X138792941Y-98960766D01*
X138910766Y-98842941D01*
X139049313Y-98750367D01*
X139203258Y-98686601D01*
X139366685Y-98654093D01*
X139533315Y-98654093D01*
X139696742Y-98686601D01*
G37*
G36*
X142236742Y-98686601D02*
G01*
X142390687Y-98750367D01*
X142529234Y-98842941D01*
X142647059Y-98960766D01*
X142739633Y-99099313D01*
X142803399Y-99253258D01*
X142835907Y-99416685D01*
X142835907Y-99583315D01*
X142803399Y-99746742D01*
X142739633Y-99900687D01*
X142647059Y-100039234D01*
X142529234Y-100157059D01*
X142390687Y-100249633D01*
X142236742Y-100313399D01*
X142073315Y-100345907D01*
X141906685Y-100345907D01*
X141743258Y-100313399D01*
X141589313Y-100249633D01*
X141450766Y-100157059D01*
X141332941Y-100039234D01*
X141240367Y-99900687D01*
X141176601Y-99746742D01*
X141144093Y-99583315D01*
X141144093Y-99416685D01*
X141176601Y-99253258D01*
X141240367Y-99099313D01*
X141332941Y-98960766D01*
X141450766Y-98842941D01*
X141589313Y-98750367D01*
X141743258Y-98686601D01*
X141906685Y-98654093D01*
X142073315Y-98654093D01*
X142236742Y-98686601D01*
G37*
G36*
X144776742Y-98686601D02*
G01*
X144930687Y-98750367D01*
X145069234Y-98842941D01*
X145187059Y-98960766D01*
X145279633Y-99099313D01*
X145343399Y-99253258D01*
X145375907Y-99416685D01*
X145375907Y-99583315D01*
X145343399Y-99746742D01*
X145279633Y-99900687D01*
X145187059Y-100039234D01*
X145069234Y-100157059D01*
X144930687Y-100249633D01*
X144776742Y-100313399D01*
X144613315Y-100345907D01*
X144446685Y-100345907D01*
X144283258Y-100313399D01*
X144129313Y-100249633D01*
X143990766Y-100157059D01*
X143872941Y-100039234D01*
X143780367Y-99900687D01*
X143716601Y-99746742D01*
X143684093Y-99583315D01*
X143684093Y-99416685D01*
X143716601Y-99253258D01*
X143780367Y-99099313D01*
X143872941Y-98960766D01*
X143990766Y-98842941D01*
X144129313Y-98750367D01*
X144283258Y-98686601D01*
X144446685Y-98654093D01*
X144613315Y-98654093D01*
X144776742Y-98686601D01*
G37*
G36*
X147316742Y-98686601D02*
G01*
X147470687Y-98750367D01*
X147609234Y-98842941D01*
X147727059Y-98960766D01*
X147819633Y-99099313D01*
X147883399Y-99253258D01*
X147915907Y-99416685D01*
X147915907Y-99583315D01*
X147883399Y-99746742D01*
X147819633Y-99900687D01*
X147727059Y-100039234D01*
X147609234Y-100157059D01*
X147470687Y-100249633D01*
X147316742Y-100313399D01*
X147153315Y-100345907D01*
X146986685Y-100345907D01*
X146823258Y-100313399D01*
X146669313Y-100249633D01*
X146530766Y-100157059D01*
X146412941Y-100039234D01*
X146320367Y-99900687D01*
X146256601Y-99746742D01*
X146224093Y-99583315D01*
X146224093Y-99416685D01*
X146256601Y-99253258D01*
X146320367Y-99099313D01*
X146412941Y-98960766D01*
X146530766Y-98842941D01*
X146669313Y-98750367D01*
X146823258Y-98686601D01*
X146986685Y-98654093D01*
X147153315Y-98654093D01*
X147316742Y-98686601D01*
G37*
G36*
X149856742Y-98686601D02*
G01*
X150010687Y-98750367D01*
X150149234Y-98842941D01*
X150267059Y-98960766D01*
X150359633Y-99099313D01*
X150423399Y-99253258D01*
X150455907Y-99416685D01*
X150455907Y-99583315D01*
X150423399Y-99746742D01*
X150359633Y-99900687D01*
X150267059Y-100039234D01*
X150149234Y-100157059D01*
X150010687Y-100249633D01*
X149856742Y-100313399D01*
X149693315Y-100345907D01*
X149526685Y-100345907D01*
X149363258Y-100313399D01*
X149209313Y-100249633D01*
X149070766Y-100157059D01*
X148952941Y-100039234D01*
X148860367Y-99900687D01*
X148796601Y-99746742D01*
X148764093Y-99583315D01*
X148764093Y-99416685D01*
X148796601Y-99253258D01*
X148860367Y-99099313D01*
X148952941Y-98960766D01*
X149070766Y-98842941D01*
X149209313Y-98750367D01*
X149363258Y-98686601D01*
X149526685Y-98654093D01*
X149693315Y-98654093D01*
X149856742Y-98686601D01*
G37*
G36*
X152396742Y-98686601D02*
G01*
X152550687Y-98750367D01*
X152689234Y-98842941D01*
X152807059Y-98960766D01*
X152899633Y-99099313D01*
X152963399Y-99253258D01*
X152995907Y-99416685D01*
X152995907Y-99583315D01*
X152963399Y-99746742D01*
X152899633Y-99900687D01*
X152807059Y-100039234D01*
X152689234Y-100157059D01*
X152550687Y-100249633D01*
X152396742Y-100313399D01*
X152233315Y-100345907D01*
X152066685Y-100345907D01*
X151903258Y-100313399D01*
X151749313Y-100249633D01*
X151610766Y-100157059D01*
X151492941Y-100039234D01*
X151400367Y-99900687D01*
X151336601Y-99746742D01*
X151304093Y-99583315D01*
X151304093Y-99416685D01*
X151336601Y-99253258D01*
X151400367Y-99099313D01*
X151492941Y-98960766D01*
X151610766Y-98842941D01*
X151749313Y-98750367D01*
X151903258Y-98686601D01*
X152066685Y-98654093D01*
X152233315Y-98654093D01*
X152396742Y-98686601D01*
G37*
G36*
X154936742Y-98686601D02*
G01*
X155090687Y-98750367D01*
X155229234Y-98842941D01*
X155347059Y-98960766D01*
X155439633Y-99099313D01*
X155503399Y-99253258D01*
X155535907Y-99416685D01*
X155535907Y-99583315D01*
X155503399Y-99746742D01*
X155439633Y-99900687D01*
X155347059Y-100039234D01*
X155229234Y-100157059D01*
X155090687Y-100249633D01*
X154936742Y-100313399D01*
X154773315Y-100345907D01*
X154606685Y-100345907D01*
X154443258Y-100313399D01*
X154289313Y-100249633D01*
X154150766Y-100157059D01*
X154032941Y-100039234D01*
X153940367Y-99900687D01*
X153876601Y-99746742D01*
X153844093Y-99583315D01*
X153844093Y-99416685D01*
X153876601Y-99253258D01*
X153940367Y-99099313D01*
X154032941Y-98960766D01*
X154150766Y-98842941D01*
X154289313Y-98750367D01*
X154443258Y-98686601D01*
X154606685Y-98654093D01*
X154773315Y-98654093D01*
X154936742Y-98686601D01*
G37*
G36*
X157476742Y-98686601D02*
G01*
X157630687Y-98750367D01*
X157769234Y-98842941D01*
X157887059Y-98960766D01*
X157979633Y-99099313D01*
X158043399Y-99253258D01*
X158075907Y-99416685D01*
X158075907Y-99583315D01*
X158043399Y-99746742D01*
X157979633Y-99900687D01*
X157887059Y-100039234D01*
X157769234Y-100157059D01*
X157630687Y-100249633D01*
X157476742Y-100313399D01*
X157313315Y-100345907D01*
X157146685Y-100345907D01*
X156983258Y-100313399D01*
X156829313Y-100249633D01*
X156690766Y-100157059D01*
X156572941Y-100039234D01*
X156480367Y-99900687D01*
X156416601Y-99746742D01*
X156384093Y-99583315D01*
X156384093Y-99416685D01*
X156416601Y-99253258D01*
X156480367Y-99099313D01*
X156572941Y-98960766D01*
X156690766Y-98842941D01*
X156829313Y-98750367D01*
X156983258Y-98686601D01*
X157146685Y-98654093D01*
X157313315Y-98654093D01*
X157476742Y-98686601D01*
G37*
G36*
X192710263Y-98504278D02*
G01*
X192836342Y-98538060D01*
X192949381Y-98603323D01*
X193041677Y-98695619D01*
X193106940Y-98808658D01*
X193140722Y-98934737D01*
X193140722Y-99065263D01*
X193106940Y-99191342D01*
X193041677Y-99304381D01*
X192949381Y-99396677D01*
X192836342Y-99461940D01*
X192710263Y-99495722D01*
X192645000Y-99500000D01*
X192643029Y-99500000D01*
X191546971Y-99500000D01*
X191545000Y-99500000D01*
X191479737Y-99495722D01*
X191353658Y-99461940D01*
X191240619Y-99396677D01*
X191148323Y-99304381D01*
X191083060Y-99191342D01*
X191049278Y-99065263D01*
X191049278Y-98934737D01*
X191083060Y-98808658D01*
X191148323Y-98695619D01*
X191240619Y-98603323D01*
X191353658Y-98538060D01*
X191479737Y-98504278D01*
X191545000Y-98500000D01*
X192645000Y-98500000D01*
X192710263Y-98504278D01*
G37*
G36*
X196740263Y-98504278D02*
G01*
X196866342Y-98538060D01*
X196979381Y-98603323D01*
X197071677Y-98695619D01*
X197136940Y-98808658D01*
X197170722Y-98934737D01*
X197170722Y-99065263D01*
X197136940Y-99191342D01*
X197071677Y-99304381D01*
X196979381Y-99396677D01*
X196866342Y-99461940D01*
X196740263Y-99495722D01*
X196675000Y-99500000D01*
X196673029Y-99500000D01*
X195876971Y-99500000D01*
X195875000Y-99500000D01*
X195809737Y-99495722D01*
X195683658Y-99461940D01*
X195570619Y-99396677D01*
X195478323Y-99304381D01*
X195413060Y-99191342D01*
X195379278Y-99065263D01*
X195379278Y-98934737D01*
X195413060Y-98808658D01*
X195478323Y-98695619D01*
X195570619Y-98603323D01*
X195683658Y-98538060D01*
X195809737Y-98504278D01*
X195875000Y-98500000D01*
X196675000Y-98500000D01*
X196740263Y-98504278D01*
G37*
G36*
X192002403Y-97591418D02*
G01*
X192051066Y-97623934D01*
X192083582Y-97672597D01*
X192095000Y-97730000D01*
X192095000Y-98030000D01*
X192083582Y-98087403D01*
X192051066Y-98136066D01*
X192002403Y-98168582D01*
X191945000Y-98180000D01*
X191095000Y-98180000D01*
X191037597Y-98168582D01*
X190988934Y-98136066D01*
X190956418Y-98087403D01*
X190945000Y-98030000D01*
X190945000Y-97730000D01*
X190956418Y-97672597D01*
X190988934Y-97623934D01*
X191037597Y-97591418D01*
X191095000Y-97580000D01*
X191945000Y-97580000D01*
X192002403Y-97591418D01*
G37*
G36*
X192719372Y-97269739D02*
G01*
X192792847Y-97312160D01*
X192852840Y-97372153D01*
X192895261Y-97445628D01*
X192917220Y-97527579D01*
X192917220Y-97612421D01*
X192895261Y-97694372D01*
X192852840Y-97767847D01*
X192792847Y-97827840D01*
X192719372Y-97870261D01*
X192637421Y-97892220D01*
X192552579Y-97892220D01*
X192470628Y-97870261D01*
X192397153Y-97827840D01*
X192337160Y-97767847D01*
X192294739Y-97694372D01*
X192272780Y-97612421D01*
X192272780Y-97527579D01*
X192294739Y-97445628D01*
X192337160Y-97372153D01*
X192397153Y-97312160D01*
X192470628Y-97269739D01*
X192552579Y-97247780D01*
X192637421Y-97247780D01*
X192719372Y-97269739D01*
G37*
G36*
X158080000Y-97810000D02*
G01*
X156380000Y-97810000D01*
X156380000Y-96110000D01*
X158080000Y-96110000D01*
X158080000Y-97810000D01*
G37*
G36*
X109216742Y-96146601D02*
G01*
X109370687Y-96210367D01*
X109509234Y-96302941D01*
X109627059Y-96420766D01*
X109719633Y-96559313D01*
X109783399Y-96713258D01*
X109815907Y-96876685D01*
X109815907Y-97043315D01*
X109783399Y-97206742D01*
X109719633Y-97360687D01*
X109627059Y-97499234D01*
X109509234Y-97617059D01*
X109370687Y-97709633D01*
X109216742Y-97773399D01*
X109053315Y-97805907D01*
X108886685Y-97805907D01*
X108723258Y-97773399D01*
X108569313Y-97709633D01*
X108430766Y-97617059D01*
X108312941Y-97499234D01*
X108220367Y-97360687D01*
X108156601Y-97206742D01*
X108124093Y-97043315D01*
X108124093Y-96876685D01*
X108156601Y-96713258D01*
X108220367Y-96559313D01*
X108312941Y-96420766D01*
X108430766Y-96302941D01*
X108569313Y-96210367D01*
X108723258Y-96146601D01*
X108886685Y-96114093D01*
X109053315Y-96114093D01*
X109216742Y-96146601D01*
G37*
G36*
X111756742Y-96146601D02*
G01*
X111910687Y-96210367D01*
X112049234Y-96302941D01*
X112167059Y-96420766D01*
X112259633Y-96559313D01*
X112323399Y-96713258D01*
X112355907Y-96876685D01*
X112355907Y-97043315D01*
X112323399Y-97206742D01*
X112259633Y-97360687D01*
X112167059Y-97499234D01*
X112049234Y-97617059D01*
X111910687Y-97709633D01*
X111756742Y-97773399D01*
X111593315Y-97805907D01*
X111426685Y-97805907D01*
X111263258Y-97773399D01*
X111109313Y-97709633D01*
X110970766Y-97617059D01*
X110852941Y-97499234D01*
X110760367Y-97360687D01*
X110696601Y-97206742D01*
X110664093Y-97043315D01*
X110664093Y-96876685D01*
X110696601Y-96713258D01*
X110760367Y-96559313D01*
X110852941Y-96420766D01*
X110970766Y-96302941D01*
X111109313Y-96210367D01*
X111263258Y-96146601D01*
X111426685Y-96114093D01*
X111593315Y-96114093D01*
X111756742Y-96146601D01*
G37*
G36*
X114296742Y-96146601D02*
G01*
X114450687Y-96210367D01*
X114589234Y-96302941D01*
X114707059Y-96420766D01*
X114799633Y-96559313D01*
X114863399Y-96713258D01*
X114895907Y-96876685D01*
X114895907Y-97043315D01*
X114863399Y-97206742D01*
X114799633Y-97360687D01*
X114707059Y-97499234D01*
X114589234Y-97617059D01*
X114450687Y-97709633D01*
X114296742Y-97773399D01*
X114133315Y-97805907D01*
X113966685Y-97805907D01*
X113803258Y-97773399D01*
X113649313Y-97709633D01*
X113510766Y-97617059D01*
X113392941Y-97499234D01*
X113300367Y-97360687D01*
X113236601Y-97206742D01*
X113204093Y-97043315D01*
X113204093Y-96876685D01*
X113236601Y-96713258D01*
X113300367Y-96559313D01*
X113392941Y-96420766D01*
X113510766Y-96302941D01*
X113649313Y-96210367D01*
X113803258Y-96146601D01*
X113966685Y-96114093D01*
X114133315Y-96114093D01*
X114296742Y-96146601D01*
G37*
G36*
X116836742Y-96146601D02*
G01*
X116990687Y-96210367D01*
X117129234Y-96302941D01*
X117247059Y-96420766D01*
X117339633Y-96559313D01*
X117403399Y-96713258D01*
X117435907Y-96876685D01*
X117435907Y-97043315D01*
X117403399Y-97206742D01*
X117339633Y-97360687D01*
X117247059Y-97499234D01*
X117129234Y-97617059D01*
X116990687Y-97709633D01*
X116836742Y-97773399D01*
X116673315Y-97805907D01*
X116506685Y-97805907D01*
X116343258Y-97773399D01*
X116189313Y-97709633D01*
X116050766Y-97617059D01*
X115932941Y-97499234D01*
X115840367Y-97360687D01*
X115776601Y-97206742D01*
X115744093Y-97043315D01*
X115744093Y-96876685D01*
X115776601Y-96713258D01*
X115840367Y-96559313D01*
X115932941Y-96420766D01*
X116050766Y-96302941D01*
X116189313Y-96210367D01*
X116343258Y-96146601D01*
X116506685Y-96114093D01*
X116673315Y-96114093D01*
X116836742Y-96146601D01*
G37*
G36*
X119376742Y-96146601D02*
G01*
X119530687Y-96210367D01*
X119669234Y-96302941D01*
X119787059Y-96420766D01*
X119879633Y-96559313D01*
X119943399Y-96713258D01*
X119975907Y-96876685D01*
X119975907Y-97043315D01*
X119943399Y-97206742D01*
X119879633Y-97360687D01*
X119787059Y-97499234D01*
X119669234Y-97617059D01*
X119530687Y-97709633D01*
X119376742Y-97773399D01*
X119213315Y-97805907D01*
X119046685Y-97805907D01*
X118883258Y-97773399D01*
X118729313Y-97709633D01*
X118590766Y-97617059D01*
X118472941Y-97499234D01*
X118380367Y-97360687D01*
X118316601Y-97206742D01*
X118284093Y-97043315D01*
X118284093Y-96876685D01*
X118316601Y-96713258D01*
X118380367Y-96559313D01*
X118472941Y-96420766D01*
X118590766Y-96302941D01*
X118729313Y-96210367D01*
X118883258Y-96146601D01*
X119046685Y-96114093D01*
X119213315Y-96114093D01*
X119376742Y-96146601D01*
G37*
G36*
X121916742Y-96146601D02*
G01*
X122070687Y-96210367D01*
X122209234Y-96302941D01*
X122327059Y-96420766D01*
X122419633Y-96559313D01*
X122483399Y-96713258D01*
X122515907Y-96876685D01*
X122515907Y-97043315D01*
X122483399Y-97206742D01*
X122419633Y-97360687D01*
X122327059Y-97499234D01*
X122209234Y-97617059D01*
X122070687Y-97709633D01*
X121916742Y-97773399D01*
X121753315Y-97805907D01*
X121586685Y-97805907D01*
X121423258Y-97773399D01*
X121269313Y-97709633D01*
X121130766Y-97617059D01*
X121012941Y-97499234D01*
X120920367Y-97360687D01*
X120856601Y-97206742D01*
X120824093Y-97043315D01*
X120824093Y-96876685D01*
X120856601Y-96713258D01*
X120920367Y-96559313D01*
X121012941Y-96420766D01*
X121130766Y-96302941D01*
X121269313Y-96210367D01*
X121423258Y-96146601D01*
X121586685Y-96114093D01*
X121753315Y-96114093D01*
X121916742Y-96146601D01*
G37*
G36*
X124456742Y-96146601D02*
G01*
X124610687Y-96210367D01*
X124749234Y-96302941D01*
X124867059Y-96420766D01*
X124959633Y-96559313D01*
X125023399Y-96713258D01*
X125055907Y-96876685D01*
X125055907Y-97043315D01*
X125023399Y-97206742D01*
X124959633Y-97360687D01*
X124867059Y-97499234D01*
X124749234Y-97617059D01*
X124610687Y-97709633D01*
X124456742Y-97773399D01*
X124293315Y-97805907D01*
X124126685Y-97805907D01*
X123963258Y-97773399D01*
X123809313Y-97709633D01*
X123670766Y-97617059D01*
X123552941Y-97499234D01*
X123460367Y-97360687D01*
X123396601Y-97206742D01*
X123364093Y-97043315D01*
X123364093Y-96876685D01*
X123396601Y-96713258D01*
X123460367Y-96559313D01*
X123552941Y-96420766D01*
X123670766Y-96302941D01*
X123809313Y-96210367D01*
X123963258Y-96146601D01*
X124126685Y-96114093D01*
X124293315Y-96114093D01*
X124456742Y-96146601D01*
G37*
G36*
X126996742Y-96146601D02*
G01*
X127150687Y-96210367D01*
X127289234Y-96302941D01*
X127407059Y-96420766D01*
X127499633Y-96559313D01*
X127563399Y-96713258D01*
X127595907Y-96876685D01*
X127595907Y-97043315D01*
X127563399Y-97206742D01*
X127499633Y-97360687D01*
X127407059Y-97499234D01*
X127289234Y-97617059D01*
X127150687Y-97709633D01*
X126996742Y-97773399D01*
X126833315Y-97805907D01*
X126666685Y-97805907D01*
X126503258Y-97773399D01*
X126349313Y-97709633D01*
X126210766Y-97617059D01*
X126092941Y-97499234D01*
X126000367Y-97360687D01*
X125936601Y-97206742D01*
X125904093Y-97043315D01*
X125904093Y-96876685D01*
X125936601Y-96713258D01*
X126000367Y-96559313D01*
X126092941Y-96420766D01*
X126210766Y-96302941D01*
X126349313Y-96210367D01*
X126503258Y-96146601D01*
X126666685Y-96114093D01*
X126833315Y-96114093D01*
X126996742Y-96146601D01*
G37*
G36*
X129536742Y-96146601D02*
G01*
X129690687Y-96210367D01*
X129829234Y-96302941D01*
X129947059Y-96420766D01*
X130039633Y-96559313D01*
X130103399Y-96713258D01*
X130135907Y-96876685D01*
X130135907Y-97043315D01*
X130103399Y-97206742D01*
X130039633Y-97360687D01*
X129947059Y-97499234D01*
X129829234Y-97617059D01*
X129690687Y-97709633D01*
X129536742Y-97773399D01*
X129373315Y-97805907D01*
X129206685Y-97805907D01*
X129043258Y-97773399D01*
X128889313Y-97709633D01*
X128750766Y-97617059D01*
X128632941Y-97499234D01*
X128540367Y-97360687D01*
X128476601Y-97206742D01*
X128444093Y-97043315D01*
X128444093Y-96876685D01*
X128476601Y-96713258D01*
X128540367Y-96559313D01*
X128632941Y-96420766D01*
X128750766Y-96302941D01*
X128889313Y-96210367D01*
X129043258Y-96146601D01*
X129206685Y-96114093D01*
X129373315Y-96114093D01*
X129536742Y-96146601D01*
G37*
G36*
X132076742Y-96146601D02*
G01*
X132230687Y-96210367D01*
X132369234Y-96302941D01*
X132487059Y-96420766D01*
X132579633Y-96559313D01*
X132643399Y-96713258D01*
X132675907Y-96876685D01*
X132675907Y-97043315D01*
X132643399Y-97206742D01*
X132579633Y-97360687D01*
X132487059Y-97499234D01*
X132369234Y-97617059D01*
X132230687Y-97709633D01*
X132076742Y-97773399D01*
X131913315Y-97805907D01*
X131746685Y-97805907D01*
X131583258Y-97773399D01*
X131429313Y-97709633D01*
X131290766Y-97617059D01*
X131172941Y-97499234D01*
X131080367Y-97360687D01*
X131016601Y-97206742D01*
X130984093Y-97043315D01*
X130984093Y-96876685D01*
X131016601Y-96713258D01*
X131080367Y-96559313D01*
X131172941Y-96420766D01*
X131290766Y-96302941D01*
X131429313Y-96210367D01*
X131583258Y-96146601D01*
X131746685Y-96114093D01*
X131913315Y-96114093D01*
X132076742Y-96146601D01*
G37*
G36*
X134616742Y-96146601D02*
G01*
X134770687Y-96210367D01*
X134909234Y-96302941D01*
X135027059Y-96420766D01*
X135119633Y-96559313D01*
X135183399Y-96713258D01*
X135215907Y-96876685D01*
X135215907Y-97043315D01*
X135183399Y-97206742D01*
X135119633Y-97360687D01*
X135027059Y-97499234D01*
X134909234Y-97617059D01*
X134770687Y-97709633D01*
X134616742Y-97773399D01*
X134453315Y-97805907D01*
X134286685Y-97805907D01*
X134123258Y-97773399D01*
X133969313Y-97709633D01*
X133830766Y-97617059D01*
X133712941Y-97499234D01*
X133620367Y-97360687D01*
X133556601Y-97206742D01*
X133524093Y-97043315D01*
X133524093Y-96876685D01*
X133556601Y-96713258D01*
X133620367Y-96559313D01*
X133712941Y-96420766D01*
X133830766Y-96302941D01*
X133969313Y-96210367D01*
X134123258Y-96146601D01*
X134286685Y-96114093D01*
X134453315Y-96114093D01*
X134616742Y-96146601D01*
G37*
G36*
X137156742Y-96146601D02*
G01*
X137310687Y-96210367D01*
X137449234Y-96302941D01*
X137567059Y-96420766D01*
X137659633Y-96559313D01*
X137723399Y-96713258D01*
X137755907Y-96876685D01*
X137755907Y-97043315D01*
X137723399Y-97206742D01*
X137659633Y-97360687D01*
X137567059Y-97499234D01*
X137449234Y-97617059D01*
X137310687Y-97709633D01*
X137156742Y-97773399D01*
X136993315Y-97805907D01*
X136826685Y-97805907D01*
X136663258Y-97773399D01*
X136509313Y-97709633D01*
X136370766Y-97617059D01*
X136252941Y-97499234D01*
X136160367Y-97360687D01*
X136096601Y-97206742D01*
X136064093Y-97043315D01*
X136064093Y-96876685D01*
X136096601Y-96713258D01*
X136160367Y-96559313D01*
X136252941Y-96420766D01*
X136370766Y-96302941D01*
X136509313Y-96210367D01*
X136663258Y-96146601D01*
X136826685Y-96114093D01*
X136993315Y-96114093D01*
X137156742Y-96146601D01*
G37*
G36*
X139696742Y-96146601D02*
G01*
X139850687Y-96210367D01*
X139989234Y-96302941D01*
X140107059Y-96420766D01*
X140199633Y-96559313D01*
X140263399Y-96713258D01*
X140295907Y-96876685D01*
X140295907Y-97043315D01*
X140263399Y-97206742D01*
X140199633Y-97360687D01*
X140107059Y-97499234D01*
X139989234Y-97617059D01*
X139850687Y-97709633D01*
X139696742Y-97773399D01*
X139533315Y-97805907D01*
X139366685Y-97805907D01*
X139203258Y-97773399D01*
X139049313Y-97709633D01*
X138910766Y-97617059D01*
X138792941Y-97499234D01*
X138700367Y-97360687D01*
X138636601Y-97206742D01*
X138604093Y-97043315D01*
X138604093Y-96876685D01*
X138636601Y-96713258D01*
X138700367Y-96559313D01*
X138792941Y-96420766D01*
X138910766Y-96302941D01*
X139049313Y-96210367D01*
X139203258Y-96146601D01*
X139366685Y-96114093D01*
X139533315Y-96114093D01*
X139696742Y-96146601D01*
G37*
G36*
X142236742Y-96146601D02*
G01*
X142390687Y-96210367D01*
X142529234Y-96302941D01*
X142647059Y-96420766D01*
X142739633Y-96559313D01*
X142803399Y-96713258D01*
X142835907Y-96876685D01*
X142835907Y-97043315D01*
X142803399Y-97206742D01*
X142739633Y-97360687D01*
X142647059Y-97499234D01*
X142529234Y-97617059D01*
X142390687Y-97709633D01*
X142236742Y-97773399D01*
X142073315Y-97805907D01*
X141906685Y-97805907D01*
X141743258Y-97773399D01*
X141589313Y-97709633D01*
X141450766Y-97617059D01*
X141332941Y-97499234D01*
X141240367Y-97360687D01*
X141176601Y-97206742D01*
X141144093Y-97043315D01*
X141144093Y-96876685D01*
X141176601Y-96713258D01*
X141240367Y-96559313D01*
X141332941Y-96420766D01*
X141450766Y-96302941D01*
X141589313Y-96210367D01*
X141743258Y-96146601D01*
X141906685Y-96114093D01*
X142073315Y-96114093D01*
X142236742Y-96146601D01*
G37*
G36*
X144776742Y-96146601D02*
G01*
X144930687Y-96210367D01*
X145069234Y-96302941D01*
X145187059Y-96420766D01*
X145279633Y-96559313D01*
X145343399Y-96713258D01*
X145375907Y-96876685D01*
X145375907Y-97043315D01*
X145343399Y-97206742D01*
X145279633Y-97360687D01*
X145187059Y-97499234D01*
X145069234Y-97617059D01*
X144930687Y-97709633D01*
X144776742Y-97773399D01*
X144613315Y-97805907D01*
X144446685Y-97805907D01*
X144283258Y-97773399D01*
X144129313Y-97709633D01*
X143990766Y-97617059D01*
X143872941Y-97499234D01*
X143780367Y-97360687D01*
X143716601Y-97206742D01*
X143684093Y-97043315D01*
X143684093Y-96876685D01*
X143716601Y-96713258D01*
X143780367Y-96559313D01*
X143872941Y-96420766D01*
X143990766Y-96302941D01*
X144129313Y-96210367D01*
X144283258Y-96146601D01*
X144446685Y-96114093D01*
X144613315Y-96114093D01*
X144776742Y-96146601D01*
G37*
G36*
X147316742Y-96146601D02*
G01*
X147470687Y-96210367D01*
X147609234Y-96302941D01*
X147727059Y-96420766D01*
X147819633Y-96559313D01*
X147883399Y-96713258D01*
X147915907Y-96876685D01*
X147915907Y-97043315D01*
X147883399Y-97206742D01*
X147819633Y-97360687D01*
X147727059Y-97499234D01*
X147609234Y-97617059D01*
X147470687Y-97709633D01*
X147316742Y-97773399D01*
X147153315Y-97805907D01*
X146986685Y-97805907D01*
X146823258Y-97773399D01*
X146669313Y-97709633D01*
X146530766Y-97617059D01*
X146412941Y-97499234D01*
X146320367Y-97360687D01*
X146256601Y-97206742D01*
X146224093Y-97043315D01*
X146224093Y-96876685D01*
X146256601Y-96713258D01*
X146320367Y-96559313D01*
X146412941Y-96420766D01*
X146530766Y-96302941D01*
X146669313Y-96210367D01*
X146823258Y-96146601D01*
X146986685Y-96114093D01*
X147153315Y-96114093D01*
X147316742Y-96146601D01*
G37*
G36*
X149856742Y-96146601D02*
G01*
X150010687Y-96210367D01*
X150149234Y-96302941D01*
X150267059Y-96420766D01*
X150359633Y-96559313D01*
X150423399Y-96713258D01*
X150455907Y-96876685D01*
X150455907Y-97043315D01*
X150423399Y-97206742D01*
X150359633Y-97360687D01*
X150267059Y-97499234D01*
X150149234Y-97617059D01*
X150010687Y-97709633D01*
X149856742Y-97773399D01*
X149693315Y-97805907D01*
X149526685Y-97805907D01*
X149363258Y-97773399D01*
X149209313Y-97709633D01*
X149070766Y-97617059D01*
X148952941Y-97499234D01*
X148860367Y-97360687D01*
X148796601Y-97206742D01*
X148764093Y-97043315D01*
X148764093Y-96876685D01*
X148796601Y-96713258D01*
X148860367Y-96559313D01*
X148952941Y-96420766D01*
X149070766Y-96302941D01*
X149209313Y-96210367D01*
X149363258Y-96146601D01*
X149526685Y-96114093D01*
X149693315Y-96114093D01*
X149856742Y-96146601D01*
G37*
G36*
X152396742Y-96146601D02*
G01*
X152550687Y-96210367D01*
X152689234Y-96302941D01*
X152807059Y-96420766D01*
X152899633Y-96559313D01*
X152963399Y-96713258D01*
X152995907Y-96876685D01*
X152995907Y-97043315D01*
X152963399Y-97206742D01*
X152899633Y-97360687D01*
X152807059Y-97499234D01*
X152689234Y-97617059D01*
X152550687Y-97709633D01*
X152396742Y-97773399D01*
X152233315Y-97805907D01*
X152066685Y-97805907D01*
X151903258Y-97773399D01*
X151749313Y-97709633D01*
X151610766Y-97617059D01*
X151492941Y-97499234D01*
X151400367Y-97360687D01*
X151336601Y-97206742D01*
X151304093Y-97043315D01*
X151304093Y-96876685D01*
X151336601Y-96713258D01*
X151400367Y-96559313D01*
X151492941Y-96420766D01*
X151610766Y-96302941D01*
X151749313Y-96210367D01*
X151903258Y-96146601D01*
X152066685Y-96114093D01*
X152233315Y-96114093D01*
X152396742Y-96146601D01*
G37*
G36*
X154936742Y-96146601D02*
G01*
X155090687Y-96210367D01*
X155229234Y-96302941D01*
X155347059Y-96420766D01*
X155439633Y-96559313D01*
X155503399Y-96713258D01*
X155535907Y-96876685D01*
X155535907Y-97043315D01*
X155503399Y-97206742D01*
X155439633Y-97360687D01*
X155347059Y-97499234D01*
X155229234Y-97617059D01*
X155090687Y-97709633D01*
X154936742Y-97773399D01*
X154773315Y-97805907D01*
X154606685Y-97805907D01*
X154443258Y-97773399D01*
X154289313Y-97709633D01*
X154150766Y-97617059D01*
X154032941Y-97499234D01*
X153940367Y-97360687D01*
X153876601Y-97206742D01*
X153844093Y-97043315D01*
X153844093Y-96876685D01*
X153876601Y-96713258D01*
X153940367Y-96559313D01*
X154032941Y-96420766D01*
X154150766Y-96302941D01*
X154289313Y-96210367D01*
X154443258Y-96146601D01*
X154606685Y-96114093D01*
X154773315Y-96114093D01*
X154936742Y-96146601D01*
G37*
G36*
X192002403Y-96791418D02*
G01*
X192051066Y-96823934D01*
X192083582Y-96872597D01*
X192095000Y-96930000D01*
X192095000Y-97230000D01*
X192083582Y-97287403D01*
X192051066Y-97336066D01*
X192002403Y-97368582D01*
X191945000Y-97380000D01*
X191095000Y-97380000D01*
X191037597Y-97368582D01*
X190988934Y-97336066D01*
X190956418Y-97287403D01*
X190945000Y-97230000D01*
X190945000Y-96930000D01*
X190956418Y-96872597D01*
X190988934Y-96823934D01*
X191037597Y-96791418D01*
X191095000Y-96780000D01*
X191945000Y-96780000D01*
X192002403Y-96791418D01*
G37*
G36*
X192048701Y-96285709D02*
G01*
X192073033Y-96301967D01*
X192089291Y-96326299D01*
X192095000Y-96355000D01*
X192095000Y-96505000D01*
X192089291Y-96533701D01*
X192073033Y-96558033D01*
X192048701Y-96574291D01*
X192020000Y-96580000D01*
X191020000Y-96580000D01*
X190991299Y-96574291D01*
X190966967Y-96558033D01*
X190950709Y-96533701D01*
X190945000Y-96505000D01*
X190945000Y-96355000D01*
X190950709Y-96326299D01*
X190966967Y-96301967D01*
X190991299Y-96285709D01*
X191020000Y-96280000D01*
X192020000Y-96280000D01*
X192048701Y-96285709D01*
G37*
G36*
X192048701Y-95785709D02*
G01*
X192073033Y-95801967D01*
X192089291Y-95826299D01*
X192095000Y-95855000D01*
X192095000Y-96005000D01*
X192089291Y-96033701D01*
X192073033Y-96058033D01*
X192048701Y-96074291D01*
X192020000Y-96080000D01*
X191020000Y-96080000D01*
X190991299Y-96074291D01*
X190966967Y-96058033D01*
X190950709Y-96033701D01*
X190945000Y-96005000D01*
X190945000Y-95855000D01*
X190950709Y-95826299D01*
X190966967Y-95801967D01*
X190991299Y-95785709D01*
X191020000Y-95780000D01*
X192020000Y-95780000D01*
X192048701Y-95785709D01*
G37*
G36*
X178775000Y-95800000D02*
G01*
X176975000Y-95800000D01*
X176975000Y-94000000D01*
X178775000Y-94000000D01*
X178775000Y-95800000D01*
G37*
G36*
X175596256Y-94038754D02*
G01*
X175759257Y-94106271D01*
X175905954Y-94204291D01*
X176030709Y-94329046D01*
X176128729Y-94475743D01*
X176196246Y-94638744D01*
X176230666Y-94811785D01*
X176230666Y-94988215D01*
X176196246Y-95161256D01*
X176128729Y-95324257D01*
X176030709Y-95470954D01*
X175905954Y-95595709D01*
X175759257Y-95693729D01*
X175596256Y-95761246D01*
X175423215Y-95795666D01*
X175246785Y-95795666D01*
X175073744Y-95761246D01*
X174910743Y-95693729D01*
X174764046Y-95595709D01*
X174639291Y-95470954D01*
X174541271Y-95324257D01*
X174473754Y-95161256D01*
X174439334Y-94988215D01*
X174439334Y-94811785D01*
X174473754Y-94638744D01*
X174541271Y-94475743D01*
X174639291Y-94329046D01*
X174764046Y-94204291D01*
X174910743Y-94106271D01*
X175073744Y-94038754D01*
X175246785Y-94004334D01*
X175423215Y-94004334D01*
X175596256Y-94038754D01*
G37*
G36*
X192048701Y-95285709D02*
G01*
X192073033Y-95301967D01*
X192089291Y-95326299D01*
X192095000Y-95355000D01*
X192095000Y-95505000D01*
X192089291Y-95533701D01*
X192073033Y-95558033D01*
X192048701Y-95574291D01*
X192020000Y-95580000D01*
X191020000Y-95580000D01*
X190991299Y-95574291D01*
X190966967Y-95558033D01*
X190950709Y-95533701D01*
X190945000Y-95505000D01*
X190945000Y-95355000D01*
X190950709Y-95326299D01*
X190966967Y-95301967D01*
X190991299Y-95285709D01*
X191020000Y-95280000D01*
X192020000Y-95280000D01*
X192048701Y-95285709D01*
G37*
G36*
X192048701Y-94785709D02*
G01*
X192073033Y-94801967D01*
X192089291Y-94826299D01*
X192095000Y-94855000D01*
X192095000Y-95005000D01*
X192089291Y-95033701D01*
X192073033Y-95058033D01*
X192048701Y-95074291D01*
X192020000Y-95080000D01*
X191020000Y-95080000D01*
X190991299Y-95074291D01*
X190966967Y-95058033D01*
X190950709Y-95033701D01*
X190945000Y-95005000D01*
X190945000Y-94855000D01*
X190950709Y-94826299D01*
X190966967Y-94801967D01*
X190991299Y-94785709D01*
X191020000Y-94780000D01*
X192020000Y-94780000D01*
X192048701Y-94785709D01*
G37*
G36*
X192048701Y-94285709D02*
G01*
X192073033Y-94301967D01*
X192089291Y-94326299D01*
X192095000Y-94355000D01*
X192095000Y-94505000D01*
X192089291Y-94533701D01*
X192073033Y-94558033D01*
X192048701Y-94574291D01*
X192020000Y-94580000D01*
X191020000Y-94580000D01*
X190991299Y-94574291D01*
X190966967Y-94558033D01*
X190950709Y-94533701D01*
X190945000Y-94505000D01*
X190945000Y-94355000D01*
X190950709Y-94326299D01*
X190966967Y-94301967D01*
X190991299Y-94285709D01*
X191020000Y-94280000D01*
X192020000Y-94280000D01*
X192048701Y-94285709D01*
G37*
G36*
X192048701Y-93785709D02*
G01*
X192073033Y-93801967D01*
X192089291Y-93826299D01*
X192095000Y-93855000D01*
X192095000Y-94005000D01*
X192089291Y-94033701D01*
X192073033Y-94058033D01*
X192048701Y-94074291D01*
X192020000Y-94080000D01*
X191020000Y-94080000D01*
X190991299Y-94074291D01*
X190966967Y-94058033D01*
X190950709Y-94033701D01*
X190945000Y-94005000D01*
X190945000Y-93855000D01*
X190950709Y-93826299D01*
X190966967Y-93801967D01*
X190991299Y-93785709D01*
X191020000Y-93780000D01*
X192020000Y-93780000D01*
X192048701Y-93785709D01*
G37*
G36*
X192048701Y-93285709D02*
G01*
X192073033Y-93301967D01*
X192089291Y-93326299D01*
X192095000Y-93355000D01*
X192095000Y-93505000D01*
X192089291Y-93533701D01*
X192073033Y-93558033D01*
X192048701Y-93574291D01*
X192020000Y-93580000D01*
X191020000Y-93580000D01*
X190991299Y-93574291D01*
X190966967Y-93558033D01*
X190950709Y-93533701D01*
X190945000Y-93505000D01*
X190945000Y-93355000D01*
X190950709Y-93326299D01*
X190966967Y-93301967D01*
X190991299Y-93285709D01*
X191020000Y-93280000D01*
X192020000Y-93280000D01*
X192048701Y-93285709D01*
G37*
G36*
X192048701Y-92785709D02*
G01*
X192073033Y-92801967D01*
X192089291Y-92826299D01*
X192095000Y-92855000D01*
X192095000Y-93005000D01*
X192089291Y-93033701D01*
X192073033Y-93058033D01*
X192048701Y-93074291D01*
X192020000Y-93080000D01*
X191020000Y-93080000D01*
X190991299Y-93074291D01*
X190966967Y-93058033D01*
X190950709Y-93033701D01*
X190945000Y-93005000D01*
X190945000Y-92855000D01*
X190950709Y-92826299D01*
X190966967Y-92801967D01*
X190991299Y-92785709D01*
X191020000Y-92780000D01*
X192020000Y-92780000D01*
X192048701Y-92785709D01*
G37*
G36*
X192002403Y-91991418D02*
G01*
X192051066Y-92023934D01*
X192083582Y-92072597D01*
X192095000Y-92130000D01*
X192095000Y-92430000D01*
X192083582Y-92487403D01*
X192051066Y-92536066D01*
X192002403Y-92568582D01*
X191945000Y-92580000D01*
X191095000Y-92580000D01*
X191037597Y-92568582D01*
X190988934Y-92536066D01*
X190956418Y-92487403D01*
X190945000Y-92430000D01*
X190945000Y-92130000D01*
X190956418Y-92072597D01*
X190988934Y-92023934D01*
X191037597Y-91991418D01*
X191095000Y-91980000D01*
X191945000Y-91980000D01*
X192002403Y-91991418D01*
G37*
G36*
X192719372Y-91489739D02*
G01*
X192792847Y-91532160D01*
X192852840Y-91592153D01*
X192895261Y-91665628D01*
X192917220Y-91747579D01*
X192917220Y-91832421D01*
X192895261Y-91914372D01*
X192852840Y-91987847D01*
X192792847Y-92047840D01*
X192719372Y-92090261D01*
X192637421Y-92112220D01*
X192552579Y-92112220D01*
X192470628Y-92090261D01*
X192397153Y-92047840D01*
X192337160Y-91987847D01*
X192294739Y-91914372D01*
X192272780Y-91832421D01*
X192272780Y-91747579D01*
X192294739Y-91665628D01*
X192337160Y-91592153D01*
X192397153Y-91532160D01*
X192470628Y-91489739D01*
X192552579Y-91467780D01*
X192637421Y-91467780D01*
X192719372Y-91489739D01*
G37*
G36*
X192002403Y-91191418D02*
G01*
X192051066Y-91223934D01*
X192083582Y-91272597D01*
X192095000Y-91330000D01*
X192095000Y-91630000D01*
X192083582Y-91687403D01*
X192051066Y-91736066D01*
X192002403Y-91768582D01*
X191945000Y-91780000D01*
X191095000Y-91780000D01*
X191037597Y-91768582D01*
X190988934Y-91736066D01*
X190956418Y-91687403D01*
X190945000Y-91630000D01*
X190945000Y-91330000D01*
X190956418Y-91272597D01*
X190988934Y-91223934D01*
X191037597Y-91191418D01*
X191095000Y-91180000D01*
X191945000Y-91180000D01*
X192002403Y-91191418D01*
G37*
G36*
X192710263Y-89864278D02*
G01*
X192836342Y-89898060D01*
X192949381Y-89963323D01*
X193041677Y-90055619D01*
X193106940Y-90168658D01*
X193140722Y-90294737D01*
X193140722Y-90425263D01*
X193106940Y-90551342D01*
X193041677Y-90664381D01*
X192949381Y-90756677D01*
X192836342Y-90821940D01*
X192710263Y-90855722D01*
X192645000Y-90860000D01*
X192643029Y-90860000D01*
X191546971Y-90860000D01*
X191545000Y-90860000D01*
X191479737Y-90855722D01*
X191353658Y-90821940D01*
X191240619Y-90756677D01*
X191148323Y-90664381D01*
X191083060Y-90551342D01*
X191049278Y-90425263D01*
X191049278Y-90294737D01*
X191083060Y-90168658D01*
X191148323Y-90055619D01*
X191240619Y-89963323D01*
X191353658Y-89898060D01*
X191479737Y-89864278D01*
X191545000Y-89860000D01*
X192645000Y-89860000D01*
X192710263Y-89864278D01*
G37*
G36*
X196740263Y-89864278D02*
G01*
X196866342Y-89898060D01*
X196979381Y-89963323D01*
X197071677Y-90055619D01*
X197136940Y-90168658D01*
X197170722Y-90294737D01*
X197170722Y-90425263D01*
X197136940Y-90551342D01*
X197071677Y-90664381D01*
X196979381Y-90756677D01*
X196866342Y-90821940D01*
X196740263Y-90855722D01*
X196675000Y-90860000D01*
X196673029Y-90860000D01*
X195876971Y-90860000D01*
X195875000Y-90860000D01*
X195809737Y-90855722D01*
X195683658Y-90821940D01*
X195570619Y-90756677D01*
X195478323Y-90664381D01*
X195413060Y-90551342D01*
X195379278Y-90425263D01*
X195379278Y-90294737D01*
X195413060Y-90168658D01*
X195478323Y-90055619D01*
X195570619Y-89963323D01*
X195683658Y-89898060D01*
X195809737Y-89864278D01*
X195875000Y-89860000D01*
X196675000Y-89860000D01*
X196740263Y-89864278D01*
G37*
G36*
X172922228Y-79734448D02*
G01*
X173067117Y-79794463D01*
X173197515Y-79881592D01*
X173308408Y-79992485D01*
X173395537Y-80122883D01*
X173455552Y-80267772D01*
X173486148Y-80421586D01*
X173486148Y-80578414D01*
X173455552Y-80732228D01*
X173395537Y-80877117D01*
X173308408Y-81007515D01*
X173197515Y-81118408D01*
X173067117Y-81205537D01*
X172922228Y-81265552D01*
X172768414Y-81296148D01*
X172611586Y-81296148D01*
X172457772Y-81265552D01*
X172312883Y-81205537D01*
X172182485Y-81118408D01*
X172071592Y-81007515D01*
X171984463Y-80877117D01*
X171924448Y-80732228D01*
X171893852Y-80578414D01*
X171893852Y-80421586D01*
X171924448Y-80267772D01*
X171984463Y-80122883D01*
X172071592Y-79992485D01*
X172182485Y-79881592D01*
X172312883Y-79794463D01*
X172457772Y-79734448D01*
X172611586Y-79703852D01*
X172768414Y-79703852D01*
X172922228Y-79734448D01*
G37*
G36*
X180542228Y-79734448D02*
G01*
X180687117Y-79794463D01*
X180817515Y-79881592D01*
X180928408Y-79992485D01*
X181015537Y-80122883D01*
X181075552Y-80267772D01*
X181106148Y-80421586D01*
X181106148Y-80578414D01*
X181075552Y-80732228D01*
X181015537Y-80877117D01*
X180928408Y-81007515D01*
X180817515Y-81118408D01*
X180687117Y-81205537D01*
X180542228Y-81265552D01*
X180388414Y-81296148D01*
X180231586Y-81296148D01*
X180077772Y-81265552D01*
X179932883Y-81205537D01*
X179802485Y-81118408D01*
X179691592Y-81007515D01*
X179604463Y-80877117D01*
X179544448Y-80732228D01*
X179513852Y-80578414D01*
X179513852Y-80421586D01*
X179544448Y-80267772D01*
X179604463Y-80122883D01*
X179691592Y-79992485D01*
X179802485Y-79881592D01*
X179932883Y-79794463D01*
X180077772Y-79734448D01*
X180231586Y-79703852D01*
X180388414Y-79703852D01*
X180542228Y-79734448D01*
G37*
G36*
X186592228Y-79624448D02*
G01*
X186737117Y-79684463D01*
X186867515Y-79771592D01*
X186978408Y-79882485D01*
X187065537Y-80012883D01*
X187125552Y-80157772D01*
X187156148Y-80311586D01*
X187156148Y-80468414D01*
X187125552Y-80622228D01*
X187065537Y-80767117D01*
X186978408Y-80897515D01*
X186867515Y-81008408D01*
X186737117Y-81095537D01*
X186592228Y-81155552D01*
X186438414Y-81186148D01*
X186281586Y-81186148D01*
X186127772Y-81155552D01*
X185982883Y-81095537D01*
X185852485Y-81008408D01*
X185741592Y-80897515D01*
X185654463Y-80767117D01*
X185594448Y-80622228D01*
X185563852Y-80468414D01*
X185563852Y-80311586D01*
X185594448Y-80157772D01*
X185654463Y-80012883D01*
X185741592Y-79882485D01*
X185852485Y-79771592D01*
X185982883Y-79684463D01*
X186127772Y-79624448D01*
X186281586Y-79593852D01*
X186438414Y-79593852D01*
X186592228Y-79624448D01*
G37*
G36*
X194212228Y-79624448D02*
G01*
X194357117Y-79684463D01*
X194487515Y-79771592D01*
X194598408Y-79882485D01*
X194685537Y-80012883D01*
X194745552Y-80157772D01*
X194776148Y-80311586D01*
X194776148Y-80468414D01*
X194745552Y-80622228D01*
X194685537Y-80767117D01*
X194598408Y-80897515D01*
X194487515Y-81008408D01*
X194357117Y-81095537D01*
X194212228Y-81155552D01*
X194058414Y-81186148D01*
X193901586Y-81186148D01*
X193747772Y-81155552D01*
X193602883Y-81095537D01*
X193472485Y-81008408D01*
X193361592Y-80897515D01*
X193274463Y-80767117D01*
X193214448Y-80622228D01*
X193183852Y-80468414D01*
X193183852Y-80311586D01*
X193214448Y-80157772D01*
X193274463Y-80012883D01*
X193361592Y-79882485D01*
X193472485Y-79771592D01*
X193602883Y-79684463D01*
X193747772Y-79624448D01*
X193901586Y-79593852D01*
X194058414Y-79593852D01*
X194212228Y-79624448D01*
G37*
M02*
