G04 #@! TF.GenerationSoftware,KiCad,Pcbnew,9.0.6-9.0.6~ubuntu24.04.1*
G04 #@! TF.CreationDate,2025-12-16T19:59:53+01:00*
G04 #@! TF.ProjectId,odins-eye-pcb,6f64696e-732d-4657-9965-2d7063622e6b,0*
G04 #@! TF.SameCoordinates,Original*
G04 #@! TF.FileFunction,Copper,L3,Inr*
G04 #@! TF.FilePolarity,Positive*
%FSLAX46Y46*%
G04 Gerber Fmt 4.6, Leading zero omitted, Abs format (unit mm)*
G04 Created by KiCad (PCBNEW 9.0.6-9.0.6~ubuntu24.04.1) date 2025-12-16 19:59:53*
%MOMM*%
%LPD*%
G01*
G04 APERTURE LIST*
G04 Aperture macros list*
%AMRoundRect*
0 Rectangle with rounded corners*
0 $1 Rounding radius*
0 $2 $3 $4 $5 $6 $7 $8 $9 X,Y pos of 4 corners*
0 Add a 4 corners polygon primitive as box body*
4,1,4,$2,$3,$4,$5,$6,$7,$8,$9,$2,$3,0*
0 Add four circle primitives for the rounded corners*
1,1,$1+$1,$2,$3*
1,1,$1+$1,$4,$5*
1,1,$1+$1,$6,$7*
1,1,$1+$1,$8,$9*
0 Add four rect primitives between the rounded corners*
20,1,$1+$1,$2,$3,$4,$5,0*
20,1,$1+$1,$4,$5,$6,$7,0*
20,1,$1+$1,$6,$7,$8,$9,0*
20,1,$1+$1,$8,$9,$2,$3,0*%
G04 Aperture macros list end*
G04 #@! TA.AperFunction,HeatsinkPad*
%ADD10O,2.100000X1.000000*%
G04 #@! TD*
G04 #@! TA.AperFunction,HeatsinkPad*
%ADD11O,1.800000X1.000000*%
G04 #@! TD*
G04 #@! TA.AperFunction,ComponentPad*
%ADD12C,1.600000*%
G04 #@! TD*
G04 #@! TA.AperFunction,ComponentPad*
%ADD13R,1.700000X1.700000*%
G04 #@! TD*
G04 #@! TA.AperFunction,ComponentPad*
%ADD14C,1.700000*%
G04 #@! TD*
G04 #@! TA.AperFunction,ComponentPad*
%ADD15RoundRect,0.200000X-0.200000X-0.450000X0.200000X-0.450000X0.200000X0.450000X-0.200000X0.450000X0*%
G04 #@! TD*
G04 #@! TA.AperFunction,ComponentPad*
%ADD16O,0.800000X1.300000*%
G04 #@! TD*
G04 #@! TA.AperFunction,ComponentPad*
%ADD17R,1.800000X1.800000*%
G04 #@! TD*
G04 #@! TA.AperFunction,ComponentPad*
%ADD18C,1.800000*%
G04 #@! TD*
G04 #@! TA.AperFunction,ViaPad*
%ADD19C,0.600000*%
G04 #@! TD*
G04 APERTURE END LIST*
D10*
X192095000Y-99000000D03*
D11*
X196275000Y-99000000D03*
D10*
X192095000Y-90360000D03*
D11*
X196275000Y-90360000D03*
D12*
X172690000Y-80500000D03*
X180310000Y-80500000D03*
D13*
X157230000Y-96960000D03*
D14*
X157230000Y-99500000D03*
X154690000Y-96960000D03*
X154690000Y-99500000D03*
X152150000Y-96960000D03*
X152150000Y-99500000D03*
X149610000Y-96960000D03*
X149610000Y-99500000D03*
X147070000Y-96960000D03*
X147070000Y-99500000D03*
X144530000Y-96960000D03*
X144530000Y-99500000D03*
X141990000Y-96960000D03*
X141990000Y-99500000D03*
X139450000Y-96960000D03*
X139450000Y-99500000D03*
X136910000Y-96960000D03*
X136910000Y-99500000D03*
X134370000Y-96960000D03*
X134370000Y-99500000D03*
X131830000Y-96960000D03*
X131830000Y-99500000D03*
X129290000Y-96960000D03*
X129290000Y-99500000D03*
X126750000Y-96960000D03*
X126750000Y-99500000D03*
X124210000Y-96960000D03*
X124210000Y-99500000D03*
X121670000Y-96960000D03*
X121670000Y-99500000D03*
X119130000Y-96960000D03*
X119130000Y-99500000D03*
X116590000Y-96960000D03*
X116590000Y-99500000D03*
X114050000Y-96960000D03*
X114050000Y-99500000D03*
X111510000Y-96960000D03*
X111510000Y-99500000D03*
X108970000Y-96960000D03*
X108970000Y-99500000D03*
D12*
X186360000Y-80390000D03*
X193980000Y-80390000D03*
D15*
X142885000Y-111350000D03*
D16*
X144135000Y-111350000D03*
X145385000Y-111350000D03*
X146635000Y-111350000D03*
X147885000Y-111350000D03*
X149135000Y-111350000D03*
D13*
X161955000Y-75525000D03*
D14*
X161955000Y-78065000D03*
X161955000Y-80605000D03*
X161955000Y-83145000D03*
X161955000Y-85685000D03*
X161955000Y-88225000D03*
X161955000Y-90765000D03*
X161955000Y-93305000D03*
D12*
X180310000Y-104000000D03*
X172690000Y-104000000D03*
D17*
X177875000Y-94900000D03*
D18*
X175335000Y-94900000D03*
D13*
X111890000Y-110895000D03*
D14*
X114430000Y-110895000D03*
X116970000Y-110895000D03*
X119510000Y-110895000D03*
X122050000Y-110895000D03*
X124590000Y-110895000D03*
X127130000Y-110895000D03*
D19*
X130000000Y-104000000D03*
X128000000Y-107000000D03*
X147200000Y-105000000D03*
X118000000Y-106000000D03*
X127000000Y-107000000D03*
X131000000Y-102000000D03*
X153000000Y-98500000D03*
X153000000Y-102000000D03*
M02*
