G04 #@! TF.GenerationSoftware,KiCad,Pcbnew,9.0.6-9.0.6~ubuntu24.04.1*
G04 #@! TF.CreationDate,2025-11-23T16:31:07+01:00*
G04 #@! TF.ProjectId,odins-eye-pcb,6f64696e-732d-4657-9965-2d7063622e6b,0*
G04 #@! TF.SameCoordinates,Original*
G04 #@! TF.FileFunction,Copper,L1,Top*
G04 #@! TF.FilePolarity,Positive*
%FSLAX46Y46*%
G04 Gerber Fmt 4.6, Leading zero omitted, Abs format (unit mm)*
G04 Created by KiCad (PCBNEW 9.0.6-9.0.6~ubuntu24.04.1) date 2025-11-23 16:31:07*
%MOMM*%
%LPD*%
G01*
G04 APERTURE LIST*
G04 Aperture macros list*
%AMRoundRect*
0 Rectangle with rounded corners*
0 $1 Rounding radius*
0 $2 $3 $4 $5 $6 $7 $8 $9 X,Y pos of 4 corners*
0 Add a 4 corners polygon primitive as box body*
4,1,4,$2,$3,$4,$5,$6,$7,$8,$9,$2,$3,0*
0 Add four circle primitives for the rounded corners*
1,1,$1+$1,$2,$3*
1,1,$1+$1,$4,$5*
1,1,$1+$1,$6,$7*
1,1,$1+$1,$8,$9*
0 Add four rect primitives between the rounded corners*
20,1,$1+$1,$2,$3,$4,$5,0*
20,1,$1+$1,$4,$5,$6,$7,0*
20,1,$1+$1,$6,$7,$8,$9,0*
20,1,$1+$1,$8,$9,$2,$3,0*%
G04 Aperture macros list end*
G04 #@! TA.AperFunction,ComponentPad*
%ADD10O,0.800000X1.300000*%
G04 #@! TD*
G04 #@! TA.AperFunction,ComponentPad*
%ADD11RoundRect,0.200000X-0.200000X-0.450000X0.200000X-0.450000X0.200000X0.450000X-0.200000X0.450000X0*%
G04 #@! TD*
G04 #@! TA.AperFunction,SMDPad,CuDef*
%ADD12RoundRect,0.150000X0.425000X-0.150000X0.425000X0.150000X-0.425000X0.150000X-0.425000X-0.150000X0*%
G04 #@! TD*
G04 #@! TA.AperFunction,SMDPad,CuDef*
%ADD13RoundRect,0.075000X0.500000X-0.075000X0.500000X0.075000X-0.500000X0.075000X-0.500000X-0.075000X0*%
G04 #@! TD*
G04 #@! TA.AperFunction,HeatsinkPad*
%ADD14O,2.100000X1.000000*%
G04 #@! TD*
G04 #@! TA.AperFunction,HeatsinkPad*
%ADD15O,1.800000X1.000000*%
G04 #@! TD*
G04 #@! TA.AperFunction,ComponentPad*
%ADD16C,1.600000*%
G04 #@! TD*
G04 #@! TA.AperFunction,ComponentPad*
%ADD17R,1.700000X1.700000*%
G04 #@! TD*
G04 #@! TA.AperFunction,ComponentPad*
%ADD18C,1.700000*%
G04 #@! TD*
G04 #@! TA.AperFunction,ComponentPad*
%ADD19R,1.800000X1.800000*%
G04 #@! TD*
G04 #@! TA.AperFunction,ComponentPad*
%ADD20C,1.800000*%
G04 #@! TD*
G04 #@! TA.AperFunction,ViaPad*
%ADD21C,0.600000*%
G04 #@! TD*
G04 #@! TA.AperFunction,Conductor*
%ADD22C,0.127000*%
G04 #@! TD*
G04 #@! TA.AperFunction,Conductor*
%ADD23C,0.400000*%
G04 #@! TD*
G04 #@! TA.AperFunction,Conductor*
%ADD24C,0.200000*%
G04 #@! TD*
G04 APERTURE END LIST*
D10*
X147885000Y-111350000D03*
D11*
X142885000Y-111350000D03*
D10*
X144135000Y-111350000D03*
X145385000Y-111350000D03*
X146635000Y-111350000D03*
X149135000Y-111350000D03*
D12*
X191520000Y-97880000D03*
X191520000Y-97080000D03*
D13*
X191520000Y-95930000D03*
X191520000Y-94930000D03*
X191520000Y-94430000D03*
X191520000Y-93430000D03*
D12*
X191520000Y-92280000D03*
X191520000Y-91480000D03*
X191520000Y-91480000D03*
X191520000Y-92280000D03*
D13*
X191520000Y-92930000D03*
X191520000Y-93930000D03*
X191520000Y-95430000D03*
X191520000Y-96430000D03*
D12*
X191520000Y-97080000D03*
X191520000Y-97880000D03*
D14*
X192095000Y-99000000D03*
D15*
X196275000Y-99000000D03*
D14*
X192095000Y-90360000D03*
D15*
X196275000Y-90360000D03*
D16*
X172690000Y-80500000D03*
X180310000Y-80500000D03*
D17*
X157230000Y-96960000D03*
D18*
X157230000Y-99500000D03*
X154690000Y-96960000D03*
X154690000Y-99500000D03*
X152150000Y-96960000D03*
X152150000Y-99500000D03*
X149610000Y-96960000D03*
X149610000Y-99500000D03*
X147070000Y-96960000D03*
X147070000Y-99500000D03*
X144530000Y-96960000D03*
X144530000Y-99500000D03*
X141990000Y-96960000D03*
X141990000Y-99500000D03*
X139450000Y-96960000D03*
X139450000Y-99500000D03*
X136910000Y-96960000D03*
X136910000Y-99500000D03*
X134370000Y-96960000D03*
X134370000Y-99500000D03*
X131830000Y-96960000D03*
X131830000Y-99500000D03*
X129290000Y-96960000D03*
X129290000Y-99500000D03*
X126750000Y-96960000D03*
X126750000Y-99500000D03*
X124210000Y-96960000D03*
X124210000Y-99500000D03*
X121670000Y-96960000D03*
X121670000Y-99500000D03*
X119130000Y-96960000D03*
X119130000Y-99500000D03*
X116590000Y-96960000D03*
X116590000Y-99500000D03*
X114050000Y-96960000D03*
X114050000Y-99500000D03*
X111510000Y-96960000D03*
X111510000Y-99500000D03*
X108970000Y-96960000D03*
X108970000Y-99500000D03*
D16*
X186360000Y-80390000D03*
X193980000Y-80390000D03*
X180310000Y-104000000D03*
X172690000Y-104000000D03*
D19*
X177875000Y-94900000D03*
D20*
X175335000Y-94900000D03*
D17*
X111890000Y-110895000D03*
D18*
X114430000Y-110895000D03*
X116970000Y-110895000D03*
X119510000Y-110895000D03*
X122050000Y-110895000D03*
X124590000Y-110895000D03*
X127130000Y-110895000D03*
D21*
X153000000Y-98500000D03*
X153000000Y-102000000D03*
X130000000Y-104000000D03*
X128000000Y-107000000D03*
X147193672Y-105000000D03*
X118000000Y-106000000D03*
X127000000Y-107000000D03*
X131000000Y-102000000D03*
D22*
X146635000Y-111350000D02*
X147885000Y-111350000D01*
D23*
X147193672Y-105000000D02*
X151039944Y-105000000D01*
X151039944Y-105000000D02*
X156052000Y-99987944D01*
X156052000Y-99987944D02*
X156052000Y-98138000D01*
X156052000Y-98138000D02*
X157230000Y-96960000D01*
D22*
X153500000Y-99000000D02*
X153000000Y-98500000D01*
X153500000Y-101500000D02*
X153500000Y-99000000D01*
X153000000Y-102000000D02*
X153500000Y-101500000D01*
D24*
X175335000Y-94900000D02*
X175335000Y-101355000D01*
X175335000Y-101355000D02*
X172690000Y-104000000D01*
X123128000Y-109817000D02*
X126593000Y-109817000D01*
X122050000Y-110895000D02*
X123128000Y-109817000D01*
X126593000Y-109817000D02*
X136910000Y-99500000D01*
X129827000Y-100578000D02*
X132276523Y-100578000D01*
X132276523Y-100578000D02*
X133292000Y-99562523D01*
X119510000Y-110895000D02*
X129827000Y-100578000D01*
X133292000Y-98038000D02*
X134370000Y-96960000D01*
X133292000Y-99562523D02*
X133292000Y-98038000D01*
X128000000Y-106000000D02*
X130000000Y-104000000D01*
X128000000Y-107000000D02*
X128000000Y-106000000D01*
D23*
X114430000Y-109570000D02*
X118000000Y-106000000D01*
X114430000Y-110895000D02*
X114430000Y-109570000D01*
D24*
X127000000Y-106000000D02*
X131000000Y-102000000D01*
X127000000Y-107000000D02*
X127000000Y-106000000D01*
X127828000Y-100037000D02*
X127828000Y-98422000D01*
X116970000Y-110895000D02*
X127828000Y-100037000D01*
X127828000Y-98422000D02*
X129290000Y-96960000D01*
D23*
X187230000Y-97080000D02*
X191520000Y-97080000D01*
X192017008Y-92280000D02*
X191520000Y-92280000D01*
X179182000Y-105128000D02*
X180310000Y-104000000D01*
X191520000Y-97080000D02*
X192058281Y-97080000D01*
X157230000Y-99500000D02*
X162858000Y-105128000D01*
X192058281Y-97080000D02*
X192423000Y-96715281D01*
X192423000Y-96715281D02*
X192423000Y-92685992D01*
X192423000Y-92685992D02*
X192017008Y-92280000D01*
X180310000Y-104000000D02*
X187230000Y-97080000D01*
X162858000Y-105128000D02*
X179182000Y-105128000D01*
D24*
X188120000Y-95930000D02*
X191520000Y-95930000D01*
X172690000Y-80500000D02*
X188120000Y-95930000D01*
X186360000Y-88344999D02*
X190945001Y-92930000D01*
X190945001Y-92930000D02*
X191520000Y-92930000D01*
X186360000Y-80390000D02*
X186360000Y-88344999D01*
D22*
X144135000Y-111350000D02*
X144135000Y-107365000D01*
X151108500Y-100391500D02*
X151108500Y-98891500D01*
X144135000Y-107365000D02*
X151108500Y-100391500D01*
X151108500Y-98891500D02*
X151998500Y-98001500D01*
X151998500Y-98001500D02*
X153648500Y-98001500D01*
X153648500Y-98001500D02*
X154690000Y-96960000D01*
G04 #@! TA.AperFunction,Conductor*
G36*
X198817539Y-70045185D02*
G01*
X198863294Y-70097989D01*
X198874500Y-70149500D01*
X198874500Y-118900500D01*
X198854815Y-118967539D01*
X198802011Y-119013294D01*
X198750500Y-119024500D01*
X97999500Y-119024500D01*
X97932461Y-119004815D01*
X97886706Y-118952011D01*
X97875500Y-118900500D01*
X97875500Y-96853713D01*
X107619500Y-96853713D01*
X107619500Y-97066287D01*
X107629534Y-97129644D01*
X107648175Y-97247337D01*
X107652754Y-97276243D01*
X107682295Y-97367161D01*
X107718444Y-97478414D01*
X107814951Y-97667820D01*
X107939890Y-97839786D01*
X108090213Y-97990109D01*
X108262182Y-98115050D01*
X108270946Y-98119516D01*
X108321742Y-98167491D01*
X108338536Y-98235312D01*
X108315998Y-98301447D01*
X108270946Y-98340484D01*
X108262182Y-98344949D01*
X108090213Y-98469890D01*
X107939890Y-98620213D01*
X107814951Y-98792179D01*
X107718444Y-98981585D01*
X107652753Y-99183760D01*
X107619500Y-99393713D01*
X107619500Y-99606286D01*
X107646498Y-99776748D01*
X107652754Y-99816243D01*
X107712460Y-99999999D01*
X107718444Y-100018414D01*
X107814951Y-100207820D01*
X107939890Y-100379786D01*
X108090213Y-100530109D01*
X108262179Y-100655048D01*
X108262181Y-100655049D01*
X108262184Y-100655051D01*
X108451588Y-100751557D01*
X108653757Y-100817246D01*
X108863713Y-100850500D01*
X108863714Y-100850500D01*
X109076286Y-100850500D01*
X109076287Y-100850500D01*
X109286243Y-100817246D01*
X109488412Y-100751557D01*
X109677816Y-100655051D01*
X109705762Y-100634747D01*
X109849786Y-100530109D01*
X109849788Y-100530106D01*
X109849792Y-100530104D01*
X110000104Y-100379792D01*
X110000106Y-100379788D01*
X110000109Y-100379786D01*
X110125048Y-100207820D01*
X110125047Y-100207820D01*
X110125051Y-100207816D01*
X110129514Y-100199054D01*
X110177488Y-100148259D01*
X110245308Y-100131463D01*
X110311444Y-100153999D01*
X110350486Y-100199056D01*
X110354951Y-100207820D01*
X110479890Y-100379786D01*
X110630213Y-100530109D01*
X110802179Y-100655048D01*
X110802181Y-100655049D01*
X110802184Y-100655051D01*
X110991588Y-100751557D01*
X111193757Y-100817246D01*
X111403713Y-100850500D01*
X111403714Y-100850500D01*
X111616286Y-100850500D01*
X111616287Y-100850500D01*
X111826243Y-100817246D01*
X112028412Y-100751557D01*
X112217816Y-100655051D01*
X112245762Y-100634747D01*
X112389786Y-100530109D01*
X112389788Y-100530106D01*
X112389792Y-100530104D01*
X112540104Y-100379792D01*
X112540106Y-100379788D01*
X112540109Y-100379786D01*
X112665048Y-100207820D01*
X112665047Y-100207820D01*
X112665051Y-100207816D01*
X112669514Y-100199054D01*
X112717488Y-100148259D01*
X112785308Y-100131463D01*
X112851444Y-100153999D01*
X112890486Y-100199056D01*
X112894951Y-100207820D01*
X113019890Y-100379786D01*
X113170213Y-100530109D01*
X113342179Y-100655048D01*
X113342181Y-100655049D01*
X113342184Y-100655051D01*
X113531588Y-100751557D01*
X113733757Y-100817246D01*
X113943713Y-100850500D01*
X113943714Y-100850500D01*
X114156286Y-100850500D01*
X114156287Y-100850500D01*
X114366243Y-100817246D01*
X114568412Y-100751557D01*
X114757816Y-100655051D01*
X114785762Y-100634747D01*
X114929786Y-100530109D01*
X114929788Y-100530106D01*
X114929792Y-100530104D01*
X115080104Y-100379792D01*
X115080106Y-100379788D01*
X115080109Y-100379786D01*
X115205048Y-100207820D01*
X115205047Y-100207820D01*
X115205051Y-100207816D01*
X115209514Y-100199054D01*
X115257488Y-100148259D01*
X115325308Y-100131463D01*
X115391444Y-100153999D01*
X115430486Y-100199056D01*
X115434951Y-100207820D01*
X115559890Y-100379786D01*
X115710213Y-100530109D01*
X115882179Y-100655048D01*
X115882181Y-100655049D01*
X115882184Y-100655051D01*
X116071588Y-100751557D01*
X116273757Y-100817246D01*
X116483713Y-100850500D01*
X116483714Y-100850500D01*
X116696286Y-100850500D01*
X116696287Y-100850500D01*
X116906243Y-100817246D01*
X117108412Y-100751557D01*
X117297816Y-100655051D01*
X117325762Y-100634747D01*
X117469786Y-100530109D01*
X117469788Y-100530106D01*
X117469792Y-100530104D01*
X117620104Y-100379792D01*
X117620106Y-100379788D01*
X117620109Y-100379786D01*
X117745048Y-100207820D01*
X117745047Y-100207820D01*
X117745051Y-100207816D01*
X117749514Y-100199054D01*
X117797488Y-100148259D01*
X117865308Y-100131463D01*
X117931444Y-100153999D01*
X117970486Y-100199056D01*
X117974951Y-100207820D01*
X118099890Y-100379786D01*
X118250213Y-100530109D01*
X118422179Y-100655048D01*
X118422181Y-100655049D01*
X118422184Y-100655051D01*
X118611588Y-100751557D01*
X118813757Y-100817246D01*
X119023713Y-100850500D01*
X119023714Y-100850500D01*
X119236286Y-100850500D01*
X119236287Y-100850500D01*
X119446243Y-100817246D01*
X119648412Y-100751557D01*
X119837816Y-100655051D01*
X119865762Y-100634747D01*
X120009786Y-100530109D01*
X120009788Y-100530106D01*
X120009792Y-100530104D01*
X120160104Y-100379792D01*
X120160106Y-100379788D01*
X120160109Y-100379786D01*
X120285048Y-100207820D01*
X120285047Y-100207820D01*
X120285051Y-100207816D01*
X120289514Y-100199054D01*
X120337488Y-100148259D01*
X120405308Y-100131463D01*
X120471444Y-100153999D01*
X120510486Y-100199056D01*
X120514951Y-100207820D01*
X120639890Y-100379786D01*
X120790213Y-100530109D01*
X120962179Y-100655048D01*
X120962181Y-100655049D01*
X120962184Y-100655051D01*
X121151588Y-100751557D01*
X121353757Y-100817246D01*
X121563713Y-100850500D01*
X121563714Y-100850500D01*
X121776286Y-100850500D01*
X121776287Y-100850500D01*
X121986243Y-100817246D01*
X122188412Y-100751557D01*
X122377816Y-100655051D01*
X122405762Y-100634747D01*
X122549786Y-100530109D01*
X122549788Y-100530106D01*
X122549792Y-100530104D01*
X122700104Y-100379792D01*
X122700106Y-100379788D01*
X122700109Y-100379786D01*
X122825048Y-100207820D01*
X122825047Y-100207820D01*
X122825051Y-100207816D01*
X122829514Y-100199054D01*
X122877488Y-100148259D01*
X122945308Y-100131463D01*
X123011444Y-100153999D01*
X123050486Y-100199056D01*
X123054951Y-100207820D01*
X123179890Y-100379786D01*
X123330213Y-100530109D01*
X123502179Y-100655048D01*
X123502181Y-100655049D01*
X123502184Y-100655051D01*
X123691588Y-100751557D01*
X123893757Y-100817246D01*
X124103713Y-100850500D01*
X124103714Y-100850500D01*
X124316286Y-100850500D01*
X124316287Y-100850500D01*
X124526243Y-100817246D01*
X124728412Y-100751557D01*
X124917816Y-100655051D01*
X124945762Y-100634747D01*
X125089786Y-100530109D01*
X125089788Y-100530106D01*
X125089792Y-100530104D01*
X125240104Y-100379792D01*
X125240106Y-100379788D01*
X125240109Y-100379786D01*
X125365048Y-100207820D01*
X125365047Y-100207820D01*
X125365051Y-100207816D01*
X125369514Y-100199054D01*
X125417488Y-100148259D01*
X125485308Y-100131463D01*
X125551444Y-100153999D01*
X125590486Y-100199056D01*
X125594951Y-100207820D01*
X125719890Y-100379786D01*
X125870213Y-100530109D01*
X126014238Y-100634747D01*
X126042184Y-100655051D01*
X126096049Y-100682496D01*
X126101127Y-100685084D01*
X126151923Y-100733059D01*
X126168718Y-100800880D01*
X126146180Y-100867015D01*
X126132513Y-100883250D01*
X117454522Y-109561241D01*
X117393199Y-109594726D01*
X117328523Y-109591491D01*
X117286245Y-109577754D01*
X117146272Y-109555584D01*
X117076287Y-109544500D01*
X116863713Y-109544500D01*
X116815042Y-109552208D01*
X116653760Y-109577753D01*
X116451585Y-109643444D01*
X116262179Y-109739951D01*
X116090213Y-109864890D01*
X115939890Y-110015213D01*
X115814949Y-110187182D01*
X115810484Y-110195946D01*
X115762509Y-110246742D01*
X115694688Y-110263536D01*
X115628553Y-110240998D01*
X115589516Y-110195946D01*
X115585050Y-110187182D01*
X115460109Y-110015213D01*
X115306347Y-109861451D01*
X115307813Y-109859984D01*
X115274359Y-109808789D01*
X115273828Y-109738921D01*
X115305384Y-109685271D01*
X118194584Y-106796070D01*
X118234810Y-106769193D01*
X118241288Y-106766510D01*
X118379179Y-106709394D01*
X118510289Y-106621789D01*
X118621789Y-106510289D01*
X118709394Y-106379179D01*
X118769737Y-106233497D01*
X118800500Y-106078842D01*
X118800500Y-105921158D01*
X118800500Y-105921155D01*
X118800499Y-105921153D01*
X118770380Y-105769735D01*
X118769737Y-105766503D01*
X118746082Y-105709394D01*
X118709397Y-105620827D01*
X118709390Y-105620814D01*
X118621789Y-105489711D01*
X118621786Y-105489707D01*
X118510292Y-105378213D01*
X118510288Y-105378210D01*
X118379185Y-105290609D01*
X118379172Y-105290602D01*
X118233501Y-105230264D01*
X118233489Y-105230261D01*
X118078845Y-105199500D01*
X118078842Y-105199500D01*
X117921158Y-105199500D01*
X117921155Y-105199500D01*
X117766510Y-105230261D01*
X117766498Y-105230264D01*
X117620827Y-105290602D01*
X117620814Y-105290609D01*
X117489711Y-105378210D01*
X117489707Y-105378213D01*
X117378213Y-105489707D01*
X117378210Y-105489711D01*
X117290609Y-105620814D01*
X117290604Y-105620824D01*
X117230807Y-105765187D01*
X117203927Y-105805415D01*
X113885888Y-109123453D01*
X113885887Y-109123454D01*
X113854732Y-109170082D01*
X113823717Y-109216500D01*
X113823716Y-109216502D01*
X113809223Y-109238190D01*
X113756421Y-109365667D01*
X113756418Y-109365677D01*
X113729500Y-109501004D01*
X113729500Y-109671452D01*
X113709815Y-109738491D01*
X113678385Y-109771770D01*
X113550215Y-109864889D01*
X113436285Y-109978819D01*
X113374962Y-110012303D01*
X113305270Y-110007319D01*
X113249337Y-109965447D01*
X113232422Y-109934470D01*
X113183354Y-109802913D01*
X113183350Y-109802906D01*
X113097190Y-109687812D01*
X113097187Y-109687809D01*
X112982093Y-109601649D01*
X112982086Y-109601645D01*
X112847379Y-109551403D01*
X112847372Y-109551401D01*
X112787844Y-109545000D01*
X112140000Y-109545000D01*
X112140000Y-110461988D01*
X112082993Y-110429075D01*
X111955826Y-110395000D01*
X111824174Y-110395000D01*
X111697007Y-110429075D01*
X111640000Y-110461988D01*
X111640000Y-109545000D01*
X110992155Y-109545000D01*
X110932627Y-109551401D01*
X110932620Y-109551403D01*
X110797913Y-109601645D01*
X110797906Y-109601649D01*
X110682812Y-109687809D01*
X110682809Y-109687812D01*
X110596649Y-109802906D01*
X110596645Y-109802913D01*
X110546403Y-109937620D01*
X110546401Y-109937627D01*
X110540000Y-109997155D01*
X110540000Y-110645000D01*
X111456988Y-110645000D01*
X111424075Y-110702007D01*
X111390000Y-110829174D01*
X111390000Y-110960826D01*
X111424075Y-111087993D01*
X111456988Y-111145000D01*
X110540000Y-111145000D01*
X110540000Y-111792844D01*
X110546401Y-111852372D01*
X110546403Y-111852379D01*
X110596645Y-111987086D01*
X110596649Y-111987093D01*
X110682809Y-112102187D01*
X110682812Y-112102190D01*
X110797906Y-112188350D01*
X110797913Y-112188354D01*
X110932620Y-112238596D01*
X110932627Y-112238598D01*
X110992155Y-112244999D01*
X110992172Y-112245000D01*
X111640000Y-112245000D01*
X111640000Y-111328012D01*
X111697007Y-111360925D01*
X111824174Y-111395000D01*
X111955826Y-111395000D01*
X112082993Y-111360925D01*
X112140000Y-111328012D01*
X112140000Y-112245000D01*
X112787828Y-112245000D01*
X112787844Y-112244999D01*
X112847372Y-112238598D01*
X112847379Y-112238596D01*
X112982086Y-112188354D01*
X112982093Y-112188350D01*
X113097187Y-112102190D01*
X113097190Y-112102187D01*
X113183350Y-111987093D01*
X113183354Y-111987086D01*
X113232422Y-111855529D01*
X113274293Y-111799595D01*
X113339757Y-111775178D01*
X113408030Y-111790030D01*
X113436285Y-111811181D01*
X113550213Y-111925109D01*
X113722179Y-112050048D01*
X113722181Y-112050049D01*
X113722184Y-112050051D01*
X113911588Y-112146557D01*
X114113757Y-112212246D01*
X114323713Y-112245500D01*
X114323714Y-112245500D01*
X114536286Y-112245500D01*
X114536287Y-112245500D01*
X114746243Y-112212246D01*
X114948412Y-112146557D01*
X115137816Y-112050051D01*
X115159789Y-112034086D01*
X115309786Y-111925109D01*
X115309788Y-111925106D01*
X115309792Y-111925104D01*
X115460104Y-111774792D01*
X115460106Y-111774788D01*
X115460109Y-111774786D01*
X115585048Y-111602820D01*
X115585047Y-111602820D01*
X115585051Y-111602816D01*
X115589514Y-111594054D01*
X115637488Y-111543259D01*
X115705308Y-111526463D01*
X115771444Y-111548999D01*
X115810486Y-111594056D01*
X115814951Y-111602820D01*
X115939890Y-111774786D01*
X116090213Y-111925109D01*
X116262179Y-112050048D01*
X116262181Y-112050049D01*
X116262184Y-112050051D01*
X116451588Y-112146557D01*
X116653757Y-112212246D01*
X116863713Y-112245500D01*
X116863714Y-112245500D01*
X117076286Y-112245500D01*
X117076287Y-112245500D01*
X117286243Y-112212246D01*
X117488412Y-112146557D01*
X117677816Y-112050051D01*
X117699789Y-112034086D01*
X117849786Y-111925109D01*
X117849788Y-111925106D01*
X117849792Y-111925104D01*
X118000104Y-111774792D01*
X118000106Y-111774788D01*
X118000109Y-111774786D01*
X118125048Y-111602820D01*
X118125047Y-111602820D01*
X118125051Y-111602816D01*
X118129514Y-111594054D01*
X118177488Y-111543259D01*
X118245308Y-111526463D01*
X118311444Y-111548999D01*
X118350486Y-111594056D01*
X118354951Y-111602820D01*
X118479890Y-111774786D01*
X118630213Y-111925109D01*
X118802179Y-112050048D01*
X118802181Y-112050049D01*
X118802184Y-112050051D01*
X118991588Y-112146557D01*
X119193757Y-112212246D01*
X119403713Y-112245500D01*
X119403714Y-112245500D01*
X119616286Y-112245500D01*
X119616287Y-112245500D01*
X119826243Y-112212246D01*
X120028412Y-112146557D01*
X120217816Y-112050051D01*
X120239789Y-112034086D01*
X120389786Y-111925109D01*
X120389788Y-111925106D01*
X120389792Y-111925104D01*
X120540104Y-111774792D01*
X120540106Y-111774788D01*
X120540109Y-111774786D01*
X120665048Y-111602820D01*
X120665047Y-111602820D01*
X120665051Y-111602816D01*
X120669514Y-111594054D01*
X120717488Y-111543259D01*
X120785308Y-111526463D01*
X120851444Y-111548999D01*
X120890486Y-111594056D01*
X120894951Y-111602820D01*
X121019890Y-111774786D01*
X121170213Y-111925109D01*
X121342179Y-112050048D01*
X121342181Y-112050049D01*
X121342184Y-112050051D01*
X121531588Y-112146557D01*
X121733757Y-112212246D01*
X121943713Y-112245500D01*
X121943714Y-112245500D01*
X122156286Y-112245500D01*
X122156287Y-112245500D01*
X122366243Y-112212246D01*
X122568412Y-112146557D01*
X122757816Y-112050051D01*
X122779789Y-112034086D01*
X122929786Y-111925109D01*
X122929788Y-111925106D01*
X122929792Y-111925104D01*
X123080104Y-111774792D01*
X123080106Y-111774788D01*
X123080109Y-111774786D01*
X123205048Y-111602820D01*
X123205047Y-111602820D01*
X123205051Y-111602816D01*
X123209514Y-111594054D01*
X123257488Y-111543259D01*
X123325308Y-111526463D01*
X123391444Y-111548999D01*
X123430486Y-111594056D01*
X123434951Y-111602820D01*
X123559890Y-111774786D01*
X123710213Y-111925109D01*
X123882179Y-112050048D01*
X123882181Y-112050049D01*
X123882184Y-112050051D01*
X124071588Y-112146557D01*
X124273757Y-112212246D01*
X124483713Y-112245500D01*
X124483714Y-112245500D01*
X124696286Y-112245500D01*
X124696287Y-112245500D01*
X124906243Y-112212246D01*
X125108412Y-112146557D01*
X125297816Y-112050051D01*
X125319789Y-112034086D01*
X125469786Y-111925109D01*
X125469788Y-111925106D01*
X125469792Y-111925104D01*
X125620104Y-111774792D01*
X125620106Y-111774788D01*
X125620109Y-111774786D01*
X125745048Y-111602820D01*
X125745047Y-111602820D01*
X125745051Y-111602816D01*
X125749514Y-111594054D01*
X125797488Y-111543259D01*
X125865308Y-111526463D01*
X125931444Y-111548999D01*
X125970486Y-111594056D01*
X125974951Y-111602820D01*
X126099890Y-111774786D01*
X126250213Y-111925109D01*
X126422179Y-112050048D01*
X126422181Y-112050049D01*
X126422184Y-112050051D01*
X126611588Y-112146557D01*
X126813757Y-112212246D01*
X127023713Y-112245500D01*
X127023714Y-112245500D01*
X127236286Y-112245500D01*
X127236287Y-112245500D01*
X127446243Y-112212246D01*
X127648412Y-112146557D01*
X127837816Y-112050051D01*
X127859789Y-112034086D01*
X128009786Y-111925109D01*
X128009788Y-111925106D01*
X128009792Y-111925104D01*
X128160104Y-111774792D01*
X128160106Y-111774788D01*
X128160109Y-111774786D01*
X128285048Y-111602820D01*
X128285047Y-111602820D01*
X128285051Y-111602816D01*
X128381557Y-111413412D01*
X128447246Y-111211243D01*
X128480500Y-111001287D01*
X128480500Y-110788713D01*
X128447246Y-110578757D01*
X128381557Y-110376588D01*
X128285051Y-110187184D01*
X128285049Y-110187181D01*
X128285048Y-110187179D01*
X128160109Y-110015213D01*
X128009786Y-109864890D01*
X127837817Y-109739949D01*
X127778871Y-109709915D01*
X127728074Y-109661941D01*
X127711279Y-109594120D01*
X127733816Y-109527985D01*
X127747478Y-109511755D01*
X136425478Y-100833755D01*
X136486799Y-100800272D01*
X136551473Y-100803506D01*
X136593757Y-100817246D01*
X136803713Y-100850500D01*
X136803714Y-100850500D01*
X137016286Y-100850500D01*
X137016287Y-100850500D01*
X137226243Y-100817246D01*
X137428412Y-100751557D01*
X137617816Y-100655051D01*
X137645762Y-100634747D01*
X137789786Y-100530109D01*
X137789788Y-100530106D01*
X137789792Y-100530104D01*
X137940104Y-100379792D01*
X137940106Y-100379788D01*
X137940109Y-100379786D01*
X138065048Y-100207820D01*
X138065047Y-100207820D01*
X138065051Y-100207816D01*
X138069514Y-100199054D01*
X138117488Y-100148259D01*
X138185308Y-100131463D01*
X138251444Y-100153999D01*
X138290486Y-100199056D01*
X138294951Y-100207820D01*
X138419890Y-100379786D01*
X138570213Y-100530109D01*
X138742179Y-100655048D01*
X138742181Y-100655049D01*
X138742184Y-100655051D01*
X138931588Y-100751557D01*
X139133757Y-100817246D01*
X139343713Y-100850500D01*
X139343714Y-100850500D01*
X139556286Y-100850500D01*
X139556287Y-100850500D01*
X139766243Y-100817246D01*
X139968412Y-100751557D01*
X140157816Y-100655051D01*
X140185762Y-100634747D01*
X140329786Y-100530109D01*
X140329788Y-100530106D01*
X140329792Y-100530104D01*
X140480104Y-100379792D01*
X140480106Y-100379788D01*
X140480109Y-100379786D01*
X140605048Y-100207820D01*
X140605047Y-100207820D01*
X140605051Y-100207816D01*
X140609514Y-100199054D01*
X140657488Y-100148259D01*
X140725308Y-100131463D01*
X140791444Y-100153999D01*
X140830486Y-100199056D01*
X140834951Y-100207820D01*
X140959890Y-100379786D01*
X141110213Y-100530109D01*
X141282179Y-100655048D01*
X141282181Y-100655049D01*
X141282184Y-100655051D01*
X141471588Y-100751557D01*
X141673757Y-100817246D01*
X141883713Y-100850500D01*
X141883714Y-100850500D01*
X142096286Y-100850500D01*
X142096287Y-100850500D01*
X142306243Y-100817246D01*
X142508412Y-100751557D01*
X142697816Y-100655051D01*
X142725762Y-100634747D01*
X142869786Y-100530109D01*
X142869788Y-100530106D01*
X142869792Y-100530104D01*
X143020104Y-100379792D01*
X143020106Y-100379788D01*
X143020109Y-100379786D01*
X143145048Y-100207820D01*
X143145047Y-100207820D01*
X143145051Y-100207816D01*
X143149514Y-100199054D01*
X143197488Y-100148259D01*
X143265308Y-100131463D01*
X143331444Y-100153999D01*
X143370486Y-100199056D01*
X143374951Y-100207820D01*
X143499890Y-100379786D01*
X143650213Y-100530109D01*
X143822179Y-100655048D01*
X143822181Y-100655049D01*
X143822184Y-100655051D01*
X144011588Y-100751557D01*
X144213757Y-100817246D01*
X144423713Y-100850500D01*
X144423714Y-100850500D01*
X144636286Y-100850500D01*
X144636287Y-100850500D01*
X144846243Y-100817246D01*
X145048412Y-100751557D01*
X145237816Y-100655051D01*
X145265762Y-100634747D01*
X145409786Y-100530109D01*
X145409788Y-100530106D01*
X145409792Y-100530104D01*
X145560104Y-100379792D01*
X145560106Y-100379788D01*
X145560109Y-100379786D01*
X145685048Y-100207820D01*
X145685047Y-100207820D01*
X145685051Y-100207816D01*
X145689514Y-100199054D01*
X145737488Y-100148259D01*
X145805308Y-100131463D01*
X145871444Y-100153999D01*
X145910486Y-100199056D01*
X145914951Y-100207820D01*
X146039890Y-100379786D01*
X146190213Y-100530109D01*
X146362179Y-100655048D01*
X146362181Y-100655049D01*
X146362184Y-100655051D01*
X146551588Y-100751557D01*
X146753757Y-100817246D01*
X146963713Y-100850500D01*
X146963714Y-100850500D01*
X147176286Y-100850500D01*
X147176287Y-100850500D01*
X147386243Y-100817246D01*
X147588412Y-100751557D01*
X147777816Y-100655051D01*
X147805762Y-100634747D01*
X147949786Y-100530109D01*
X147949788Y-100530106D01*
X147949792Y-100530104D01*
X148100104Y-100379792D01*
X148100106Y-100379788D01*
X148100109Y-100379786D01*
X148225048Y-100207820D01*
X148225047Y-100207820D01*
X148225051Y-100207816D01*
X148229514Y-100199054D01*
X148277488Y-100148259D01*
X148345308Y-100131463D01*
X148411444Y-100153999D01*
X148450486Y-100199056D01*
X148454951Y-100207820D01*
X148579890Y-100379786D01*
X148730213Y-100530109D01*
X148902179Y-100655048D01*
X148902181Y-100655049D01*
X148902184Y-100655051D01*
X149091588Y-100751557D01*
X149293757Y-100817246D01*
X149503713Y-100850500D01*
X149503714Y-100850500D01*
X149552521Y-100850500D01*
X149619560Y-100870185D01*
X149665315Y-100922989D01*
X149675259Y-100992147D01*
X149646234Y-101055703D01*
X149640202Y-101062181D01*
X143683689Y-107018693D01*
X143683685Y-107018699D01*
X143609436Y-107147301D01*
X143609435Y-107147304D01*
X143571000Y-107290748D01*
X143571000Y-110155389D01*
X143551315Y-110222428D01*
X143498511Y-110268183D01*
X143429353Y-110278127D01*
X143382851Y-110261506D01*
X143374608Y-110256523D01*
X143374607Y-110256522D01*
X143374606Y-110256522D01*
X143212196Y-110205914D01*
X143212194Y-110205913D01*
X143212192Y-110205913D01*
X143162778Y-110201423D01*
X143141616Y-110199500D01*
X142628384Y-110199500D01*
X142609145Y-110201248D01*
X142557807Y-110205913D01*
X142395393Y-110256522D01*
X142249811Y-110344530D01*
X142129530Y-110464811D01*
X142041522Y-110610393D01*
X141990913Y-110772807D01*
X141984500Y-110843386D01*
X141984500Y-111856613D01*
X141990913Y-111927192D01*
X141990913Y-111927194D01*
X141990914Y-111927196D01*
X142029196Y-112050051D01*
X142041522Y-112089606D01*
X142129530Y-112235188D01*
X142249811Y-112355469D01*
X142249813Y-112355470D01*
X142249815Y-112355472D01*
X142395394Y-112443478D01*
X142557804Y-112494086D01*
X142628384Y-112500500D01*
X142628387Y-112500500D01*
X143141613Y-112500500D01*
X143141616Y-112500500D01*
X143212196Y-112494086D01*
X143374606Y-112443478D01*
X143518125Y-112356717D01*
X143585676Y-112338882D01*
X143651162Y-112359733D01*
X143708450Y-112398011D01*
X143708457Y-112398015D01*
X143817707Y-112443267D01*
X143872334Y-112465894D01*
X143872336Y-112465894D01*
X143872341Y-112465896D01*
X144046304Y-112500499D01*
X144046307Y-112500500D01*
X144046309Y-112500500D01*
X144223693Y-112500500D01*
X144223694Y-112500499D01*
X144281682Y-112488964D01*
X144397658Y-112465896D01*
X144397661Y-112465894D01*
X144397666Y-112465894D01*
X144561547Y-112398013D01*
X144691109Y-112311442D01*
X144757786Y-112290564D01*
X144825166Y-112309048D01*
X144828891Y-112311442D01*
X144958446Y-112398008D01*
X144958453Y-112398013D01*
X144958455Y-112398014D01*
X144958459Y-112398016D01*
X145068214Y-112443477D01*
X145122334Y-112465894D01*
X145122336Y-112465894D01*
X145122341Y-112465896D01*
X145296304Y-112500499D01*
X145296307Y-112500500D01*
X145296309Y-112500500D01*
X145473693Y-112500500D01*
X145473694Y-112500499D01*
X145531682Y-112488964D01*
X145647658Y-112465896D01*
X145647661Y-112465894D01*
X145647666Y-112465894D01*
X145811547Y-112398013D01*
X145811552Y-112398009D01*
X145811555Y-112398008D01*
X145900042Y-112338882D01*
X145941558Y-112311141D01*
X146008234Y-112290263D01*
X146075615Y-112308747D01*
X146079340Y-112311141D01*
X146208683Y-112397566D01*
X146208693Y-112397571D01*
X146372476Y-112465412D01*
X146372483Y-112465415D01*
X146385000Y-112467904D01*
X146385000Y-112467903D01*
X146885000Y-112467903D01*
X146897516Y-112465415D01*
X146897523Y-112465412D01*
X147061306Y-112397571D01*
X147061316Y-112397566D01*
X147191109Y-112310841D01*
X147257786Y-112289963D01*
X147325166Y-112308447D01*
X147328891Y-112310841D01*
X147458683Y-112397566D01*
X147458693Y-112397571D01*
X147622476Y-112465412D01*
X147622483Y-112465415D01*
X147635000Y-112467904D01*
X147635000Y-111600000D01*
X146885000Y-111600000D01*
X146885000Y-112467903D01*
X146385000Y-112467903D01*
X146385000Y-111399728D01*
X146423060Y-111491614D01*
X146493386Y-111561940D01*
X146585272Y-111600000D01*
X146684728Y-111600000D01*
X146776614Y-111561940D01*
X146846940Y-111491614D01*
X146885000Y-111399728D01*
X146885000Y-111300272D01*
X147635000Y-111300272D01*
X147635000Y-111399728D01*
X147673060Y-111491614D01*
X147743386Y-111561940D01*
X147835272Y-111600000D01*
X147934728Y-111600000D01*
X148026614Y-111561940D01*
X148096940Y-111491614D01*
X148135000Y-111399728D01*
X148135000Y-112467903D01*
X148147516Y-112465415D01*
X148147523Y-112465412D01*
X148311306Y-112397571D01*
X148311315Y-112397566D01*
X148440659Y-112311141D01*
X148507336Y-112290263D01*
X148574716Y-112308747D01*
X148578441Y-112311141D01*
X148707791Y-112397571D01*
X148708453Y-112398013D01*
X148708455Y-112398014D01*
X148708459Y-112398016D01*
X148818214Y-112443477D01*
X148872334Y-112465894D01*
X148872336Y-112465894D01*
X148872341Y-112465896D01*
X149046304Y-112500499D01*
X149046307Y-112500500D01*
X149046309Y-112500500D01*
X149223693Y-112500500D01*
X149223694Y-112500499D01*
X149281682Y-112488964D01*
X149397658Y-112465896D01*
X149397661Y-112465894D01*
X149397666Y-112465894D01*
X149561547Y-112398013D01*
X149562209Y-112397571D01*
X149563534Y-112396685D01*
X149709035Y-112299464D01*
X149834464Y-112174035D01*
X149933013Y-112026547D01*
X150000894Y-111862666D01*
X150002098Y-111856616D01*
X150035499Y-111688695D01*
X150035500Y-111688693D01*
X150035500Y-111011306D01*
X150035499Y-111011304D01*
X150000896Y-110837341D01*
X150000893Y-110837332D01*
X149933016Y-110673459D01*
X149933009Y-110673446D01*
X149834464Y-110525965D01*
X149834461Y-110525961D01*
X149709038Y-110400538D01*
X149709034Y-110400535D01*
X149561553Y-110301990D01*
X149561540Y-110301983D01*
X149397667Y-110234106D01*
X149397658Y-110234103D01*
X149223694Y-110199500D01*
X149223691Y-110199500D01*
X149046309Y-110199500D01*
X149046306Y-110199500D01*
X148872341Y-110234103D01*
X148872332Y-110234106D01*
X148708459Y-110301983D01*
X148708446Y-110301990D01*
X148578441Y-110388858D01*
X148511764Y-110409736D01*
X148444383Y-110391252D01*
X148440659Y-110388858D01*
X148311316Y-110302433D01*
X148311307Y-110302428D01*
X148147519Y-110234585D01*
X148135000Y-110232094D01*
X148135000Y-111300272D01*
X148096940Y-111208386D01*
X148026614Y-111138060D01*
X147934728Y-111100000D01*
X147835272Y-111100000D01*
X147743386Y-111138060D01*
X147673060Y-111208386D01*
X147635000Y-111300272D01*
X146885000Y-111300272D01*
X146846940Y-111208386D01*
X146776614Y-111138060D01*
X146684728Y-111100000D01*
X146585272Y-111100000D01*
X146493386Y-111138060D01*
X146423060Y-111208386D01*
X146385000Y-111300272D01*
X146385000Y-110232095D01*
X146384999Y-110232094D01*
X146885000Y-110232094D01*
X146885000Y-111100000D01*
X147635000Y-111100000D01*
X147635000Y-110232095D01*
X147634999Y-110232094D01*
X147622480Y-110234585D01*
X147458692Y-110302428D01*
X147458683Y-110302433D01*
X147328891Y-110389158D01*
X147262213Y-110410036D01*
X147194833Y-110391551D01*
X147191109Y-110389158D01*
X147061316Y-110302433D01*
X147061307Y-110302428D01*
X146897519Y-110234585D01*
X146885000Y-110232094D01*
X146384999Y-110232094D01*
X146372480Y-110234585D01*
X146208692Y-110302428D01*
X146208683Y-110302433D01*
X146079340Y-110388858D01*
X146012662Y-110409736D01*
X145945282Y-110391251D01*
X145941558Y-110388858D01*
X145811552Y-110301990D01*
X145811540Y-110301983D01*
X145647667Y-110234106D01*
X145647658Y-110234103D01*
X145473694Y-110199500D01*
X145473691Y-110199500D01*
X145296309Y-110199500D01*
X145296306Y-110199500D01*
X145122341Y-110234103D01*
X145122332Y-110234106D01*
X144958459Y-110301983D01*
X144958446Y-110301990D01*
X144891891Y-110346462D01*
X144825214Y-110367340D01*
X144757834Y-110348856D01*
X144711143Y-110296877D01*
X144699000Y-110243360D01*
X144699000Y-107649978D01*
X144718685Y-107582939D01*
X144735319Y-107562297D01*
X145664107Y-106633509D01*
X146606896Y-105690719D01*
X146668217Y-105657236D01*
X146737909Y-105662220D01*
X146763465Y-105675299D01*
X146814488Y-105709391D01*
X146814499Y-105709397D01*
X146960170Y-105769735D01*
X146960175Y-105769737D01*
X147114825Y-105800499D01*
X147114828Y-105800500D01*
X147114830Y-105800500D01*
X147272516Y-105800500D01*
X147272517Y-105800499D01*
X147427169Y-105769737D01*
X147502635Y-105738478D01*
X147571536Y-105709939D01*
X147618988Y-105700500D01*
X151108940Y-105700500D01*
X151199984Y-105682389D01*
X151244272Y-105673580D01*
X151346389Y-105631282D01*
X151371751Y-105620777D01*
X151371752Y-105620776D01*
X151371755Y-105620775D01*
X151486487Y-105544114D01*
X156362369Y-100668230D01*
X156423690Y-100634747D01*
X156493382Y-100639731D01*
X156517816Y-100652850D01*
X156518028Y-100652505D01*
X156522175Y-100655046D01*
X156522182Y-100655049D01*
X156522184Y-100655051D01*
X156711588Y-100751557D01*
X156913757Y-100817246D01*
X157123713Y-100850500D01*
X157123714Y-100850500D01*
X157336286Y-100850500D01*
X157336287Y-100850500D01*
X157492771Y-100825715D01*
X157562064Y-100834670D01*
X157599850Y-100860507D01*
X162411453Y-105672111D01*
X162411454Y-105672112D01*
X162526192Y-105748777D01*
X162653667Y-105801578D01*
X162653672Y-105801580D01*
X162653676Y-105801580D01*
X162653677Y-105801581D01*
X162789003Y-105828500D01*
X162789006Y-105828500D01*
X179250996Y-105828500D01*
X179367048Y-105805415D01*
X179386328Y-105801580D01*
X179474189Y-105765187D01*
X179513807Y-105748777D01*
X179513808Y-105748776D01*
X179513811Y-105748775D01*
X179628543Y-105672114D01*
X179983851Y-105316804D01*
X180045174Y-105283320D01*
X180090930Y-105282013D01*
X180207648Y-105300500D01*
X180207649Y-105300500D01*
X180412351Y-105300500D01*
X180412352Y-105300500D01*
X180614534Y-105268477D01*
X180809219Y-105205220D01*
X180991610Y-105112287D01*
X181084590Y-105044732D01*
X181157213Y-104991971D01*
X181157215Y-104991968D01*
X181157219Y-104991966D01*
X181301966Y-104847219D01*
X181301968Y-104847215D01*
X181301971Y-104847213D01*
X181358259Y-104769738D01*
X181422287Y-104681610D01*
X181515220Y-104499219D01*
X181578477Y-104304534D01*
X181610500Y-104102352D01*
X181610500Y-103897648D01*
X181592013Y-103780929D01*
X181600967Y-103711636D01*
X181626802Y-103673853D01*
X187483838Y-97816819D01*
X187545161Y-97783334D01*
X187571519Y-97780500D01*
X190714031Y-97780500D01*
X190777151Y-97797767D01*
X190834602Y-97831744D01*
X190862303Y-97839792D01*
X190992426Y-97877597D01*
X190992429Y-97877597D01*
X190992431Y-97877598D01*
X191024002Y-97880082D01*
X191089290Y-97904964D01*
X191130762Y-97961194D01*
X191135251Y-98030920D01*
X191101330Y-98092003D01*
X191076360Y-98110386D01*
X191076387Y-98110426D01*
X191075510Y-98111011D01*
X191072735Y-98113055D01*
X191071321Y-98113810D01*
X190907537Y-98223248D01*
X190907533Y-98223251D01*
X190768251Y-98362533D01*
X190768248Y-98362537D01*
X190658814Y-98526315D01*
X190658807Y-98526328D01*
X190583430Y-98708307D01*
X190583430Y-98708309D01*
X190575138Y-98750000D01*
X191378012Y-98750000D01*
X191360795Y-98759940D01*
X191304940Y-98815795D01*
X191265444Y-98884204D01*
X191245000Y-98960504D01*
X191245000Y-99039496D01*
X191265444Y-99115796D01*
X191304940Y-99184205D01*
X191360795Y-99240060D01*
X191378012Y-99250000D01*
X190575138Y-99250000D01*
X190583430Y-99291690D01*
X190583430Y-99291692D01*
X190658807Y-99473671D01*
X190658814Y-99473684D01*
X190768248Y-99637462D01*
X190768251Y-99637466D01*
X190907533Y-99776748D01*
X190907537Y-99776751D01*
X191071315Y-99886185D01*
X191071328Y-99886192D01*
X191253306Y-99961569D01*
X191253318Y-99961572D01*
X191446504Y-99999999D01*
X191446508Y-100000000D01*
X191845000Y-100000000D01*
X191845000Y-99300000D01*
X192345000Y-99300000D01*
X192345000Y-100000000D01*
X192743492Y-100000000D01*
X192743495Y-99999999D01*
X192936681Y-99961572D01*
X192936693Y-99961569D01*
X193118671Y-99886192D01*
X193118684Y-99886185D01*
X193282462Y-99776751D01*
X193282466Y-99776748D01*
X193421748Y-99637466D01*
X193421751Y-99637462D01*
X193531185Y-99473684D01*
X193531192Y-99473671D01*
X193606569Y-99291692D01*
X193606569Y-99291690D01*
X193614862Y-99250000D01*
X192811988Y-99250000D01*
X192829205Y-99240060D01*
X192885060Y-99184205D01*
X192924556Y-99115796D01*
X192945000Y-99039496D01*
X192945000Y-98960504D01*
X192924556Y-98884204D01*
X192885060Y-98815795D01*
X192829205Y-98759940D01*
X192811988Y-98750000D01*
X193614862Y-98750000D01*
X194905138Y-98750000D01*
X195708012Y-98750000D01*
X195690795Y-98759940D01*
X195634940Y-98815795D01*
X195595444Y-98884204D01*
X195575000Y-98960504D01*
X195575000Y-99039496D01*
X195595444Y-99115796D01*
X195634940Y-99184205D01*
X195690795Y-99240060D01*
X195708012Y-99250000D01*
X194905138Y-99250000D01*
X194913430Y-99291690D01*
X194913430Y-99291692D01*
X194988807Y-99473671D01*
X194988814Y-99473684D01*
X195098248Y-99637462D01*
X195098251Y-99637466D01*
X195237533Y-99776748D01*
X195237537Y-99776751D01*
X195401315Y-99886185D01*
X195401328Y-99886192D01*
X195583306Y-99961569D01*
X195583318Y-99961572D01*
X195776504Y-99999999D01*
X195776508Y-100000000D01*
X196025000Y-100000000D01*
X196025000Y-99300000D01*
X196525000Y-99300000D01*
X196525000Y-100000000D01*
X196773492Y-100000000D01*
X196773495Y-99999999D01*
X196966681Y-99961572D01*
X196966693Y-99961569D01*
X197148671Y-99886192D01*
X197148684Y-99886185D01*
X197312462Y-99776751D01*
X197312466Y-99776748D01*
X197451748Y-99637466D01*
X197451751Y-99637462D01*
X197561185Y-99473684D01*
X197561192Y-99473671D01*
X197636569Y-99291692D01*
X197636569Y-99291690D01*
X197644862Y-99250000D01*
X196841988Y-99250000D01*
X196859205Y-99240060D01*
X196915060Y-99184205D01*
X196954556Y-99115796D01*
X196975000Y-99039496D01*
X196975000Y-98960504D01*
X196954556Y-98884204D01*
X196915060Y-98815795D01*
X196859205Y-98759940D01*
X196841988Y-98750000D01*
X197644862Y-98750000D01*
X197636569Y-98708309D01*
X197636569Y-98708307D01*
X197561192Y-98526328D01*
X197561185Y-98526315D01*
X197451751Y-98362537D01*
X197451748Y-98362533D01*
X197312466Y-98223251D01*
X197312462Y-98223248D01*
X197148684Y-98113814D01*
X197148671Y-98113807D01*
X196966693Y-98038430D01*
X196966681Y-98038427D01*
X196773495Y-98000000D01*
X196525000Y-98000000D01*
X196525000Y-98700000D01*
X196025000Y-98700000D01*
X196025000Y-98000000D01*
X195776504Y-98000000D01*
X195583318Y-98038427D01*
X195583306Y-98038430D01*
X195401328Y-98113807D01*
X195401315Y-98113814D01*
X195237537Y-98223248D01*
X195237533Y-98223251D01*
X195098251Y-98362533D01*
X195098248Y-98362537D01*
X194988814Y-98526315D01*
X194988807Y-98526328D01*
X194913430Y-98708307D01*
X194913430Y-98708309D01*
X194905138Y-98750000D01*
X193614862Y-98750000D01*
X193606569Y-98708309D01*
X193606569Y-98708307D01*
X193531192Y-98526328D01*
X193531185Y-98526315D01*
X193421751Y-98362537D01*
X193421748Y-98362533D01*
X193282466Y-98223251D01*
X193282462Y-98223248D01*
X193118684Y-98113814D01*
X193118672Y-98113807D01*
X193060802Y-98089838D01*
X193006398Y-98045998D01*
X192984333Y-97979704D01*
X193001612Y-97912004D01*
X193011233Y-97899627D01*
X193010559Y-97899110D01*
X193015500Y-97892669D01*
X193015505Y-97892665D01*
X193084688Y-97772836D01*
X193120500Y-97639183D01*
X193120500Y-97500817D01*
X193084688Y-97367164D01*
X193015505Y-97247335D01*
X193015502Y-97247332D01*
X193013192Y-97244321D01*
X193012029Y-97241315D01*
X193011442Y-97240297D01*
X193011600Y-97240205D01*
X192987995Y-97179152D01*
X193002031Y-97110707D01*
X193008463Y-97099940D01*
X193030949Y-97066287D01*
X193043775Y-97047092D01*
X193096580Y-96919609D01*
X193123500Y-96784275D01*
X193123500Y-96646287D01*
X193123500Y-92616999D01*
X193123500Y-92616996D01*
X193096581Y-92481669D01*
X193096580Y-92481668D01*
X193096580Y-92481664D01*
X193096578Y-92481659D01*
X193043778Y-92354187D01*
X193043771Y-92354174D01*
X192992251Y-92277069D01*
X192971373Y-92210391D01*
X192989858Y-92143011D01*
X193007671Y-92120498D01*
X193015505Y-92112665D01*
X193084688Y-91992836D01*
X193120500Y-91859183D01*
X193120500Y-91720817D01*
X193084688Y-91587164D01*
X193024204Y-91482402D01*
X193015507Y-91467338D01*
X193010559Y-91460890D01*
X193013185Y-91458874D01*
X192987088Y-91411080D01*
X192992072Y-91341388D01*
X193033944Y-91285455D01*
X193060804Y-91270160D01*
X193118674Y-91246190D01*
X193118684Y-91246185D01*
X193282462Y-91136751D01*
X193282466Y-91136748D01*
X193421748Y-90997466D01*
X193421751Y-90997462D01*
X193531185Y-90833684D01*
X193531192Y-90833671D01*
X193606569Y-90651692D01*
X193606569Y-90651690D01*
X193614862Y-90610000D01*
X192811988Y-90610000D01*
X192829205Y-90600060D01*
X192885060Y-90544205D01*
X192924556Y-90475796D01*
X192945000Y-90399496D01*
X192945000Y-90320504D01*
X192924556Y-90244204D01*
X192885060Y-90175795D01*
X192829205Y-90119940D01*
X192811988Y-90110000D01*
X193614862Y-90110000D01*
X194905138Y-90110000D01*
X195708012Y-90110000D01*
X195690795Y-90119940D01*
X195634940Y-90175795D01*
X195595444Y-90244204D01*
X195575000Y-90320504D01*
X195575000Y-90399496D01*
X195595444Y-90475796D01*
X195634940Y-90544205D01*
X195690795Y-90600060D01*
X195708012Y-90610000D01*
X194905138Y-90610000D01*
X194913430Y-90651690D01*
X194913430Y-90651692D01*
X194988807Y-90833671D01*
X194988814Y-90833684D01*
X195098248Y-90997462D01*
X195098251Y-90997466D01*
X195237533Y-91136748D01*
X195237537Y-91136751D01*
X195401315Y-91246185D01*
X195401328Y-91246192D01*
X195583306Y-91321569D01*
X195583318Y-91321572D01*
X195776504Y-91359999D01*
X195776508Y-91360000D01*
X196025000Y-91360000D01*
X196025000Y-90660000D01*
X196525000Y-90660000D01*
X196525000Y-91360000D01*
X196773492Y-91360000D01*
X196773495Y-91359999D01*
X196966681Y-91321572D01*
X196966693Y-91321569D01*
X197148671Y-91246192D01*
X197148684Y-91246185D01*
X197312462Y-91136751D01*
X197312466Y-91136748D01*
X197451748Y-90997466D01*
X197451751Y-90997462D01*
X197561185Y-90833684D01*
X197561192Y-90833671D01*
X197636569Y-90651692D01*
X197636569Y-90651690D01*
X197644862Y-90610000D01*
X196841988Y-90610000D01*
X196859205Y-90600060D01*
X196915060Y-90544205D01*
X196954556Y-90475796D01*
X196975000Y-90399496D01*
X196975000Y-90320504D01*
X196954556Y-90244204D01*
X196915060Y-90175795D01*
X196859205Y-90119940D01*
X196841988Y-90110000D01*
X197644862Y-90110000D01*
X197636569Y-90068309D01*
X197636569Y-90068307D01*
X197561192Y-89886328D01*
X197561185Y-89886315D01*
X197451751Y-89722537D01*
X197451748Y-89722533D01*
X197312466Y-89583251D01*
X197312462Y-89583248D01*
X197148684Y-89473814D01*
X197148671Y-89473807D01*
X196966693Y-89398430D01*
X196966681Y-89398427D01*
X196773495Y-89360000D01*
X196525000Y-89360000D01*
X196525000Y-90060000D01*
X196025000Y-90060000D01*
X196025000Y-89360000D01*
X195776504Y-89360000D01*
X195583318Y-89398427D01*
X195583306Y-89398430D01*
X195401328Y-89473807D01*
X195401315Y-89473814D01*
X195237537Y-89583248D01*
X195237533Y-89583251D01*
X195098251Y-89722533D01*
X195098248Y-89722537D01*
X194988814Y-89886315D01*
X194988807Y-89886328D01*
X194913430Y-90068307D01*
X194913430Y-90068309D01*
X194905138Y-90110000D01*
X193614862Y-90110000D01*
X193606569Y-90068309D01*
X193606569Y-90068307D01*
X193531192Y-89886328D01*
X193531185Y-89886315D01*
X193421751Y-89722537D01*
X193421748Y-89722533D01*
X193282466Y-89583251D01*
X193282462Y-89583248D01*
X193118684Y-89473814D01*
X193118671Y-89473807D01*
X192936693Y-89398430D01*
X192936681Y-89398427D01*
X192743495Y-89360000D01*
X192345000Y-89360000D01*
X192345000Y-90060000D01*
X191845000Y-90060000D01*
X191845000Y-89360000D01*
X191446504Y-89360000D01*
X191253318Y-89398427D01*
X191253306Y-89398430D01*
X191071328Y-89473807D01*
X191071315Y-89473814D01*
X190907537Y-89583248D01*
X190907533Y-89583251D01*
X190768251Y-89722533D01*
X190768248Y-89722537D01*
X190658814Y-89886315D01*
X190658807Y-89886328D01*
X190583430Y-90068307D01*
X190583430Y-90068309D01*
X190575138Y-90110000D01*
X191378012Y-90110000D01*
X191360795Y-90119940D01*
X191304940Y-90175795D01*
X191265444Y-90244204D01*
X191245000Y-90320504D01*
X191245000Y-90399496D01*
X191265444Y-90475796D01*
X191304940Y-90544205D01*
X191360795Y-90600060D01*
X191378012Y-90610000D01*
X190575138Y-90610000D01*
X190583430Y-90651690D01*
X190583430Y-90651692D01*
X190658807Y-90833671D01*
X190658814Y-90833684D01*
X190768248Y-90997462D01*
X190768251Y-90997466D01*
X190907533Y-91136748D01*
X190907537Y-91136751D01*
X191071318Y-91246187D01*
X191072723Y-91246938D01*
X191073320Y-91247525D01*
X191076387Y-91249574D01*
X191075998Y-91250155D01*
X191122569Y-91295898D01*
X191138033Y-91364034D01*
X191114205Y-91429715D01*
X191058650Y-91472087D01*
X191024004Y-91479917D01*
X190992432Y-91482401D01*
X190992426Y-91482402D01*
X190834606Y-91528254D01*
X190834603Y-91528255D01*
X190693140Y-91611915D01*
X190693134Y-91611919D01*
X190672325Y-91632729D01*
X190611001Y-91666213D01*
X190541309Y-91661227D01*
X190496964Y-91632727D01*
X186996819Y-88132582D01*
X186963334Y-88071259D01*
X186960500Y-88044901D01*
X186960500Y-81619601D01*
X186980185Y-81552562D01*
X187028206Y-81509116D01*
X187041610Y-81502287D01*
X187207219Y-81381966D01*
X187351966Y-81237219D01*
X187351968Y-81237215D01*
X187351971Y-81237213D01*
X187404732Y-81164590D01*
X187472287Y-81071610D01*
X187565220Y-80889219D01*
X187628477Y-80694534D01*
X187660500Y-80492352D01*
X187660500Y-80287682D01*
X192680000Y-80287682D01*
X192680000Y-80492317D01*
X192712009Y-80694417D01*
X192775244Y-80889031D01*
X192868141Y-81071350D01*
X192868147Y-81071359D01*
X192900523Y-81115921D01*
X192900524Y-81115922D01*
X193580000Y-80436446D01*
X193580000Y-80442661D01*
X193607259Y-80544394D01*
X193659920Y-80635606D01*
X193734394Y-80710080D01*
X193825606Y-80762741D01*
X193927339Y-80790000D01*
X193933553Y-80790000D01*
X193254076Y-81469474D01*
X193298650Y-81501859D01*
X193480968Y-81594755D01*
X193675582Y-81657990D01*
X193877683Y-81690000D01*
X194082317Y-81690000D01*
X194284417Y-81657990D01*
X194479031Y-81594755D01*
X194661349Y-81501859D01*
X194705921Y-81469474D01*
X194026447Y-80790000D01*
X194032661Y-80790000D01*
X194134394Y-80762741D01*
X194225606Y-80710080D01*
X194300080Y-80635606D01*
X194352741Y-80544394D01*
X194380000Y-80442661D01*
X194380000Y-80436447D01*
X195059474Y-81115921D01*
X195091859Y-81071349D01*
X195184755Y-80889031D01*
X195247990Y-80694417D01*
X195280000Y-80492317D01*
X195280000Y-80287682D01*
X195247990Y-80085582D01*
X195184755Y-79890968D01*
X195091859Y-79708650D01*
X195059474Y-79664077D01*
X195059474Y-79664076D01*
X194380000Y-80343551D01*
X194380000Y-80337339D01*
X194352741Y-80235606D01*
X194300080Y-80144394D01*
X194225606Y-80069920D01*
X194134394Y-80017259D01*
X194032661Y-79990000D01*
X194026446Y-79990000D01*
X194705922Y-79310524D01*
X194705921Y-79310523D01*
X194661359Y-79278147D01*
X194661350Y-79278141D01*
X194479031Y-79185244D01*
X194284417Y-79122009D01*
X194082317Y-79090000D01*
X193877683Y-79090000D01*
X193675582Y-79122009D01*
X193480968Y-79185244D01*
X193298644Y-79278143D01*
X193254077Y-79310523D01*
X193254077Y-79310524D01*
X193933554Y-79990000D01*
X193927339Y-79990000D01*
X193825606Y-80017259D01*
X193734394Y-80069920D01*
X193659920Y-80144394D01*
X193607259Y-80235606D01*
X193580000Y-80337339D01*
X193580000Y-80343553D01*
X192900524Y-79664077D01*
X192900523Y-79664077D01*
X192868143Y-79708644D01*
X192775244Y-79890968D01*
X192712009Y-80085582D01*
X192680000Y-80287682D01*
X187660500Y-80287682D01*
X187660500Y-80287648D01*
X187643437Y-80179920D01*
X187628477Y-80085465D01*
X187597458Y-79990000D01*
X187565220Y-79890781D01*
X187565218Y-79890778D01*
X187565218Y-79890776D01*
X187505756Y-79774077D01*
X187472287Y-79708390D01*
X187440092Y-79664077D01*
X187351971Y-79542786D01*
X187207213Y-79398028D01*
X187041613Y-79277715D01*
X187041612Y-79277714D01*
X187041610Y-79277713D01*
X186984653Y-79248691D01*
X186859223Y-79184781D01*
X186664534Y-79121522D01*
X186489995Y-79093878D01*
X186462352Y-79089500D01*
X186257648Y-79089500D01*
X186233329Y-79093351D01*
X186055465Y-79121522D01*
X185860776Y-79184781D01*
X185678386Y-79277715D01*
X185512786Y-79398028D01*
X185368028Y-79542786D01*
X185247715Y-79708386D01*
X185154781Y-79890776D01*
X185091522Y-80085465D01*
X185059500Y-80287648D01*
X185059500Y-80492351D01*
X185091522Y-80694534D01*
X185154781Y-80889223D01*
X185183121Y-80944842D01*
X185247585Y-81071359D01*
X185247715Y-81071613D01*
X185368028Y-81237213D01*
X185368034Y-81237219D01*
X185512781Y-81381966D01*
X185678390Y-81502287D01*
X185691793Y-81509116D01*
X185742589Y-81557088D01*
X185759500Y-81619601D01*
X185759500Y-88258329D01*
X185759499Y-88258347D01*
X185759499Y-88424053D01*
X185759498Y-88424053D01*
X185800423Y-88576784D01*
X185829358Y-88626899D01*
X185829359Y-88626903D01*
X185829360Y-88626903D01*
X185879479Y-88713713D01*
X185879481Y-88713716D01*
X185998349Y-88832584D01*
X185998354Y-88832588D01*
X190408182Y-93242417D01*
X190441666Y-93303738D01*
X190444500Y-93330096D01*
X190444500Y-93542727D01*
X190452318Y-93602103D01*
X190457677Y-93642812D01*
X190460374Y-93663292D01*
X190457399Y-93663683D01*
X190457399Y-93696316D01*
X190460374Y-93696708D01*
X190444500Y-93817272D01*
X190444500Y-94042727D01*
X190460374Y-94163292D01*
X190457399Y-94163683D01*
X190457399Y-94196316D01*
X190460374Y-94196708D01*
X190444500Y-94317272D01*
X190444500Y-94542727D01*
X190460374Y-94663292D01*
X190457399Y-94663683D01*
X190457399Y-94696316D01*
X190460374Y-94696708D01*
X190444500Y-94817272D01*
X190444500Y-95042727D01*
X190460085Y-95161100D01*
X190460145Y-95161228D01*
X190460132Y-95161457D01*
X190460374Y-95163292D01*
X190460030Y-95163337D01*
X190459263Y-95177500D01*
X190460469Y-95196521D01*
X190459383Y-95204592D01*
X190459313Y-95204764D01*
X190457044Y-95221994D01*
X190457041Y-95222021D01*
X190442849Y-95253865D01*
X190428817Y-95285584D01*
X190428671Y-95285680D01*
X190428600Y-95285840D01*
X190399494Y-95304924D01*
X190370491Y-95324054D01*
X190370268Y-95324087D01*
X190370170Y-95324152D01*
X190369815Y-95324155D01*
X190334146Y-95329500D01*
X188420097Y-95329500D01*
X188353058Y-95309815D01*
X188332416Y-95293181D01*
X173984077Y-80944842D01*
X173950592Y-80883519D01*
X173953828Y-80818841D01*
X173958477Y-80804534D01*
X173990500Y-80602352D01*
X173990500Y-80397682D01*
X179010000Y-80397682D01*
X179010000Y-80602317D01*
X179042009Y-80804417D01*
X179105244Y-80999031D01*
X179198141Y-81181350D01*
X179198147Y-81181359D01*
X179230523Y-81225921D01*
X179230524Y-81225922D01*
X179910000Y-80546446D01*
X179910000Y-80552661D01*
X179937259Y-80654394D01*
X179989920Y-80745606D01*
X180064394Y-80820080D01*
X180155606Y-80872741D01*
X180257339Y-80900000D01*
X180263553Y-80900000D01*
X179584076Y-81579474D01*
X179628650Y-81611859D01*
X179810968Y-81704755D01*
X180005582Y-81767990D01*
X180207683Y-81800000D01*
X180412317Y-81800000D01*
X180614417Y-81767990D01*
X180809031Y-81704755D01*
X180991349Y-81611859D01*
X181035921Y-81579474D01*
X180356447Y-80900000D01*
X180362661Y-80900000D01*
X180464394Y-80872741D01*
X180555606Y-80820080D01*
X180630080Y-80745606D01*
X180682741Y-80654394D01*
X180710000Y-80552661D01*
X180710000Y-80546447D01*
X181389474Y-81225921D01*
X181421859Y-81181349D01*
X181514755Y-80999031D01*
X181577990Y-80804417D01*
X181610000Y-80602317D01*
X181610000Y-80397682D01*
X181577990Y-80195582D01*
X181514755Y-80000968D01*
X181421859Y-79818650D01*
X181389474Y-79774077D01*
X181389474Y-79774076D01*
X180710000Y-80453551D01*
X180710000Y-80447339D01*
X180682741Y-80345606D01*
X180630080Y-80254394D01*
X180555606Y-80179920D01*
X180464394Y-80127259D01*
X180362661Y-80100000D01*
X180356446Y-80100000D01*
X181035922Y-79420524D01*
X181035921Y-79420523D01*
X180991359Y-79388147D01*
X180991350Y-79388141D01*
X180809031Y-79295244D01*
X180614417Y-79232009D01*
X180412317Y-79200000D01*
X180207683Y-79200000D01*
X180005582Y-79232009D01*
X179810968Y-79295244D01*
X179628644Y-79388143D01*
X179584077Y-79420523D01*
X179584077Y-79420524D01*
X180263554Y-80100000D01*
X180257339Y-80100000D01*
X180155606Y-80127259D01*
X180064394Y-80179920D01*
X179989920Y-80254394D01*
X179937259Y-80345606D01*
X179910000Y-80447339D01*
X179910000Y-80453553D01*
X179230524Y-79774077D01*
X179230523Y-79774077D01*
X179198143Y-79818644D01*
X179105244Y-80000968D01*
X179042009Y-80195582D01*
X179010000Y-80397682D01*
X173990500Y-80397682D01*
X173990500Y-80397648D01*
X173989289Y-80390000D01*
X173958477Y-80195465D01*
X173927458Y-80100000D01*
X173895220Y-80000781D01*
X173895218Y-80000778D01*
X173895218Y-80000776D01*
X173839172Y-79890781D01*
X173802287Y-79818390D01*
X173770092Y-79774077D01*
X173681971Y-79652786D01*
X173537213Y-79508028D01*
X173371613Y-79387715D01*
X173371612Y-79387714D01*
X173371610Y-79387713D01*
X173314653Y-79358691D01*
X173189223Y-79294781D01*
X172994534Y-79231522D01*
X172819995Y-79203878D01*
X172792352Y-79199500D01*
X172587648Y-79199500D01*
X172563329Y-79203351D01*
X172385465Y-79231522D01*
X172190776Y-79294781D01*
X172008386Y-79387715D01*
X171842786Y-79508028D01*
X171698028Y-79652786D01*
X171577715Y-79818386D01*
X171484781Y-80000776D01*
X171421522Y-80195465D01*
X171389500Y-80397648D01*
X171389500Y-80602351D01*
X171421522Y-80804534D01*
X171484781Y-80999223D01*
X171544243Y-81115921D01*
X171577585Y-81181359D01*
X171577715Y-81181613D01*
X171698028Y-81347213D01*
X171842786Y-81491971D01*
X171932414Y-81557088D01*
X172008390Y-81612287D01*
X172098087Y-81657990D01*
X172190776Y-81705218D01*
X172190778Y-81705218D01*
X172190781Y-81705220D01*
X172295137Y-81739127D01*
X172385465Y-81768477D01*
X172486557Y-81784488D01*
X172587648Y-81800500D01*
X172587649Y-81800500D01*
X172792351Y-81800500D01*
X172792352Y-81800500D01*
X172994534Y-81768477D01*
X173008842Y-81763827D01*
X173078682Y-81761831D01*
X173134842Y-81794077D01*
X187508584Y-96167819D01*
X187542069Y-96229142D01*
X187537085Y-96298834D01*
X187495213Y-96354767D01*
X187429749Y-96379184D01*
X187420903Y-96379500D01*
X187161004Y-96379500D01*
X187025677Y-96406418D01*
X187025667Y-96406421D01*
X186898192Y-96459222D01*
X186783454Y-96535887D01*
X180636147Y-102683194D01*
X180574824Y-102716679D01*
X180529068Y-102717986D01*
X180452892Y-102705921D01*
X180412352Y-102699500D01*
X180207648Y-102699500D01*
X180183329Y-102703351D01*
X180005465Y-102731522D01*
X179810776Y-102794781D01*
X179628386Y-102887715D01*
X179462786Y-103008028D01*
X179318028Y-103152786D01*
X179197715Y-103318386D01*
X179104781Y-103500776D01*
X179041522Y-103695465D01*
X179009500Y-103897648D01*
X179009500Y-104102351D01*
X179027986Y-104219068D01*
X179027284Y-104224492D01*
X179029197Y-104229619D01*
X179022854Y-104258778D01*
X179019031Y-104288362D01*
X179015200Y-104293964D01*
X179014346Y-104297892D01*
X178993195Y-104326147D01*
X178928162Y-104391181D01*
X178866839Y-104424666D01*
X178840480Y-104427500D01*
X174084186Y-104427500D01*
X174017147Y-104407815D01*
X173971392Y-104355011D01*
X173961448Y-104285853D01*
X173961713Y-104284102D01*
X173969730Y-104233489D01*
X173990500Y-104102352D01*
X173990500Y-103897648D01*
X173958477Y-103695466D01*
X173953825Y-103681151D01*
X173951832Y-103611312D01*
X173984075Y-103555158D01*
X175693506Y-101845728D01*
X175693511Y-101845724D01*
X175703714Y-101835520D01*
X175703716Y-101835520D01*
X175815520Y-101723716D01*
X175874926Y-101620821D01*
X175894577Y-101586785D01*
X175935501Y-101434057D01*
X175935501Y-101275943D01*
X175935501Y-101268348D01*
X175935500Y-101268330D01*
X175935500Y-96241835D01*
X175955185Y-96174796D01*
X176003206Y-96131350D01*
X176003547Y-96131175D01*
X176069022Y-96097815D01*
X176247365Y-95968242D01*
X176297924Y-95917682D01*
X176359245Y-95884198D01*
X176428936Y-95889182D01*
X176484870Y-95931053D01*
X176501786Y-95962030D01*
X176531646Y-96042087D01*
X176531649Y-96042093D01*
X176617809Y-96157187D01*
X176617812Y-96157190D01*
X176732906Y-96243350D01*
X176732913Y-96243354D01*
X176867620Y-96293596D01*
X176867627Y-96293598D01*
X176927155Y-96299999D01*
X176927172Y-96300000D01*
X177625000Y-96300000D01*
X177625000Y-95275277D01*
X177701306Y-95319333D01*
X177815756Y-95350000D01*
X177934244Y-95350000D01*
X178048694Y-95319333D01*
X178125000Y-95275277D01*
X178125000Y-96300000D01*
X178822828Y-96300000D01*
X178822844Y-96299999D01*
X178882372Y-96293598D01*
X178882379Y-96293596D01*
X179017086Y-96243354D01*
X179017093Y-96243350D01*
X179132187Y-96157190D01*
X179132190Y-96157187D01*
X179218350Y-96042093D01*
X179218354Y-96042086D01*
X179268596Y-95907379D01*
X179268598Y-95907372D01*
X179274999Y-95847844D01*
X179275000Y-95847827D01*
X179275000Y-95150000D01*
X178250278Y-95150000D01*
X178294333Y-95073694D01*
X178325000Y-94959244D01*
X178325000Y-94840756D01*
X178294333Y-94726306D01*
X178250278Y-94650000D01*
X179275000Y-94650000D01*
X179275000Y-93952172D01*
X179274999Y-93952155D01*
X179268598Y-93892627D01*
X179268596Y-93892620D01*
X179218354Y-93757913D01*
X179218350Y-93757906D01*
X179132190Y-93642812D01*
X179132187Y-93642809D01*
X179017093Y-93556649D01*
X179017086Y-93556645D01*
X178882379Y-93506403D01*
X178882372Y-93506401D01*
X178822844Y-93500000D01*
X178125000Y-93500000D01*
X178125000Y-94524722D01*
X178048694Y-94480667D01*
X177934244Y-94450000D01*
X177815756Y-94450000D01*
X177701306Y-94480667D01*
X177625000Y-94524722D01*
X177625000Y-93500000D01*
X176927155Y-93500000D01*
X176867627Y-93506401D01*
X176867620Y-93506403D01*
X176732913Y-93556645D01*
X176732906Y-93556649D01*
X176617812Y-93642809D01*
X176617809Y-93642812D01*
X176531649Y-93757906D01*
X176531643Y-93757918D01*
X176501785Y-93837969D01*
X176459914Y-93893903D01*
X176394449Y-93918319D01*
X176326176Y-93903467D01*
X176297923Y-93882316D01*
X176247363Y-93831756D01*
X176247358Y-93831752D01*
X176069025Y-93702187D01*
X176069024Y-93702186D01*
X176069022Y-93702185D01*
X176006096Y-93670122D01*
X175872606Y-93602104D01*
X175872603Y-93602103D01*
X175662952Y-93533985D01*
X175554086Y-93516742D01*
X175445222Y-93499500D01*
X175224778Y-93499500D01*
X175152201Y-93510995D01*
X175007047Y-93533985D01*
X174797396Y-93602103D01*
X174797393Y-93602104D01*
X174600974Y-93702187D01*
X174422641Y-93831752D01*
X174422636Y-93831756D01*
X174266756Y-93987636D01*
X174266752Y-93987641D01*
X174137187Y-94165974D01*
X174037104Y-94362393D01*
X174037103Y-94362396D01*
X173968985Y-94572047D01*
X173934500Y-94789778D01*
X173934500Y-95010221D01*
X173968985Y-95227952D01*
X174037103Y-95437603D01*
X174037104Y-95437606D01*
X174105122Y-95571096D01*
X174127955Y-95615908D01*
X174137187Y-95634025D01*
X174266752Y-95812358D01*
X174266756Y-95812363D01*
X174422636Y-95968243D01*
X174422641Y-95968247D01*
X174600976Y-96097814D01*
X174666794Y-96131350D01*
X174717591Y-96179324D01*
X174734500Y-96241835D01*
X174734500Y-101054902D01*
X174714815Y-101121941D01*
X174698181Y-101142583D01*
X173134842Y-102705921D01*
X173073519Y-102739406D01*
X173008848Y-102736173D01*
X172994534Y-102731522D01*
X172819995Y-102703878D01*
X172792352Y-102699500D01*
X172587648Y-102699500D01*
X172563329Y-102703351D01*
X172385465Y-102731522D01*
X172190776Y-102794781D01*
X172008386Y-102887715D01*
X171842786Y-103008028D01*
X171698028Y-103152786D01*
X171577715Y-103318386D01*
X171484781Y-103500776D01*
X171421522Y-103695465D01*
X171389500Y-103897648D01*
X171389500Y-104102352D01*
X171410270Y-104233489D01*
X171418287Y-104284102D01*
X171409333Y-104353395D01*
X171364336Y-104406847D01*
X171297585Y-104427487D01*
X171295814Y-104427500D01*
X163199519Y-104427500D01*
X163132480Y-104407815D01*
X163111838Y-104391181D01*
X158590507Y-99869850D01*
X158557022Y-99808527D01*
X158555715Y-99762771D01*
X158580500Y-99606286D01*
X158580500Y-99393713D01*
X158557738Y-99250000D01*
X158547246Y-99183757D01*
X158481557Y-98981588D01*
X158385051Y-98792184D01*
X158385049Y-98792181D01*
X158385048Y-98792179D01*
X158260109Y-98620213D01*
X158146569Y-98506673D01*
X158113084Y-98445350D01*
X158118068Y-98375658D01*
X158159940Y-98319725D01*
X158190915Y-98302810D01*
X158322331Y-98253796D01*
X158437546Y-98167546D01*
X158523796Y-98052331D01*
X158574091Y-97917483D01*
X158580500Y-97857873D01*
X158580499Y-96062128D01*
X158574091Y-96002517D01*
X158572810Y-95999083D01*
X158523797Y-95867671D01*
X158523793Y-95867664D01*
X158437547Y-95752455D01*
X158437544Y-95752452D01*
X158322335Y-95666206D01*
X158322328Y-95666202D01*
X158187482Y-95615908D01*
X158187483Y-95615908D01*
X158127883Y-95609501D01*
X158127881Y-95609500D01*
X158127873Y-95609500D01*
X158127864Y-95609500D01*
X156332129Y-95609500D01*
X156332123Y-95609501D01*
X156272516Y-95615908D01*
X156137671Y-95666202D01*
X156137664Y-95666206D01*
X156022455Y-95752452D01*
X156022452Y-95752455D01*
X155936206Y-95867664D01*
X155936203Y-95867669D01*
X155887189Y-95999083D01*
X155845317Y-96055016D01*
X155779853Y-96079433D01*
X155711580Y-96064581D01*
X155683326Y-96043430D01*
X155569786Y-95929890D01*
X155397820Y-95804951D01*
X155208414Y-95708444D01*
X155208413Y-95708443D01*
X155208412Y-95708443D01*
X155006243Y-95642754D01*
X155006241Y-95642753D01*
X155006240Y-95642753D01*
X154844957Y-95617208D01*
X154796287Y-95609500D01*
X154583713Y-95609500D01*
X154535042Y-95617208D01*
X154373760Y-95642753D01*
X154171585Y-95708444D01*
X153982179Y-95804951D01*
X153810213Y-95929890D01*
X153659890Y-96080213D01*
X153534949Y-96252182D01*
X153530484Y-96260946D01*
X153482509Y-96311742D01*
X153414688Y-96328536D01*
X153348553Y-96305998D01*
X153309516Y-96260946D01*
X153305050Y-96252182D01*
X153180109Y-96080213D01*
X153029786Y-95929890D01*
X152857820Y-95804951D01*
X152668414Y-95708444D01*
X152668413Y-95708443D01*
X152668412Y-95708443D01*
X152466243Y-95642754D01*
X152466241Y-95642753D01*
X152466240Y-95642753D01*
X152304957Y-95617208D01*
X152256287Y-95609500D01*
X152043713Y-95609500D01*
X151995042Y-95617208D01*
X151833760Y-95642753D01*
X151631585Y-95708444D01*
X151442179Y-95804951D01*
X151270213Y-95929890D01*
X151119890Y-96080213D01*
X150994949Y-96252182D01*
X150990484Y-96260946D01*
X150942509Y-96311742D01*
X150874688Y-96328536D01*
X150808553Y-96305998D01*
X150769516Y-96260946D01*
X150765050Y-96252182D01*
X150640109Y-96080213D01*
X150489786Y-95929890D01*
X150317820Y-95804951D01*
X150128414Y-95708444D01*
X150128413Y-95708443D01*
X150128412Y-95708443D01*
X149926243Y-95642754D01*
X149926241Y-95642753D01*
X149926240Y-95642753D01*
X149764957Y-95617208D01*
X149716287Y-95609500D01*
X149503713Y-95609500D01*
X149455042Y-95617208D01*
X149293760Y-95642753D01*
X149091585Y-95708444D01*
X148902179Y-95804951D01*
X148730213Y-95929890D01*
X148579890Y-96080213D01*
X148454949Y-96252182D01*
X148450484Y-96260946D01*
X148402509Y-96311742D01*
X148334688Y-96328536D01*
X148268553Y-96305998D01*
X148229516Y-96260946D01*
X148225050Y-96252182D01*
X148100109Y-96080213D01*
X147949786Y-95929890D01*
X147777820Y-95804951D01*
X147588414Y-95708444D01*
X147588413Y-95708443D01*
X147588412Y-95708443D01*
X147386243Y-95642754D01*
X147386241Y-95642753D01*
X147386240Y-95642753D01*
X147224957Y-95617208D01*
X147176287Y-95609500D01*
X146963713Y-95609500D01*
X146915042Y-95617208D01*
X146753760Y-95642753D01*
X146551585Y-95708444D01*
X146362179Y-95804951D01*
X146190213Y-95929890D01*
X146039890Y-96080213D01*
X145914949Y-96252182D01*
X145910484Y-96260946D01*
X145862509Y-96311742D01*
X145794688Y-96328536D01*
X145728553Y-96305998D01*
X145689516Y-96260946D01*
X145685050Y-96252182D01*
X145560109Y-96080213D01*
X145409786Y-95929890D01*
X145237820Y-95804951D01*
X145048414Y-95708444D01*
X145048413Y-95708443D01*
X145048412Y-95708443D01*
X144846243Y-95642754D01*
X144846241Y-95642753D01*
X144846240Y-95642753D01*
X144684957Y-95617208D01*
X144636287Y-95609500D01*
X144423713Y-95609500D01*
X144375042Y-95617208D01*
X144213760Y-95642753D01*
X144011585Y-95708444D01*
X143822179Y-95804951D01*
X143650213Y-95929890D01*
X143499890Y-96080213D01*
X143374949Y-96252182D01*
X143370484Y-96260946D01*
X143322509Y-96311742D01*
X143254688Y-96328536D01*
X143188553Y-96305998D01*
X143149516Y-96260946D01*
X143145050Y-96252182D01*
X143020109Y-96080213D01*
X142869786Y-95929890D01*
X142697820Y-95804951D01*
X142508414Y-95708444D01*
X142508413Y-95708443D01*
X142508412Y-95708443D01*
X142306243Y-95642754D01*
X142306241Y-95642753D01*
X142306240Y-95642753D01*
X142144957Y-95617208D01*
X142096287Y-95609500D01*
X141883713Y-95609500D01*
X141835042Y-95617208D01*
X141673760Y-95642753D01*
X141471585Y-95708444D01*
X141282179Y-95804951D01*
X141110213Y-95929890D01*
X140959890Y-96080213D01*
X140834949Y-96252182D01*
X140830484Y-96260946D01*
X140782509Y-96311742D01*
X140714688Y-96328536D01*
X140648553Y-96305998D01*
X140609516Y-96260946D01*
X140605050Y-96252182D01*
X140480109Y-96080213D01*
X140329786Y-95929890D01*
X140157820Y-95804951D01*
X139968414Y-95708444D01*
X139968413Y-95708443D01*
X139968412Y-95708443D01*
X139766243Y-95642754D01*
X139766241Y-95642753D01*
X139766240Y-95642753D01*
X139604957Y-95617208D01*
X139556287Y-95609500D01*
X139343713Y-95609500D01*
X139295042Y-95617208D01*
X139133760Y-95642753D01*
X138931585Y-95708444D01*
X138742179Y-95804951D01*
X138570213Y-95929890D01*
X138419890Y-96080213D01*
X138294949Y-96252182D01*
X138290484Y-96260946D01*
X138242509Y-96311742D01*
X138174688Y-96328536D01*
X138108553Y-96305998D01*
X138069516Y-96260946D01*
X138065050Y-96252182D01*
X137940109Y-96080213D01*
X137789786Y-95929890D01*
X137617820Y-95804951D01*
X137428414Y-95708444D01*
X137428413Y-95708443D01*
X137428412Y-95708443D01*
X137226243Y-95642754D01*
X137226241Y-95642753D01*
X137226240Y-95642753D01*
X137064957Y-95617208D01*
X137016287Y-95609500D01*
X136803713Y-95609500D01*
X136755042Y-95617208D01*
X136593760Y-95642753D01*
X136391585Y-95708444D01*
X136202179Y-95804951D01*
X136030213Y-95929890D01*
X135879890Y-96080213D01*
X135754949Y-96252182D01*
X135750484Y-96260946D01*
X135702509Y-96311742D01*
X135634688Y-96328536D01*
X135568553Y-96305998D01*
X135529516Y-96260946D01*
X135525050Y-96252182D01*
X135400109Y-96080213D01*
X135249786Y-95929890D01*
X135077820Y-95804951D01*
X134888414Y-95708444D01*
X134888413Y-95708443D01*
X134888412Y-95708443D01*
X134686243Y-95642754D01*
X134686241Y-95642753D01*
X134686240Y-95642753D01*
X134524957Y-95617208D01*
X134476287Y-95609500D01*
X134263713Y-95609500D01*
X134215042Y-95617208D01*
X134053760Y-95642753D01*
X133851585Y-95708444D01*
X133662179Y-95804951D01*
X133490213Y-95929890D01*
X133339890Y-96080213D01*
X133214949Y-96252182D01*
X133210484Y-96260946D01*
X133162509Y-96311742D01*
X133094688Y-96328536D01*
X133028553Y-96305998D01*
X132989516Y-96260946D01*
X132985050Y-96252182D01*
X132860109Y-96080213D01*
X132709786Y-95929890D01*
X132537820Y-95804951D01*
X132348414Y-95708444D01*
X132348413Y-95708443D01*
X132348412Y-95708443D01*
X132146243Y-95642754D01*
X132146241Y-95642753D01*
X132146240Y-95642753D01*
X131984957Y-95617208D01*
X131936287Y-95609500D01*
X131723713Y-95609500D01*
X131675042Y-95617208D01*
X131513760Y-95642753D01*
X131311585Y-95708444D01*
X131122179Y-95804951D01*
X130950213Y-95929890D01*
X130799890Y-96080213D01*
X130674949Y-96252182D01*
X130670484Y-96260946D01*
X130622509Y-96311742D01*
X130554688Y-96328536D01*
X130488553Y-96305998D01*
X130449516Y-96260946D01*
X130445050Y-96252182D01*
X130320109Y-96080213D01*
X130169786Y-95929890D01*
X129997820Y-95804951D01*
X129808414Y-95708444D01*
X129808413Y-95708443D01*
X129808412Y-95708443D01*
X129606243Y-95642754D01*
X129606241Y-95642753D01*
X129606240Y-95642753D01*
X129444957Y-95617208D01*
X129396287Y-95609500D01*
X129183713Y-95609500D01*
X129135042Y-95617208D01*
X128973760Y-95642753D01*
X128771585Y-95708444D01*
X128582179Y-95804951D01*
X128410213Y-95929890D01*
X128259890Y-96080213D01*
X128134949Y-96252182D01*
X128130484Y-96260946D01*
X128082509Y-96311742D01*
X128014688Y-96328536D01*
X127948553Y-96305998D01*
X127909516Y-96260946D01*
X127905050Y-96252182D01*
X127780109Y-96080213D01*
X127629786Y-95929890D01*
X127457820Y-95804951D01*
X127268414Y-95708444D01*
X127268413Y-95708443D01*
X127268412Y-95708443D01*
X127066243Y-95642754D01*
X127066241Y-95642753D01*
X127066240Y-95642753D01*
X126904957Y-95617208D01*
X126856287Y-95609500D01*
X126643713Y-95609500D01*
X126595042Y-95617208D01*
X126433760Y-95642753D01*
X126231585Y-95708444D01*
X126042179Y-95804951D01*
X125870213Y-95929890D01*
X125719890Y-96080213D01*
X125594949Y-96252182D01*
X125590484Y-96260946D01*
X125542509Y-96311742D01*
X125474688Y-96328536D01*
X125408553Y-96305998D01*
X125369516Y-96260946D01*
X125365050Y-96252182D01*
X125240109Y-96080213D01*
X125089786Y-95929890D01*
X124917820Y-95804951D01*
X124728414Y-95708444D01*
X124728413Y-95708443D01*
X124728412Y-95708443D01*
X124526243Y-95642754D01*
X124526241Y-95642753D01*
X124526240Y-95642753D01*
X124364957Y-95617208D01*
X124316287Y-95609500D01*
X124103713Y-95609500D01*
X124055042Y-95617208D01*
X123893760Y-95642753D01*
X123691585Y-95708444D01*
X123502179Y-95804951D01*
X123330213Y-95929890D01*
X123179890Y-96080213D01*
X123054949Y-96252182D01*
X123050484Y-96260946D01*
X123002509Y-96311742D01*
X122934688Y-96328536D01*
X122868553Y-96305998D01*
X122829516Y-96260946D01*
X122825050Y-96252182D01*
X122700109Y-96080213D01*
X122549786Y-95929890D01*
X122377820Y-95804951D01*
X122188414Y-95708444D01*
X122188413Y-95708443D01*
X122188412Y-95708443D01*
X121986243Y-95642754D01*
X121986241Y-95642753D01*
X121986240Y-95642753D01*
X121824957Y-95617208D01*
X121776287Y-95609500D01*
X121563713Y-95609500D01*
X121515042Y-95617208D01*
X121353760Y-95642753D01*
X121151585Y-95708444D01*
X120962179Y-95804951D01*
X120790213Y-95929890D01*
X120639890Y-96080213D01*
X120514949Y-96252182D01*
X120510484Y-96260946D01*
X120462509Y-96311742D01*
X120394688Y-96328536D01*
X120328553Y-96305998D01*
X120289516Y-96260946D01*
X120285050Y-96252182D01*
X120160109Y-96080213D01*
X120009786Y-95929890D01*
X119837820Y-95804951D01*
X119648414Y-95708444D01*
X119648413Y-95708443D01*
X119648412Y-95708443D01*
X119446243Y-95642754D01*
X119446241Y-95642753D01*
X119446240Y-95642753D01*
X119284957Y-95617208D01*
X119236287Y-95609500D01*
X119023713Y-95609500D01*
X118975042Y-95617208D01*
X118813760Y-95642753D01*
X118611585Y-95708444D01*
X118422179Y-95804951D01*
X118250213Y-95929890D01*
X118099890Y-96080213D01*
X117974949Y-96252182D01*
X117970484Y-96260946D01*
X117922509Y-96311742D01*
X117854688Y-96328536D01*
X117788553Y-96305998D01*
X117749516Y-96260946D01*
X117745050Y-96252182D01*
X117620109Y-96080213D01*
X117469786Y-95929890D01*
X117297820Y-95804951D01*
X117108414Y-95708444D01*
X117108413Y-95708443D01*
X117108412Y-95708443D01*
X116906243Y-95642754D01*
X116906241Y-95642753D01*
X116906240Y-95642753D01*
X116744957Y-95617208D01*
X116696287Y-95609500D01*
X116483713Y-95609500D01*
X116435042Y-95617208D01*
X116273760Y-95642753D01*
X116071585Y-95708444D01*
X115882179Y-95804951D01*
X115710213Y-95929890D01*
X115559890Y-96080213D01*
X115434949Y-96252182D01*
X115430484Y-96260946D01*
X115382509Y-96311742D01*
X115314688Y-96328536D01*
X115248553Y-96305998D01*
X115209516Y-96260946D01*
X115205050Y-96252182D01*
X115080109Y-96080213D01*
X114929786Y-95929890D01*
X114757820Y-95804951D01*
X114568414Y-95708444D01*
X114568413Y-95708443D01*
X114568412Y-95708443D01*
X114366243Y-95642754D01*
X114366241Y-95642753D01*
X114366240Y-95642753D01*
X114204957Y-95617208D01*
X114156287Y-95609500D01*
X113943713Y-95609500D01*
X113895042Y-95617208D01*
X113733760Y-95642753D01*
X113531585Y-95708444D01*
X113342179Y-95804951D01*
X113170213Y-95929890D01*
X113019890Y-96080213D01*
X112894949Y-96252182D01*
X112890484Y-96260946D01*
X112842509Y-96311742D01*
X112774688Y-96328536D01*
X112708553Y-96305998D01*
X112669516Y-96260946D01*
X112665050Y-96252182D01*
X112540109Y-96080213D01*
X112389786Y-95929890D01*
X112217820Y-95804951D01*
X112028414Y-95708444D01*
X112028413Y-95708443D01*
X112028412Y-95708443D01*
X111826243Y-95642754D01*
X111826241Y-95642753D01*
X111826240Y-95642753D01*
X111664957Y-95617208D01*
X111616287Y-95609500D01*
X111403713Y-95609500D01*
X111355042Y-95617208D01*
X111193760Y-95642753D01*
X110991585Y-95708444D01*
X110802179Y-95804951D01*
X110630213Y-95929890D01*
X110479890Y-96080213D01*
X110354949Y-96252182D01*
X110350484Y-96260946D01*
X110302509Y-96311742D01*
X110234688Y-96328536D01*
X110168553Y-96305998D01*
X110129516Y-96260946D01*
X110125050Y-96252182D01*
X110000109Y-96080213D01*
X109849786Y-95929890D01*
X109677820Y-95804951D01*
X109488414Y-95708444D01*
X109488413Y-95708443D01*
X109488412Y-95708443D01*
X109286243Y-95642754D01*
X109286241Y-95642753D01*
X109286240Y-95642753D01*
X109124957Y-95617208D01*
X109076287Y-95609500D01*
X108863713Y-95609500D01*
X108815042Y-95617208D01*
X108653760Y-95642753D01*
X108451585Y-95708444D01*
X108262179Y-95804951D01*
X108090213Y-95929890D01*
X107939890Y-96080213D01*
X107814951Y-96252179D01*
X107718444Y-96441585D01*
X107652753Y-96643760D01*
X107619500Y-96853713D01*
X97875500Y-96853713D01*
X97875500Y-70149500D01*
X97895185Y-70082461D01*
X97947989Y-70036706D01*
X97999500Y-70025500D01*
X198750500Y-70025500D01*
X198817539Y-70045185D01*
G37*
G04 #@! TD.AperFunction*
M02*
