G04 #@! TF.GenerationSoftware,KiCad,Pcbnew,9.0.6-9.0.6~ubuntu24.04.1*
G04 #@! TF.CreationDate,2026-01-10T19:25:19+01:00*
G04 #@! TF.ProjectId,odins-eye-pcb,6f64696e-732d-4657-9965-2d7063622e6b,0*
G04 #@! TF.SameCoordinates,Original*
G04 #@! TF.FileFunction,Legend,Bot*
G04 #@! TF.FilePolarity,Positive*
%FSLAX46Y46*%
G04 Gerber Fmt 4.6, Leading zero omitted, Abs format (unit mm)*
G04 Created by KiCad (PCBNEW 9.0.6-9.0.6~ubuntu24.04.1) date 2026-01-10 19:25:19*
%MOMM*%
%LPD*%
G01*
G04 APERTURE LIST*
%ADD10C,0.152400*%
%ADD11C,0.400000*%
%ADD12C,0.260000*%
%ADD13C,0.150000*%
%ADD14C,0.100000*%
%ADD15C,0.000000*%
%ADD16C,0.120000*%
G04 APERTURE END LIST*
D10*
X177780460Y-104392603D02*
X178244917Y-104392603D01*
X178012689Y-104392603D02*
X178012689Y-103579803D01*
X178012689Y-103579803D02*
X178090098Y-103695918D01*
X178090098Y-103695918D02*
X178167508Y-103773327D01*
X178167508Y-103773327D02*
X178244917Y-103812032D01*
X177470822Y-103657213D02*
X177432118Y-103618508D01*
X177432118Y-103618508D02*
X177354708Y-103579803D01*
X177354708Y-103579803D02*
X177161184Y-103579803D01*
X177161184Y-103579803D02*
X177083775Y-103618508D01*
X177083775Y-103618508D02*
X177045070Y-103657213D01*
X177045070Y-103657213D02*
X177006365Y-103734622D01*
X177006365Y-103734622D02*
X177006365Y-103812032D01*
X177006365Y-103812032D02*
X177045070Y-103928146D01*
X177045070Y-103928146D02*
X177509527Y-104392603D01*
X177509527Y-104392603D02*
X177006365Y-104392603D01*
X176503204Y-103579803D02*
X176425794Y-103579803D01*
X176425794Y-103579803D02*
X176348385Y-103618508D01*
X176348385Y-103618508D02*
X176309680Y-103657213D01*
X176309680Y-103657213D02*
X176270975Y-103734622D01*
X176270975Y-103734622D02*
X176232270Y-103889441D01*
X176232270Y-103889441D02*
X176232270Y-104082965D01*
X176232270Y-104082965D02*
X176270975Y-104237784D01*
X176270975Y-104237784D02*
X176309680Y-104315194D01*
X176309680Y-104315194D02*
X176348385Y-104353899D01*
X176348385Y-104353899D02*
X176425794Y-104392603D01*
X176425794Y-104392603D02*
X176503204Y-104392603D01*
X176503204Y-104392603D02*
X176580613Y-104353899D01*
X176580613Y-104353899D02*
X176619318Y-104315194D01*
X176619318Y-104315194D02*
X176658023Y-104237784D01*
X176658023Y-104237784D02*
X176696727Y-104082965D01*
X176696727Y-104082965D02*
X176696727Y-103889441D01*
X176696727Y-103889441D02*
X176658023Y-103734622D01*
X176658023Y-103734622D02*
X176619318Y-103657213D01*
X176619318Y-103657213D02*
X176580613Y-103618508D01*
X176580613Y-103618508D02*
X176503204Y-103579803D01*
X175303356Y-104392603D02*
X175109833Y-104392603D01*
X175109833Y-104392603D02*
X175109833Y-104237784D01*
X175109833Y-104237784D02*
X175187242Y-104199079D01*
X175187242Y-104199079D02*
X175264652Y-104121670D01*
X175264652Y-104121670D02*
X175303356Y-104005556D01*
X175303356Y-104005556D02*
X175303356Y-103812032D01*
X175303356Y-103812032D02*
X175264652Y-103695918D01*
X175264652Y-103695918D02*
X175187242Y-103618508D01*
X175187242Y-103618508D02*
X175071128Y-103579803D01*
X175071128Y-103579803D02*
X174916309Y-103579803D01*
X174916309Y-103579803D02*
X174800195Y-103618508D01*
X174800195Y-103618508D02*
X174722785Y-103695918D01*
X174722785Y-103695918D02*
X174684080Y-103812032D01*
X174684080Y-103812032D02*
X174684080Y-104005556D01*
X174684080Y-104005556D02*
X174722785Y-104121670D01*
X174722785Y-104121670D02*
X174800195Y-104199079D01*
X174800195Y-104199079D02*
X174877604Y-104237784D01*
X174877604Y-104237784D02*
X174877604Y-104392603D01*
X174877604Y-104392603D02*
X174684080Y-104392603D01*
D11*
X193771429Y-111434438D02*
X193390476Y-111434438D01*
X193390476Y-111434438D02*
X193200000Y-111529676D01*
X193200000Y-111529676D02*
X193009524Y-111720152D01*
X193009524Y-111720152D02*
X192914286Y-112101104D01*
X192914286Y-112101104D02*
X192914286Y-112767771D01*
X192914286Y-112767771D02*
X193009524Y-113148723D01*
X193009524Y-113148723D02*
X193200000Y-113339200D01*
X193200000Y-113339200D02*
X193390476Y-113434438D01*
X193390476Y-113434438D02*
X193771429Y-113434438D01*
X193771429Y-113434438D02*
X193961905Y-113339200D01*
X193961905Y-113339200D02*
X194152381Y-113148723D01*
X194152381Y-113148723D02*
X194247619Y-112767771D01*
X194247619Y-112767771D02*
X194247619Y-112101104D01*
X194247619Y-112101104D02*
X194152381Y-111720152D01*
X194152381Y-111720152D02*
X193961905Y-111529676D01*
X193961905Y-111529676D02*
X193771429Y-111434438D01*
X191200000Y-113434438D02*
X191200000Y-111434438D01*
X191200000Y-113339200D02*
X191390476Y-113434438D01*
X191390476Y-113434438D02*
X191771429Y-113434438D01*
X191771429Y-113434438D02*
X191961905Y-113339200D01*
X191961905Y-113339200D02*
X192057143Y-113243961D01*
X192057143Y-113243961D02*
X192152381Y-113053485D01*
X192152381Y-113053485D02*
X192152381Y-112482057D01*
X192152381Y-112482057D02*
X192057143Y-112291580D01*
X192057143Y-112291580D02*
X191961905Y-112196342D01*
X191961905Y-112196342D02*
X191771429Y-112101104D01*
X191771429Y-112101104D02*
X191390476Y-112101104D01*
X191390476Y-112101104D02*
X191200000Y-112196342D01*
X190247619Y-113434438D02*
X190247619Y-112101104D01*
X190247619Y-111434438D02*
X190342857Y-111529676D01*
X190342857Y-111529676D02*
X190247619Y-111624914D01*
X190247619Y-111624914D02*
X190152381Y-111529676D01*
X190152381Y-111529676D02*
X190247619Y-111434438D01*
X190247619Y-111434438D02*
X190247619Y-111624914D01*
X189295238Y-112101104D02*
X189295238Y-113434438D01*
X189295238Y-112291580D02*
X189200000Y-112196342D01*
X189200000Y-112196342D02*
X189009524Y-112101104D01*
X189009524Y-112101104D02*
X188723809Y-112101104D01*
X188723809Y-112101104D02*
X188533333Y-112196342D01*
X188533333Y-112196342D02*
X188438095Y-112386819D01*
X188438095Y-112386819D02*
X188438095Y-113434438D01*
X187580952Y-113339200D02*
X187390476Y-113434438D01*
X187390476Y-113434438D02*
X187009524Y-113434438D01*
X187009524Y-113434438D02*
X186819047Y-113339200D01*
X186819047Y-113339200D02*
X186723809Y-113148723D01*
X186723809Y-113148723D02*
X186723809Y-113053485D01*
X186723809Y-113053485D02*
X186819047Y-112863009D01*
X186819047Y-112863009D02*
X187009524Y-112767771D01*
X187009524Y-112767771D02*
X187295238Y-112767771D01*
X187295238Y-112767771D02*
X187485714Y-112672533D01*
X187485714Y-112672533D02*
X187580952Y-112482057D01*
X187580952Y-112482057D02*
X187580952Y-112386819D01*
X187580952Y-112386819D02*
X187485714Y-112196342D01*
X187485714Y-112196342D02*
X187295238Y-112101104D01*
X187295238Y-112101104D02*
X187009524Y-112101104D01*
X187009524Y-112101104D02*
X186819047Y-112196342D01*
X184342856Y-112386819D02*
X183676189Y-112386819D01*
X183390475Y-113434438D02*
X184342856Y-113434438D01*
X184342856Y-113434438D02*
X184342856Y-111434438D01*
X184342856Y-111434438D02*
X183390475Y-111434438D01*
X182723808Y-112101104D02*
X182247618Y-113434438D01*
X181771427Y-112101104D02*
X182247618Y-113434438D01*
X182247618Y-113434438D02*
X182438094Y-113910628D01*
X182438094Y-113910628D02*
X182533332Y-114005866D01*
X182533332Y-114005866D02*
X182723808Y-114101104D01*
X180247617Y-113339200D02*
X180438093Y-113434438D01*
X180438093Y-113434438D02*
X180819046Y-113434438D01*
X180819046Y-113434438D02*
X181009522Y-113339200D01*
X181009522Y-113339200D02*
X181104760Y-113148723D01*
X181104760Y-113148723D02*
X181104760Y-112386819D01*
X181104760Y-112386819D02*
X181009522Y-112196342D01*
X181009522Y-112196342D02*
X180819046Y-112101104D01*
X180819046Y-112101104D02*
X180438093Y-112101104D01*
X180438093Y-112101104D02*
X180247617Y-112196342D01*
X180247617Y-112196342D02*
X180152379Y-112386819D01*
X180152379Y-112386819D02*
X180152379Y-112577295D01*
X180152379Y-112577295D02*
X181104760Y-112767771D01*
D12*
X144214284Y-87827384D02*
X144647617Y-87208337D01*
X144957141Y-87827384D02*
X144957141Y-86527384D01*
X144957141Y-86527384D02*
X144461903Y-86527384D01*
X144461903Y-86527384D02*
X144338093Y-86589289D01*
X144338093Y-86589289D02*
X144276188Y-86651194D01*
X144276188Y-86651194D02*
X144214284Y-86775003D01*
X144214284Y-86775003D02*
X144214284Y-86960718D01*
X144214284Y-86960718D02*
X144276188Y-87084527D01*
X144276188Y-87084527D02*
X144338093Y-87146432D01*
X144338093Y-87146432D02*
X144461903Y-87208337D01*
X144461903Y-87208337D02*
X144957141Y-87208337D01*
X143099998Y-87827384D02*
X143099998Y-87146432D01*
X143099998Y-87146432D02*
X143161903Y-87022622D01*
X143161903Y-87022622D02*
X143285712Y-86960718D01*
X143285712Y-86960718D02*
X143533331Y-86960718D01*
X143533331Y-86960718D02*
X143657141Y-87022622D01*
X143099998Y-87765480D02*
X143223807Y-87827384D01*
X143223807Y-87827384D02*
X143533331Y-87827384D01*
X143533331Y-87827384D02*
X143657141Y-87765480D01*
X143657141Y-87765480D02*
X143719045Y-87641670D01*
X143719045Y-87641670D02*
X143719045Y-87517860D01*
X143719045Y-87517860D02*
X143657141Y-87394051D01*
X143657141Y-87394051D02*
X143533331Y-87332146D01*
X143533331Y-87332146D02*
X143223807Y-87332146D01*
X143223807Y-87332146D02*
X143099998Y-87270241D01*
X142542855Y-87765480D02*
X142419046Y-87827384D01*
X142419046Y-87827384D02*
X142171427Y-87827384D01*
X142171427Y-87827384D02*
X142047617Y-87765480D01*
X142047617Y-87765480D02*
X141985713Y-87641670D01*
X141985713Y-87641670D02*
X141985713Y-87579765D01*
X141985713Y-87579765D02*
X142047617Y-87455956D01*
X142047617Y-87455956D02*
X142171427Y-87394051D01*
X142171427Y-87394051D02*
X142357141Y-87394051D01*
X142357141Y-87394051D02*
X142480951Y-87332146D01*
X142480951Y-87332146D02*
X142542855Y-87208337D01*
X142542855Y-87208337D02*
X142542855Y-87146432D01*
X142542855Y-87146432D02*
X142480951Y-87022622D01*
X142480951Y-87022622D02*
X142357141Y-86960718D01*
X142357141Y-86960718D02*
X142171427Y-86960718D01*
X142171427Y-86960718D02*
X142047617Y-87022622D01*
X141428570Y-86960718D02*
X141428570Y-88260718D01*
X141428570Y-87022622D02*
X141304760Y-86960718D01*
X141304760Y-86960718D02*
X141057141Y-86960718D01*
X141057141Y-86960718D02*
X140933332Y-87022622D01*
X140933332Y-87022622D02*
X140871427Y-87084527D01*
X140871427Y-87084527D02*
X140809522Y-87208337D01*
X140809522Y-87208337D02*
X140809522Y-87579765D01*
X140809522Y-87579765D02*
X140871427Y-87703575D01*
X140871427Y-87703575D02*
X140933332Y-87765480D01*
X140933332Y-87765480D02*
X141057141Y-87827384D01*
X141057141Y-87827384D02*
X141304760Y-87827384D01*
X141304760Y-87827384D02*
X141428570Y-87765480D01*
X140252380Y-87827384D02*
X140252380Y-86527384D01*
X140252380Y-87022622D02*
X140128570Y-86960718D01*
X140128570Y-86960718D02*
X139880951Y-86960718D01*
X139880951Y-86960718D02*
X139757142Y-87022622D01*
X139757142Y-87022622D02*
X139695237Y-87084527D01*
X139695237Y-87084527D02*
X139633332Y-87208337D01*
X139633332Y-87208337D02*
X139633332Y-87579765D01*
X139633332Y-87579765D02*
X139695237Y-87703575D01*
X139695237Y-87703575D02*
X139757142Y-87765480D01*
X139757142Y-87765480D02*
X139880951Y-87827384D01*
X139880951Y-87827384D02*
X140128570Y-87827384D01*
X140128570Y-87827384D02*
X140252380Y-87765480D01*
X138580952Y-87765480D02*
X138704761Y-87827384D01*
X138704761Y-87827384D02*
X138952380Y-87827384D01*
X138952380Y-87827384D02*
X139076190Y-87765480D01*
X139076190Y-87765480D02*
X139138094Y-87641670D01*
X139138094Y-87641670D02*
X139138094Y-87146432D01*
X139138094Y-87146432D02*
X139076190Y-87022622D01*
X139076190Y-87022622D02*
X138952380Y-86960718D01*
X138952380Y-86960718D02*
X138704761Y-86960718D01*
X138704761Y-86960718D02*
X138580952Y-87022622D01*
X138580952Y-87022622D02*
X138519047Y-87146432D01*
X138519047Y-87146432D02*
X138519047Y-87270241D01*
X138519047Y-87270241D02*
X139138094Y-87394051D01*
X137961904Y-87827384D02*
X137961904Y-86960718D01*
X137961904Y-87208337D02*
X137899999Y-87084527D01*
X137899999Y-87084527D02*
X137838094Y-87022622D01*
X137838094Y-87022622D02*
X137714285Y-86960718D01*
X137714285Y-86960718D02*
X137590475Y-86960718D01*
X137157142Y-87827384D02*
X137157142Y-86960718D01*
X137157142Y-87208337D02*
X137095237Y-87084527D01*
X137095237Y-87084527D02*
X137033332Y-87022622D01*
X137033332Y-87022622D02*
X136909523Y-86960718D01*
X136909523Y-86960718D02*
X136785713Y-86960718D01*
X136476189Y-86960718D02*
X136166665Y-87827384D01*
X135857142Y-86960718D02*
X136166665Y-87827384D01*
X136166665Y-87827384D02*
X136290475Y-88136908D01*
X136290475Y-88136908D02*
X136352380Y-88198813D01*
X136352380Y-88198813D02*
X136476189Y-88260718D01*
X134371428Y-87827384D02*
X134371428Y-86527384D01*
X134371428Y-86527384D02*
X133876190Y-86527384D01*
X133876190Y-86527384D02*
X133752380Y-86589289D01*
X133752380Y-86589289D02*
X133690475Y-86651194D01*
X133690475Y-86651194D02*
X133628571Y-86775003D01*
X133628571Y-86775003D02*
X133628571Y-86960718D01*
X133628571Y-86960718D02*
X133690475Y-87084527D01*
X133690475Y-87084527D02*
X133752380Y-87146432D01*
X133752380Y-87146432D02*
X133876190Y-87208337D01*
X133876190Y-87208337D02*
X134371428Y-87208337D01*
X133071428Y-87827384D02*
X133071428Y-86960718D01*
X133071428Y-86527384D02*
X133133332Y-86589289D01*
X133133332Y-86589289D02*
X133071428Y-86651194D01*
X133071428Y-86651194D02*
X133009523Y-86589289D01*
X133009523Y-86589289D02*
X133071428Y-86527384D01*
X133071428Y-86527384D02*
X133071428Y-86651194D01*
X131585713Y-86527384D02*
X130719047Y-86527384D01*
X130719047Y-86527384D02*
X131585713Y-87827384D01*
X131585713Y-87827384D02*
X130719047Y-87827384D01*
X129728571Y-87765480D02*
X129852380Y-87827384D01*
X129852380Y-87827384D02*
X130099999Y-87827384D01*
X130099999Y-87827384D02*
X130223809Y-87765480D01*
X130223809Y-87765480D02*
X130285713Y-87641670D01*
X130285713Y-87641670D02*
X130285713Y-87146432D01*
X130285713Y-87146432D02*
X130223809Y-87022622D01*
X130223809Y-87022622D02*
X130099999Y-86960718D01*
X130099999Y-86960718D02*
X129852380Y-86960718D01*
X129852380Y-86960718D02*
X129728571Y-87022622D01*
X129728571Y-87022622D02*
X129666666Y-87146432D01*
X129666666Y-87146432D02*
X129666666Y-87270241D01*
X129666666Y-87270241D02*
X130285713Y-87394051D01*
X129109523Y-87827384D02*
X129109523Y-86960718D01*
X129109523Y-87208337D02*
X129047618Y-87084527D01*
X129047618Y-87084527D02*
X128985713Y-87022622D01*
X128985713Y-87022622D02*
X128861904Y-86960718D01*
X128861904Y-86960718D02*
X128738094Y-86960718D01*
X128119046Y-87827384D02*
X128242856Y-87765480D01*
X128242856Y-87765480D02*
X128304761Y-87703575D01*
X128304761Y-87703575D02*
X128366665Y-87579765D01*
X128366665Y-87579765D02*
X128366665Y-87208337D01*
X128366665Y-87208337D02*
X128304761Y-87084527D01*
X128304761Y-87084527D02*
X128242856Y-87022622D01*
X128242856Y-87022622D02*
X128119046Y-86960718D01*
X128119046Y-86960718D02*
X127933332Y-86960718D01*
X127933332Y-86960718D02*
X127809523Y-87022622D01*
X127809523Y-87022622D02*
X127747618Y-87084527D01*
X127747618Y-87084527D02*
X127685713Y-87208337D01*
X127685713Y-87208337D02*
X127685713Y-87579765D01*
X127685713Y-87579765D02*
X127747618Y-87703575D01*
X127747618Y-87703575D02*
X127809523Y-87765480D01*
X127809523Y-87765480D02*
X127933332Y-87827384D01*
X127933332Y-87827384D02*
X128119046Y-87827384D01*
X126199999Y-86651194D02*
X126138095Y-86589289D01*
X126138095Y-86589289D02*
X126014285Y-86527384D01*
X126014285Y-86527384D02*
X125704761Y-86527384D01*
X125704761Y-86527384D02*
X125580952Y-86589289D01*
X125580952Y-86589289D02*
X125519047Y-86651194D01*
X125519047Y-86651194D02*
X125457142Y-86775003D01*
X125457142Y-86775003D02*
X125457142Y-86898813D01*
X125457142Y-86898813D02*
X125519047Y-87084527D01*
X125519047Y-87084527D02*
X126261904Y-87827384D01*
X126261904Y-87827384D02*
X125457142Y-87827384D01*
X124033333Y-86527384D02*
X123723809Y-87827384D01*
X123723809Y-87827384D02*
X123476190Y-86898813D01*
X123476190Y-86898813D02*
X123228571Y-87827384D01*
X123228571Y-87827384D02*
X122919048Y-86527384D01*
D13*
X165690476Y-71302438D02*
X165785714Y-71254819D01*
X165785714Y-71254819D02*
X165928571Y-71254819D01*
X165928571Y-71254819D02*
X166071428Y-71302438D01*
X166071428Y-71302438D02*
X166166666Y-71397676D01*
X166166666Y-71397676D02*
X166214285Y-71492914D01*
X166214285Y-71492914D02*
X166261904Y-71683390D01*
X166261904Y-71683390D02*
X166261904Y-71826247D01*
X166261904Y-71826247D02*
X166214285Y-72016723D01*
X166214285Y-72016723D02*
X166166666Y-72111961D01*
X166166666Y-72111961D02*
X166071428Y-72207200D01*
X166071428Y-72207200D02*
X165928571Y-72254819D01*
X165928571Y-72254819D02*
X165833333Y-72254819D01*
X165833333Y-72254819D02*
X165690476Y-72207200D01*
X165690476Y-72207200D02*
X165642857Y-72159580D01*
X165642857Y-72159580D02*
X165642857Y-71826247D01*
X165642857Y-71826247D02*
X165833333Y-71826247D01*
X165023809Y-71778628D02*
X165023809Y-72254819D01*
X165357142Y-71254819D02*
X165023809Y-71778628D01*
X165023809Y-71778628D02*
X164690476Y-71254819D01*
X163785714Y-72254819D02*
X164119047Y-71778628D01*
X164357142Y-72254819D02*
X164357142Y-71254819D01*
X164357142Y-71254819D02*
X163976190Y-71254819D01*
X163976190Y-71254819D02*
X163880952Y-71302438D01*
X163880952Y-71302438D02*
X163833333Y-71350057D01*
X163833333Y-71350057D02*
X163785714Y-71445295D01*
X163785714Y-71445295D02*
X163785714Y-71588152D01*
X163785714Y-71588152D02*
X163833333Y-71683390D01*
X163833333Y-71683390D02*
X163880952Y-71731009D01*
X163880952Y-71731009D02*
X163976190Y-71778628D01*
X163976190Y-71778628D02*
X164357142Y-71778628D01*
X163166666Y-71254819D02*
X162976190Y-71254819D01*
X162976190Y-71254819D02*
X162880952Y-71302438D01*
X162880952Y-71302438D02*
X162785714Y-71397676D01*
X162785714Y-71397676D02*
X162738095Y-71588152D01*
X162738095Y-71588152D02*
X162738095Y-71921485D01*
X162738095Y-71921485D02*
X162785714Y-72111961D01*
X162785714Y-72111961D02*
X162880952Y-72207200D01*
X162880952Y-72207200D02*
X162976190Y-72254819D01*
X162976190Y-72254819D02*
X163166666Y-72254819D01*
X163166666Y-72254819D02*
X163261904Y-72207200D01*
X163261904Y-72207200D02*
X163357142Y-72111961D01*
X163357142Y-72111961D02*
X163404761Y-71921485D01*
X163404761Y-71921485D02*
X163404761Y-71588152D01*
X163404761Y-71588152D02*
X163357142Y-71397676D01*
X163357142Y-71397676D02*
X163261904Y-71302438D01*
X163261904Y-71302438D02*
X163166666Y-71254819D01*
X162357142Y-72207200D02*
X162214285Y-72254819D01*
X162214285Y-72254819D02*
X161976190Y-72254819D01*
X161976190Y-72254819D02*
X161880952Y-72207200D01*
X161880952Y-72207200D02*
X161833333Y-72159580D01*
X161833333Y-72159580D02*
X161785714Y-72064342D01*
X161785714Y-72064342D02*
X161785714Y-71969104D01*
X161785714Y-71969104D02*
X161833333Y-71873866D01*
X161833333Y-71873866D02*
X161880952Y-71826247D01*
X161880952Y-71826247D02*
X161976190Y-71778628D01*
X161976190Y-71778628D02*
X162166666Y-71731009D01*
X162166666Y-71731009D02*
X162261904Y-71683390D01*
X162261904Y-71683390D02*
X162309523Y-71635771D01*
X162309523Y-71635771D02*
X162357142Y-71540533D01*
X162357142Y-71540533D02*
X162357142Y-71445295D01*
X162357142Y-71445295D02*
X162309523Y-71350057D01*
X162309523Y-71350057D02*
X162261904Y-71302438D01*
X162261904Y-71302438D02*
X162166666Y-71254819D01*
X162166666Y-71254819D02*
X161928571Y-71254819D01*
X161928571Y-71254819D02*
X161785714Y-71302438D01*
X160785714Y-72159580D02*
X160833333Y-72207200D01*
X160833333Y-72207200D02*
X160976190Y-72254819D01*
X160976190Y-72254819D02*
X161071428Y-72254819D01*
X161071428Y-72254819D02*
X161214285Y-72207200D01*
X161214285Y-72207200D02*
X161309523Y-72111961D01*
X161309523Y-72111961D02*
X161357142Y-72016723D01*
X161357142Y-72016723D02*
X161404761Y-71826247D01*
X161404761Y-71826247D02*
X161404761Y-71683390D01*
X161404761Y-71683390D02*
X161357142Y-71492914D01*
X161357142Y-71492914D02*
X161309523Y-71397676D01*
X161309523Y-71397676D02*
X161214285Y-71302438D01*
X161214285Y-71302438D02*
X161071428Y-71254819D01*
X161071428Y-71254819D02*
X160976190Y-71254819D01*
X160976190Y-71254819D02*
X160833333Y-71302438D01*
X160833333Y-71302438D02*
X160785714Y-71350057D01*
X160166666Y-71254819D02*
X159976190Y-71254819D01*
X159976190Y-71254819D02*
X159880952Y-71302438D01*
X159880952Y-71302438D02*
X159785714Y-71397676D01*
X159785714Y-71397676D02*
X159738095Y-71588152D01*
X159738095Y-71588152D02*
X159738095Y-71921485D01*
X159738095Y-71921485D02*
X159785714Y-72111961D01*
X159785714Y-72111961D02*
X159880952Y-72207200D01*
X159880952Y-72207200D02*
X159976190Y-72254819D01*
X159976190Y-72254819D02*
X160166666Y-72254819D01*
X160166666Y-72254819D02*
X160261904Y-72207200D01*
X160261904Y-72207200D02*
X160357142Y-72111961D01*
X160357142Y-72111961D02*
X160404761Y-71921485D01*
X160404761Y-71921485D02*
X160404761Y-71588152D01*
X160404761Y-71588152D02*
X160357142Y-71397676D01*
X160357142Y-71397676D02*
X160261904Y-71302438D01*
X160261904Y-71302438D02*
X160166666Y-71254819D01*
X159309523Y-72254819D02*
X159309523Y-71254819D01*
X159309523Y-71254819D02*
X158928571Y-71254819D01*
X158928571Y-71254819D02*
X158833333Y-71302438D01*
X158833333Y-71302438D02*
X158785714Y-71350057D01*
X158785714Y-71350057D02*
X158738095Y-71445295D01*
X158738095Y-71445295D02*
X158738095Y-71588152D01*
X158738095Y-71588152D02*
X158785714Y-71683390D01*
X158785714Y-71683390D02*
X158833333Y-71731009D01*
X158833333Y-71731009D02*
X158928571Y-71778628D01*
X158928571Y-71778628D02*
X159309523Y-71778628D01*
X158309523Y-71731009D02*
X157976190Y-71731009D01*
X157833333Y-72254819D02*
X158309523Y-72254819D01*
X158309523Y-72254819D02*
X158309523Y-71254819D01*
X158309523Y-71254819D02*
X157833333Y-71254819D01*
X157404761Y-71873866D02*
X156642857Y-71873866D01*
X155595238Y-72159580D02*
X155642857Y-72207200D01*
X155642857Y-72207200D02*
X155785714Y-72254819D01*
X155785714Y-72254819D02*
X155880952Y-72254819D01*
X155880952Y-72254819D02*
X156023809Y-72207200D01*
X156023809Y-72207200D02*
X156119047Y-72111961D01*
X156119047Y-72111961D02*
X156166666Y-72016723D01*
X156166666Y-72016723D02*
X156214285Y-71826247D01*
X156214285Y-71826247D02*
X156214285Y-71683390D01*
X156214285Y-71683390D02*
X156166666Y-71492914D01*
X156166666Y-71492914D02*
X156119047Y-71397676D01*
X156119047Y-71397676D02*
X156023809Y-71302438D01*
X156023809Y-71302438D02*
X155880952Y-71254819D01*
X155880952Y-71254819D02*
X155785714Y-71254819D01*
X155785714Y-71254819D02*
X155642857Y-71302438D01*
X155642857Y-71302438D02*
X155595238Y-71350057D01*
X154976190Y-71254819D02*
X154785714Y-71254819D01*
X154785714Y-71254819D02*
X154690476Y-71302438D01*
X154690476Y-71302438D02*
X154595238Y-71397676D01*
X154595238Y-71397676D02*
X154547619Y-71588152D01*
X154547619Y-71588152D02*
X154547619Y-71921485D01*
X154547619Y-71921485D02*
X154595238Y-72111961D01*
X154595238Y-72111961D02*
X154690476Y-72207200D01*
X154690476Y-72207200D02*
X154785714Y-72254819D01*
X154785714Y-72254819D02*
X154976190Y-72254819D01*
X154976190Y-72254819D02*
X155071428Y-72207200D01*
X155071428Y-72207200D02*
X155166666Y-72111961D01*
X155166666Y-72111961D02*
X155214285Y-71921485D01*
X155214285Y-71921485D02*
X155214285Y-71588152D01*
X155214285Y-71588152D02*
X155166666Y-71397676D01*
X155166666Y-71397676D02*
X155071428Y-71302438D01*
X155071428Y-71302438D02*
X154976190Y-71254819D01*
X154119047Y-72254819D02*
X154119047Y-71254819D01*
X154119047Y-71254819D02*
X153547619Y-72254819D01*
X153547619Y-72254819D02*
X153547619Y-71254819D01*
X153071428Y-72254819D02*
X153071428Y-71254819D01*
X153071428Y-71254819D02*
X152500000Y-72254819D01*
X152500000Y-72254819D02*
X152500000Y-71254819D01*
X152023809Y-71731009D02*
X151690476Y-71731009D01*
X151547619Y-72254819D02*
X152023809Y-72254819D01*
X152023809Y-72254819D02*
X152023809Y-71254819D01*
X152023809Y-71254819D02*
X151547619Y-71254819D01*
X150547619Y-72159580D02*
X150595238Y-72207200D01*
X150595238Y-72207200D02*
X150738095Y-72254819D01*
X150738095Y-72254819D02*
X150833333Y-72254819D01*
X150833333Y-72254819D02*
X150976190Y-72207200D01*
X150976190Y-72207200D02*
X151071428Y-72111961D01*
X151071428Y-72111961D02*
X151119047Y-72016723D01*
X151119047Y-72016723D02*
X151166666Y-71826247D01*
X151166666Y-71826247D02*
X151166666Y-71683390D01*
X151166666Y-71683390D02*
X151119047Y-71492914D01*
X151119047Y-71492914D02*
X151071428Y-71397676D01*
X151071428Y-71397676D02*
X150976190Y-71302438D01*
X150976190Y-71302438D02*
X150833333Y-71254819D01*
X150833333Y-71254819D02*
X150738095Y-71254819D01*
X150738095Y-71254819D02*
X150595238Y-71302438D01*
X150595238Y-71302438D02*
X150547619Y-71350057D01*
X150261904Y-71254819D02*
X149690476Y-71254819D01*
X149976190Y-72254819D02*
X149976190Y-71254819D01*
X149166666Y-71254819D02*
X148976190Y-71254819D01*
X148976190Y-71254819D02*
X148880952Y-71302438D01*
X148880952Y-71302438D02*
X148785714Y-71397676D01*
X148785714Y-71397676D02*
X148738095Y-71588152D01*
X148738095Y-71588152D02*
X148738095Y-71921485D01*
X148738095Y-71921485D02*
X148785714Y-72111961D01*
X148785714Y-72111961D02*
X148880952Y-72207200D01*
X148880952Y-72207200D02*
X148976190Y-72254819D01*
X148976190Y-72254819D02*
X149166666Y-72254819D01*
X149166666Y-72254819D02*
X149261904Y-72207200D01*
X149261904Y-72207200D02*
X149357142Y-72111961D01*
X149357142Y-72111961D02*
X149404761Y-71921485D01*
X149404761Y-71921485D02*
X149404761Y-71588152D01*
X149404761Y-71588152D02*
X149357142Y-71397676D01*
X149357142Y-71397676D02*
X149261904Y-71302438D01*
X149261904Y-71302438D02*
X149166666Y-71254819D01*
X147738095Y-72254819D02*
X148071428Y-71778628D01*
X148309523Y-72254819D02*
X148309523Y-71254819D01*
X148309523Y-71254819D02*
X147928571Y-71254819D01*
X147928571Y-71254819D02*
X147833333Y-71302438D01*
X147833333Y-71302438D02*
X147785714Y-71350057D01*
X147785714Y-71350057D02*
X147738095Y-71445295D01*
X147738095Y-71445295D02*
X147738095Y-71588152D01*
X147738095Y-71588152D02*
X147785714Y-71683390D01*
X147785714Y-71683390D02*
X147833333Y-71731009D01*
X147833333Y-71731009D02*
X147928571Y-71778628D01*
X147928571Y-71778628D02*
X148309523Y-71778628D01*
X176666666Y-101454819D02*
X176999999Y-100978628D01*
X177238094Y-101454819D02*
X177238094Y-100454819D01*
X177238094Y-100454819D02*
X176857142Y-100454819D01*
X176857142Y-100454819D02*
X176761904Y-100502438D01*
X176761904Y-100502438D02*
X176714285Y-100550057D01*
X176714285Y-100550057D02*
X176666666Y-100645295D01*
X176666666Y-100645295D02*
X176666666Y-100788152D01*
X176666666Y-100788152D02*
X176714285Y-100883390D01*
X176714285Y-100883390D02*
X176761904Y-100931009D01*
X176761904Y-100931009D02*
X176857142Y-100978628D01*
X176857142Y-100978628D02*
X177238094Y-100978628D01*
X175714285Y-101454819D02*
X176285713Y-101454819D01*
X175999999Y-101454819D02*
X175999999Y-100454819D01*
X175999999Y-100454819D02*
X176095237Y-100597676D01*
X176095237Y-100597676D02*
X176190475Y-100692914D01*
X176190475Y-100692914D02*
X176285713Y-100740533D01*
X182319285Y-90454819D02*
X182319285Y-89454819D01*
X182319285Y-89454819D02*
X181938333Y-89454819D01*
X181938333Y-89454819D02*
X181843095Y-89502438D01*
X181843095Y-89502438D02*
X181795476Y-89550057D01*
X181795476Y-89550057D02*
X181747857Y-89645295D01*
X181747857Y-89645295D02*
X181747857Y-89788152D01*
X181747857Y-89788152D02*
X181795476Y-89883390D01*
X181795476Y-89883390D02*
X181843095Y-89931009D01*
X181843095Y-89931009D02*
X181938333Y-89978628D01*
X181938333Y-89978628D02*
X182319285Y-89978628D01*
X181128809Y-89454819D02*
X180938333Y-89454819D01*
X180938333Y-89454819D02*
X180843095Y-89502438D01*
X180843095Y-89502438D02*
X180747857Y-89597676D01*
X180747857Y-89597676D02*
X180700238Y-89788152D01*
X180700238Y-89788152D02*
X180700238Y-90121485D01*
X180700238Y-90121485D02*
X180747857Y-90311961D01*
X180747857Y-90311961D02*
X180843095Y-90407200D01*
X180843095Y-90407200D02*
X180938333Y-90454819D01*
X180938333Y-90454819D02*
X181128809Y-90454819D01*
X181128809Y-90454819D02*
X181224047Y-90407200D01*
X181224047Y-90407200D02*
X181319285Y-90311961D01*
X181319285Y-90311961D02*
X181366904Y-90121485D01*
X181366904Y-90121485D02*
X181366904Y-89788152D01*
X181366904Y-89788152D02*
X181319285Y-89597676D01*
X181319285Y-89597676D02*
X181224047Y-89502438D01*
X181224047Y-89502438D02*
X181128809Y-89454819D01*
X180366904Y-89454819D02*
X180128809Y-90454819D01*
X180128809Y-90454819D02*
X179938333Y-89740533D01*
X179938333Y-89740533D02*
X179747857Y-90454819D01*
X179747857Y-90454819D02*
X179509762Y-89454819D01*
X179128809Y-89931009D02*
X178795476Y-89931009D01*
X178652619Y-90454819D02*
X179128809Y-90454819D01*
X179128809Y-90454819D02*
X179128809Y-89454819D01*
X179128809Y-89454819D02*
X178652619Y-89454819D01*
X177652619Y-90454819D02*
X177985952Y-89978628D01*
X178224047Y-90454819D02*
X178224047Y-89454819D01*
X178224047Y-89454819D02*
X177843095Y-89454819D01*
X177843095Y-89454819D02*
X177747857Y-89502438D01*
X177747857Y-89502438D02*
X177700238Y-89550057D01*
X177700238Y-89550057D02*
X177652619Y-89645295D01*
X177652619Y-89645295D02*
X177652619Y-89788152D01*
X177652619Y-89788152D02*
X177700238Y-89883390D01*
X177700238Y-89883390D02*
X177747857Y-89931009D01*
X177747857Y-89931009D02*
X177843095Y-89978628D01*
X177843095Y-89978628D02*
X178224047Y-89978628D01*
X177224047Y-90073866D02*
X176462143Y-90073866D01*
X175795476Y-89454819D02*
X175605000Y-89454819D01*
X175605000Y-89454819D02*
X175509762Y-89502438D01*
X175509762Y-89502438D02*
X175414524Y-89597676D01*
X175414524Y-89597676D02*
X175366905Y-89788152D01*
X175366905Y-89788152D02*
X175366905Y-90121485D01*
X175366905Y-90121485D02*
X175414524Y-90311961D01*
X175414524Y-90311961D02*
X175509762Y-90407200D01*
X175509762Y-90407200D02*
X175605000Y-90454819D01*
X175605000Y-90454819D02*
X175795476Y-90454819D01*
X175795476Y-90454819D02*
X175890714Y-90407200D01*
X175890714Y-90407200D02*
X175985952Y-90311961D01*
X175985952Y-90311961D02*
X176033571Y-90121485D01*
X176033571Y-90121485D02*
X176033571Y-89788152D01*
X176033571Y-89788152D02*
X175985952Y-89597676D01*
X175985952Y-89597676D02*
X175890714Y-89502438D01*
X175890714Y-89502438D02*
X175795476Y-89454819D01*
X174938333Y-90454819D02*
X174938333Y-89454819D01*
X174938333Y-89454819D02*
X174366905Y-90454819D01*
X174366905Y-90454819D02*
X174366905Y-89454819D01*
X172652619Y-90454819D02*
X173128809Y-90454819D01*
X173128809Y-90454819D02*
X173128809Y-89454819D01*
X172319285Y-89931009D02*
X171985952Y-89931009D01*
X171843095Y-90454819D02*
X172319285Y-90454819D01*
X172319285Y-90454819D02*
X172319285Y-89454819D01*
X172319285Y-89454819D02*
X171843095Y-89454819D01*
X171414523Y-90454819D02*
X171414523Y-89454819D01*
X171414523Y-89454819D02*
X171176428Y-89454819D01*
X171176428Y-89454819D02*
X171033571Y-89502438D01*
X171033571Y-89502438D02*
X170938333Y-89597676D01*
X170938333Y-89597676D02*
X170890714Y-89692914D01*
X170890714Y-89692914D02*
X170843095Y-89883390D01*
X170843095Y-89883390D02*
X170843095Y-90026247D01*
X170843095Y-90026247D02*
X170890714Y-90216723D01*
X170890714Y-90216723D02*
X170938333Y-90311961D01*
X170938333Y-90311961D02*
X171033571Y-90407200D01*
X171033571Y-90407200D02*
X171176428Y-90454819D01*
X171176428Y-90454819D02*
X171414523Y-90454819D01*
X125761904Y-114954819D02*
X125571428Y-114954819D01*
X125571428Y-114954819D02*
X125476190Y-115002438D01*
X125476190Y-115002438D02*
X125380952Y-115097676D01*
X125380952Y-115097676D02*
X125333333Y-115288152D01*
X125333333Y-115288152D02*
X125333333Y-115621485D01*
X125333333Y-115621485D02*
X125380952Y-115811961D01*
X125380952Y-115811961D02*
X125476190Y-115907200D01*
X125476190Y-115907200D02*
X125571428Y-115954819D01*
X125571428Y-115954819D02*
X125761904Y-115954819D01*
X125761904Y-115954819D02*
X125857142Y-115907200D01*
X125857142Y-115907200D02*
X125952380Y-115811961D01*
X125952380Y-115811961D02*
X125999999Y-115621485D01*
X125999999Y-115621485D02*
X125999999Y-115288152D01*
X125999999Y-115288152D02*
X125952380Y-115097676D01*
X125952380Y-115097676D02*
X125857142Y-115002438D01*
X125857142Y-115002438D02*
X125761904Y-114954819D01*
X124428571Y-115954819D02*
X124904761Y-115954819D01*
X124904761Y-115954819D02*
X124904761Y-114954819D01*
X124095237Y-115431009D02*
X123761904Y-115431009D01*
X123619047Y-115954819D02*
X124095237Y-115954819D01*
X124095237Y-115954819D02*
X124095237Y-114954819D01*
X124095237Y-114954819D02*
X123619047Y-114954819D01*
X123190475Y-115954819D02*
X123190475Y-114954819D01*
X123190475Y-114954819D02*
X122952380Y-114954819D01*
X122952380Y-114954819D02*
X122809523Y-115002438D01*
X122809523Y-115002438D02*
X122714285Y-115097676D01*
X122714285Y-115097676D02*
X122666666Y-115192914D01*
X122666666Y-115192914D02*
X122619047Y-115383390D01*
X122619047Y-115383390D02*
X122619047Y-115526247D01*
X122619047Y-115526247D02*
X122666666Y-115716723D01*
X122666666Y-115716723D02*
X122714285Y-115811961D01*
X122714285Y-115811961D02*
X122809523Y-115907200D01*
X122809523Y-115907200D02*
X122952380Y-115954819D01*
X122952380Y-115954819D02*
X123190475Y-115954819D01*
X120857142Y-115859580D02*
X120904761Y-115907200D01*
X120904761Y-115907200D02*
X121047618Y-115954819D01*
X121047618Y-115954819D02*
X121142856Y-115954819D01*
X121142856Y-115954819D02*
X121285713Y-115907200D01*
X121285713Y-115907200D02*
X121380951Y-115811961D01*
X121380951Y-115811961D02*
X121428570Y-115716723D01*
X121428570Y-115716723D02*
X121476189Y-115526247D01*
X121476189Y-115526247D02*
X121476189Y-115383390D01*
X121476189Y-115383390D02*
X121428570Y-115192914D01*
X121428570Y-115192914D02*
X121380951Y-115097676D01*
X121380951Y-115097676D02*
X121285713Y-115002438D01*
X121285713Y-115002438D02*
X121142856Y-114954819D01*
X121142856Y-114954819D02*
X121047618Y-114954819D01*
X121047618Y-114954819D02*
X120904761Y-115002438D01*
X120904761Y-115002438D02*
X120857142Y-115050057D01*
X120238094Y-114954819D02*
X120047618Y-114954819D01*
X120047618Y-114954819D02*
X119952380Y-115002438D01*
X119952380Y-115002438D02*
X119857142Y-115097676D01*
X119857142Y-115097676D02*
X119809523Y-115288152D01*
X119809523Y-115288152D02*
X119809523Y-115621485D01*
X119809523Y-115621485D02*
X119857142Y-115811961D01*
X119857142Y-115811961D02*
X119952380Y-115907200D01*
X119952380Y-115907200D02*
X120047618Y-115954819D01*
X120047618Y-115954819D02*
X120238094Y-115954819D01*
X120238094Y-115954819D02*
X120333332Y-115907200D01*
X120333332Y-115907200D02*
X120428570Y-115811961D01*
X120428570Y-115811961D02*
X120476189Y-115621485D01*
X120476189Y-115621485D02*
X120476189Y-115288152D01*
X120476189Y-115288152D02*
X120428570Y-115097676D01*
X120428570Y-115097676D02*
X120333332Y-115002438D01*
X120333332Y-115002438D02*
X120238094Y-114954819D01*
X119380951Y-115954819D02*
X119380951Y-114954819D01*
X119380951Y-114954819D02*
X118809523Y-115954819D01*
X118809523Y-115954819D02*
X118809523Y-114954819D01*
X118333332Y-115954819D02*
X118333332Y-114954819D01*
X118333332Y-114954819D02*
X117761904Y-115954819D01*
X117761904Y-115954819D02*
X117761904Y-114954819D01*
X117285713Y-115431009D02*
X116952380Y-115431009D01*
X116809523Y-115954819D02*
X117285713Y-115954819D01*
X117285713Y-115954819D02*
X117285713Y-114954819D01*
X117285713Y-114954819D02*
X116809523Y-114954819D01*
X115809523Y-115859580D02*
X115857142Y-115907200D01*
X115857142Y-115907200D02*
X115999999Y-115954819D01*
X115999999Y-115954819D02*
X116095237Y-115954819D01*
X116095237Y-115954819D02*
X116238094Y-115907200D01*
X116238094Y-115907200D02*
X116333332Y-115811961D01*
X116333332Y-115811961D02*
X116380951Y-115716723D01*
X116380951Y-115716723D02*
X116428570Y-115526247D01*
X116428570Y-115526247D02*
X116428570Y-115383390D01*
X116428570Y-115383390D02*
X116380951Y-115192914D01*
X116380951Y-115192914D02*
X116333332Y-115097676D01*
X116333332Y-115097676D02*
X116238094Y-115002438D01*
X116238094Y-115002438D02*
X116095237Y-114954819D01*
X116095237Y-114954819D02*
X115999999Y-114954819D01*
X115999999Y-114954819D02*
X115857142Y-115002438D01*
X115857142Y-115002438D02*
X115809523Y-115050057D01*
X115523808Y-114954819D02*
X114952380Y-114954819D01*
X115238094Y-115954819D02*
X115238094Y-114954819D01*
X114428570Y-114954819D02*
X114238094Y-114954819D01*
X114238094Y-114954819D02*
X114142856Y-115002438D01*
X114142856Y-115002438D02*
X114047618Y-115097676D01*
X114047618Y-115097676D02*
X113999999Y-115288152D01*
X113999999Y-115288152D02*
X113999999Y-115621485D01*
X113999999Y-115621485D02*
X114047618Y-115811961D01*
X114047618Y-115811961D02*
X114142856Y-115907200D01*
X114142856Y-115907200D02*
X114238094Y-115954819D01*
X114238094Y-115954819D02*
X114428570Y-115954819D01*
X114428570Y-115954819D02*
X114523808Y-115907200D01*
X114523808Y-115907200D02*
X114619046Y-115811961D01*
X114619046Y-115811961D02*
X114666665Y-115621485D01*
X114666665Y-115621485D02*
X114666665Y-115288152D01*
X114666665Y-115288152D02*
X114619046Y-115097676D01*
X114619046Y-115097676D02*
X114523808Y-115002438D01*
X114523808Y-115002438D02*
X114428570Y-114954819D01*
X112999999Y-115954819D02*
X113333332Y-115478628D01*
X113571427Y-115954819D02*
X113571427Y-114954819D01*
X113571427Y-114954819D02*
X113190475Y-114954819D01*
X113190475Y-114954819D02*
X113095237Y-115002438D01*
X113095237Y-115002438D02*
X113047618Y-115050057D01*
X113047618Y-115050057D02*
X112999999Y-115145295D01*
X112999999Y-115145295D02*
X112999999Y-115288152D01*
X112999999Y-115288152D02*
X113047618Y-115383390D01*
X113047618Y-115383390D02*
X113095237Y-115431009D01*
X113095237Y-115431009D02*
X113190475Y-115478628D01*
X113190475Y-115478628D02*
X113571427Y-115478628D01*
D14*
X100350000Y-73000000D02*
X165850000Y-73000000D01*
X100350000Y-103000000D02*
X100350000Y-73000000D01*
X165850000Y-73000000D02*
X165850000Y-103000000D01*
X165850000Y-103000000D02*
X100350000Y-103000000D01*
D15*
G36*
X162673835Y-112165013D02*
G01*
X162736181Y-112180402D01*
X162796686Y-112202137D01*
X162845640Y-112226701D01*
X162873328Y-112250576D01*
X162874375Y-112264749D01*
X162869370Y-112304478D01*
X162858342Y-112361954D01*
X162842490Y-112430190D01*
X162801571Y-112593492D01*
X162708777Y-112557126D01*
X162609244Y-112513125D01*
X162530002Y-112464704D01*
X162478323Y-112413492D01*
X162452292Y-112357552D01*
X162449995Y-112294942D01*
X162459414Y-112253500D01*
X162491659Y-112200467D01*
X162545341Y-112169469D01*
X162621764Y-112159476D01*
X162673835Y-112165013D01*
G37*
G36*
X162844266Y-111680586D02*
G01*
X162941323Y-111707604D01*
X162989401Y-111726105D01*
X163025296Y-111745236D01*
X163039016Y-111760068D01*
X163034246Y-111780271D01*
X163019492Y-111821266D01*
X162998233Y-111872116D01*
X162978615Y-111916783D01*
X162957395Y-111966258D01*
X162943912Y-111999107D01*
X162934823Y-112017880D01*
X162915851Y-112031807D01*
X162885659Y-112026004D01*
X162837661Y-112000560D01*
X162802898Y-111978547D01*
X162727177Y-111917719D01*
X162677739Y-111855824D01*
X162656072Y-111795107D01*
X162663662Y-111737812D01*
X162678851Y-111710772D01*
X162715772Y-111681872D01*
X162769996Y-111671909D01*
X162844266Y-111680586D01*
G37*
G36*
X170023018Y-111446367D02*
G01*
X170051648Y-111481451D01*
X170078458Y-111516953D01*
X170122202Y-111577449D01*
X170169928Y-111645705D01*
X170218488Y-111716968D01*
X170264730Y-111786484D01*
X170305505Y-111849501D01*
X170337662Y-111901266D01*
X170358051Y-111937025D01*
X170363523Y-111952025D01*
X170355075Y-111955635D01*
X170320873Y-111964581D01*
X170267412Y-111976052D01*
X170201804Y-111988445D01*
X170160777Y-111995501D01*
X170098348Y-112005268D01*
X170050766Y-112011484D01*
X170025969Y-112013040D01*
X170015224Y-112003558D01*
X170001762Y-111967975D01*
X169989750Y-111911737D01*
X169979641Y-111840912D01*
X169971882Y-111761564D01*
X169966926Y-111679758D01*
X169965221Y-111601561D01*
X169967218Y-111533037D01*
X169973369Y-111480251D01*
X169984121Y-111449270D01*
X169992457Y-111438945D01*
X170005627Y-111433314D01*
X170023018Y-111446367D01*
G37*
G36*
X174096385Y-112204509D02*
G01*
X174203110Y-112523046D01*
X174230101Y-112614167D01*
X174291789Y-112822420D01*
X174321009Y-112932109D01*
X174382490Y-113184195D01*
X174439428Y-113446624D01*
X174490679Y-113712822D01*
X174535099Y-113976213D01*
X174571542Y-114230223D01*
X174598864Y-114468277D01*
X174615920Y-114683802D01*
X174626180Y-114863446D01*
X174422820Y-114863446D01*
X174219460Y-114863446D01*
X174208657Y-114570369D01*
X174204941Y-114481552D01*
X174194359Y-114291212D01*
X174180293Y-114095292D01*
X174163298Y-113899056D01*
X174143927Y-113707765D01*
X174122733Y-113526683D01*
X174100270Y-113361072D01*
X174077090Y-113216195D01*
X174053749Y-113097314D01*
X174034595Y-113011491D01*
X173956775Y-113000229D01*
X173944031Y-112998554D01*
X173890937Y-112992936D01*
X173817506Y-112986352D01*
X173731702Y-112979488D01*
X173641484Y-112973032D01*
X173602887Y-112970644D01*
X173454169Y-112965236D01*
X173300661Y-112965881D01*
X173140610Y-112972926D01*
X172972269Y-112986720D01*
X172793887Y-113007612D01*
X172603714Y-113035950D01*
X172400001Y-113072082D01*
X172180997Y-113116356D01*
X171944954Y-113169122D01*
X171690120Y-113230727D01*
X171414747Y-113301519D01*
X171127323Y-113379085D01*
X171117085Y-113381848D01*
X170795383Y-113472061D01*
X170447892Y-113572507D01*
X170072862Y-113683535D01*
X170047969Y-113690973D01*
X169719619Y-113787944D01*
X169417038Y-113874886D01*
X169136898Y-113952506D01*
X168875870Y-114021514D01*
X168630624Y-114082617D01*
X168397830Y-114136524D01*
X168174160Y-114183942D01*
X167956285Y-114225581D01*
X167740874Y-114262148D01*
X167524598Y-114294352D01*
X167304129Y-114322901D01*
X167076137Y-114348503D01*
X166837293Y-114371866D01*
X166733857Y-114379905D01*
X166610228Y-114387119D01*
X166471583Y-114393386D01*
X166322547Y-114398634D01*
X166167742Y-114402792D01*
X166011791Y-114405788D01*
X165859318Y-114407553D01*
X165714946Y-114408013D01*
X165583298Y-114407099D01*
X165468998Y-114404738D01*
X165376669Y-114400860D01*
X165310934Y-114395393D01*
X165297443Y-114393702D01*
X164979448Y-114339848D01*
X164649018Y-114257722D01*
X164306578Y-114147527D01*
X163952552Y-114009467D01*
X163587363Y-113843748D01*
X163211435Y-113650575D01*
X162825190Y-113430151D01*
X162641383Y-113315325D01*
X164211394Y-113315325D01*
X164235979Y-113356291D01*
X164287497Y-113392705D01*
X164292176Y-113394971D01*
X164343264Y-113414844D01*
X164416959Y-113438181D01*
X164506069Y-113463062D01*
X164603400Y-113487570D01*
X164701763Y-113509787D01*
X164793963Y-113527793D01*
X164833332Y-113534339D01*
X164944447Y-113547259D01*
X165027612Y-113547043D01*
X165082684Y-113533700D01*
X165086978Y-113529466D01*
X165415860Y-113529466D01*
X165440078Y-113601109D01*
X165491799Y-113662471D01*
X165569290Y-113710507D01*
X165605753Y-113723905D01*
X165689861Y-113741528D01*
X165782873Y-113748414D01*
X165872261Y-113743990D01*
X165945501Y-113727684D01*
X165961952Y-113720815D01*
X166030426Y-113678044D01*
X166099151Y-113616190D01*
X166159907Y-113543489D01*
X166204476Y-113468178D01*
X166231911Y-113403198D01*
X166260843Y-113314721D01*
X166281014Y-113219918D01*
X166294055Y-113110558D01*
X166301598Y-112978407D01*
X166302824Y-112933979D01*
X166297744Y-112746386D01*
X166275020Y-112584283D01*
X166234523Y-112447323D01*
X166176124Y-112335158D01*
X166099691Y-112247439D01*
X166005096Y-112183820D01*
X165969493Y-112167790D01*
X165879104Y-112144882D01*
X165795181Y-112151943D01*
X165715580Y-112189402D01*
X165643357Y-112253109D01*
X165638161Y-112257692D01*
X165616391Y-112282372D01*
X165576674Y-112338972D01*
X165558529Y-112391543D01*
X165558257Y-112448935D01*
X165558405Y-112450161D01*
X165571430Y-112493471D01*
X165598467Y-112512713D01*
X165642138Y-112508465D01*
X165705062Y-112481306D01*
X165746698Y-112461991D01*
X165799123Y-112443789D01*
X165837789Y-112437277D01*
X165848989Y-112438142D01*
X165909012Y-112459267D01*
X165964989Y-112503715D01*
X166008634Y-112565277D01*
X166018428Y-112585919D01*
X166049480Y-112683777D01*
X166063730Y-112792913D01*
X166062439Y-112908100D01*
X166046868Y-113024112D01*
X166018281Y-113135723D01*
X165977937Y-113237706D01*
X165927100Y-113324834D01*
X165867031Y-113391882D01*
X165798992Y-113433624D01*
X165777185Y-113441720D01*
X165745113Y-113450573D01*
X165714654Y-113451204D01*
X165675346Y-113443182D01*
X165616726Y-113426072D01*
X165601197Y-113421467D01*
X165525013Y-113403789D01*
X165471851Y-113402368D01*
X165438323Y-113417616D01*
X165421039Y-113449948D01*
X165420878Y-113450590D01*
X165415860Y-113529466D01*
X165086978Y-113529466D01*
X165109520Y-113507240D01*
X165113031Y-113491931D01*
X165120027Y-113448617D01*
X165128996Y-113384236D01*
X165139154Y-113304483D01*
X165149717Y-113215053D01*
X165153732Y-113180277D01*
X165168452Y-113058506D01*
X165185450Y-112924395D01*
X165202928Y-112791940D01*
X165219088Y-112675138D01*
X165225907Y-112626280D01*
X165244315Y-112475095D01*
X165254362Y-112351401D01*
X165255891Y-112253109D01*
X165248744Y-112178134D01*
X165236895Y-112138277D01*
X167091733Y-112138277D01*
X167093575Y-112195235D01*
X167095650Y-112204125D01*
X167118950Y-112258796D01*
X167162117Y-112329622D01*
X167222340Y-112412673D01*
X167296811Y-112504018D01*
X167382720Y-112599727D01*
X167510055Y-112735331D01*
X167472134Y-112791210D01*
X167465059Y-112802360D01*
X167435259Y-112860690D01*
X167404505Y-112933979D01*
X167401641Y-112940803D01*
X167366750Y-113035874D01*
X167333134Y-113139077D01*
X167303339Y-113243588D01*
X167297403Y-113267154D01*
X167276206Y-113383808D01*
X167271466Y-113486228D01*
X167282808Y-113571110D01*
X167309858Y-113635150D01*
X167352242Y-113675044D01*
X167355607Y-113676747D01*
X167408625Y-113689256D01*
X167470981Y-113686031D01*
X167526715Y-113667740D01*
X167547580Y-113654723D01*
X167579454Y-113623445D01*
X167603961Y-113578410D01*
X167623856Y-113513787D01*
X167641889Y-113423747D01*
X167653682Y-113358196D01*
X167671181Y-113266091D01*
X167690735Y-113167081D01*
X167709903Y-113073723D01*
X167711501Y-113066131D01*
X167728674Y-112986100D01*
X167741812Y-112931341D01*
X167752935Y-112896887D01*
X167764059Y-112877767D01*
X167777201Y-112869012D01*
X167794381Y-112865651D01*
X167797968Y-112865267D01*
X167850670Y-112870873D01*
X167888407Y-112901407D01*
X167914519Y-112959478D01*
X167923613Y-112988316D01*
X167965222Y-113090399D01*
X168018166Y-113186861D01*
X168079221Y-113274338D01*
X168145164Y-113349463D01*
X168212770Y-113408874D01*
X168278816Y-113449205D01*
X168340076Y-113467091D01*
X168393328Y-113459168D01*
X168431293Y-113428730D01*
X168452237Y-113379085D01*
X168448225Y-113320963D01*
X168442949Y-113306812D01*
X168424187Y-113264379D01*
X168395421Y-113203576D01*
X168359444Y-113130257D01*
X168319050Y-113050277D01*
X168269303Y-112950383D01*
X168215497Y-112831858D01*
X168172307Y-112719996D01*
X168138105Y-112608478D01*
X168111263Y-112490985D01*
X168090153Y-112361199D01*
X168073147Y-112212800D01*
X168058617Y-112039470D01*
X168057985Y-112031045D01*
X168045314Y-111907619D01*
X168028005Y-111813029D01*
X168005385Y-111745225D01*
X168003619Y-111742566D01*
X168355772Y-111742566D01*
X168376345Y-111814328D01*
X168381390Y-111823552D01*
X168417703Y-111865215D01*
X168462222Y-111877747D01*
X168516008Y-111861156D01*
X168580123Y-111815446D01*
X168589209Y-111807672D01*
X168634594Y-111773704D01*
X168673186Y-111757230D01*
X168716615Y-111752923D01*
X168738820Y-111753651D01*
X168773536Y-111761418D01*
X168806077Y-111782350D01*
X168847196Y-111822148D01*
X168850086Y-111825193D01*
X168904182Y-111893897D01*
X168955983Y-111983521D01*
X169007223Y-112097468D01*
X169059635Y-112239139D01*
X169075317Y-112286058D01*
X169091132Y-112339859D01*
X169101300Y-112388979D01*
X169107100Y-112442401D01*
X169109810Y-112509112D01*
X169110708Y-112598094D01*
X169110748Y-112608108D01*
X169110715Y-112691155D01*
X169109251Y-112750047D01*
X169105402Y-112791236D01*
X169098210Y-112821173D01*
X169086721Y-112846310D01*
X169069980Y-112873097D01*
X169011570Y-112936548D01*
X168935571Y-112975010D01*
X168841999Y-112987754D01*
X168838267Y-112987770D01*
X168774598Y-112995879D01*
X168734257Y-113021255D01*
X168714151Y-113067451D01*
X168711185Y-113138022D01*
X168719882Y-113166076D01*
X168752167Y-113209323D01*
X168801680Y-113251796D01*
X168861477Y-113286632D01*
X168868574Y-113289871D01*
X168907897Y-113305860D01*
X168940901Y-113312198D01*
X168979852Y-113309786D01*
X169037015Y-113299524D01*
X169143627Y-113268899D01*
X169245118Y-113214504D01*
X169326973Y-113138259D01*
X169389739Y-113039274D01*
X169433963Y-112916661D01*
X169460193Y-112769527D01*
X169468975Y-112596984D01*
X169457452Y-112394265D01*
X169420382Y-112194086D01*
X169356342Y-111995502D01*
X169263920Y-111792979D01*
X169250366Y-111768190D01*
X169192157Y-111680465D01*
X169148710Y-111628507D01*
X169704438Y-111628507D01*
X169717187Y-111843492D01*
X169744199Y-112074212D01*
X169785190Y-112317149D01*
X169839876Y-112568786D01*
X169847332Y-112596984D01*
X169865435Y-112665452D01*
X169899851Y-112765904D01*
X169937775Y-112842426D01*
X169981354Y-112899151D01*
X170032734Y-112940212D01*
X170054674Y-112952750D01*
X170123944Y-112977969D01*
X170183669Y-112977607D01*
X170230276Y-112952258D01*
X170260190Y-112902513D01*
X170263162Y-112892389D01*
X170266984Y-112862741D01*
X170263476Y-112825175D01*
X170251590Y-112772511D01*
X170230278Y-112697573D01*
X170217989Y-112656754D01*
X170195461Y-112583703D01*
X170175168Y-112519948D01*
X170160377Y-112475846D01*
X170153766Y-112455337D01*
X170147017Y-112422408D01*
X170150578Y-112409415D01*
X170156425Y-112409034D01*
X170188969Y-112405579D01*
X170242529Y-112399224D01*
X170310159Y-112390824D01*
X170384917Y-112381235D01*
X170459858Y-112371312D01*
X170464706Y-112370686D01*
X170491802Y-112370122D01*
X170513080Y-112380041D01*
X170535726Y-112405952D01*
X170566930Y-112453361D01*
X170570365Y-112458770D01*
X170636947Y-112552174D01*
X170703491Y-112625540D01*
X170767537Y-112677617D01*
X170826627Y-112707155D01*
X170878303Y-112712903D01*
X170920106Y-112693610D01*
X170949579Y-112648026D01*
X170951862Y-112641646D01*
X170957815Y-112614167D01*
X170956648Y-112583047D01*
X170946879Y-112544419D01*
X170927024Y-112494415D01*
X170895600Y-112429169D01*
X170851124Y-112344812D01*
X170792112Y-112237477D01*
X170776753Y-112209807D01*
X170712302Y-112092984D01*
X170641287Y-111963320D01*
X170566814Y-111826555D01*
X170491985Y-111688429D01*
X170419905Y-111554681D01*
X170353677Y-111431051D01*
X170296405Y-111323280D01*
X170251192Y-111237107D01*
X170219624Y-111180534D01*
X170148081Y-111080600D01*
X170072120Y-111011290D01*
X169991922Y-110972793D01*
X169970273Y-110967545D01*
X169933383Y-110962586D01*
X170861015Y-110962586D01*
X170869469Y-111030419D01*
X170887228Y-111118830D01*
X170914333Y-111232439D01*
X170928180Y-111286391D01*
X170957581Y-111394986D01*
X170993430Y-111522228D01*
X171033679Y-111661236D01*
X171076284Y-111805130D01*
X171119199Y-111947029D01*
X171160378Y-112080053D01*
X171197775Y-112197322D01*
X171229346Y-112291956D01*
X171275721Y-112398708D01*
X171336010Y-112483814D01*
X171409569Y-112543265D01*
X171420890Y-112549533D01*
X171488664Y-112574337D01*
X171554521Y-112579775D01*
X171608122Y-112564730D01*
X171632007Y-112538698D01*
X171650922Y-112488541D01*
X171658563Y-112426071D01*
X171652805Y-112360971D01*
X171624876Y-112225946D01*
X171602510Y-112115145D01*
X171585935Y-112028954D01*
X171574672Y-111964384D01*
X171568244Y-111918442D01*
X171566174Y-111888138D01*
X171567982Y-111870480D01*
X171573192Y-111862476D01*
X171576817Y-111860469D01*
X171606134Y-111847357D01*
X171654958Y-111827583D01*
X171717211Y-111803403D01*
X171786816Y-111777072D01*
X171857695Y-111750846D01*
X171923770Y-111726979D01*
X171978962Y-111707727D01*
X172017194Y-111695345D01*
X172032387Y-111692089D01*
X172034450Y-111695551D01*
X172048318Y-111721242D01*
X172072706Y-111767490D01*
X172104955Y-111829235D01*
X172142405Y-111901415D01*
X172176483Y-111965988D01*
X172227370Y-112055131D01*
X172272569Y-112122348D01*
X172315678Y-112172159D01*
X172360293Y-112209086D01*
X172410012Y-112237646D01*
X172428527Y-112246056D01*
X172505575Y-112267340D01*
X172570628Y-112261400D01*
X172621860Y-112228316D01*
X172643819Y-112196336D01*
X172658780Y-112144290D01*
X172659890Y-112075943D01*
X172646890Y-111988495D01*
X172619525Y-111879149D01*
X172577538Y-111745107D01*
X172530234Y-111596312D01*
X172475830Y-111408143D01*
X172423668Y-111210829D01*
X172376812Y-111016031D01*
X172338328Y-110835405D01*
X172325386Y-110774974D01*
X172307520Y-110704490D01*
X172290073Y-110647803D01*
X172275457Y-110613425D01*
X172271241Y-110606812D01*
X172222275Y-110556545D01*
X172160955Y-110527733D01*
X172096567Y-110524966D01*
X172055971Y-110539581D01*
X172000425Y-110583913D01*
X171951919Y-110650880D01*
X171912208Y-110735494D01*
X171883046Y-110832767D01*
X171866191Y-110937710D01*
X171863395Y-111045334D01*
X171876416Y-111150651D01*
X171877301Y-111154901D01*
X171887437Y-111209371D01*
X171892990Y-111250653D01*
X171892776Y-111270101D01*
X171887009Y-111274359D01*
X171857556Y-111289296D01*
X171809425Y-111310808D01*
X171749383Y-111335795D01*
X171722805Y-111346529D01*
X171654847Y-111374154D01*
X171594823Y-111398783D01*
X171553273Y-111416100D01*
X171494053Y-111441232D01*
X171469411Y-111382154D01*
X171441659Y-111318498D01*
X171404911Y-111239086D01*
X171363724Y-111153625D01*
X171321008Y-111067858D01*
X171279673Y-110987532D01*
X171242629Y-110918390D01*
X171212788Y-110866179D01*
X171193059Y-110836643D01*
X171168736Y-110811229D01*
X171104858Y-110769921D01*
X171037030Y-110756247D01*
X170970519Y-110770639D01*
X170910592Y-110813527D01*
X170891071Y-110836344D01*
X170871857Y-110870169D01*
X170861825Y-110910709D01*
X170861015Y-110962586D01*
X169933383Y-110962586D01*
X169921220Y-110960951D01*
X169886246Y-110963266D01*
X169883449Y-110964276D01*
X169850166Y-110989346D01*
X169813087Y-111035127D01*
X169777366Y-111093320D01*
X169748158Y-111155629D01*
X169730618Y-111213756D01*
X169722861Y-111259806D01*
X169706234Y-111432772D01*
X169704438Y-111628507D01*
X169148710Y-111628507D01*
X169122458Y-111597113D01*
X169047315Y-111524183D01*
X168972775Y-111467723D01*
X168904883Y-111433783D01*
X168873734Y-111424705D01*
X168781235Y-111408749D01*
X168686227Y-111405700D01*
X168599088Y-111415444D01*
X168530197Y-111437868D01*
X168499101Y-111456285D01*
X168435013Y-111514068D01*
X168387899Y-111585600D01*
X168360554Y-111664045D01*
X168355772Y-111742566D01*
X168003619Y-111742566D01*
X167976783Y-111702151D01*
X167941527Y-111681756D01*
X167892930Y-111679176D01*
X167842086Y-111697197D01*
X167831306Y-111701018D01*
X167774507Y-111747834D01*
X167727810Y-111816301D01*
X167716427Y-111841950D01*
X167704755Y-111885601D01*
X167698746Y-111942640D01*
X167697077Y-112021931D01*
X167697158Y-112033220D01*
X167698283Y-112060455D01*
X167700332Y-112110093D01*
X167707377Y-112199830D01*
X167717270Y-112293611D01*
X167728987Y-112382615D01*
X167741505Y-112458024D01*
X167753803Y-112511015D01*
X167752805Y-112515615D01*
X167736540Y-112507024D01*
X167705488Y-112480673D01*
X167663730Y-112439789D01*
X167653654Y-112429467D01*
X167548762Y-112327269D01*
X167448477Y-112238808D01*
X167355752Y-112166244D01*
X167273538Y-112111737D01*
X167204788Y-112077448D01*
X167152453Y-112065538D01*
X167135606Y-112068561D01*
X167106828Y-112093664D01*
X167091733Y-112138277D01*
X165236895Y-112138277D01*
X165232765Y-112124386D01*
X165207796Y-112089778D01*
X165173681Y-112072224D01*
X165155939Y-112068530D01*
X165116862Y-112070582D01*
X165085885Y-112094055D01*
X165055493Y-112143481D01*
X165038807Y-112180130D01*
X165010017Y-112265606D01*
X164984236Y-112374343D01*
X164961207Y-112507934D01*
X164940676Y-112667967D01*
X164922387Y-112856033D01*
X164906084Y-113073723D01*
X164902806Y-113116369D01*
X164895998Y-113180870D01*
X164888437Y-113230621D01*
X164881237Y-113257384D01*
X164873076Y-113266629D01*
X164835157Y-113280638D01*
X164774266Y-113284558D01*
X164695033Y-113278315D01*
X164602093Y-113261835D01*
X164508621Y-113241231D01*
X164434581Y-113225181D01*
X164381742Y-113214631D01*
X164345275Y-113209074D01*
X164320349Y-113208005D01*
X164302134Y-113210915D01*
X164285799Y-113217300D01*
X164266514Y-113226652D01*
X164245438Y-113238800D01*
X164214347Y-113274573D01*
X164211394Y-113315325D01*
X162641383Y-113315325D01*
X162429054Y-113182681D01*
X162023450Y-112908370D01*
X161608800Y-112607423D01*
X161597594Y-112599011D01*
X161466838Y-112499544D01*
X161331891Y-112394677D01*
X161275700Y-112350199D01*
X162258943Y-112350199D01*
X162271698Y-112428589D01*
X162294509Y-112477217D01*
X162352567Y-112549723D01*
X162436665Y-112620065D01*
X162543715Y-112685797D01*
X162670625Y-112744474D01*
X162755776Y-112771811D01*
X162863935Y-112784554D01*
X162957061Y-112784554D01*
X162983313Y-112679046D01*
X162990889Y-112650620D01*
X163355483Y-112650620D01*
X163356286Y-112729846D01*
X163358005Y-112750820D01*
X163380076Y-112885670D01*
X163419242Y-112995920D01*
X163475157Y-113080830D01*
X163547478Y-113139658D01*
X163553224Y-113142808D01*
X163636518Y-113170701D01*
X163731423Y-113175963D01*
X163830758Y-113160376D01*
X163927343Y-113125728D01*
X164013998Y-113073802D01*
X164083541Y-113006385D01*
X164095135Y-112991395D01*
X164119540Y-112957083D01*
X164140757Y-112921147D01*
X164160684Y-112878829D01*
X164181222Y-112825373D01*
X164204267Y-112756021D01*
X164231720Y-112666017D01*
X164265480Y-112550605D01*
X164277864Y-112507625D01*
X164315344Y-112373992D01*
X164343646Y-112265757D01*
X164363377Y-112179622D01*
X164375146Y-112112288D01*
X164379560Y-112060455D01*
X164377227Y-112020825D01*
X164368755Y-111990099D01*
X164363211Y-111978240D01*
X164328623Y-111938302D01*
X164284572Y-111923268D01*
X164237572Y-111932244D01*
X164194140Y-111964335D01*
X164160792Y-112018646D01*
X164157211Y-112029165D01*
X164145386Y-112069458D01*
X164127949Y-112132612D01*
X164106206Y-112213779D01*
X164081466Y-112308110D01*
X164055037Y-112410757D01*
X164047909Y-112438634D01*
X164013630Y-112570129D01*
X163984713Y-112675078D01*
X163959863Y-112756803D01*
X163937785Y-112818625D01*
X163917184Y-112863866D01*
X163896763Y-112895847D01*
X163875230Y-112917891D01*
X163851287Y-112933319D01*
X163828192Y-112943140D01*
X163766618Y-112951530D01*
X163710490Y-112936372D01*
X163669054Y-112899388D01*
X163653413Y-112862301D01*
X163641080Y-112792394D01*
X163636552Y-112700783D01*
X163639532Y-112592154D01*
X163649725Y-112471192D01*
X163666835Y-112342583D01*
X163690568Y-112211014D01*
X163720628Y-112081169D01*
X163723693Y-112069361D01*
X163740040Y-112003882D01*
X163748723Y-111959089D01*
X163750251Y-111926721D01*
X163745134Y-111898517D01*
X163733881Y-111866216D01*
X163733009Y-111863964D01*
X163701739Y-111811802D01*
X163661968Y-111788602D01*
X163616166Y-111794095D01*
X163566802Y-111828008D01*
X163516347Y-111890072D01*
X163493136Y-111936078D01*
X163466473Y-112011468D01*
X163440154Y-112106189D01*
X163415372Y-112213979D01*
X163393321Y-112328578D01*
X163375193Y-112443725D01*
X163362183Y-112553159D01*
X163355483Y-112650620D01*
X162990889Y-112650620D01*
X162994428Y-112637344D01*
X163013353Y-112569960D01*
X163038397Y-112482853D01*
X163068061Y-112381189D01*
X163100848Y-112270134D01*
X163135260Y-112154856D01*
X163140896Y-112136048D01*
X163183755Y-111989934D01*
X163216179Y-111873127D01*
X163238200Y-111785491D01*
X163249853Y-111726892D01*
X163251172Y-111697197D01*
X163250896Y-111696165D01*
X163228767Y-111662777D01*
X163182744Y-111623081D01*
X163118484Y-111580240D01*
X163041648Y-111537419D01*
X162957896Y-111497779D01*
X162872886Y-111464486D01*
X162792278Y-111440701D01*
X162726837Y-111429605D01*
X162637127Y-111432762D01*
X162565278Y-111461227D01*
X162511748Y-111514778D01*
X162476996Y-111593193D01*
X162469079Y-111625631D01*
X162462000Y-111694983D01*
X162471099Y-111766688D01*
X162497284Y-111852352D01*
X162533891Y-111953203D01*
X162491651Y-111961651D01*
X162439028Y-111982667D01*
X162380799Y-112031048D01*
X162330585Y-112098552D01*
X162291477Y-112178620D01*
X162266566Y-112264689D01*
X162258943Y-112350199D01*
X161275700Y-112350199D01*
X161194975Y-112286301D01*
X161058311Y-112176305D01*
X160924120Y-112066582D01*
X160794624Y-111959022D01*
X160672044Y-111855516D01*
X160558601Y-111757954D01*
X160456516Y-111668227D01*
X160368011Y-111588227D01*
X160295308Y-111519843D01*
X160240626Y-111464967D01*
X160206189Y-111425490D01*
X160194216Y-111403302D01*
X160194260Y-111402238D01*
X160197249Y-111396158D01*
X160206876Y-111391168D01*
X160225878Y-111387164D01*
X160256991Y-111384038D01*
X160302951Y-111381684D01*
X160366492Y-111379997D01*
X160450352Y-111378869D01*
X160557266Y-111378196D01*
X160689970Y-111377869D01*
X160851199Y-111377784D01*
X160929067Y-111377760D01*
X161078881Y-111377503D01*
X161201327Y-111376890D01*
X161299081Y-111375830D01*
X161374820Y-111374230D01*
X161431220Y-111372000D01*
X161470956Y-111369047D01*
X161496706Y-111365279D01*
X161511146Y-111360604D01*
X161516951Y-111354931D01*
X161516722Y-111351262D01*
X161506777Y-111323472D01*
X161484310Y-111272123D01*
X161450777Y-111200244D01*
X161407635Y-111110868D01*
X161356339Y-111007025D01*
X161298344Y-110891746D01*
X161235107Y-110768063D01*
X161210813Y-110720838D01*
X161149276Y-110600508D01*
X161093036Y-110489534D01*
X161043613Y-110390980D01*
X161002528Y-110307910D01*
X160971299Y-110243387D01*
X160951448Y-110200475D01*
X160944493Y-110182239D01*
X160944693Y-110176604D01*
X160951525Y-110158854D01*
X160970604Y-110154800D01*
X161005356Y-110165374D01*
X161059211Y-110191507D01*
X161135595Y-110234128D01*
X161146175Y-110240202D01*
X161271571Y-110309505D01*
X161416761Y-110385720D01*
X161573278Y-110464648D01*
X161732653Y-110542091D01*
X161886419Y-110613849D01*
X162026109Y-110675723D01*
X162367795Y-110814907D01*
X162838119Y-110982992D01*
X163303800Y-111121530D01*
X163766681Y-111230942D01*
X164228608Y-111311647D01*
X164691428Y-111364066D01*
X165156985Y-111388620D01*
X165284219Y-111390538D01*
X165711842Y-111381171D01*
X166125293Y-111346426D01*
X166528322Y-111285509D01*
X166924678Y-111197629D01*
X167318110Y-111081994D01*
X167712367Y-110937810D01*
X168111200Y-110764286D01*
X168412825Y-110626487D01*
X168821968Y-110451736D01*
X169214843Y-110298976D01*
X169594054Y-110167378D01*
X169962205Y-110056114D01*
X170321900Y-109964354D01*
X170675743Y-109891268D01*
X171026339Y-109836028D01*
X171058542Y-109832107D01*
X171165714Y-109822550D01*
X171292602Y-109815170D01*
X171432844Y-109810010D01*
X171580083Y-109807113D01*
X171727959Y-109806522D01*
X171870113Y-109808280D01*
X172000185Y-109812430D01*
X172111816Y-109819016D01*
X172198646Y-109828081D01*
X172249100Y-109835931D01*
X172371095Y-109859069D01*
X172499384Y-109888168D01*
X172624627Y-109920865D01*
X172737484Y-109954793D01*
X172828616Y-109987590D01*
X172857479Y-109999380D01*
X172905832Y-110018965D01*
X172933366Y-110028845D01*
X172945867Y-110030195D01*
X172949124Y-110024191D01*
X172948923Y-110012006D01*
X172948958Y-110009927D01*
X172962668Y-109977045D01*
X172995728Y-109962509D01*
X173040199Y-109969976D01*
X173055671Y-109979390D01*
X173082867Y-110006666D01*
X173116286Y-110051552D01*
X173157005Y-110115874D01*
X173206103Y-110201460D01*
X173264658Y-110310135D01*
X173333747Y-110443727D01*
X173414450Y-110604061D01*
X173527646Y-110836398D01*
X173687244Y-111182754D01*
X173836521Y-111529480D01*
X173973545Y-111871693D01*
X174048932Y-112075943D01*
X174096385Y-112204509D01*
G37*
D14*
X148445000Y-74395000D02*
X148445000Y-94695000D01*
X148445000Y-94695000D02*
X164145000Y-94695000D01*
D16*
X160625000Y-74195000D02*
X160625000Y-75525000D01*
X160625000Y-76795000D02*
X160625000Y-94635000D01*
X161955000Y-74195000D02*
X160625000Y-74195000D01*
X163285000Y-76795000D02*
X160625000Y-76795000D01*
X163285000Y-76795000D02*
X163285000Y-94635000D01*
X163285000Y-94635000D02*
X160625000Y-94635000D01*
D14*
X164145000Y-74395000D02*
X148445000Y-74395000D01*
X164155000Y-94695000D02*
X164155000Y-74395000D01*
D16*
X173230000Y-102630000D02*
X173230000Y-102960000D01*
X173230000Y-105370000D02*
X173230000Y-105040000D01*
X179770000Y-102630000D02*
X173230000Y-102630000D01*
X179770000Y-102960000D02*
X179770000Y-102630000D01*
X179770000Y-105040000D02*
X179770000Y-105370000D01*
X179770000Y-105370000D02*
X173230000Y-105370000D01*
X179165000Y-93355000D02*
X179165000Y-96445000D01*
X173615000Y-94900000D02*
G75*
G02*
X179165000Y-93355170I2990000J0D01*
G01*
X179165000Y-96444830D02*
G75*
G02*
X173615000Y-94900000I-2560000J1544830D01*
G01*
X179105000Y-94900000D02*
G75*
G02*
X174105000Y-94900000I-2500000J0D01*
G01*
X174105000Y-94900000D02*
G75*
G02*
X179105000Y-94900000I2500000J0D01*
G01*
X110560000Y-110895000D02*
X110560000Y-112225000D01*
X110560000Y-112225000D02*
X111890000Y-112225000D01*
X113160000Y-109565000D02*
X113160000Y-112225000D01*
X113160000Y-109565000D02*
X128460000Y-109565000D01*
X113160000Y-112225000D02*
X128460000Y-112225000D01*
X128460000Y-109565000D02*
X128460000Y-112225000D01*
M02*
