G04 #@! TF.GenerationSoftware,KiCad,Pcbnew,9.0.6-9.0.6~ubuntu24.04.1*
G04 #@! TF.CreationDate,2026-01-10T19:25:19+01:00*
G04 #@! TF.ProjectId,odins-eye-pcb,6f64696e-732d-4657-9965-2d7063622e6b,0*
G04 #@! TF.SameCoordinates,Original*
G04 #@! TF.FileFunction,Legend,Top*
G04 #@! TF.FilePolarity,Positive*
%FSLAX46Y46*%
G04 Gerber Fmt 4.6, Leading zero omitted, Abs format (unit mm)*
G04 Created by KiCad (PCBNEW 9.0.6-9.0.6~ubuntu24.04.1) date 2026-01-10 19:25:19*
%MOMM*%
%LPD*%
G01*
G04 APERTURE LIST*
%ADD10C,0.200000*%
%ADD11C,0.400000*%
%ADD12C,0.152400*%
%ADD13C,0.150000*%
%ADD14C,0.260000*%
%ADD15C,0.120000*%
%ADD16C,0.000000*%
%ADD17C,0.100000*%
G04 APERTURE END LIST*
D10*
X180261904Y-112367219D02*
X180261904Y-111367219D01*
X180261904Y-111367219D02*
X180499999Y-111367219D01*
X180499999Y-111367219D02*
X180642856Y-111414838D01*
X180642856Y-111414838D02*
X180738094Y-111510076D01*
X180738094Y-111510076D02*
X180785713Y-111605314D01*
X180785713Y-111605314D02*
X180833332Y-111795790D01*
X180833332Y-111795790D02*
X180833332Y-111938647D01*
X180833332Y-111938647D02*
X180785713Y-112129123D01*
X180785713Y-112129123D02*
X180738094Y-112224361D01*
X180738094Y-112224361D02*
X180642856Y-112319600D01*
X180642856Y-112319600D02*
X180499999Y-112367219D01*
X180499999Y-112367219D02*
X180261904Y-112367219D01*
X181261904Y-112367219D02*
X181261904Y-111367219D01*
X181928570Y-111891028D02*
X181928570Y-112367219D01*
X181595237Y-111367219D02*
X181928570Y-111891028D01*
X181928570Y-111891028D02*
X182261903Y-111367219D01*
X183309523Y-112319600D02*
X183452380Y-112367219D01*
X183452380Y-112367219D02*
X183690475Y-112367219D01*
X183690475Y-112367219D02*
X183785713Y-112319600D01*
X183785713Y-112319600D02*
X183833332Y-112271980D01*
X183833332Y-112271980D02*
X183880951Y-112176742D01*
X183880951Y-112176742D02*
X183880951Y-112081504D01*
X183880951Y-112081504D02*
X183833332Y-111986266D01*
X183833332Y-111986266D02*
X183785713Y-111938647D01*
X183785713Y-111938647D02*
X183690475Y-111891028D01*
X183690475Y-111891028D02*
X183499999Y-111843409D01*
X183499999Y-111843409D02*
X183404761Y-111795790D01*
X183404761Y-111795790D02*
X183357142Y-111748171D01*
X183357142Y-111748171D02*
X183309523Y-111652933D01*
X183309523Y-111652933D02*
X183309523Y-111557695D01*
X183309523Y-111557695D02*
X183357142Y-111462457D01*
X183357142Y-111462457D02*
X183404761Y-111414838D01*
X183404761Y-111414838D02*
X183499999Y-111367219D01*
X183499999Y-111367219D02*
X183738094Y-111367219D01*
X183738094Y-111367219D02*
X183880951Y-111414838D01*
X184309523Y-111700552D02*
X184309523Y-112700552D01*
X184309523Y-111748171D02*
X184404761Y-111700552D01*
X184404761Y-111700552D02*
X184595237Y-111700552D01*
X184595237Y-111700552D02*
X184690475Y-111748171D01*
X184690475Y-111748171D02*
X184738094Y-111795790D01*
X184738094Y-111795790D02*
X184785713Y-111891028D01*
X184785713Y-111891028D02*
X184785713Y-112176742D01*
X184785713Y-112176742D02*
X184738094Y-112271980D01*
X184738094Y-112271980D02*
X184690475Y-112319600D01*
X184690475Y-112319600D02*
X184595237Y-112367219D01*
X184595237Y-112367219D02*
X184404761Y-112367219D01*
X184404761Y-112367219D02*
X184309523Y-112319600D01*
X185595237Y-112319600D02*
X185499999Y-112367219D01*
X185499999Y-112367219D02*
X185309523Y-112367219D01*
X185309523Y-112367219D02*
X185214285Y-112319600D01*
X185214285Y-112319600D02*
X185166666Y-112224361D01*
X185166666Y-112224361D02*
X185166666Y-111843409D01*
X185166666Y-111843409D02*
X185214285Y-111748171D01*
X185214285Y-111748171D02*
X185309523Y-111700552D01*
X185309523Y-111700552D02*
X185499999Y-111700552D01*
X185499999Y-111700552D02*
X185595237Y-111748171D01*
X185595237Y-111748171D02*
X185642856Y-111843409D01*
X185642856Y-111843409D02*
X185642856Y-111938647D01*
X185642856Y-111938647D02*
X185166666Y-112033885D01*
X186452380Y-112319600D02*
X186357142Y-112367219D01*
X186357142Y-112367219D02*
X186166666Y-112367219D01*
X186166666Y-112367219D02*
X186071428Y-112319600D01*
X186071428Y-112319600D02*
X186023809Y-112224361D01*
X186023809Y-112224361D02*
X186023809Y-111843409D01*
X186023809Y-111843409D02*
X186071428Y-111748171D01*
X186071428Y-111748171D02*
X186166666Y-111700552D01*
X186166666Y-111700552D02*
X186357142Y-111700552D01*
X186357142Y-111700552D02*
X186452380Y-111748171D01*
X186452380Y-111748171D02*
X186499999Y-111843409D01*
X186499999Y-111843409D02*
X186499999Y-111938647D01*
X186499999Y-111938647D02*
X186023809Y-112033885D01*
X187357142Y-112367219D02*
X187357142Y-111367219D01*
X187357142Y-112319600D02*
X187261904Y-112367219D01*
X187261904Y-112367219D02*
X187071428Y-112367219D01*
X187071428Y-112367219D02*
X186976190Y-112319600D01*
X186976190Y-112319600D02*
X186928571Y-112271980D01*
X186928571Y-112271980D02*
X186880952Y-112176742D01*
X186880952Y-112176742D02*
X186880952Y-111891028D01*
X186880952Y-111891028D02*
X186928571Y-111795790D01*
X186928571Y-111795790D02*
X186976190Y-111748171D01*
X186976190Y-111748171D02*
X187071428Y-111700552D01*
X187071428Y-111700552D02*
X187261904Y-111700552D01*
X187261904Y-111700552D02*
X187357142Y-111748171D01*
X189166666Y-112271980D02*
X189119047Y-112319600D01*
X189119047Y-112319600D02*
X188976190Y-112367219D01*
X188976190Y-112367219D02*
X188880952Y-112367219D01*
X188880952Y-112367219D02*
X188738095Y-112319600D01*
X188738095Y-112319600D02*
X188642857Y-112224361D01*
X188642857Y-112224361D02*
X188595238Y-112129123D01*
X188595238Y-112129123D02*
X188547619Y-111938647D01*
X188547619Y-111938647D02*
X188547619Y-111795790D01*
X188547619Y-111795790D02*
X188595238Y-111605314D01*
X188595238Y-111605314D02*
X188642857Y-111510076D01*
X188642857Y-111510076D02*
X188738095Y-111414838D01*
X188738095Y-111414838D02*
X188880952Y-111367219D01*
X188880952Y-111367219D02*
X188976190Y-111367219D01*
X188976190Y-111367219D02*
X189119047Y-111414838D01*
X189119047Y-111414838D02*
X189166666Y-111462457D01*
X190023809Y-112367219D02*
X190023809Y-111843409D01*
X190023809Y-111843409D02*
X189976190Y-111748171D01*
X189976190Y-111748171D02*
X189880952Y-111700552D01*
X189880952Y-111700552D02*
X189690476Y-111700552D01*
X189690476Y-111700552D02*
X189595238Y-111748171D01*
X190023809Y-112319600D02*
X189928571Y-112367219D01*
X189928571Y-112367219D02*
X189690476Y-112367219D01*
X189690476Y-112367219D02*
X189595238Y-112319600D01*
X189595238Y-112319600D02*
X189547619Y-112224361D01*
X189547619Y-112224361D02*
X189547619Y-112129123D01*
X189547619Y-112129123D02*
X189595238Y-112033885D01*
X189595238Y-112033885D02*
X189690476Y-111986266D01*
X189690476Y-111986266D02*
X189928571Y-111986266D01*
X189928571Y-111986266D02*
X190023809Y-111938647D01*
X190500000Y-112367219D02*
X190500000Y-111700552D01*
X190500000Y-111795790D02*
X190547619Y-111748171D01*
X190547619Y-111748171D02*
X190642857Y-111700552D01*
X190642857Y-111700552D02*
X190785714Y-111700552D01*
X190785714Y-111700552D02*
X190880952Y-111748171D01*
X190880952Y-111748171D02*
X190928571Y-111843409D01*
X190928571Y-111843409D02*
X190928571Y-112367219D01*
X190928571Y-111843409D02*
X190976190Y-111748171D01*
X190976190Y-111748171D02*
X191071428Y-111700552D01*
X191071428Y-111700552D02*
X191214285Y-111700552D01*
X191214285Y-111700552D02*
X191309524Y-111748171D01*
X191309524Y-111748171D02*
X191357143Y-111843409D01*
X191357143Y-111843409D02*
X191357143Y-112367219D01*
X192214285Y-112319600D02*
X192119047Y-112367219D01*
X192119047Y-112367219D02*
X191928571Y-112367219D01*
X191928571Y-112367219D02*
X191833333Y-112319600D01*
X191833333Y-112319600D02*
X191785714Y-112224361D01*
X191785714Y-112224361D02*
X191785714Y-111843409D01*
X191785714Y-111843409D02*
X191833333Y-111748171D01*
X191833333Y-111748171D02*
X191928571Y-111700552D01*
X191928571Y-111700552D02*
X192119047Y-111700552D01*
X192119047Y-111700552D02*
X192214285Y-111748171D01*
X192214285Y-111748171D02*
X192261904Y-111843409D01*
X192261904Y-111843409D02*
X192261904Y-111938647D01*
X192261904Y-111938647D02*
X191785714Y-112033885D01*
X192690476Y-112367219D02*
X192690476Y-111700552D01*
X192690476Y-111891028D02*
X192738095Y-111795790D01*
X192738095Y-111795790D02*
X192785714Y-111748171D01*
X192785714Y-111748171D02*
X192880952Y-111700552D01*
X192880952Y-111700552D02*
X192976190Y-111700552D01*
X193738095Y-112367219D02*
X193738095Y-111843409D01*
X193738095Y-111843409D02*
X193690476Y-111748171D01*
X193690476Y-111748171D02*
X193595238Y-111700552D01*
X193595238Y-111700552D02*
X193404762Y-111700552D01*
X193404762Y-111700552D02*
X193309524Y-111748171D01*
X193738095Y-112319600D02*
X193642857Y-112367219D01*
X193642857Y-112367219D02*
X193404762Y-112367219D01*
X193404762Y-112367219D02*
X193309524Y-112319600D01*
X193309524Y-112319600D02*
X193261905Y-112224361D01*
X193261905Y-112224361D02*
X193261905Y-112129123D01*
X193261905Y-112129123D02*
X193309524Y-112033885D01*
X193309524Y-112033885D02*
X193404762Y-111986266D01*
X193404762Y-111986266D02*
X193642857Y-111986266D01*
X193642857Y-111986266D02*
X193738095Y-111938647D01*
D11*
X180428570Y-107734438D02*
X180809523Y-107734438D01*
X180809523Y-107734438D02*
X180999999Y-107829676D01*
X180999999Y-107829676D02*
X181190475Y-108020152D01*
X181190475Y-108020152D02*
X181285713Y-108401104D01*
X181285713Y-108401104D02*
X181285713Y-109067771D01*
X181285713Y-109067771D02*
X181190475Y-109448723D01*
X181190475Y-109448723D02*
X180999999Y-109639200D01*
X180999999Y-109639200D02*
X180809523Y-109734438D01*
X180809523Y-109734438D02*
X180428570Y-109734438D01*
X180428570Y-109734438D02*
X180238094Y-109639200D01*
X180238094Y-109639200D02*
X180047618Y-109448723D01*
X180047618Y-109448723D02*
X179952380Y-109067771D01*
X179952380Y-109067771D02*
X179952380Y-108401104D01*
X179952380Y-108401104D02*
X180047618Y-108020152D01*
X180047618Y-108020152D02*
X180238094Y-107829676D01*
X180238094Y-107829676D02*
X180428570Y-107734438D01*
X182999999Y-109734438D02*
X182999999Y-107734438D01*
X182999999Y-109639200D02*
X182809523Y-109734438D01*
X182809523Y-109734438D02*
X182428570Y-109734438D01*
X182428570Y-109734438D02*
X182238094Y-109639200D01*
X182238094Y-109639200D02*
X182142856Y-109543961D01*
X182142856Y-109543961D02*
X182047618Y-109353485D01*
X182047618Y-109353485D02*
X182047618Y-108782057D01*
X182047618Y-108782057D02*
X182142856Y-108591580D01*
X182142856Y-108591580D02*
X182238094Y-108496342D01*
X182238094Y-108496342D02*
X182428570Y-108401104D01*
X182428570Y-108401104D02*
X182809523Y-108401104D01*
X182809523Y-108401104D02*
X182999999Y-108496342D01*
X183952380Y-109734438D02*
X183952380Y-108401104D01*
X183952380Y-107734438D02*
X183857142Y-107829676D01*
X183857142Y-107829676D02*
X183952380Y-107924914D01*
X183952380Y-107924914D02*
X184047618Y-107829676D01*
X184047618Y-107829676D02*
X183952380Y-107734438D01*
X183952380Y-107734438D02*
X183952380Y-107924914D01*
X184904761Y-108401104D02*
X184904761Y-109734438D01*
X184904761Y-108591580D02*
X184999999Y-108496342D01*
X184999999Y-108496342D02*
X185190475Y-108401104D01*
X185190475Y-108401104D02*
X185476190Y-108401104D01*
X185476190Y-108401104D02*
X185666666Y-108496342D01*
X185666666Y-108496342D02*
X185761904Y-108686819D01*
X185761904Y-108686819D02*
X185761904Y-109734438D01*
X186619047Y-109639200D02*
X186809523Y-109734438D01*
X186809523Y-109734438D02*
X187190475Y-109734438D01*
X187190475Y-109734438D02*
X187380952Y-109639200D01*
X187380952Y-109639200D02*
X187476190Y-109448723D01*
X187476190Y-109448723D02*
X187476190Y-109353485D01*
X187476190Y-109353485D02*
X187380952Y-109163009D01*
X187380952Y-109163009D02*
X187190475Y-109067771D01*
X187190475Y-109067771D02*
X186904761Y-109067771D01*
X186904761Y-109067771D02*
X186714285Y-108972533D01*
X186714285Y-108972533D02*
X186619047Y-108782057D01*
X186619047Y-108782057D02*
X186619047Y-108686819D01*
X186619047Y-108686819D02*
X186714285Y-108496342D01*
X186714285Y-108496342D02*
X186904761Y-108401104D01*
X186904761Y-108401104D02*
X187190475Y-108401104D01*
X187190475Y-108401104D02*
X187380952Y-108496342D01*
X189857143Y-108686819D02*
X190523810Y-108686819D01*
X190809524Y-109734438D02*
X189857143Y-109734438D01*
X189857143Y-109734438D02*
X189857143Y-107734438D01*
X189857143Y-107734438D02*
X190809524Y-107734438D01*
X191476191Y-108401104D02*
X191952381Y-109734438D01*
X192428572Y-108401104D02*
X191952381Y-109734438D01*
X191952381Y-109734438D02*
X191761905Y-110210628D01*
X191761905Y-110210628D02*
X191666667Y-110305866D01*
X191666667Y-110305866D02*
X191476191Y-110401104D01*
X193952382Y-109639200D02*
X193761906Y-109734438D01*
X193761906Y-109734438D02*
X193380953Y-109734438D01*
X193380953Y-109734438D02*
X193190477Y-109639200D01*
X193190477Y-109639200D02*
X193095239Y-109448723D01*
X193095239Y-109448723D02*
X193095239Y-108686819D01*
X193095239Y-108686819D02*
X193190477Y-108496342D01*
X193190477Y-108496342D02*
X193380953Y-108401104D01*
X193380953Y-108401104D02*
X193761906Y-108401104D01*
X193761906Y-108401104D02*
X193952382Y-108496342D01*
X193952382Y-108496342D02*
X194047620Y-108686819D01*
X194047620Y-108686819D02*
X194047620Y-108877295D01*
X194047620Y-108877295D02*
X193095239Y-109067771D01*
D12*
X175680834Y-80079803D02*
X175293786Y-80079803D01*
X175293786Y-80079803D02*
X175255082Y-80466851D01*
X175255082Y-80466851D02*
X175293786Y-80428146D01*
X175293786Y-80428146D02*
X175371196Y-80389441D01*
X175371196Y-80389441D02*
X175564720Y-80389441D01*
X175564720Y-80389441D02*
X175642129Y-80428146D01*
X175642129Y-80428146D02*
X175680834Y-80466851D01*
X175680834Y-80466851D02*
X175719539Y-80544260D01*
X175719539Y-80544260D02*
X175719539Y-80737784D01*
X175719539Y-80737784D02*
X175680834Y-80815194D01*
X175680834Y-80815194D02*
X175642129Y-80853899D01*
X175642129Y-80853899D02*
X175564720Y-80892603D01*
X175564720Y-80892603D02*
X175371196Y-80892603D01*
X175371196Y-80892603D02*
X175293786Y-80853899D01*
X175293786Y-80853899D02*
X175255082Y-80815194D01*
X176067881Y-80815194D02*
X176106586Y-80853899D01*
X176106586Y-80853899D02*
X176067881Y-80892603D01*
X176067881Y-80892603D02*
X176029177Y-80853899D01*
X176029177Y-80853899D02*
X176067881Y-80815194D01*
X176067881Y-80815194D02*
X176067881Y-80892603D01*
X176880682Y-80892603D02*
X176416225Y-80892603D01*
X176648453Y-80892603D02*
X176648453Y-80079803D01*
X176648453Y-80079803D02*
X176571044Y-80195918D01*
X176571044Y-80195918D02*
X176493634Y-80273327D01*
X176493634Y-80273327D02*
X176416225Y-80312032D01*
X177229024Y-80892603D02*
X177229024Y-80079803D01*
X177693481Y-80892603D02*
X177345139Y-80428146D01*
X177693481Y-80079803D02*
X177229024Y-80544260D01*
D13*
X179622493Y-72869819D02*
X179622493Y-73584104D01*
X179622493Y-73584104D02*
X179574874Y-73726961D01*
X179574874Y-73726961D02*
X179479636Y-73822200D01*
X179479636Y-73822200D02*
X179336779Y-73869819D01*
X179336779Y-73869819D02*
X179241541Y-73869819D01*
X180574874Y-73869819D02*
X180098684Y-73869819D01*
X180098684Y-73869819D02*
X180098684Y-72869819D01*
X181479636Y-73774580D02*
X181432017Y-73822200D01*
X181432017Y-73822200D02*
X181289160Y-73869819D01*
X181289160Y-73869819D02*
X181193922Y-73869819D01*
X181193922Y-73869819D02*
X181051065Y-73822200D01*
X181051065Y-73822200D02*
X180955827Y-73726961D01*
X180955827Y-73726961D02*
X180908208Y-73631723D01*
X180908208Y-73631723D02*
X180860589Y-73441247D01*
X180860589Y-73441247D02*
X180860589Y-73298390D01*
X180860589Y-73298390D02*
X180908208Y-73107914D01*
X180908208Y-73107914D02*
X180955827Y-73012676D01*
X180955827Y-73012676D02*
X181051065Y-72917438D01*
X181051065Y-72917438D02*
X181193922Y-72869819D01*
X181193922Y-72869819D02*
X181289160Y-72869819D01*
X181289160Y-72869819D02*
X181432017Y-72917438D01*
X181432017Y-72917438D02*
X181479636Y-72965057D01*
X182193922Y-72869819D02*
X182193922Y-73584104D01*
X182193922Y-73584104D02*
X182146303Y-73726961D01*
X182146303Y-73726961D02*
X182051065Y-73822200D01*
X182051065Y-73822200D02*
X181908208Y-73869819D01*
X181908208Y-73869819D02*
X181812970Y-73869819D01*
X183146303Y-73869819D02*
X182670113Y-73869819D01*
X182670113Y-73869819D02*
X182670113Y-72869819D01*
X184051065Y-73774580D02*
X184003446Y-73822200D01*
X184003446Y-73822200D02*
X183860589Y-73869819D01*
X183860589Y-73869819D02*
X183765351Y-73869819D01*
X183765351Y-73869819D02*
X183622494Y-73822200D01*
X183622494Y-73822200D02*
X183527256Y-73726961D01*
X183527256Y-73726961D02*
X183479637Y-73631723D01*
X183479637Y-73631723D02*
X183432018Y-73441247D01*
X183432018Y-73441247D02*
X183432018Y-73298390D01*
X183432018Y-73298390D02*
X183479637Y-73107914D01*
X183479637Y-73107914D02*
X183527256Y-73012676D01*
X183527256Y-73012676D02*
X183622494Y-72917438D01*
X183622494Y-72917438D02*
X183765351Y-72869819D01*
X183765351Y-72869819D02*
X183860589Y-72869819D01*
X183860589Y-72869819D02*
X184003446Y-72917438D01*
X184003446Y-72917438D02*
X184051065Y-72965057D01*
X184765351Y-72869819D02*
X184765351Y-73584104D01*
X184765351Y-73584104D02*
X184717732Y-73726961D01*
X184717732Y-73726961D02*
X184622494Y-73822200D01*
X184622494Y-73822200D02*
X184479637Y-73869819D01*
X184479637Y-73869819D02*
X184384399Y-73869819D01*
X185717732Y-73869819D02*
X185241542Y-73869819D01*
X185241542Y-73869819D02*
X185241542Y-72869819D01*
X186622494Y-73774580D02*
X186574875Y-73822200D01*
X186574875Y-73822200D02*
X186432018Y-73869819D01*
X186432018Y-73869819D02*
X186336780Y-73869819D01*
X186336780Y-73869819D02*
X186193923Y-73822200D01*
X186193923Y-73822200D02*
X186098685Y-73726961D01*
X186098685Y-73726961D02*
X186051066Y-73631723D01*
X186051066Y-73631723D02*
X186003447Y-73441247D01*
X186003447Y-73441247D02*
X186003447Y-73298390D01*
X186003447Y-73298390D02*
X186051066Y-73107914D01*
X186051066Y-73107914D02*
X186098685Y-73012676D01*
X186098685Y-73012676D02*
X186193923Y-72917438D01*
X186193923Y-72917438D02*
X186336780Y-72869819D01*
X186336780Y-72869819D02*
X186432018Y-72869819D01*
X186432018Y-72869819D02*
X186574875Y-72917438D01*
X186574875Y-72917438D02*
X186622494Y-72965057D01*
D12*
X189680834Y-80079803D02*
X189293786Y-80079803D01*
X189293786Y-80079803D02*
X189255082Y-80466851D01*
X189255082Y-80466851D02*
X189293786Y-80428146D01*
X189293786Y-80428146D02*
X189371196Y-80389441D01*
X189371196Y-80389441D02*
X189564720Y-80389441D01*
X189564720Y-80389441D02*
X189642129Y-80428146D01*
X189642129Y-80428146D02*
X189680834Y-80466851D01*
X189680834Y-80466851D02*
X189719539Y-80544260D01*
X189719539Y-80544260D02*
X189719539Y-80737784D01*
X189719539Y-80737784D02*
X189680834Y-80815194D01*
X189680834Y-80815194D02*
X189642129Y-80853899D01*
X189642129Y-80853899D02*
X189564720Y-80892603D01*
X189564720Y-80892603D02*
X189371196Y-80892603D01*
X189371196Y-80892603D02*
X189293786Y-80853899D01*
X189293786Y-80853899D02*
X189255082Y-80815194D01*
X190067881Y-80815194D02*
X190106586Y-80853899D01*
X190106586Y-80853899D02*
X190067881Y-80892603D01*
X190067881Y-80892603D02*
X190029177Y-80853899D01*
X190029177Y-80853899D02*
X190067881Y-80815194D01*
X190067881Y-80815194D02*
X190067881Y-80892603D01*
X190880682Y-80892603D02*
X190416225Y-80892603D01*
X190648453Y-80892603D02*
X190648453Y-80079803D01*
X190648453Y-80079803D02*
X190571044Y-80195918D01*
X190571044Y-80195918D02*
X190493634Y-80273327D01*
X190493634Y-80273327D02*
X190416225Y-80312032D01*
X191229024Y-80892603D02*
X191229024Y-80079803D01*
X191693481Y-80892603D02*
X191345139Y-80428146D01*
X191693481Y-80079803D02*
X191229024Y-80544260D01*
D10*
X175928571Y-114867219D02*
X175928571Y-113867219D01*
X175928571Y-113867219D02*
X176499999Y-114867219D01*
X176499999Y-114867219D02*
X176499999Y-113867219D01*
X177166666Y-113867219D02*
X177357142Y-113867219D01*
X177357142Y-113867219D02*
X177452380Y-113914838D01*
X177452380Y-113914838D02*
X177547618Y-114010076D01*
X177547618Y-114010076D02*
X177595237Y-114200552D01*
X177595237Y-114200552D02*
X177595237Y-114533885D01*
X177595237Y-114533885D02*
X177547618Y-114724361D01*
X177547618Y-114724361D02*
X177452380Y-114819600D01*
X177452380Y-114819600D02*
X177357142Y-114867219D01*
X177357142Y-114867219D02*
X177166666Y-114867219D01*
X177166666Y-114867219D02*
X177071428Y-114819600D01*
X177071428Y-114819600D02*
X176976190Y-114724361D01*
X176976190Y-114724361D02*
X176928571Y-114533885D01*
X176928571Y-114533885D02*
X176928571Y-114200552D01*
X176928571Y-114200552D02*
X176976190Y-114010076D01*
X176976190Y-114010076D02*
X177071428Y-113914838D01*
X177071428Y-113914838D02*
X177166666Y-113867219D01*
X177880952Y-113867219D02*
X178214285Y-114867219D01*
X178214285Y-114867219D02*
X178547618Y-113867219D01*
X178880952Y-114343409D02*
X179214285Y-114343409D01*
X179357142Y-114867219D02*
X178880952Y-114867219D01*
X178880952Y-114867219D02*
X178880952Y-113867219D01*
X178880952Y-113867219D02*
X179357142Y-113867219D01*
X179785714Y-114867219D02*
X179785714Y-113867219D01*
X179785714Y-113867219D02*
X180119047Y-114581504D01*
X180119047Y-114581504D02*
X180452380Y-113867219D01*
X180452380Y-113867219D02*
X180452380Y-114867219D01*
X181261904Y-114343409D02*
X181404761Y-114391028D01*
X181404761Y-114391028D02*
X181452380Y-114438647D01*
X181452380Y-114438647D02*
X181499999Y-114533885D01*
X181499999Y-114533885D02*
X181499999Y-114676742D01*
X181499999Y-114676742D02*
X181452380Y-114771980D01*
X181452380Y-114771980D02*
X181404761Y-114819600D01*
X181404761Y-114819600D02*
X181309523Y-114867219D01*
X181309523Y-114867219D02*
X180928571Y-114867219D01*
X180928571Y-114867219D02*
X180928571Y-113867219D01*
X180928571Y-113867219D02*
X181261904Y-113867219D01*
X181261904Y-113867219D02*
X181357142Y-113914838D01*
X181357142Y-113914838D02*
X181404761Y-113962457D01*
X181404761Y-113962457D02*
X181452380Y-114057695D01*
X181452380Y-114057695D02*
X181452380Y-114152933D01*
X181452380Y-114152933D02*
X181404761Y-114248171D01*
X181404761Y-114248171D02*
X181357142Y-114295790D01*
X181357142Y-114295790D02*
X181261904Y-114343409D01*
X181261904Y-114343409D02*
X180928571Y-114343409D01*
X181928571Y-114343409D02*
X182261904Y-114343409D01*
X182404761Y-114867219D02*
X181928571Y-114867219D01*
X181928571Y-114867219D02*
X181928571Y-113867219D01*
X181928571Y-113867219D02*
X182404761Y-113867219D01*
X183404761Y-114867219D02*
X183071428Y-114391028D01*
X182833333Y-114867219D02*
X182833333Y-113867219D01*
X182833333Y-113867219D02*
X183214285Y-113867219D01*
X183214285Y-113867219D02*
X183309523Y-113914838D01*
X183309523Y-113914838D02*
X183357142Y-113962457D01*
X183357142Y-113962457D02*
X183404761Y-114057695D01*
X183404761Y-114057695D02*
X183404761Y-114200552D01*
X183404761Y-114200552D02*
X183357142Y-114295790D01*
X183357142Y-114295790D02*
X183309523Y-114343409D01*
X183309523Y-114343409D02*
X183214285Y-114391028D01*
X183214285Y-114391028D02*
X182833333Y-114391028D01*
X184547618Y-113819600D02*
X183690476Y-115105314D01*
X185404761Y-114867219D02*
X184833333Y-114867219D01*
X185119047Y-114867219D02*
X185119047Y-113867219D01*
X185119047Y-113867219D02*
X185023809Y-114010076D01*
X185023809Y-114010076D02*
X184928571Y-114105314D01*
X184928571Y-114105314D02*
X184833333Y-114152933D01*
X185880952Y-114867219D02*
X186071428Y-114867219D01*
X186071428Y-114867219D02*
X186166666Y-114819600D01*
X186166666Y-114819600D02*
X186214285Y-114771980D01*
X186214285Y-114771980D02*
X186309523Y-114629123D01*
X186309523Y-114629123D02*
X186357142Y-114438647D01*
X186357142Y-114438647D02*
X186357142Y-114057695D01*
X186357142Y-114057695D02*
X186309523Y-113962457D01*
X186309523Y-113962457D02*
X186261904Y-113914838D01*
X186261904Y-113914838D02*
X186166666Y-113867219D01*
X186166666Y-113867219D02*
X185976190Y-113867219D01*
X185976190Y-113867219D02*
X185880952Y-113914838D01*
X185880952Y-113914838D02*
X185833333Y-113962457D01*
X185833333Y-113962457D02*
X185785714Y-114057695D01*
X185785714Y-114057695D02*
X185785714Y-114295790D01*
X185785714Y-114295790D02*
X185833333Y-114391028D01*
X185833333Y-114391028D02*
X185880952Y-114438647D01*
X185880952Y-114438647D02*
X185976190Y-114486266D01*
X185976190Y-114486266D02*
X186166666Y-114486266D01*
X186166666Y-114486266D02*
X186261904Y-114438647D01*
X186261904Y-114438647D02*
X186309523Y-114391028D01*
X186309523Y-114391028D02*
X186357142Y-114295790D01*
X187499999Y-113819600D02*
X186642857Y-115105314D01*
X187785714Y-113962457D02*
X187833333Y-113914838D01*
X187833333Y-113914838D02*
X187928571Y-113867219D01*
X187928571Y-113867219D02*
X188166666Y-113867219D01*
X188166666Y-113867219D02*
X188261904Y-113914838D01*
X188261904Y-113914838D02*
X188309523Y-113962457D01*
X188309523Y-113962457D02*
X188357142Y-114057695D01*
X188357142Y-114057695D02*
X188357142Y-114152933D01*
X188357142Y-114152933D02*
X188309523Y-114295790D01*
X188309523Y-114295790D02*
X187738095Y-114867219D01*
X187738095Y-114867219D02*
X188357142Y-114867219D01*
X188976190Y-113867219D02*
X189071428Y-113867219D01*
X189071428Y-113867219D02*
X189166666Y-113914838D01*
X189166666Y-113914838D02*
X189214285Y-113962457D01*
X189214285Y-113962457D02*
X189261904Y-114057695D01*
X189261904Y-114057695D02*
X189309523Y-114248171D01*
X189309523Y-114248171D02*
X189309523Y-114486266D01*
X189309523Y-114486266D02*
X189261904Y-114676742D01*
X189261904Y-114676742D02*
X189214285Y-114771980D01*
X189214285Y-114771980D02*
X189166666Y-114819600D01*
X189166666Y-114819600D02*
X189071428Y-114867219D01*
X189071428Y-114867219D02*
X188976190Y-114867219D01*
X188976190Y-114867219D02*
X188880952Y-114819600D01*
X188880952Y-114819600D02*
X188833333Y-114771980D01*
X188833333Y-114771980D02*
X188785714Y-114676742D01*
X188785714Y-114676742D02*
X188738095Y-114486266D01*
X188738095Y-114486266D02*
X188738095Y-114248171D01*
X188738095Y-114248171D02*
X188785714Y-114057695D01*
X188785714Y-114057695D02*
X188833333Y-113962457D01*
X188833333Y-113962457D02*
X188880952Y-113914838D01*
X188880952Y-113914838D02*
X188976190Y-113867219D01*
X189690476Y-113962457D02*
X189738095Y-113914838D01*
X189738095Y-113914838D02*
X189833333Y-113867219D01*
X189833333Y-113867219D02*
X190071428Y-113867219D01*
X190071428Y-113867219D02*
X190166666Y-113914838D01*
X190166666Y-113914838D02*
X190214285Y-113962457D01*
X190214285Y-113962457D02*
X190261904Y-114057695D01*
X190261904Y-114057695D02*
X190261904Y-114152933D01*
X190261904Y-114152933D02*
X190214285Y-114295790D01*
X190214285Y-114295790D02*
X189642857Y-114867219D01*
X189642857Y-114867219D02*
X190261904Y-114867219D01*
X191166666Y-113867219D02*
X190690476Y-113867219D01*
X190690476Y-113867219D02*
X190642857Y-114343409D01*
X190642857Y-114343409D02*
X190690476Y-114295790D01*
X190690476Y-114295790D02*
X190785714Y-114248171D01*
X190785714Y-114248171D02*
X191023809Y-114248171D01*
X191023809Y-114248171D02*
X191119047Y-114295790D01*
X191119047Y-114295790D02*
X191166666Y-114343409D01*
X191166666Y-114343409D02*
X191214285Y-114438647D01*
X191214285Y-114438647D02*
X191214285Y-114676742D01*
X191214285Y-114676742D02*
X191166666Y-114771980D01*
X191166666Y-114771980D02*
X191119047Y-114819600D01*
X191119047Y-114819600D02*
X191023809Y-114867219D01*
X191023809Y-114867219D02*
X190785714Y-114867219D01*
X190785714Y-114867219D02*
X190690476Y-114819600D01*
X190690476Y-114819600D02*
X190642857Y-114771980D01*
X192404762Y-114486266D02*
X193166667Y-114486266D01*
X194309524Y-114200552D02*
X194547619Y-114867219D01*
X194547619Y-114867219D02*
X194785714Y-114200552D01*
X195690476Y-114867219D02*
X195119048Y-114867219D01*
X195404762Y-114867219D02*
X195404762Y-113867219D01*
X195404762Y-113867219D02*
X195309524Y-114010076D01*
X195309524Y-114010076D02*
X195214286Y-114105314D01*
X195214286Y-114105314D02*
X195119048Y-114152933D01*
X196119048Y-114771980D02*
X196166667Y-114819600D01*
X196166667Y-114819600D02*
X196119048Y-114867219D01*
X196119048Y-114867219D02*
X196071429Y-114819600D01*
X196071429Y-114819600D02*
X196119048Y-114771980D01*
X196119048Y-114771980D02*
X196119048Y-114867219D01*
X197023809Y-114200552D02*
X197023809Y-114867219D01*
X196785714Y-113819600D02*
X196547619Y-114533885D01*
X196547619Y-114533885D02*
X197166666Y-114533885D01*
X179380952Y-117081504D02*
X179857142Y-117081504D01*
X179285714Y-117367219D02*
X179619047Y-116367219D01*
X179619047Y-116367219D02*
X179952380Y-117367219D01*
X180714285Y-117367219D02*
X180714285Y-116367219D01*
X180714285Y-117319600D02*
X180619047Y-117367219D01*
X180619047Y-117367219D02*
X180428571Y-117367219D01*
X180428571Y-117367219D02*
X180333333Y-117319600D01*
X180333333Y-117319600D02*
X180285714Y-117271980D01*
X180285714Y-117271980D02*
X180238095Y-117176742D01*
X180238095Y-117176742D02*
X180238095Y-116891028D01*
X180238095Y-116891028D02*
X180285714Y-116795790D01*
X180285714Y-116795790D02*
X180333333Y-116748171D01*
X180333333Y-116748171D02*
X180428571Y-116700552D01*
X180428571Y-116700552D02*
X180619047Y-116700552D01*
X180619047Y-116700552D02*
X180714285Y-116748171D01*
X181190476Y-117367219D02*
X181190476Y-116700552D01*
X181190476Y-116891028D02*
X181238095Y-116795790D01*
X181238095Y-116795790D02*
X181285714Y-116748171D01*
X181285714Y-116748171D02*
X181380952Y-116700552D01*
X181380952Y-116700552D02*
X181476190Y-116700552D01*
X181809524Y-117367219D02*
X181809524Y-116700552D01*
X181809524Y-116367219D02*
X181761905Y-116414838D01*
X181761905Y-116414838D02*
X181809524Y-116462457D01*
X181809524Y-116462457D02*
X181857143Y-116414838D01*
X181857143Y-116414838D02*
X181809524Y-116367219D01*
X181809524Y-116367219D02*
X181809524Y-116462457D01*
X182714285Y-117367219D02*
X182714285Y-116843409D01*
X182714285Y-116843409D02*
X182666666Y-116748171D01*
X182666666Y-116748171D02*
X182571428Y-116700552D01*
X182571428Y-116700552D02*
X182380952Y-116700552D01*
X182380952Y-116700552D02*
X182285714Y-116748171D01*
X182714285Y-117319600D02*
X182619047Y-117367219D01*
X182619047Y-117367219D02*
X182380952Y-117367219D01*
X182380952Y-117367219D02*
X182285714Y-117319600D01*
X182285714Y-117319600D02*
X182238095Y-117224361D01*
X182238095Y-117224361D02*
X182238095Y-117129123D01*
X182238095Y-117129123D02*
X182285714Y-117033885D01*
X182285714Y-117033885D02*
X182380952Y-116986266D01*
X182380952Y-116986266D02*
X182619047Y-116986266D01*
X182619047Y-116986266D02*
X182714285Y-116938647D01*
X183190476Y-116700552D02*
X183190476Y-117367219D01*
X183190476Y-116795790D02*
X183238095Y-116748171D01*
X183238095Y-116748171D02*
X183333333Y-116700552D01*
X183333333Y-116700552D02*
X183476190Y-116700552D01*
X183476190Y-116700552D02*
X183571428Y-116748171D01*
X183571428Y-116748171D02*
X183619047Y-116843409D01*
X183619047Y-116843409D02*
X183619047Y-117367219D01*
X185428571Y-117367219D02*
X185095238Y-116891028D01*
X184857143Y-117367219D02*
X184857143Y-116367219D01*
X184857143Y-116367219D02*
X185238095Y-116367219D01*
X185238095Y-116367219D02*
X185333333Y-116414838D01*
X185333333Y-116414838D02*
X185380952Y-116462457D01*
X185380952Y-116462457D02*
X185428571Y-116557695D01*
X185428571Y-116557695D02*
X185428571Y-116700552D01*
X185428571Y-116700552D02*
X185380952Y-116795790D01*
X185380952Y-116795790D02*
X185333333Y-116843409D01*
X185333333Y-116843409D02*
X185238095Y-116891028D01*
X185238095Y-116891028D02*
X184857143Y-116891028D01*
X186285714Y-116700552D02*
X186285714Y-117367219D01*
X185857143Y-116700552D02*
X185857143Y-117224361D01*
X185857143Y-117224361D02*
X185904762Y-117319600D01*
X185904762Y-117319600D02*
X186000000Y-117367219D01*
X186000000Y-117367219D02*
X186142857Y-117367219D01*
X186142857Y-117367219D02*
X186238095Y-117319600D01*
X186238095Y-117319600D02*
X186285714Y-117271980D01*
X186761905Y-117367219D02*
X186761905Y-116367219D01*
X186761905Y-116748171D02*
X186857143Y-116700552D01*
X186857143Y-116700552D02*
X187047619Y-116700552D01*
X187047619Y-116700552D02*
X187142857Y-116748171D01*
X187142857Y-116748171D02*
X187190476Y-116795790D01*
X187190476Y-116795790D02*
X187238095Y-116891028D01*
X187238095Y-116891028D02*
X187238095Y-117176742D01*
X187238095Y-117176742D02*
X187190476Y-117271980D01*
X187190476Y-117271980D02*
X187142857Y-117319600D01*
X187142857Y-117319600D02*
X187047619Y-117367219D01*
X187047619Y-117367219D02*
X186857143Y-117367219D01*
X186857143Y-117367219D02*
X186761905Y-117319600D01*
X187666667Y-117367219D02*
X187666667Y-116700552D01*
X187666667Y-116367219D02*
X187619048Y-116414838D01*
X187619048Y-116414838D02*
X187666667Y-116462457D01*
X187666667Y-116462457D02*
X187714286Y-116414838D01*
X187714286Y-116414838D02*
X187666667Y-116367219D01*
X187666667Y-116367219D02*
X187666667Y-116462457D01*
X188285714Y-117367219D02*
X188190476Y-117319600D01*
X188190476Y-117319600D02*
X188142857Y-117271980D01*
X188142857Y-117271980D02*
X188095238Y-117176742D01*
X188095238Y-117176742D02*
X188095238Y-116891028D01*
X188095238Y-116891028D02*
X188142857Y-116795790D01*
X188142857Y-116795790D02*
X188190476Y-116748171D01*
X188190476Y-116748171D02*
X188285714Y-116700552D01*
X188285714Y-116700552D02*
X188428571Y-116700552D01*
X188428571Y-116700552D02*
X188523809Y-116748171D01*
X188523809Y-116748171D02*
X188571428Y-116795790D01*
X188571428Y-116795790D02*
X188619047Y-116891028D01*
X188619047Y-116891028D02*
X188619047Y-117176742D01*
X188619047Y-117176742D02*
X188571428Y-117271980D01*
X188571428Y-117271980D02*
X188523809Y-117319600D01*
X188523809Y-117319600D02*
X188428571Y-117367219D01*
X188428571Y-117367219D02*
X188285714Y-117367219D01*
X189809524Y-117367219D02*
X189809524Y-116367219D01*
X189809524Y-116367219D02*
X190190476Y-116367219D01*
X190190476Y-116367219D02*
X190285714Y-116414838D01*
X190285714Y-116414838D02*
X190333333Y-116462457D01*
X190333333Y-116462457D02*
X190380952Y-116557695D01*
X190380952Y-116557695D02*
X190380952Y-116700552D01*
X190380952Y-116700552D02*
X190333333Y-116795790D01*
X190333333Y-116795790D02*
X190285714Y-116843409D01*
X190285714Y-116843409D02*
X190190476Y-116891028D01*
X190190476Y-116891028D02*
X189809524Y-116891028D01*
X191238095Y-116700552D02*
X191238095Y-117367219D01*
X190809524Y-116700552D02*
X190809524Y-117224361D01*
X190809524Y-117224361D02*
X190857143Y-117319600D01*
X190857143Y-117319600D02*
X190952381Y-117367219D01*
X190952381Y-117367219D02*
X191095238Y-117367219D01*
X191095238Y-117367219D02*
X191190476Y-117319600D01*
X191190476Y-117319600D02*
X191238095Y-117271980D01*
X191714286Y-116700552D02*
X191714286Y-117367219D01*
X191714286Y-116795790D02*
X191761905Y-116748171D01*
X191761905Y-116748171D02*
X191857143Y-116700552D01*
X191857143Y-116700552D02*
X192000000Y-116700552D01*
X192000000Y-116700552D02*
X192095238Y-116748171D01*
X192095238Y-116748171D02*
X192142857Y-116843409D01*
X192142857Y-116843409D02*
X192142857Y-117367219D01*
X193047619Y-117367219D02*
X193047619Y-116843409D01*
X193047619Y-116843409D02*
X193000000Y-116748171D01*
X193000000Y-116748171D02*
X192904762Y-116700552D01*
X192904762Y-116700552D02*
X192714286Y-116700552D01*
X192714286Y-116700552D02*
X192619048Y-116748171D01*
X193047619Y-117319600D02*
X192952381Y-117367219D01*
X192952381Y-117367219D02*
X192714286Y-117367219D01*
X192714286Y-117367219D02*
X192619048Y-117319600D01*
X192619048Y-117319600D02*
X192571429Y-117224361D01*
X192571429Y-117224361D02*
X192571429Y-117129123D01*
X192571429Y-117129123D02*
X192619048Y-117033885D01*
X192619048Y-117033885D02*
X192714286Y-116986266D01*
X192714286Y-116986266D02*
X192952381Y-116986266D01*
X192952381Y-116986266D02*
X193047619Y-116938647D01*
X193666667Y-117367219D02*
X193571429Y-117319600D01*
X193571429Y-117319600D02*
X193523810Y-117224361D01*
X193523810Y-117224361D02*
X193523810Y-116367219D01*
D14*
X123785715Y-85327384D02*
X123352382Y-84708337D01*
X123042858Y-85327384D02*
X123042858Y-84027384D01*
X123042858Y-84027384D02*
X123538096Y-84027384D01*
X123538096Y-84027384D02*
X123661906Y-84089289D01*
X123661906Y-84089289D02*
X123723811Y-84151194D01*
X123723811Y-84151194D02*
X123785715Y-84275003D01*
X123785715Y-84275003D02*
X123785715Y-84460718D01*
X123785715Y-84460718D02*
X123723811Y-84584527D01*
X123723811Y-84584527D02*
X123661906Y-84646432D01*
X123661906Y-84646432D02*
X123538096Y-84708337D01*
X123538096Y-84708337D02*
X123042858Y-84708337D01*
X124900001Y-85327384D02*
X124900001Y-84646432D01*
X124900001Y-84646432D02*
X124838096Y-84522622D01*
X124838096Y-84522622D02*
X124714287Y-84460718D01*
X124714287Y-84460718D02*
X124466668Y-84460718D01*
X124466668Y-84460718D02*
X124342858Y-84522622D01*
X124900001Y-85265480D02*
X124776192Y-85327384D01*
X124776192Y-85327384D02*
X124466668Y-85327384D01*
X124466668Y-85327384D02*
X124342858Y-85265480D01*
X124342858Y-85265480D02*
X124280954Y-85141670D01*
X124280954Y-85141670D02*
X124280954Y-85017860D01*
X124280954Y-85017860D02*
X124342858Y-84894051D01*
X124342858Y-84894051D02*
X124466668Y-84832146D01*
X124466668Y-84832146D02*
X124776192Y-84832146D01*
X124776192Y-84832146D02*
X124900001Y-84770241D01*
X125457144Y-85265480D02*
X125580953Y-85327384D01*
X125580953Y-85327384D02*
X125828572Y-85327384D01*
X125828572Y-85327384D02*
X125952382Y-85265480D01*
X125952382Y-85265480D02*
X126014286Y-85141670D01*
X126014286Y-85141670D02*
X126014286Y-85079765D01*
X126014286Y-85079765D02*
X125952382Y-84955956D01*
X125952382Y-84955956D02*
X125828572Y-84894051D01*
X125828572Y-84894051D02*
X125642858Y-84894051D01*
X125642858Y-84894051D02*
X125519048Y-84832146D01*
X125519048Y-84832146D02*
X125457144Y-84708337D01*
X125457144Y-84708337D02*
X125457144Y-84646432D01*
X125457144Y-84646432D02*
X125519048Y-84522622D01*
X125519048Y-84522622D02*
X125642858Y-84460718D01*
X125642858Y-84460718D02*
X125828572Y-84460718D01*
X125828572Y-84460718D02*
X125952382Y-84522622D01*
X126571429Y-84460718D02*
X126571429Y-85760718D01*
X126571429Y-84522622D02*
X126695239Y-84460718D01*
X126695239Y-84460718D02*
X126942858Y-84460718D01*
X126942858Y-84460718D02*
X127066667Y-84522622D01*
X127066667Y-84522622D02*
X127128572Y-84584527D01*
X127128572Y-84584527D02*
X127190477Y-84708337D01*
X127190477Y-84708337D02*
X127190477Y-85079765D01*
X127190477Y-85079765D02*
X127128572Y-85203575D01*
X127128572Y-85203575D02*
X127066667Y-85265480D01*
X127066667Y-85265480D02*
X126942858Y-85327384D01*
X126942858Y-85327384D02*
X126695239Y-85327384D01*
X126695239Y-85327384D02*
X126571429Y-85265480D01*
X127747619Y-85327384D02*
X127747619Y-84027384D01*
X127747619Y-84522622D02*
X127871429Y-84460718D01*
X127871429Y-84460718D02*
X128119048Y-84460718D01*
X128119048Y-84460718D02*
X128242857Y-84522622D01*
X128242857Y-84522622D02*
X128304762Y-84584527D01*
X128304762Y-84584527D02*
X128366667Y-84708337D01*
X128366667Y-84708337D02*
X128366667Y-85079765D01*
X128366667Y-85079765D02*
X128304762Y-85203575D01*
X128304762Y-85203575D02*
X128242857Y-85265480D01*
X128242857Y-85265480D02*
X128119048Y-85327384D01*
X128119048Y-85327384D02*
X127871429Y-85327384D01*
X127871429Y-85327384D02*
X127747619Y-85265480D01*
X129419047Y-85265480D02*
X129295238Y-85327384D01*
X129295238Y-85327384D02*
X129047619Y-85327384D01*
X129047619Y-85327384D02*
X128923809Y-85265480D01*
X128923809Y-85265480D02*
X128861905Y-85141670D01*
X128861905Y-85141670D02*
X128861905Y-84646432D01*
X128861905Y-84646432D02*
X128923809Y-84522622D01*
X128923809Y-84522622D02*
X129047619Y-84460718D01*
X129047619Y-84460718D02*
X129295238Y-84460718D01*
X129295238Y-84460718D02*
X129419047Y-84522622D01*
X129419047Y-84522622D02*
X129480952Y-84646432D01*
X129480952Y-84646432D02*
X129480952Y-84770241D01*
X129480952Y-84770241D02*
X128861905Y-84894051D01*
X130038095Y-85327384D02*
X130038095Y-84460718D01*
X130038095Y-84708337D02*
X130100000Y-84584527D01*
X130100000Y-84584527D02*
X130161905Y-84522622D01*
X130161905Y-84522622D02*
X130285714Y-84460718D01*
X130285714Y-84460718D02*
X130409524Y-84460718D01*
X130842857Y-85327384D02*
X130842857Y-84460718D01*
X130842857Y-84708337D02*
X130904762Y-84584527D01*
X130904762Y-84584527D02*
X130966667Y-84522622D01*
X130966667Y-84522622D02*
X131090476Y-84460718D01*
X131090476Y-84460718D02*
X131214286Y-84460718D01*
X131523810Y-84460718D02*
X131833334Y-85327384D01*
X132142857Y-84460718D02*
X131833334Y-85327384D01*
X131833334Y-85327384D02*
X131709524Y-85636908D01*
X131709524Y-85636908D02*
X131647619Y-85698813D01*
X131647619Y-85698813D02*
X131523810Y-85760718D01*
X133628571Y-85327384D02*
X133628571Y-84027384D01*
X133628571Y-84027384D02*
X134123809Y-84027384D01*
X134123809Y-84027384D02*
X134247619Y-84089289D01*
X134247619Y-84089289D02*
X134309524Y-84151194D01*
X134309524Y-84151194D02*
X134371428Y-84275003D01*
X134371428Y-84275003D02*
X134371428Y-84460718D01*
X134371428Y-84460718D02*
X134309524Y-84584527D01*
X134309524Y-84584527D02*
X134247619Y-84646432D01*
X134247619Y-84646432D02*
X134123809Y-84708337D01*
X134123809Y-84708337D02*
X133628571Y-84708337D01*
X134928571Y-85327384D02*
X134928571Y-84460718D01*
X134928571Y-84027384D02*
X134866667Y-84089289D01*
X134866667Y-84089289D02*
X134928571Y-84151194D01*
X134928571Y-84151194D02*
X134990476Y-84089289D01*
X134990476Y-84089289D02*
X134928571Y-84027384D01*
X134928571Y-84027384D02*
X134928571Y-84151194D01*
X136414286Y-84027384D02*
X137280952Y-84027384D01*
X137280952Y-84027384D02*
X136414286Y-85327384D01*
X136414286Y-85327384D02*
X137280952Y-85327384D01*
X138271428Y-85265480D02*
X138147619Y-85327384D01*
X138147619Y-85327384D02*
X137900000Y-85327384D01*
X137900000Y-85327384D02*
X137776190Y-85265480D01*
X137776190Y-85265480D02*
X137714286Y-85141670D01*
X137714286Y-85141670D02*
X137714286Y-84646432D01*
X137714286Y-84646432D02*
X137776190Y-84522622D01*
X137776190Y-84522622D02*
X137900000Y-84460718D01*
X137900000Y-84460718D02*
X138147619Y-84460718D01*
X138147619Y-84460718D02*
X138271428Y-84522622D01*
X138271428Y-84522622D02*
X138333333Y-84646432D01*
X138333333Y-84646432D02*
X138333333Y-84770241D01*
X138333333Y-84770241D02*
X137714286Y-84894051D01*
X138890476Y-85327384D02*
X138890476Y-84460718D01*
X138890476Y-84708337D02*
X138952381Y-84584527D01*
X138952381Y-84584527D02*
X139014286Y-84522622D01*
X139014286Y-84522622D02*
X139138095Y-84460718D01*
X139138095Y-84460718D02*
X139261905Y-84460718D01*
X139880953Y-85327384D02*
X139757143Y-85265480D01*
X139757143Y-85265480D02*
X139695238Y-85203575D01*
X139695238Y-85203575D02*
X139633334Y-85079765D01*
X139633334Y-85079765D02*
X139633334Y-84708337D01*
X139633334Y-84708337D02*
X139695238Y-84584527D01*
X139695238Y-84584527D02*
X139757143Y-84522622D01*
X139757143Y-84522622D02*
X139880953Y-84460718D01*
X139880953Y-84460718D02*
X140066667Y-84460718D01*
X140066667Y-84460718D02*
X140190476Y-84522622D01*
X140190476Y-84522622D02*
X140252381Y-84584527D01*
X140252381Y-84584527D02*
X140314286Y-84708337D01*
X140314286Y-84708337D02*
X140314286Y-85079765D01*
X140314286Y-85079765D02*
X140252381Y-85203575D01*
X140252381Y-85203575D02*
X140190476Y-85265480D01*
X140190476Y-85265480D02*
X140066667Y-85327384D01*
X140066667Y-85327384D02*
X139880953Y-85327384D01*
X141800000Y-84151194D02*
X141861904Y-84089289D01*
X141861904Y-84089289D02*
X141985714Y-84027384D01*
X141985714Y-84027384D02*
X142295238Y-84027384D01*
X142295238Y-84027384D02*
X142419047Y-84089289D01*
X142419047Y-84089289D02*
X142480952Y-84151194D01*
X142480952Y-84151194D02*
X142542857Y-84275003D01*
X142542857Y-84275003D02*
X142542857Y-84398813D01*
X142542857Y-84398813D02*
X142480952Y-84584527D01*
X142480952Y-84584527D02*
X141738095Y-85327384D01*
X141738095Y-85327384D02*
X142542857Y-85327384D01*
X143966666Y-84027384D02*
X144276190Y-85327384D01*
X144276190Y-85327384D02*
X144523809Y-84398813D01*
X144523809Y-84398813D02*
X144771428Y-85327384D01*
X144771428Y-85327384D02*
X145080952Y-84027384D01*
D13*
X186940476Y-102354819D02*
X186940476Y-101354819D01*
X186940476Y-101354819D02*
X187321428Y-101354819D01*
X187321428Y-101354819D02*
X187416666Y-101402438D01*
X187416666Y-101402438D02*
X187464285Y-101450057D01*
X187464285Y-101450057D02*
X187511904Y-101545295D01*
X187511904Y-101545295D02*
X187511904Y-101688152D01*
X187511904Y-101688152D02*
X187464285Y-101783390D01*
X187464285Y-101783390D02*
X187416666Y-101831009D01*
X187416666Y-101831009D02*
X187321428Y-101878628D01*
X187321428Y-101878628D02*
X186940476Y-101878628D01*
X188130952Y-101354819D02*
X188321428Y-101354819D01*
X188321428Y-101354819D02*
X188416666Y-101402438D01*
X188416666Y-101402438D02*
X188511904Y-101497676D01*
X188511904Y-101497676D02*
X188559523Y-101688152D01*
X188559523Y-101688152D02*
X188559523Y-102021485D01*
X188559523Y-102021485D02*
X188511904Y-102211961D01*
X188511904Y-102211961D02*
X188416666Y-102307200D01*
X188416666Y-102307200D02*
X188321428Y-102354819D01*
X188321428Y-102354819D02*
X188130952Y-102354819D01*
X188130952Y-102354819D02*
X188035714Y-102307200D01*
X188035714Y-102307200D02*
X187940476Y-102211961D01*
X187940476Y-102211961D02*
X187892857Y-102021485D01*
X187892857Y-102021485D02*
X187892857Y-101688152D01*
X187892857Y-101688152D02*
X187940476Y-101497676D01*
X187940476Y-101497676D02*
X188035714Y-101402438D01*
X188035714Y-101402438D02*
X188130952Y-101354819D01*
X188892857Y-101354819D02*
X189130952Y-102354819D01*
X189130952Y-102354819D02*
X189321428Y-101640533D01*
X189321428Y-101640533D02*
X189511904Y-102354819D01*
X189511904Y-102354819D02*
X189750000Y-101354819D01*
X190130952Y-101831009D02*
X190464285Y-101831009D01*
X190607142Y-102354819D02*
X190130952Y-102354819D01*
X190130952Y-102354819D02*
X190130952Y-101354819D01*
X190130952Y-101354819D02*
X190607142Y-101354819D01*
X191607142Y-102354819D02*
X191273809Y-101878628D01*
X191035714Y-102354819D02*
X191035714Y-101354819D01*
X191035714Y-101354819D02*
X191416666Y-101354819D01*
X191416666Y-101354819D02*
X191511904Y-101402438D01*
X191511904Y-101402438D02*
X191559523Y-101450057D01*
X191559523Y-101450057D02*
X191607142Y-101545295D01*
X191607142Y-101545295D02*
X191607142Y-101688152D01*
X191607142Y-101688152D02*
X191559523Y-101783390D01*
X191559523Y-101783390D02*
X191511904Y-101831009D01*
X191511904Y-101831009D02*
X191416666Y-101878628D01*
X191416666Y-101878628D02*
X191035714Y-101878628D01*
X192797619Y-101354819D02*
X192797619Y-102164342D01*
X192797619Y-102164342D02*
X192845238Y-102259580D01*
X192845238Y-102259580D02*
X192892857Y-102307200D01*
X192892857Y-102307200D02*
X192988095Y-102354819D01*
X192988095Y-102354819D02*
X193178571Y-102354819D01*
X193178571Y-102354819D02*
X193273809Y-102307200D01*
X193273809Y-102307200D02*
X193321428Y-102259580D01*
X193321428Y-102259580D02*
X193369047Y-102164342D01*
X193369047Y-102164342D02*
X193369047Y-101354819D01*
X193797619Y-102307200D02*
X193940476Y-102354819D01*
X193940476Y-102354819D02*
X194178571Y-102354819D01*
X194178571Y-102354819D02*
X194273809Y-102307200D01*
X194273809Y-102307200D02*
X194321428Y-102259580D01*
X194321428Y-102259580D02*
X194369047Y-102164342D01*
X194369047Y-102164342D02*
X194369047Y-102069104D01*
X194369047Y-102069104D02*
X194321428Y-101973866D01*
X194321428Y-101973866D02*
X194273809Y-101926247D01*
X194273809Y-101926247D02*
X194178571Y-101878628D01*
X194178571Y-101878628D02*
X193988095Y-101831009D01*
X193988095Y-101831009D02*
X193892857Y-101783390D01*
X193892857Y-101783390D02*
X193845238Y-101735771D01*
X193845238Y-101735771D02*
X193797619Y-101640533D01*
X193797619Y-101640533D02*
X193797619Y-101545295D01*
X193797619Y-101545295D02*
X193845238Y-101450057D01*
X193845238Y-101450057D02*
X193892857Y-101402438D01*
X193892857Y-101402438D02*
X193988095Y-101354819D01*
X193988095Y-101354819D02*
X194226190Y-101354819D01*
X194226190Y-101354819D02*
X194369047Y-101402438D01*
X195130952Y-101831009D02*
X195273809Y-101878628D01*
X195273809Y-101878628D02*
X195321428Y-101926247D01*
X195321428Y-101926247D02*
X195369047Y-102021485D01*
X195369047Y-102021485D02*
X195369047Y-102164342D01*
X195369047Y-102164342D02*
X195321428Y-102259580D01*
X195321428Y-102259580D02*
X195273809Y-102307200D01*
X195273809Y-102307200D02*
X195178571Y-102354819D01*
X195178571Y-102354819D02*
X194797619Y-102354819D01*
X194797619Y-102354819D02*
X194797619Y-101354819D01*
X194797619Y-101354819D02*
X195130952Y-101354819D01*
X195130952Y-101354819D02*
X195226190Y-101402438D01*
X195226190Y-101402438D02*
X195273809Y-101450057D01*
X195273809Y-101450057D02*
X195321428Y-101545295D01*
X195321428Y-101545295D02*
X195321428Y-101640533D01*
X195321428Y-101640533D02*
X195273809Y-101735771D01*
X195273809Y-101735771D02*
X195226190Y-101783390D01*
X195226190Y-101783390D02*
X195130952Y-101831009D01*
X195130952Y-101831009D02*
X194797619Y-101831009D01*
X195797619Y-101973866D02*
X196559524Y-101973866D01*
X197607142Y-102259580D02*
X197559523Y-102307200D01*
X197559523Y-102307200D02*
X197416666Y-102354819D01*
X197416666Y-102354819D02*
X197321428Y-102354819D01*
X197321428Y-102354819D02*
X197178571Y-102307200D01*
X197178571Y-102307200D02*
X197083333Y-102211961D01*
X197083333Y-102211961D02*
X197035714Y-102116723D01*
X197035714Y-102116723D02*
X196988095Y-101926247D01*
X196988095Y-101926247D02*
X196988095Y-101783390D01*
X196988095Y-101783390D02*
X197035714Y-101592914D01*
X197035714Y-101592914D02*
X197083333Y-101497676D01*
X197083333Y-101497676D02*
X197178571Y-101402438D01*
X197178571Y-101402438D02*
X197321428Y-101354819D01*
X197321428Y-101354819D02*
X197416666Y-101354819D01*
X197416666Y-101354819D02*
X197559523Y-101402438D01*
X197559523Y-101402438D02*
X197607142Y-101450057D01*
X176333333Y-77954819D02*
X176000000Y-77478628D01*
X175761905Y-77954819D02*
X175761905Y-76954819D01*
X175761905Y-76954819D02*
X176142857Y-76954819D01*
X176142857Y-76954819D02*
X176238095Y-77002438D01*
X176238095Y-77002438D02*
X176285714Y-77050057D01*
X176285714Y-77050057D02*
X176333333Y-77145295D01*
X176333333Y-77145295D02*
X176333333Y-77288152D01*
X176333333Y-77288152D02*
X176285714Y-77383390D01*
X176285714Y-77383390D02*
X176238095Y-77431009D01*
X176238095Y-77431009D02*
X176142857Y-77478628D01*
X176142857Y-77478628D02*
X175761905Y-77478628D01*
X176714286Y-77050057D02*
X176761905Y-77002438D01*
X176761905Y-77002438D02*
X176857143Y-76954819D01*
X176857143Y-76954819D02*
X177095238Y-76954819D01*
X177095238Y-76954819D02*
X177190476Y-77002438D01*
X177190476Y-77002438D02*
X177238095Y-77050057D01*
X177238095Y-77050057D02*
X177285714Y-77145295D01*
X177285714Y-77145295D02*
X177285714Y-77240533D01*
X177285714Y-77240533D02*
X177238095Y-77383390D01*
X177238095Y-77383390D02*
X176666667Y-77954819D01*
X176666667Y-77954819D02*
X177285714Y-77954819D01*
X126142855Y-93954819D02*
X125809522Y-93478628D01*
X125571427Y-93954819D02*
X125571427Y-92954819D01*
X125571427Y-92954819D02*
X125952379Y-92954819D01*
X125952379Y-92954819D02*
X126047617Y-93002438D01*
X126047617Y-93002438D02*
X126095236Y-93050057D01*
X126095236Y-93050057D02*
X126142855Y-93145295D01*
X126142855Y-93145295D02*
X126142855Y-93288152D01*
X126142855Y-93288152D02*
X126095236Y-93383390D01*
X126095236Y-93383390D02*
X126047617Y-93431009D01*
X126047617Y-93431009D02*
X125952379Y-93478628D01*
X125952379Y-93478628D02*
X125571427Y-93478628D01*
X126999998Y-93954819D02*
X126999998Y-93431009D01*
X126999998Y-93431009D02*
X126952379Y-93335771D01*
X126952379Y-93335771D02*
X126857141Y-93288152D01*
X126857141Y-93288152D02*
X126666665Y-93288152D01*
X126666665Y-93288152D02*
X126571427Y-93335771D01*
X126999998Y-93907200D02*
X126904760Y-93954819D01*
X126904760Y-93954819D02*
X126666665Y-93954819D01*
X126666665Y-93954819D02*
X126571427Y-93907200D01*
X126571427Y-93907200D02*
X126523808Y-93811961D01*
X126523808Y-93811961D02*
X126523808Y-93716723D01*
X126523808Y-93716723D02*
X126571427Y-93621485D01*
X126571427Y-93621485D02*
X126666665Y-93573866D01*
X126666665Y-93573866D02*
X126904760Y-93573866D01*
X126904760Y-93573866D02*
X126999998Y-93526247D01*
X127428570Y-93907200D02*
X127523808Y-93954819D01*
X127523808Y-93954819D02*
X127714284Y-93954819D01*
X127714284Y-93954819D02*
X127809522Y-93907200D01*
X127809522Y-93907200D02*
X127857141Y-93811961D01*
X127857141Y-93811961D02*
X127857141Y-93764342D01*
X127857141Y-93764342D02*
X127809522Y-93669104D01*
X127809522Y-93669104D02*
X127714284Y-93621485D01*
X127714284Y-93621485D02*
X127571427Y-93621485D01*
X127571427Y-93621485D02*
X127476189Y-93573866D01*
X127476189Y-93573866D02*
X127428570Y-93478628D01*
X127428570Y-93478628D02*
X127428570Y-93431009D01*
X127428570Y-93431009D02*
X127476189Y-93335771D01*
X127476189Y-93335771D02*
X127571427Y-93288152D01*
X127571427Y-93288152D02*
X127714284Y-93288152D01*
X127714284Y-93288152D02*
X127809522Y-93335771D01*
X128285713Y-93288152D02*
X128285713Y-94288152D01*
X128285713Y-93335771D02*
X128380951Y-93288152D01*
X128380951Y-93288152D02*
X128571427Y-93288152D01*
X128571427Y-93288152D02*
X128666665Y-93335771D01*
X128666665Y-93335771D02*
X128714284Y-93383390D01*
X128714284Y-93383390D02*
X128761903Y-93478628D01*
X128761903Y-93478628D02*
X128761903Y-93764342D01*
X128761903Y-93764342D02*
X128714284Y-93859580D01*
X128714284Y-93859580D02*
X128666665Y-93907200D01*
X128666665Y-93907200D02*
X128571427Y-93954819D01*
X128571427Y-93954819D02*
X128380951Y-93954819D01*
X128380951Y-93954819D02*
X128285713Y-93907200D01*
X129190475Y-93954819D02*
X129190475Y-92954819D01*
X129190475Y-93335771D02*
X129285713Y-93288152D01*
X129285713Y-93288152D02*
X129476189Y-93288152D01*
X129476189Y-93288152D02*
X129571427Y-93335771D01*
X129571427Y-93335771D02*
X129619046Y-93383390D01*
X129619046Y-93383390D02*
X129666665Y-93478628D01*
X129666665Y-93478628D02*
X129666665Y-93764342D01*
X129666665Y-93764342D02*
X129619046Y-93859580D01*
X129619046Y-93859580D02*
X129571427Y-93907200D01*
X129571427Y-93907200D02*
X129476189Y-93954819D01*
X129476189Y-93954819D02*
X129285713Y-93954819D01*
X129285713Y-93954819D02*
X129190475Y-93907200D01*
X130476189Y-93907200D02*
X130380951Y-93954819D01*
X130380951Y-93954819D02*
X130190475Y-93954819D01*
X130190475Y-93954819D02*
X130095237Y-93907200D01*
X130095237Y-93907200D02*
X130047618Y-93811961D01*
X130047618Y-93811961D02*
X130047618Y-93431009D01*
X130047618Y-93431009D02*
X130095237Y-93335771D01*
X130095237Y-93335771D02*
X130190475Y-93288152D01*
X130190475Y-93288152D02*
X130380951Y-93288152D01*
X130380951Y-93288152D02*
X130476189Y-93335771D01*
X130476189Y-93335771D02*
X130523808Y-93431009D01*
X130523808Y-93431009D02*
X130523808Y-93526247D01*
X130523808Y-93526247D02*
X130047618Y-93621485D01*
X130952380Y-93954819D02*
X130952380Y-93288152D01*
X130952380Y-93478628D02*
X130999999Y-93383390D01*
X130999999Y-93383390D02*
X131047618Y-93335771D01*
X131047618Y-93335771D02*
X131142856Y-93288152D01*
X131142856Y-93288152D02*
X131238094Y-93288152D01*
X131571428Y-93954819D02*
X131571428Y-93288152D01*
X131571428Y-93478628D02*
X131619047Y-93383390D01*
X131619047Y-93383390D02*
X131666666Y-93335771D01*
X131666666Y-93335771D02*
X131761904Y-93288152D01*
X131761904Y-93288152D02*
X131857142Y-93288152D01*
X132095238Y-93288152D02*
X132333333Y-93954819D01*
X132571428Y-93288152D02*
X132333333Y-93954819D01*
X132333333Y-93954819D02*
X132238095Y-94192914D01*
X132238095Y-94192914D02*
X132190476Y-94240533D01*
X132190476Y-94240533D02*
X132095238Y-94288152D01*
X133714286Y-93954819D02*
X133714286Y-92954819D01*
X133714286Y-92954819D02*
X134095238Y-92954819D01*
X134095238Y-92954819D02*
X134190476Y-93002438D01*
X134190476Y-93002438D02*
X134238095Y-93050057D01*
X134238095Y-93050057D02*
X134285714Y-93145295D01*
X134285714Y-93145295D02*
X134285714Y-93288152D01*
X134285714Y-93288152D02*
X134238095Y-93383390D01*
X134238095Y-93383390D02*
X134190476Y-93431009D01*
X134190476Y-93431009D02*
X134095238Y-93478628D01*
X134095238Y-93478628D02*
X133714286Y-93478628D01*
X134714286Y-93954819D02*
X134714286Y-93288152D01*
X134714286Y-92954819D02*
X134666667Y-93002438D01*
X134666667Y-93002438D02*
X134714286Y-93050057D01*
X134714286Y-93050057D02*
X134761905Y-93002438D01*
X134761905Y-93002438D02*
X134714286Y-92954819D01*
X134714286Y-92954819D02*
X134714286Y-93050057D01*
X135857143Y-92954819D02*
X136523809Y-92954819D01*
X136523809Y-92954819D02*
X135857143Y-93954819D01*
X135857143Y-93954819D02*
X136523809Y-93954819D01*
X137285714Y-93907200D02*
X137190476Y-93954819D01*
X137190476Y-93954819D02*
X137000000Y-93954819D01*
X137000000Y-93954819D02*
X136904762Y-93907200D01*
X136904762Y-93907200D02*
X136857143Y-93811961D01*
X136857143Y-93811961D02*
X136857143Y-93431009D01*
X136857143Y-93431009D02*
X136904762Y-93335771D01*
X136904762Y-93335771D02*
X137000000Y-93288152D01*
X137000000Y-93288152D02*
X137190476Y-93288152D01*
X137190476Y-93288152D02*
X137285714Y-93335771D01*
X137285714Y-93335771D02*
X137333333Y-93431009D01*
X137333333Y-93431009D02*
X137333333Y-93526247D01*
X137333333Y-93526247D02*
X136857143Y-93621485D01*
X137761905Y-93954819D02*
X137761905Y-93288152D01*
X137761905Y-93478628D02*
X137809524Y-93383390D01*
X137809524Y-93383390D02*
X137857143Y-93335771D01*
X137857143Y-93335771D02*
X137952381Y-93288152D01*
X137952381Y-93288152D02*
X138047619Y-93288152D01*
X138523810Y-93954819D02*
X138428572Y-93907200D01*
X138428572Y-93907200D02*
X138380953Y-93859580D01*
X138380953Y-93859580D02*
X138333334Y-93764342D01*
X138333334Y-93764342D02*
X138333334Y-93478628D01*
X138333334Y-93478628D02*
X138380953Y-93383390D01*
X138380953Y-93383390D02*
X138428572Y-93335771D01*
X138428572Y-93335771D02*
X138523810Y-93288152D01*
X138523810Y-93288152D02*
X138666667Y-93288152D01*
X138666667Y-93288152D02*
X138761905Y-93335771D01*
X138761905Y-93335771D02*
X138809524Y-93383390D01*
X138809524Y-93383390D02*
X138857143Y-93478628D01*
X138857143Y-93478628D02*
X138857143Y-93764342D01*
X138857143Y-93764342D02*
X138809524Y-93859580D01*
X138809524Y-93859580D02*
X138761905Y-93907200D01*
X138761905Y-93907200D02*
X138666667Y-93954819D01*
X138666667Y-93954819D02*
X138523810Y-93954819D01*
X140000001Y-93050057D02*
X140047620Y-93002438D01*
X140047620Y-93002438D02*
X140142858Y-92954819D01*
X140142858Y-92954819D02*
X140380953Y-92954819D01*
X140380953Y-92954819D02*
X140476191Y-93002438D01*
X140476191Y-93002438D02*
X140523810Y-93050057D01*
X140523810Y-93050057D02*
X140571429Y-93145295D01*
X140571429Y-93145295D02*
X140571429Y-93240533D01*
X140571429Y-93240533D02*
X140523810Y-93383390D01*
X140523810Y-93383390D02*
X139952382Y-93954819D01*
X139952382Y-93954819D02*
X140571429Y-93954819D01*
X141666668Y-92954819D02*
X141904763Y-93954819D01*
X141904763Y-93954819D02*
X142095239Y-93240533D01*
X142095239Y-93240533D02*
X142285715Y-93954819D01*
X142285715Y-93954819D02*
X142523811Y-92954819D01*
X190003333Y-77954819D02*
X189670000Y-77478628D01*
X189431905Y-77954819D02*
X189431905Y-76954819D01*
X189431905Y-76954819D02*
X189812857Y-76954819D01*
X189812857Y-76954819D02*
X189908095Y-77002438D01*
X189908095Y-77002438D02*
X189955714Y-77050057D01*
X189955714Y-77050057D02*
X190003333Y-77145295D01*
X190003333Y-77145295D02*
X190003333Y-77288152D01*
X190003333Y-77288152D02*
X189955714Y-77383390D01*
X189955714Y-77383390D02*
X189908095Y-77431009D01*
X189908095Y-77431009D02*
X189812857Y-77478628D01*
X189812857Y-77478628D02*
X189431905Y-77478628D01*
X190336667Y-76954819D02*
X190955714Y-76954819D01*
X190955714Y-76954819D02*
X190622381Y-77335771D01*
X190622381Y-77335771D02*
X190765238Y-77335771D01*
X190765238Y-77335771D02*
X190860476Y-77383390D01*
X190860476Y-77383390D02*
X190908095Y-77431009D01*
X190908095Y-77431009D02*
X190955714Y-77526247D01*
X190955714Y-77526247D02*
X190955714Y-77764342D01*
X190955714Y-77764342D02*
X190908095Y-77859580D01*
X190908095Y-77859580D02*
X190860476Y-77907200D01*
X190860476Y-77907200D02*
X190765238Y-77954819D01*
X190765238Y-77954819D02*
X190479524Y-77954819D01*
X190479524Y-77954819D02*
X190384286Y-77907200D01*
X190384286Y-77907200D02*
X190336667Y-77859580D01*
X145671666Y-106954819D02*
X145671666Y-107669104D01*
X145671666Y-107669104D02*
X145624047Y-107811961D01*
X145624047Y-107811961D02*
X145528809Y-107907200D01*
X145528809Y-107907200D02*
X145385952Y-107954819D01*
X145385952Y-107954819D02*
X145290714Y-107954819D01*
X146100238Y-107050057D02*
X146147857Y-107002438D01*
X146147857Y-107002438D02*
X146243095Y-106954819D01*
X146243095Y-106954819D02*
X146481190Y-106954819D01*
X146481190Y-106954819D02*
X146576428Y-107002438D01*
X146576428Y-107002438D02*
X146624047Y-107050057D01*
X146624047Y-107050057D02*
X146671666Y-107145295D01*
X146671666Y-107145295D02*
X146671666Y-107240533D01*
X146671666Y-107240533D02*
X146624047Y-107383390D01*
X146624047Y-107383390D02*
X146052619Y-107954819D01*
X146052619Y-107954819D02*
X146671666Y-107954819D01*
X137976190Y-114954819D02*
X138547618Y-114954819D01*
X138261904Y-115954819D02*
X138261904Y-114954819D01*
X139214285Y-115431009D02*
X138880952Y-115431009D01*
X138880952Y-115954819D02*
X138880952Y-114954819D01*
X138880952Y-114954819D02*
X139357142Y-114954819D01*
X139738095Y-115573866D02*
X140500000Y-115573866D01*
X141452380Y-115954819D02*
X140976190Y-115954819D01*
X140976190Y-115954819D02*
X140976190Y-114954819D01*
X141785714Y-114954819D02*
X141785714Y-115764342D01*
X141785714Y-115764342D02*
X141833333Y-115859580D01*
X141833333Y-115859580D02*
X141880952Y-115907200D01*
X141880952Y-115907200D02*
X141976190Y-115954819D01*
X141976190Y-115954819D02*
X142166666Y-115954819D01*
X142166666Y-115954819D02*
X142261904Y-115907200D01*
X142261904Y-115907200D02*
X142309523Y-115859580D01*
X142309523Y-115859580D02*
X142357142Y-115764342D01*
X142357142Y-115764342D02*
X142357142Y-114954819D01*
X142833333Y-115954819D02*
X142833333Y-114954819D01*
X142833333Y-114954819D02*
X143404761Y-115954819D01*
X143404761Y-115954819D02*
X143404761Y-114954819D01*
X143833333Y-115669104D02*
X144309523Y-115669104D01*
X143738095Y-115954819D02*
X144071428Y-114954819D01*
X144071428Y-114954819D02*
X144404761Y-115954819D01*
X146071428Y-115859580D02*
X146023809Y-115907200D01*
X146023809Y-115907200D02*
X145880952Y-115954819D01*
X145880952Y-115954819D02*
X145785714Y-115954819D01*
X145785714Y-115954819D02*
X145642857Y-115907200D01*
X145642857Y-115907200D02*
X145547619Y-115811961D01*
X145547619Y-115811961D02*
X145500000Y-115716723D01*
X145500000Y-115716723D02*
X145452381Y-115526247D01*
X145452381Y-115526247D02*
X145452381Y-115383390D01*
X145452381Y-115383390D02*
X145500000Y-115192914D01*
X145500000Y-115192914D02*
X145547619Y-115097676D01*
X145547619Y-115097676D02*
X145642857Y-115002438D01*
X145642857Y-115002438D02*
X145785714Y-114954819D01*
X145785714Y-114954819D02*
X145880952Y-114954819D01*
X145880952Y-114954819D02*
X146023809Y-115002438D01*
X146023809Y-115002438D02*
X146071428Y-115050057D01*
X146690476Y-114954819D02*
X146880952Y-114954819D01*
X146880952Y-114954819D02*
X146976190Y-115002438D01*
X146976190Y-115002438D02*
X147071428Y-115097676D01*
X147071428Y-115097676D02*
X147119047Y-115288152D01*
X147119047Y-115288152D02*
X147119047Y-115621485D01*
X147119047Y-115621485D02*
X147071428Y-115811961D01*
X147071428Y-115811961D02*
X146976190Y-115907200D01*
X146976190Y-115907200D02*
X146880952Y-115954819D01*
X146880952Y-115954819D02*
X146690476Y-115954819D01*
X146690476Y-115954819D02*
X146595238Y-115907200D01*
X146595238Y-115907200D02*
X146500000Y-115811961D01*
X146500000Y-115811961D02*
X146452381Y-115621485D01*
X146452381Y-115621485D02*
X146452381Y-115288152D01*
X146452381Y-115288152D02*
X146500000Y-115097676D01*
X146500000Y-115097676D02*
X146595238Y-115002438D01*
X146595238Y-115002438D02*
X146690476Y-114954819D01*
X147547619Y-115954819D02*
X147547619Y-114954819D01*
X147547619Y-114954819D02*
X148119047Y-115954819D01*
X148119047Y-115954819D02*
X148119047Y-114954819D01*
X148595238Y-115954819D02*
X148595238Y-114954819D01*
X148595238Y-114954819D02*
X149166666Y-115954819D01*
X149166666Y-115954819D02*
X149166666Y-114954819D01*
X149642857Y-115431009D02*
X149976190Y-115431009D01*
X150119047Y-115954819D02*
X149642857Y-115954819D01*
X149642857Y-115954819D02*
X149642857Y-114954819D01*
X149642857Y-114954819D02*
X150119047Y-114954819D01*
X151119047Y-115859580D02*
X151071428Y-115907200D01*
X151071428Y-115907200D02*
X150928571Y-115954819D01*
X150928571Y-115954819D02*
X150833333Y-115954819D01*
X150833333Y-115954819D02*
X150690476Y-115907200D01*
X150690476Y-115907200D02*
X150595238Y-115811961D01*
X150595238Y-115811961D02*
X150547619Y-115716723D01*
X150547619Y-115716723D02*
X150500000Y-115526247D01*
X150500000Y-115526247D02*
X150500000Y-115383390D01*
X150500000Y-115383390D02*
X150547619Y-115192914D01*
X150547619Y-115192914D02*
X150595238Y-115097676D01*
X150595238Y-115097676D02*
X150690476Y-115002438D01*
X150690476Y-115002438D02*
X150833333Y-114954819D01*
X150833333Y-114954819D02*
X150928571Y-114954819D01*
X150928571Y-114954819D02*
X151071428Y-115002438D01*
X151071428Y-115002438D02*
X151119047Y-115050057D01*
X151404762Y-114954819D02*
X151976190Y-114954819D01*
X151690476Y-115954819D02*
X151690476Y-114954819D01*
X152500000Y-114954819D02*
X152690476Y-114954819D01*
X152690476Y-114954819D02*
X152785714Y-115002438D01*
X152785714Y-115002438D02*
X152880952Y-115097676D01*
X152880952Y-115097676D02*
X152928571Y-115288152D01*
X152928571Y-115288152D02*
X152928571Y-115621485D01*
X152928571Y-115621485D02*
X152880952Y-115811961D01*
X152880952Y-115811961D02*
X152785714Y-115907200D01*
X152785714Y-115907200D02*
X152690476Y-115954819D01*
X152690476Y-115954819D02*
X152500000Y-115954819D01*
X152500000Y-115954819D02*
X152404762Y-115907200D01*
X152404762Y-115907200D02*
X152309524Y-115811961D01*
X152309524Y-115811961D02*
X152261905Y-115621485D01*
X152261905Y-115621485D02*
X152261905Y-115288152D01*
X152261905Y-115288152D02*
X152309524Y-115097676D01*
X152309524Y-115097676D02*
X152404762Y-115002438D01*
X152404762Y-115002438D02*
X152500000Y-114954819D01*
X153928571Y-115954819D02*
X153595238Y-115478628D01*
X153357143Y-115954819D02*
X153357143Y-114954819D01*
X153357143Y-114954819D02*
X153738095Y-114954819D01*
X153738095Y-114954819D02*
X153833333Y-115002438D01*
X153833333Y-115002438D02*
X153880952Y-115050057D01*
X153880952Y-115050057D02*
X153928571Y-115145295D01*
X153928571Y-115145295D02*
X153928571Y-115288152D01*
X153928571Y-115288152D02*
X153880952Y-115383390D01*
X153880952Y-115383390D02*
X153833333Y-115431009D01*
X153833333Y-115431009D02*
X153738095Y-115478628D01*
X153738095Y-115478628D02*
X153357143Y-115478628D01*
D15*
X195100000Y-90010000D02*
X193400000Y-90010000D01*
X195100000Y-99350000D02*
X193400000Y-99350000D01*
X173230000Y-79130000D02*
X179770000Y-79130000D01*
X173230000Y-79460000D02*
X173230000Y-79130000D01*
X173230000Y-81540000D02*
X173230000Y-81870000D01*
X173230000Y-81870000D02*
X179770000Y-81870000D01*
X179770000Y-79130000D02*
X179770000Y-79460000D01*
X179770000Y-81870000D02*
X179770000Y-81540000D01*
D16*
G36*
X172954659Y-111669469D02*
G01*
X173008341Y-111700467D01*
X173040586Y-111753500D01*
X173050005Y-111794942D01*
X173047708Y-111857552D01*
X173021677Y-111913492D01*
X172969998Y-111964704D01*
X172890756Y-112013125D01*
X172791223Y-112057126D01*
X172698429Y-112093492D01*
X172657510Y-111930190D01*
X172641658Y-111861954D01*
X172630630Y-111804478D01*
X172625625Y-111764749D01*
X172626672Y-111750576D01*
X172654360Y-111726701D01*
X172703314Y-111702137D01*
X172763819Y-111680402D01*
X172826165Y-111665013D01*
X172878236Y-111659476D01*
X172954659Y-111669469D01*
G37*
G36*
X172784228Y-111181872D02*
G01*
X172821149Y-111210772D01*
X172836338Y-111237812D01*
X172843928Y-111295107D01*
X172822261Y-111355824D01*
X172772823Y-111417719D01*
X172697102Y-111478547D01*
X172662339Y-111500560D01*
X172614341Y-111526004D01*
X172584149Y-111531807D01*
X172565177Y-111517880D01*
X172556088Y-111499107D01*
X172542605Y-111466258D01*
X172521385Y-111416783D01*
X172501767Y-111372116D01*
X172480508Y-111321266D01*
X172465754Y-111280271D01*
X172460984Y-111260068D01*
X172474704Y-111245236D01*
X172510599Y-111226105D01*
X172558677Y-111207604D01*
X172655734Y-111180586D01*
X172730004Y-111171909D01*
X172784228Y-111181872D01*
G37*
G36*
X165507543Y-110938945D02*
G01*
X165515879Y-110949270D01*
X165526631Y-110980251D01*
X165532782Y-111033037D01*
X165534779Y-111101561D01*
X165533074Y-111179758D01*
X165528118Y-111261564D01*
X165520359Y-111340912D01*
X165510250Y-111411737D01*
X165498238Y-111467975D01*
X165484776Y-111503558D01*
X165474031Y-111513040D01*
X165449234Y-111511484D01*
X165401652Y-111505268D01*
X165339223Y-111495501D01*
X165298196Y-111488445D01*
X165232588Y-111476052D01*
X165179127Y-111464581D01*
X165144925Y-111455635D01*
X165136477Y-111452025D01*
X165141949Y-111437025D01*
X165162338Y-111401266D01*
X165194495Y-111349501D01*
X165235270Y-111286484D01*
X165281512Y-111216968D01*
X165330072Y-111145705D01*
X165377798Y-111077449D01*
X165421542Y-111016953D01*
X165448352Y-110981451D01*
X165476982Y-110946367D01*
X165494373Y-110933314D01*
X165507543Y-110938945D01*
G37*
G36*
X163919917Y-109307113D02*
G01*
X164067156Y-109310010D01*
X164207398Y-109315170D01*
X164334286Y-109322550D01*
X164441458Y-109332107D01*
X164473661Y-109336028D01*
X164824257Y-109391268D01*
X165178100Y-109464354D01*
X165537795Y-109556114D01*
X165905946Y-109667378D01*
X166285157Y-109798976D01*
X166678032Y-109951736D01*
X167087175Y-110126487D01*
X167388800Y-110264286D01*
X167787633Y-110437810D01*
X168181890Y-110581994D01*
X168575322Y-110697629D01*
X168971678Y-110785509D01*
X169374707Y-110846426D01*
X169788158Y-110881171D01*
X170215781Y-110890538D01*
X170343015Y-110888620D01*
X170808572Y-110864066D01*
X171271392Y-110811647D01*
X171733319Y-110730942D01*
X172196200Y-110621530D01*
X172661881Y-110482992D01*
X173132205Y-110314907D01*
X173473891Y-110175723D01*
X173613581Y-110113849D01*
X173767347Y-110042091D01*
X173926722Y-109964648D01*
X174083239Y-109885720D01*
X174228429Y-109809505D01*
X174353825Y-109740202D01*
X174364405Y-109734128D01*
X174440789Y-109691507D01*
X174494644Y-109665374D01*
X174529396Y-109654800D01*
X174548475Y-109658854D01*
X174555307Y-109676604D01*
X174555507Y-109682239D01*
X174548552Y-109700475D01*
X174528701Y-109743387D01*
X174497472Y-109807910D01*
X174456387Y-109890980D01*
X174406964Y-109989534D01*
X174350724Y-110100508D01*
X174289187Y-110220838D01*
X174264893Y-110268063D01*
X174201656Y-110391746D01*
X174143661Y-110507025D01*
X174092365Y-110610868D01*
X174049223Y-110700244D01*
X174015690Y-110772123D01*
X173993223Y-110823472D01*
X173983278Y-110851262D01*
X173983049Y-110854931D01*
X173988854Y-110860604D01*
X174003294Y-110865279D01*
X174029044Y-110869047D01*
X174068780Y-110872000D01*
X174125180Y-110874230D01*
X174200919Y-110875830D01*
X174298673Y-110876890D01*
X174421119Y-110877503D01*
X174570933Y-110877760D01*
X174648801Y-110877784D01*
X174810030Y-110877869D01*
X174942734Y-110878196D01*
X175049648Y-110878869D01*
X175133508Y-110879997D01*
X175197049Y-110881684D01*
X175243009Y-110884038D01*
X175274122Y-110887164D01*
X175293124Y-110891168D01*
X175302751Y-110896158D01*
X175305740Y-110902238D01*
X175305784Y-110903302D01*
X175293811Y-110925490D01*
X175259374Y-110964967D01*
X175204692Y-111019843D01*
X175131989Y-111088227D01*
X175043484Y-111168227D01*
X174941399Y-111257954D01*
X174827956Y-111355516D01*
X174705376Y-111459022D01*
X174575880Y-111566582D01*
X174441689Y-111676305D01*
X174305025Y-111786301D01*
X174168109Y-111894677D01*
X174033162Y-111999544D01*
X173902406Y-112099011D01*
X173891200Y-112107423D01*
X173476550Y-112408370D01*
X173070946Y-112682681D01*
X172674810Y-112930151D01*
X172288565Y-113150575D01*
X171912637Y-113343748D01*
X171547448Y-113509467D01*
X171193422Y-113647527D01*
X170850982Y-113757722D01*
X170520552Y-113839848D01*
X170202557Y-113893702D01*
X170189066Y-113895393D01*
X170123331Y-113900860D01*
X170031002Y-113904738D01*
X169916702Y-113907099D01*
X169785054Y-113908013D01*
X169640682Y-113907553D01*
X169488209Y-113905788D01*
X169332258Y-113902792D01*
X169177453Y-113898634D01*
X169028417Y-113893386D01*
X168889772Y-113887119D01*
X168766143Y-113879905D01*
X168662707Y-113871866D01*
X168423863Y-113848503D01*
X168195871Y-113822901D01*
X167975402Y-113794352D01*
X167759126Y-113762148D01*
X167543715Y-113725581D01*
X167325840Y-113683942D01*
X167102170Y-113636524D01*
X166869376Y-113582617D01*
X166624130Y-113521514D01*
X166363102Y-113452506D01*
X166082962Y-113374886D01*
X165780381Y-113287944D01*
X165452031Y-113190973D01*
X165427138Y-113183535D01*
X165052108Y-113072507D01*
X164704617Y-112972061D01*
X164382915Y-112881848D01*
X164372677Y-112879085D01*
X167047763Y-112879085D01*
X167068707Y-112928730D01*
X167106672Y-112959168D01*
X167159924Y-112967091D01*
X167221184Y-112949205D01*
X167287230Y-112908874D01*
X167354836Y-112849463D01*
X167420779Y-112774338D01*
X167481834Y-112686861D01*
X167534778Y-112590399D01*
X167576387Y-112488316D01*
X167585481Y-112459478D01*
X167611593Y-112401407D01*
X167649330Y-112370873D01*
X167702032Y-112365267D01*
X167705619Y-112365651D01*
X167722799Y-112369012D01*
X167735941Y-112377767D01*
X167747065Y-112396887D01*
X167758188Y-112431341D01*
X167771326Y-112486100D01*
X167788499Y-112566131D01*
X167790097Y-112573723D01*
X167809265Y-112667081D01*
X167828819Y-112766091D01*
X167846318Y-112858196D01*
X167858111Y-112923747D01*
X167876144Y-113013787D01*
X167896039Y-113078410D01*
X167920546Y-113123445D01*
X167952420Y-113154723D01*
X167973285Y-113167740D01*
X168029019Y-113186031D01*
X168091375Y-113189256D01*
X168144393Y-113176747D01*
X168147758Y-113175044D01*
X168190142Y-113135150D01*
X168217192Y-113071110D01*
X168228534Y-112986228D01*
X168223794Y-112883808D01*
X168202597Y-112767154D01*
X168196661Y-112743588D01*
X168166866Y-112639077D01*
X168133250Y-112535874D01*
X168098359Y-112440803D01*
X168095495Y-112433979D01*
X169197176Y-112433979D01*
X169198402Y-112478407D01*
X169205945Y-112610558D01*
X169218986Y-112719918D01*
X169239157Y-112814721D01*
X169268089Y-112903198D01*
X169295524Y-112968178D01*
X169340093Y-113043489D01*
X169400849Y-113116190D01*
X169469574Y-113178044D01*
X169538048Y-113220815D01*
X169554499Y-113227684D01*
X169627739Y-113243990D01*
X169717127Y-113248414D01*
X169810139Y-113241528D01*
X169894247Y-113223905D01*
X169930710Y-113210507D01*
X170008201Y-113162471D01*
X170059922Y-113101109D01*
X170084140Y-113029466D01*
X170079122Y-112950590D01*
X170078961Y-112949948D01*
X170061677Y-112917616D01*
X170028149Y-112902368D01*
X169974987Y-112903789D01*
X169898803Y-112921467D01*
X169883274Y-112926072D01*
X169824654Y-112943182D01*
X169785346Y-112951204D01*
X169754887Y-112950573D01*
X169722815Y-112941720D01*
X169701008Y-112933624D01*
X169632969Y-112891882D01*
X169572900Y-112824834D01*
X169522063Y-112737706D01*
X169481719Y-112635723D01*
X169453132Y-112524112D01*
X169437561Y-112408100D01*
X169436270Y-112292913D01*
X169450520Y-112183777D01*
X169481572Y-112085919D01*
X169491366Y-112065277D01*
X169535011Y-112003715D01*
X169590988Y-111959267D01*
X169651011Y-111938142D01*
X169662211Y-111937277D01*
X169700877Y-111943789D01*
X169753302Y-111961991D01*
X169794938Y-111981306D01*
X169857862Y-112008465D01*
X169901533Y-112012713D01*
X169928570Y-111993471D01*
X169941595Y-111950161D01*
X169941743Y-111948935D01*
X169941471Y-111891543D01*
X169923326Y-111838972D01*
X169883609Y-111782372D01*
X169861839Y-111757692D01*
X169856643Y-111753109D01*
X170244109Y-111753109D01*
X170245638Y-111851401D01*
X170255685Y-111975095D01*
X170274093Y-112126280D01*
X170280912Y-112175138D01*
X170297072Y-112291940D01*
X170314550Y-112424395D01*
X170331548Y-112558506D01*
X170346268Y-112680277D01*
X170350283Y-112715053D01*
X170360846Y-112804483D01*
X170371004Y-112884236D01*
X170379973Y-112948617D01*
X170386969Y-112991931D01*
X170390480Y-113007240D01*
X170417316Y-113033700D01*
X170472388Y-113047043D01*
X170555553Y-113047259D01*
X170666668Y-113034339D01*
X170706037Y-113027793D01*
X170798237Y-113009787D01*
X170896600Y-112987570D01*
X170993931Y-112963062D01*
X171083041Y-112938181D01*
X171156736Y-112914844D01*
X171207824Y-112894971D01*
X171212503Y-112892705D01*
X171264021Y-112856291D01*
X171288606Y-112815325D01*
X171285653Y-112774573D01*
X171254562Y-112738800D01*
X171233486Y-112726652D01*
X171214201Y-112717300D01*
X171197866Y-112710915D01*
X171179651Y-112708005D01*
X171154725Y-112709074D01*
X171118258Y-112714631D01*
X171065419Y-112725181D01*
X170991379Y-112741231D01*
X170897907Y-112761835D01*
X170804967Y-112778315D01*
X170725734Y-112784558D01*
X170664843Y-112780638D01*
X170626924Y-112766629D01*
X170618763Y-112757384D01*
X170611563Y-112730621D01*
X170604002Y-112680870D01*
X170597194Y-112616369D01*
X170593916Y-112573723D01*
X170577613Y-112356033D01*
X170559324Y-112167967D01*
X170538793Y-112007934D01*
X170515764Y-111874343D01*
X170489983Y-111765606D01*
X170461193Y-111680130D01*
X170444507Y-111643481D01*
X170414115Y-111594055D01*
X170383138Y-111570582D01*
X170344061Y-111568530D01*
X170326319Y-111572224D01*
X170292204Y-111589778D01*
X170267235Y-111624386D01*
X170251256Y-111678134D01*
X170244109Y-111753109D01*
X169856643Y-111753109D01*
X169784420Y-111689402D01*
X169704819Y-111651943D01*
X169620896Y-111644882D01*
X169530507Y-111667790D01*
X169494904Y-111683820D01*
X169400309Y-111747439D01*
X169323876Y-111835158D01*
X169265477Y-111947323D01*
X169224980Y-112084283D01*
X169202256Y-112246386D01*
X169197176Y-112433979D01*
X168095495Y-112433979D01*
X168064741Y-112360690D01*
X168034941Y-112302360D01*
X168027866Y-112291210D01*
X167989945Y-112235331D01*
X168117280Y-112099727D01*
X168203189Y-112004018D01*
X168277660Y-111912673D01*
X168337883Y-111829622D01*
X168381050Y-111758796D01*
X168404350Y-111704125D01*
X168406425Y-111695235D01*
X168408267Y-111638277D01*
X168393172Y-111593664D01*
X168364394Y-111568561D01*
X168347547Y-111565538D01*
X168295212Y-111577448D01*
X168226462Y-111611737D01*
X168144248Y-111666244D01*
X168051523Y-111738808D01*
X167951238Y-111827269D01*
X167846346Y-111929467D01*
X167836270Y-111939789D01*
X167794512Y-111980673D01*
X167763460Y-112007024D01*
X167747195Y-112015615D01*
X167746197Y-112011015D01*
X167758495Y-111958024D01*
X167771013Y-111882615D01*
X167782730Y-111793611D01*
X167792623Y-111699830D01*
X167799668Y-111610093D01*
X167801717Y-111560455D01*
X171120440Y-111560455D01*
X171124854Y-111612288D01*
X171136623Y-111679622D01*
X171156354Y-111765757D01*
X171184656Y-111873992D01*
X171222136Y-112007625D01*
X171234520Y-112050605D01*
X171268280Y-112166017D01*
X171295733Y-112256021D01*
X171318778Y-112325373D01*
X171339316Y-112378829D01*
X171359243Y-112421147D01*
X171380460Y-112457083D01*
X171404865Y-112491395D01*
X171416459Y-112506385D01*
X171486002Y-112573802D01*
X171572657Y-112625728D01*
X171669242Y-112660376D01*
X171768577Y-112675963D01*
X171863482Y-112670701D01*
X171946776Y-112642808D01*
X171952522Y-112639658D01*
X172024843Y-112580830D01*
X172080758Y-112495920D01*
X172119924Y-112385670D01*
X172141995Y-112250820D01*
X172143714Y-112229846D01*
X172144517Y-112150620D01*
X172137817Y-112053159D01*
X172124807Y-111943725D01*
X172106679Y-111828578D01*
X172084628Y-111713979D01*
X172059846Y-111606189D01*
X172033527Y-111511468D01*
X172006864Y-111436078D01*
X171983653Y-111390072D01*
X171933198Y-111328008D01*
X171883834Y-111294095D01*
X171838032Y-111288602D01*
X171798261Y-111311802D01*
X171766991Y-111363964D01*
X171766119Y-111366216D01*
X171754866Y-111398517D01*
X171749749Y-111426721D01*
X171751277Y-111459089D01*
X171759960Y-111503882D01*
X171776307Y-111569361D01*
X171779372Y-111581169D01*
X171809432Y-111711014D01*
X171833165Y-111842583D01*
X171850275Y-111971192D01*
X171860468Y-112092154D01*
X171863448Y-112200783D01*
X171858920Y-112292394D01*
X171846587Y-112362301D01*
X171830946Y-112399388D01*
X171789510Y-112436372D01*
X171733382Y-112451530D01*
X171671808Y-112443140D01*
X171648713Y-112433319D01*
X171624770Y-112417891D01*
X171603237Y-112395847D01*
X171582816Y-112363866D01*
X171562215Y-112318625D01*
X171540137Y-112256803D01*
X171515287Y-112175078D01*
X171486370Y-112070129D01*
X171452091Y-111938634D01*
X171444963Y-111910757D01*
X171418534Y-111808110D01*
X171393794Y-111713779D01*
X171372051Y-111632612D01*
X171354614Y-111569458D01*
X171342789Y-111529165D01*
X171339208Y-111518646D01*
X171305860Y-111464335D01*
X171262428Y-111432244D01*
X171215428Y-111423268D01*
X171171377Y-111438302D01*
X171136789Y-111478240D01*
X171131245Y-111490099D01*
X171122773Y-111520825D01*
X171120440Y-111560455D01*
X167801717Y-111560455D01*
X167802842Y-111533220D01*
X167802923Y-111521931D01*
X167801254Y-111442640D01*
X167795245Y-111385601D01*
X167783573Y-111341950D01*
X167772190Y-111316301D01*
X167725493Y-111247834D01*
X167668694Y-111201018D01*
X167657914Y-111197197D01*
X172248828Y-111197197D01*
X172250147Y-111226892D01*
X172261800Y-111285491D01*
X172283821Y-111373127D01*
X172316245Y-111489934D01*
X172359104Y-111636048D01*
X172364740Y-111654856D01*
X172399152Y-111770134D01*
X172431939Y-111881189D01*
X172461603Y-111982853D01*
X172486647Y-112069960D01*
X172505572Y-112137344D01*
X172516687Y-112179046D01*
X172542939Y-112284554D01*
X172636065Y-112284554D01*
X172744224Y-112271811D01*
X172829375Y-112244474D01*
X172956285Y-112185797D01*
X173063335Y-112120065D01*
X173147433Y-112049723D01*
X173205491Y-111977217D01*
X173228302Y-111928589D01*
X173241057Y-111850199D01*
X173233434Y-111764689D01*
X173208523Y-111678620D01*
X173169415Y-111598552D01*
X173119201Y-111531048D01*
X173060972Y-111482667D01*
X173008349Y-111461651D01*
X172966109Y-111453203D01*
X173002716Y-111352352D01*
X173028901Y-111266688D01*
X173038000Y-111194983D01*
X173030921Y-111125631D01*
X173023004Y-111093193D01*
X172988252Y-111014778D01*
X172934722Y-110961227D01*
X172862873Y-110932762D01*
X172773163Y-110929605D01*
X172707722Y-110940701D01*
X172627114Y-110964486D01*
X172542104Y-110997779D01*
X172458352Y-111037419D01*
X172381516Y-111080240D01*
X172317256Y-111123081D01*
X172271233Y-111162777D01*
X172249104Y-111196165D01*
X172248828Y-111197197D01*
X167657914Y-111197197D01*
X167607070Y-111179176D01*
X167558473Y-111181756D01*
X167523217Y-111202151D01*
X167494615Y-111245225D01*
X167471995Y-111313029D01*
X167454686Y-111407619D01*
X167442015Y-111531045D01*
X167441383Y-111539470D01*
X167426853Y-111712800D01*
X167409847Y-111861199D01*
X167388737Y-111990985D01*
X167361895Y-112108478D01*
X167327693Y-112219996D01*
X167284503Y-112331858D01*
X167230697Y-112450383D01*
X167180950Y-112550277D01*
X167140556Y-112630257D01*
X167104579Y-112703576D01*
X167075813Y-112764379D01*
X167057051Y-112806812D01*
X167051775Y-112820963D01*
X167047763Y-112879085D01*
X164372677Y-112879085D01*
X164085253Y-112801519D01*
X163809880Y-112730727D01*
X163555046Y-112669122D01*
X163319003Y-112616356D01*
X163099999Y-112572082D01*
X162896286Y-112535950D01*
X162706113Y-112507612D01*
X162527731Y-112486720D01*
X162359390Y-112472926D01*
X162199339Y-112465881D01*
X162045831Y-112465236D01*
X161897113Y-112470644D01*
X161858516Y-112473032D01*
X161768298Y-112479488D01*
X161682494Y-112486352D01*
X161609063Y-112492936D01*
X161555969Y-112498554D01*
X161543225Y-112500229D01*
X161465405Y-112511491D01*
X161446251Y-112597314D01*
X161422910Y-112716195D01*
X161399730Y-112861072D01*
X161377267Y-113026683D01*
X161356073Y-113207765D01*
X161336702Y-113399056D01*
X161319707Y-113595292D01*
X161305641Y-113791212D01*
X161295059Y-113981552D01*
X161291343Y-114070369D01*
X161280540Y-114363446D01*
X161077180Y-114363446D01*
X160873820Y-114363446D01*
X160884080Y-114183802D01*
X160901136Y-113968277D01*
X160928458Y-113730223D01*
X160964901Y-113476213D01*
X161009321Y-113212822D01*
X161060572Y-112946624D01*
X161117510Y-112684195D01*
X161178991Y-112432109D01*
X161208211Y-112322420D01*
X161269899Y-112114167D01*
X164542185Y-112114167D01*
X164548138Y-112141646D01*
X164550421Y-112148026D01*
X164579894Y-112193610D01*
X164621697Y-112212903D01*
X164673373Y-112207155D01*
X164732463Y-112177617D01*
X164796509Y-112125540D01*
X164863053Y-112052174D01*
X164929635Y-111958770D01*
X164933070Y-111953361D01*
X164964274Y-111905952D01*
X164986920Y-111880041D01*
X165008198Y-111870122D01*
X165035294Y-111870686D01*
X165040142Y-111871312D01*
X165115083Y-111881235D01*
X165189841Y-111890824D01*
X165257471Y-111899224D01*
X165311031Y-111905579D01*
X165343575Y-111909034D01*
X165349422Y-111909415D01*
X165352983Y-111922408D01*
X165346234Y-111955337D01*
X165339623Y-111975846D01*
X165324832Y-112019948D01*
X165304539Y-112083703D01*
X165282011Y-112156754D01*
X165269722Y-112197573D01*
X165248410Y-112272511D01*
X165236524Y-112325175D01*
X165233016Y-112362741D01*
X165236838Y-112392389D01*
X165239810Y-112402513D01*
X165269724Y-112452258D01*
X165316331Y-112477607D01*
X165376056Y-112477969D01*
X165445326Y-112452750D01*
X165467266Y-112440212D01*
X165518646Y-112399151D01*
X165562225Y-112342426D01*
X165600149Y-112265904D01*
X165634565Y-112165452D01*
X165652668Y-112096984D01*
X166031025Y-112096984D01*
X166039807Y-112269527D01*
X166066037Y-112416661D01*
X166110261Y-112539274D01*
X166173027Y-112638259D01*
X166254882Y-112714504D01*
X166356373Y-112768899D01*
X166462985Y-112799524D01*
X166520148Y-112809786D01*
X166559099Y-112812198D01*
X166592103Y-112805860D01*
X166631426Y-112789871D01*
X166638523Y-112786632D01*
X166698320Y-112751796D01*
X166747833Y-112709323D01*
X166780118Y-112666076D01*
X166788815Y-112638022D01*
X166785849Y-112567451D01*
X166765743Y-112521255D01*
X166725402Y-112495879D01*
X166661733Y-112487770D01*
X166658001Y-112487754D01*
X166564429Y-112475010D01*
X166488430Y-112436548D01*
X166430020Y-112373097D01*
X166413279Y-112346310D01*
X166401790Y-112321173D01*
X166394598Y-112291236D01*
X166390749Y-112250047D01*
X166389285Y-112191155D01*
X166389252Y-112108108D01*
X166389292Y-112098094D01*
X166390190Y-112009112D01*
X166392900Y-111942401D01*
X166398700Y-111888979D01*
X166408868Y-111839859D01*
X166424683Y-111786058D01*
X166440365Y-111739139D01*
X166492777Y-111597468D01*
X166544017Y-111483521D01*
X166595818Y-111393897D01*
X166649914Y-111325193D01*
X166652804Y-111322148D01*
X166693923Y-111282350D01*
X166726464Y-111261418D01*
X166761180Y-111253651D01*
X166783385Y-111252923D01*
X166826814Y-111257230D01*
X166865406Y-111273704D01*
X166910791Y-111307672D01*
X166919877Y-111315446D01*
X166983992Y-111361156D01*
X167037778Y-111377747D01*
X167082297Y-111365215D01*
X167118610Y-111323552D01*
X167123655Y-111314328D01*
X167144228Y-111242566D01*
X167139446Y-111164045D01*
X167112101Y-111085600D01*
X167064987Y-111014068D01*
X167000899Y-110956285D01*
X166969803Y-110937868D01*
X166900912Y-110915444D01*
X166813773Y-110905700D01*
X166718765Y-110908749D01*
X166626266Y-110924705D01*
X166595117Y-110933783D01*
X166527225Y-110967723D01*
X166452685Y-111024183D01*
X166377542Y-111097113D01*
X166307843Y-111180465D01*
X166249634Y-111268190D01*
X166236080Y-111292979D01*
X166143658Y-111495502D01*
X166079618Y-111694086D01*
X166042548Y-111894265D01*
X166031025Y-112096984D01*
X165652668Y-112096984D01*
X165660124Y-112068786D01*
X165714810Y-111817149D01*
X165755801Y-111574212D01*
X165782813Y-111343492D01*
X165795562Y-111128507D01*
X165793766Y-110932772D01*
X165777139Y-110759806D01*
X165769382Y-110713756D01*
X165751842Y-110655629D01*
X165722634Y-110593320D01*
X165686913Y-110535127D01*
X165649834Y-110489346D01*
X165616551Y-110464276D01*
X165613754Y-110463266D01*
X165578780Y-110460951D01*
X165529727Y-110467545D01*
X165508078Y-110472793D01*
X165427880Y-110511290D01*
X165351919Y-110580600D01*
X165280376Y-110680534D01*
X165248808Y-110737107D01*
X165203595Y-110823280D01*
X165146323Y-110931051D01*
X165080095Y-111054681D01*
X165008015Y-111188429D01*
X164933186Y-111326555D01*
X164858713Y-111463320D01*
X164787698Y-111592984D01*
X164723247Y-111709807D01*
X164707888Y-111737477D01*
X164648876Y-111844812D01*
X164604400Y-111929169D01*
X164572976Y-111994415D01*
X164553121Y-112044419D01*
X164543352Y-112083047D01*
X164542185Y-112114167D01*
X161269899Y-112114167D01*
X161296890Y-112023046D01*
X161403615Y-111704509D01*
X161451068Y-111575943D01*
X162840110Y-111575943D01*
X162841220Y-111644290D01*
X162856181Y-111696336D01*
X162878140Y-111728316D01*
X162929372Y-111761400D01*
X162994425Y-111767340D01*
X163071473Y-111746056D01*
X163089988Y-111737646D01*
X163139707Y-111709086D01*
X163184322Y-111672159D01*
X163227431Y-111622348D01*
X163272630Y-111555131D01*
X163323517Y-111465988D01*
X163357595Y-111401415D01*
X163395045Y-111329235D01*
X163427294Y-111267490D01*
X163451682Y-111221242D01*
X163465550Y-111195551D01*
X163467613Y-111192089D01*
X163482806Y-111195345D01*
X163521038Y-111207727D01*
X163576230Y-111226979D01*
X163642305Y-111250846D01*
X163713184Y-111277072D01*
X163782789Y-111303403D01*
X163845042Y-111327583D01*
X163893866Y-111347357D01*
X163923183Y-111360469D01*
X163926808Y-111362476D01*
X163932018Y-111370480D01*
X163933826Y-111388138D01*
X163931756Y-111418442D01*
X163925328Y-111464384D01*
X163914065Y-111528954D01*
X163897490Y-111615145D01*
X163875124Y-111725946D01*
X163847195Y-111860971D01*
X163841437Y-111926071D01*
X163849078Y-111988541D01*
X163867993Y-112038698D01*
X163891878Y-112064730D01*
X163945479Y-112079775D01*
X164011336Y-112074337D01*
X164079110Y-112049533D01*
X164090431Y-112043265D01*
X164163990Y-111983814D01*
X164224279Y-111898708D01*
X164270654Y-111791956D01*
X164302225Y-111697322D01*
X164339622Y-111580053D01*
X164380801Y-111447029D01*
X164423716Y-111305130D01*
X164466321Y-111161236D01*
X164506570Y-111022228D01*
X164542419Y-110894986D01*
X164571820Y-110786391D01*
X164585667Y-110732439D01*
X164612772Y-110618830D01*
X164630531Y-110530419D01*
X164638985Y-110462586D01*
X164638175Y-110410709D01*
X164628143Y-110370169D01*
X164608929Y-110336344D01*
X164589408Y-110313527D01*
X164529481Y-110270639D01*
X164462970Y-110256247D01*
X164395142Y-110269921D01*
X164331264Y-110311229D01*
X164306941Y-110336643D01*
X164287212Y-110366179D01*
X164257371Y-110418390D01*
X164220327Y-110487532D01*
X164178992Y-110567858D01*
X164136276Y-110653625D01*
X164095089Y-110739086D01*
X164058341Y-110818498D01*
X164030589Y-110882154D01*
X164005947Y-110941232D01*
X163946727Y-110916100D01*
X163905177Y-110898783D01*
X163845153Y-110874154D01*
X163777195Y-110846529D01*
X163750617Y-110835795D01*
X163690575Y-110810808D01*
X163642444Y-110789296D01*
X163612991Y-110774359D01*
X163607224Y-110770101D01*
X163607010Y-110750653D01*
X163612563Y-110709371D01*
X163622699Y-110654901D01*
X163623584Y-110650651D01*
X163636605Y-110545334D01*
X163633809Y-110437710D01*
X163616954Y-110332767D01*
X163587792Y-110235494D01*
X163548081Y-110150880D01*
X163499575Y-110083913D01*
X163444029Y-110039581D01*
X163403433Y-110024966D01*
X163339045Y-110027733D01*
X163277725Y-110056545D01*
X163228759Y-110106812D01*
X163224543Y-110113425D01*
X163209927Y-110147803D01*
X163192480Y-110204490D01*
X163174614Y-110274974D01*
X163161672Y-110335405D01*
X163123188Y-110516031D01*
X163076332Y-110710829D01*
X163024170Y-110908143D01*
X162969766Y-111096312D01*
X162922462Y-111245107D01*
X162880475Y-111379149D01*
X162853110Y-111488495D01*
X162840110Y-111575943D01*
X161451068Y-111575943D01*
X161526455Y-111371693D01*
X161663479Y-111029480D01*
X161812756Y-110682754D01*
X161972354Y-110336398D01*
X162085550Y-110104061D01*
X162166253Y-109943727D01*
X162235342Y-109810135D01*
X162293897Y-109701460D01*
X162342995Y-109615874D01*
X162383714Y-109551552D01*
X162417133Y-109506666D01*
X162444329Y-109479390D01*
X162459801Y-109469976D01*
X162504272Y-109462509D01*
X162537332Y-109477045D01*
X162551042Y-109509927D01*
X162551077Y-109512006D01*
X162550876Y-109524191D01*
X162554133Y-109530195D01*
X162566634Y-109528845D01*
X162594168Y-109518965D01*
X162642521Y-109499380D01*
X162671384Y-109487590D01*
X162762516Y-109454793D01*
X162875373Y-109420865D01*
X163000616Y-109388168D01*
X163128905Y-109359069D01*
X163250900Y-109335931D01*
X163301354Y-109328081D01*
X163388184Y-109319016D01*
X163499815Y-109312430D01*
X163629887Y-109308280D01*
X163772041Y-109306522D01*
X163919917Y-109307113D01*
G37*
D17*
X100350000Y-73000000D02*
X165850000Y-73000000D01*
X100350000Y-103000000D02*
X100350000Y-73000000D01*
D15*
X107640000Y-100830000D02*
X107640000Y-95630000D01*
X155960000Y-95630000D02*
X107640000Y-95630000D01*
X155960000Y-98230000D02*
X155960000Y-95630000D01*
X158560000Y-95630000D02*
X157230000Y-95630000D01*
X158560000Y-96960000D02*
X158560000Y-95630000D01*
X158560000Y-98230000D02*
X155960000Y-98230000D01*
X158560000Y-100830000D02*
X107640000Y-100830000D01*
X158560000Y-100830000D02*
X158560000Y-98230000D01*
D17*
X165850000Y-73000000D02*
X165850000Y-103000000D01*
X165850000Y-103000000D02*
X100350000Y-103000000D01*
D15*
X186900000Y-79020000D02*
X193440000Y-79020000D01*
X186900000Y-79350000D02*
X186900000Y-79020000D01*
X186900000Y-81430000D02*
X186900000Y-81760000D01*
X186900000Y-81760000D02*
X193440000Y-81760000D01*
X193440000Y-79020000D02*
X193440000Y-79350000D01*
X193440000Y-81760000D02*
X193440000Y-81430000D01*
X140985000Y-112900000D02*
X140985000Y-111900000D01*
X140985000Y-112900000D02*
X141985000Y-112900000D01*
X141275000Y-109190000D02*
X141275000Y-112610000D01*
X141275000Y-112610000D02*
X150745000Y-112610000D01*
X141585000Y-110550000D02*
X141785000Y-110550000D01*
X141585000Y-111350000D02*
X141585000Y-110550000D01*
X141785000Y-109700000D02*
X146010000Y-109700000D01*
X141785000Y-110550000D02*
X141785000Y-109700000D01*
X141785000Y-111350000D02*
X141585000Y-111350000D01*
X141785000Y-112100000D02*
X141785000Y-111350000D01*
X146010000Y-112100000D02*
X141785000Y-112100000D01*
X146010000Y-112100000D02*
X150235000Y-112100000D01*
X150235000Y-109700000D02*
X146010000Y-109700000D01*
X150235000Y-110550000D02*
X150235000Y-109700000D01*
X150235000Y-111350000D02*
X150435000Y-111350000D01*
X150235000Y-112100000D02*
X150235000Y-111350000D01*
X150435000Y-110550000D02*
X150235000Y-110550000D01*
X150435000Y-111350000D02*
X150435000Y-110550000D01*
X150745000Y-109190000D02*
X141275000Y-109190000D01*
X150745000Y-112610000D02*
X150745000Y-109190000D01*
M02*
