M48
; DRILL file {KiCad 9.0.6-9.0.6~ubuntu24.04.1} date 2026-01-10T19:25:15+0100
; FORMAT={-:-/ absolute / metric / decimal}
; #@! TF.CreationDate,2026-01-10T19:25:15+01:00
; #@! TF.GenerationSoftware,Kicad,Pcbnew,9.0.6-9.0.6~ubuntu24.04.1
; #@! TF.FileFunction,Plated,1,2,PTH
FMAT,2
METRIC
; #@! TA.AperFunction,Plated,PTH,ViaDrill
T1C0.300
; #@! TA.AperFunction,Plated,PTH,ComponentDrill
T2C0.500
; #@! TA.AperFunction,Plated,PTH,ComponentDrill
T3C0.600
; #@! TA.AperFunction,Plated,PTH,ComponentDrill
T4C0.800
; #@! TA.AperFunction,Plated,PTH,ComponentDrill
T5C0.900
; #@! TA.AperFunction,Plated,PTH,ComponentDrill
T6C1.000
%
G90
G05
T1
X118.0Y-106.0
X127.0Y-107.0
X128.0Y-107.0
X130.0Y-104.0
X131.0Y-102.0
X147.2Y-105.0
X153.0Y-98.5
X153.0Y-102.0
T2
X142.885Y-111.35
X144.135Y-111.35
X145.385Y-111.35
X146.635Y-111.35
X147.885Y-111.35
X149.135Y-111.35
T4
X172.69Y-80.5
X172.69Y-104.0
X180.31Y-80.5
X180.31Y-104.0
X186.36Y-80.39
X193.98Y-80.39
T5
X175.335Y-94.9
X177.875Y-94.9
T6
X108.97Y-96.96
X108.97Y-99.5
X111.51Y-96.96
X111.51Y-99.5
X111.89Y-110.895
X114.05Y-96.96
X114.05Y-99.5
X114.43Y-110.895
X116.59Y-96.96
X116.59Y-99.5
X116.97Y-110.895
X119.13Y-96.96
X119.13Y-99.5
X119.51Y-110.895
X121.67Y-96.96
X121.67Y-99.5
X122.05Y-110.895
X124.21Y-96.96
X124.21Y-99.5
X124.59Y-110.895
X126.75Y-96.96
X126.75Y-99.5
X127.13Y-110.895
X129.29Y-96.96
X129.29Y-99.5
X131.83Y-96.96
X131.83Y-99.5
X134.37Y-96.96
X134.37Y-99.5
X136.91Y-96.96
X136.91Y-99.5
X139.45Y-96.96
X139.45Y-99.5
X141.99Y-96.96
X141.99Y-99.5
X144.53Y-96.96
X144.53Y-99.5
X147.07Y-96.96
X147.07Y-99.5
X149.61Y-96.96
X149.61Y-99.5
X152.15Y-96.96
X152.15Y-99.5
X154.69Y-96.96
X154.69Y-99.5
X157.23Y-96.96
X157.23Y-99.5
X161.955Y-75.525
X161.955Y-78.065
X161.955Y-80.605
X161.955Y-83.145
X161.955Y-85.685
X161.955Y-88.225
X161.955Y-90.765
X161.955Y-93.305
T3
X191.545Y-90.36G85X192.645Y-90.36
G05
X191.545Y-99.0G85X192.645Y-99.0
G05
X195.875Y-90.36G85X196.675Y-90.36
G05
X195.875Y-99.0G85X196.675Y-99.0
G05
M30
